<?xml version="1.0" encoding="utf-8" standalone="no"?>
<!DOCTYPE svg PUBLIC "-//W3C//DTD SVG 1.1//EN"
  "http://www.w3.org/Graphics/SVG/1.1/DTD/svg11.dtd">
<svg xmlns:xlink="http://www.w3.org/1999/xlink" width="576pt" height="432pt" viewBox="0 0 576 432" xmlns="http://www.w3.org/2000/svg" version="1.1">
 <metadata>
  <rdf:RDF xmlns:dc="http://purl.org/dc/elements/1.1/" xmlns:cc="http://creativecommons.org/ns#" xmlns:rdf="http://www.w3.org/1999/02/22-rdf-syntax-ns#">
   <cc:Work>
    <dc:type rdf:resource="http://purl.org/dc/dcmitype/StillImage"/>
    <dc:date>2025-08-19T17:48:57.483597</dc:date>
    <dc:format>image/svg+xml</dc:format>
    <dc:creator>
     <cc:Agent>
      <dc:title>Matplotlib v3.9.4, https://matplotlib.org/</dc:title>
     </cc:Agent>
    </dc:creator>
   </cc:Work>
  </rdf:RDF>
 </metadata>
 <defs>
  <style type="text/css">*{stroke-linejoin: round; stroke-linecap: butt}</style>
 </defs>
 <g id="figure_1">
  <g id="patch_1">
   <path d="M 0 432 
L 576 432 
L 576 0 
L 0 0 
z
" style="fill: #ffffff"/>
  </g>
  <g id="axes_1">
   <g id="patch_2">
    <path d="M 90.65 348.5275 
L 549.777415 348.5275 
L 549.777415 53.28 
L 90.65 53.28 
z
" style="fill: #ffffff"/>
   </g>
   <g id="PolyCollection_1">
    <defs>
     <path id="m615eef1b93" d="M 432.447206 -84.013028 
L 432.447206 -83.4725 
L 432.931934 -83.4725 
L 433.416661 -83.4725 
L 433.901389 -83.4725 
L 434.386116 -83.4725 
L 434.870844 -83.4725 
L 435.355571 -83.4725 
L 435.840299 -83.4725 
L 436.325027 -83.4725 
L 436.809754 -83.4725 
L 437.294482 -83.4725 
L 437.779209 -83.4725 
L 438.263937 -83.4725 
L 438.748664 -83.4725 
L 439.233392 -83.4725 
L 439.718119 -83.4725 
L 440.202847 -83.4725 
L 440.687574 -83.4725 
L 441.172302 -83.4725 
L 441.65703 -83.4725 
L 442.141757 -83.4725 
L 442.626485 -83.4725 
L 443.111212 -83.4725 
L 443.59594 -83.4725 
L 444.080667 -83.4725 
L 444.565395 -83.4725 
L 445.050122 -83.4725 
L 445.53485 -83.4725 
L 446.019577 -83.4725 
L 446.504305 -83.4725 
L 446.989032 -83.4725 
L 447.47376 -83.4725 
L 447.958488 -83.4725 
L 448.443215 -83.4725 
L 448.927943 -83.4725 
L 449.41267 -83.4725 
L 449.897398 -83.4725 
L 450.382125 -83.4725 
L 450.866853 -83.4725 
L 451.35158 -83.4725 
L 451.836308 -83.4725 
L 452.321035 -83.4725 
L 452.805763 -83.4725 
L 453.29049 -83.4725 
L 453.775218 -83.4725 
L 454.259946 -83.4725 
L 454.744673 -83.4725 
L 455.229401 -83.4725 
L 455.714128 -83.4725 
L 456.198856 -83.4725 
L 456.683583 -83.4725 
L 457.168311 -83.4725 
L 457.653038 -83.4725 
L 458.137766 -83.4725 
L 458.622493 -83.4725 
L 459.107221 -83.4725 
L 459.591949 -83.4725 
L 460.076676 -83.4725 
L 460.561404 -83.4725 
L 461.046131 -83.4725 
L 461.530859 -83.4725 
L 462.015586 -83.4725 
L 462.500314 -83.4725 
L 462.985041 -83.4725 
L 463.469769 -83.4725 
L 463.954496 -83.4725 
L 464.439224 -83.4725 
L 464.923951 -83.4725 
L 465.408679 -83.4725 
L 465.893407 -83.4725 
L 466.378134 -83.4725 
L 466.862862 -83.4725 
L 467.347589 -83.4725 
L 467.832317 -83.4725 
L 468.317044 -83.4725 
L 468.801772 -83.4725 
L 469.286499 -83.4725 
L 469.771227 -83.4725 
L 470.255954 -83.4725 
L 470.740682 -83.4725 
L 471.225409 -83.4725 
L 471.710137 -83.4725 
L 472.194865 -83.4725 
L 472.679592 -83.4725 
L 473.16432 -83.4725 
L 473.649047 -83.4725 
L 474.133775 -83.4725 
L 474.618502 -83.4725 
L 475.10323 -83.4725 
L 475.587957 -83.4725 
L 476.072685 -83.4725 
L 476.557412 -83.4725 
L 477.04214 -83.4725 
L 477.526867 -83.4725 
L 478.011595 -83.4725 
L 478.496323 -83.4725 
L 478.98105 -83.4725 
L 479.465778 -83.4725 
L 479.950505 -83.4725 
L 480.435233 -83.4725 
L 480.91996 -83.4725 
L 481.404688 -83.4725 
L 481.889415 -83.4725 
L 482.374143 -83.4725 
L 482.85887 -83.4725 
L 483.343598 -83.4725 
L 483.828326 -83.4725 
L 484.313053 -83.4725 
L 484.797781 -83.4725 
L 485.282508 -83.4725 
L 485.767236 -83.4725 
L 486.251963 -83.4725 
L 486.736691 -83.4725 
L 487.221418 -83.4725 
L 487.706146 -83.4725 
L 488.190873 -83.4725 
L 488.675601 -83.4725 
L 489.160328 -83.4725 
L 489.645056 -83.4725 
L 490.129784 -83.4725 
L 490.614511 -83.4725 
L 491.099239 -83.4725 
L 491.583966 -83.4725 
L 492.068694 -83.4725 
L 492.553421 -83.4725 
L 493.038149 -83.4725 
L 493.522876 -83.4725 
L 494.007604 -83.4725 
L 494.492331 -83.4725 
L 494.977059 -83.4725 
L 495.461786 -83.4725 
L 495.946514 -83.4725 
L 496.431242 -83.4725 
L 496.915969 -83.4725 
L 497.400697 -83.4725 
L 497.885424 -83.4725 
L 498.370152 -83.4725 
L 498.854879 -83.4725 
L 499.339607 -83.4725 
L 499.824334 -83.4725 
L 500.309062 -83.4725 
L 500.793789 -83.4725 
L 501.278517 -83.4725 
L 501.763244 -83.4725 
L 502.247972 -83.4725 
L 502.7327 -83.4725 
L 503.217427 -83.4725 
L 503.702155 -83.4725 
L 504.186882 -83.4725 
L 504.67161 -83.4725 
L 505.156337 -83.4725 
L 505.641065 -83.4725 
L 506.125792 -83.4725 
L 506.61052 -83.4725 
L 507.095247 -83.4725 
L 507.579975 -83.4725 
L 508.064703 -83.4725 
L 508.54943 -83.4725 
L 509.034158 -83.4725 
L 509.518885 -83.4725 
L 510.003613 -83.4725 
L 510.48834 -83.4725 
L 510.973068 -83.4725 
L 511.457795 -83.4725 
L 511.942523 -83.4725 
L 512.42725 -83.4725 
L 512.911978 -83.4725 
L 513.396705 -83.4725 
L 513.881433 -83.4725 
L 514.366161 -83.4725 
L 514.850888 -83.4725 
L 515.335616 -83.4725 
L 515.820343 -83.4725 
L 516.305071 -83.4725 
L 516.789798 -83.4725 
L 517.274526 -83.4725 
L 517.759253 -83.4725 
L 518.243981 -83.4725 
L 518.728708 -83.4725 
L 519.213436 -83.4725 
L 519.698163 -83.4725 
L 520.182891 -83.4725 
L 520.667619 -83.4725 
L 521.152346 -83.4725 
L 521.637074 -83.4725 
L 522.121801 -83.4725 
L 522.606529 -83.4725 
L 523.091256 -83.4725 
L 523.575984 -83.4725 
L 524.060711 -83.4725 
L 524.545439 -83.4725 
L 525.030166 -83.4725 
L 525.514894 -83.4725 
L 525.999621 -83.4725 
L 526.484349 -83.4725 
L 526.969077 -83.4725 
L 527.453804 -83.4725 
L 527.938532 -83.4725 
L 528.423259 -83.4725 
L 528.907987 -83.4725 
L 528.907987 -84.079007 
L 528.907987 -84.079007 
L 528.423259 -84.194031 
L 527.938532 -84.328195 
L 527.453804 -84.484148 
L 526.969077 -84.664806 
L 526.484349 -84.873361 
L 525.999621 -85.113293 
L 525.514894 -85.388366 
L 525.030166 -85.702634 
L 524.545439 -86.060433 
L 524.060711 -86.466372 
L 523.575984 -86.925315 
L 523.091256 -87.44236 
L 522.606529 -88.02281 
L 522.121801 -88.672134 
L 521.637074 -89.395923 
L 521.152346 -90.199834 
L 520.667619 -91.089535 
L 520.182891 -92.070632 
L 519.698163 -93.148591 
L 519.213436 -94.328661 
L 518.728708 -95.615776 
L 518.243981 -97.014469 
L 517.759253 -98.528766 
L 517.274526 -100.162094 
L 516.789798 -101.917171 
L 516.305071 -103.795916 
L 515.820343 -105.799348 
L 515.335616 -107.927499 
L 514.850888 -110.179338 
L 514.366161 -112.552696 
L 513.881433 -115.04422 
L 513.396705 -117.649329 
L 512.911978 -120.362202 
L 512.42725 -123.175776 
L 511.942523 -126.081777 
L 511.457795 -129.07077 
L 510.973068 -132.132234 
L 510.48834 -135.254671 
L 510.003613 -138.425734 
L 509.518885 -141.632387 
L 509.034158 -144.861086 
L 508.54943 -148.097984 
L 508.064703 -151.32916 
L 507.579975 -154.540863 
L 507.095247 -157.71977 
L 506.61052 -160.853252 
L 506.125792 -163.929645 
L 505.641065 -166.938524 
L 505.156337 -169.870961 
L 504.67161 -172.719776 
L 504.186882 -175.479768 
L 503.702155 -178.147914 
L 503.217427 -180.723546 
L 502.7327 -183.20848 
L 502.247972 -185.607111 
L 501.763244 -187.926452 
L 501.278517 -190.176125 
L 500.793789 -192.368305 
L 500.309062 -194.517592 
L 499.824334 -196.640843 
L 499.339607 -198.756937 
L 498.854879 -200.88649 
L 498.370152 -203.051519 
L 497.885424 -205.27506 
L 497.400697 -207.580747 
L 496.915969 -209.992351 
L 496.431242 -212.533308 
L 495.946514 -215.226214 
L 495.461786 -218.092328 
L 494.977059 -221.151071 
L 494.492331 -224.419544 
L 494.007604 -227.912072 
L 493.522876 -231.639779 
L 493.038149 -235.610217 
L 492.553421 -239.827047 
L 492.068694 -244.289781 
L 491.583966 -248.993602 
L 491.099239 -253.929257 
L 490.614511 -259.083027 
L 490.129784 -264.436789 
L 489.645056 -269.968157 
L 489.160328 -275.650699 
L 488.675601 -281.454246 
L 488.190873 -287.345259 
L 487.706146 -293.287277 
L 487.221418 -299.241409 
L 486.736691 -305.166883 
L 486.251963 -311.021629 
L 485.767236 -316.762883 
L 485.282508 -322.347808 
L 484.797781 -327.734109 
L 484.313053 -332.880642 
L 483.828326 -337.747985 
L 483.343598 -342.29899 
L 482.85887 -346.499268 
L 482.374143 -350.317635 
L 481.889415 -353.726483 
L 481.404688 -356.702084 
L 480.91996 -359.224826 
L 480.435233 -361.279367 
L 479.950505 -362.854716 
L 479.465778 -363.944238 
L 478.98105 -364.545592 
L 478.496323 -364.660595 
L 478.011595 -364.295034 
L 477.526867 -363.45842 
L 477.04214 -362.163694 
L 476.557412 -360.426905 
L 476.072685 -358.266848 
L 475.587957 -355.704695 
L 475.10323 -352.763604 
L 474.618502 -349.468334 
L 474.133775 -345.844857 
L 473.649047 -341.919993 
L 473.16432 -337.721051 
L 472.679592 -333.275497 
L 472.194865 -328.610649 
L 471.710137 -323.753404 
L 471.225409 -318.729986 
L 470.740682 -313.565739 
L 470.255954 -308.284938 
L 469.771227 -302.910647 
L 469.286499 -297.464592 
L 468.801772 -291.967076 
L 468.317044 -286.436908 
L 467.832317 -280.89137 
L 467.347589 -275.346197 
L 466.862862 -269.815577 
L 466.378134 -264.31218 
L 465.893407 -258.847186 
L 465.408679 -253.430343 
L 464.923951 -248.070024 
L 464.439224 -242.773308 
L 463.954496 -237.546056 
L 463.469769 -232.393004 
L 462.985041 -227.317864 
L 462.500314 -222.323418 
L 462.015586 -217.411631 
L 461.530859 -212.583758 
L 461.046131 -207.840449 
L 460.561404 -203.18187 
L 460.076676 -198.607798 
L 459.591949 -194.11774 
L 459.107221 -189.711025 
L 458.622493 -185.386905 
L 458.137766 -181.144639 
L 457.653038 -176.983579 
L 457.168311 -172.903233 
L 456.683583 -168.903326 
L 456.198856 -164.983849 
L 455.714128 -161.145088 
L 455.229401 -157.387651 
L 454.744673 -153.712469 
L 454.259946 -150.120796 
L 453.775218 -146.614189 
L 453.29049 -143.19448 
L 452.805763 -139.863739 
L 452.321035 -136.624222 
L 451.836308 -133.478318 
L 451.35158 -130.428491 
L 450.866853 -127.47721 
L 450.382125 -124.626888 
L 449.897398 -121.879815 
L 449.41267 -119.238091 
L 448.927943 -116.703571 
L 448.443215 -114.277807 
L 447.958488 -111.961999 
L 447.47376 -109.756954 
L 446.989032 -107.663058 
L 446.504305 -105.680246 
L 446.019577 -103.807993 
L 445.53485 -102.045305 
L 445.050122 -100.390727 
L 444.565395 -98.842351 
L 444.080667 -97.397841 
L 443.59594 -96.054456 
L 443.111212 -94.809087 
L 442.626485 -93.658293 
L 442.141757 -92.598344 
L 441.65703 -91.625267 
L 441.172302 -90.734892 
L 440.687574 -89.922898 
L 440.202847 -89.184863 
L 439.718119 -88.516306 
L 439.233392 -87.912731 
L 438.748664 -87.369672 
L 438.263937 -86.882723 
L 437.779209 -86.447577 
L 437.294482 -86.060054 
L 436.809754 -85.716126 
L 436.325027 -85.411935 
L 435.840299 -85.143818 
L 435.355571 -84.908309 
L 434.870844 -84.702156 
L 434.386116 -84.522322 
L 433.901389 -84.365988 
L 433.416661 -84.230552 
L 432.931934 -84.113626 
L 432.447206 -84.013028 
z
" style="stroke: #87ceeb"/>
    </defs>
    <g clip-path="url(#p7e807655e3)">
     <use xlink:href="#m615eef1b93" x="0" y="432" style="fill: #87ceeb; fill-opacity: 0.25; stroke: #87ceeb"/>
    </g>
   </g>
   <g id="PolyCollection_2">
    <defs>
     <path id="mac34f9aca9" d="M 111.519428 -83.896441 
L 111.519428 -83.4725 
L 112.171192 -83.4725 
L 112.822956 -83.4725 
L 113.47472 -83.4725 
L 114.126484 -83.4725 
L 114.778248 -83.4725 
L 115.430012 -83.4725 
L 116.081775 -83.4725 
L 116.733539 -83.4725 
L 117.385303 -83.4725 
L 118.037067 -83.4725 
L 118.688831 -83.4725 
L 119.340595 -83.4725 
L 119.992359 -83.4725 
L 120.644123 -83.4725 
L 121.295887 -83.4725 
L 121.947651 -83.4725 
L 122.599415 -83.4725 
L 123.251179 -83.4725 
L 123.902943 -83.4725 
L 124.554706 -83.4725 
L 125.20647 -83.4725 
L 125.858234 -83.4725 
L 126.509998 -83.4725 
L 127.161762 -83.4725 
L 127.813526 -83.4725 
L 128.46529 -83.4725 
L 129.117054 -83.4725 
L 129.768818 -83.4725 
L 130.420582 -83.4725 
L 131.072346 -83.4725 
L 131.72411 -83.4725 
L 132.375874 -83.4725 
L 133.027638 -83.4725 
L 133.679401 -83.4725 
L 134.331165 -83.4725 
L 134.982929 -83.4725 
L 135.634693 -83.4725 
L 136.286457 -83.4725 
L 136.938221 -83.4725 
L 137.589985 -83.4725 
L 138.241749 -83.4725 
L 138.893513 -83.4725 
L 139.545277 -83.4725 
L 140.197041 -83.4725 
L 140.848805 -83.4725 
L 141.500569 -83.4725 
L 142.152333 -83.4725 
L 142.804096 -83.4725 
L 143.45586 -83.4725 
L 144.107624 -83.4725 
L 144.759388 -83.4725 
L 145.411152 -83.4725 
L 146.062916 -83.4725 
L 146.71468 -83.4725 
L 147.366444 -83.4725 
L 148.018208 -83.4725 
L 148.669972 -83.4725 
L 149.321736 -83.4725 
L 149.9735 -83.4725 
L 150.625264 -83.4725 
L 151.277027 -83.4725 
L 151.928791 -83.4725 
L 152.580555 -83.4725 
L 153.232319 -83.4725 
L 153.884083 -83.4725 
L 154.535847 -83.4725 
L 155.187611 -83.4725 
L 155.839375 -83.4725 
L 156.491139 -83.4725 
L 157.142903 -83.4725 
L 157.794667 -83.4725 
L 158.446431 -83.4725 
L 159.098195 -83.4725 
L 159.749959 -83.4725 
L 160.401722 -83.4725 
L 161.053486 -83.4725 
L 161.70525 -83.4725 
L 162.357014 -83.4725 
L 163.008778 -83.4725 
L 163.660542 -83.4725 
L 164.312306 -83.4725 
L 164.96407 -83.4725 
L 165.615834 -83.4725 
L 166.267598 -83.4725 
L 166.919362 -83.4725 
L 167.571126 -83.4725 
L 168.22289 -83.4725 
L 168.874654 -83.4725 
L 169.526417 -83.4725 
L 170.178181 -83.4725 
L 170.829945 -83.4725 
L 171.481709 -83.4725 
L 172.133473 -83.4725 
L 172.785237 -83.4725 
L 173.437001 -83.4725 
L 174.088765 -83.4725 
L 174.740529 -83.4725 
L 175.392293 -83.4725 
L 176.044057 -83.4725 
L 176.695821 -83.4725 
L 177.347585 -83.4725 
L 177.999349 -83.4725 
L 178.651112 -83.4725 
L 179.302876 -83.4725 
L 179.95464 -83.4725 
L 180.606404 -83.4725 
L 181.258168 -83.4725 
L 181.909932 -83.4725 
L 182.561696 -83.4725 
L 183.21346 -83.4725 
L 183.865224 -83.4725 
L 184.516988 -83.4725 
L 185.168752 -83.4725 
L 185.820516 -83.4725 
L 186.47228 -83.4725 
L 187.124043 -83.4725 
L 187.775807 -83.4725 
L 188.427571 -83.4725 
L 189.079335 -83.4725 
L 189.731099 -83.4725 
L 190.382863 -83.4725 
L 191.034627 -83.4725 
L 191.686391 -83.4725 
L 192.338155 -83.4725 
L 192.989919 -83.4725 
L 193.641683 -83.4725 
L 194.293447 -83.4725 
L 194.945211 -83.4725 
L 195.596975 -83.4725 
L 196.248738 -83.4725 
L 196.900502 -83.4725 
L 197.552266 -83.4725 
L 198.20403 -83.4725 
L 198.855794 -83.4725 
L 199.507558 -83.4725 
L 200.159322 -83.4725 
L 200.811086 -83.4725 
L 201.46285 -83.4725 
L 202.114614 -83.4725 
L 202.766378 -83.4725 
L 203.418142 -83.4725 
L 204.069906 -83.4725 
L 204.72167 -83.4725 
L 205.373433 -83.4725 
L 206.025197 -83.4725 
L 206.676961 -83.4725 
L 207.328725 -83.4725 
L 207.980489 -83.4725 
L 208.632253 -83.4725 
L 209.284017 -83.4725 
L 209.935781 -83.4725 
L 210.587545 -83.4725 
L 211.239309 -83.4725 
L 211.891073 -83.4725 
L 212.542837 -83.4725 
L 213.194601 -83.4725 
L 213.846365 -83.4725 
L 214.498128 -83.4725 
L 215.149892 -83.4725 
L 215.801656 -83.4725 
L 216.45342 -83.4725 
L 217.105184 -83.4725 
L 217.756948 -83.4725 
L 218.408712 -83.4725 
L 219.060476 -83.4725 
L 219.71224 -83.4725 
L 220.364004 -83.4725 
L 221.015768 -83.4725 
L 221.667532 -83.4725 
L 222.319296 -83.4725 
L 222.971059 -83.4725 
L 223.622823 -83.4725 
L 224.274587 -83.4725 
L 224.926351 -83.4725 
L 225.578115 -83.4725 
L 226.229879 -83.4725 
L 226.881643 -83.4725 
L 227.533407 -83.4725 
L 228.185171 -83.4725 
L 228.836935 -83.4725 
L 229.488699 -83.4725 
L 230.140463 -83.4725 
L 230.792227 -83.4725 
L 231.443991 -83.4725 
L 232.095754 -83.4725 
L 232.747518 -83.4725 
L 233.399282 -83.4725 
L 234.051046 -83.4725 
L 234.70281 -83.4725 
L 235.354574 -83.4725 
L 236.006338 -83.4725 
L 236.658102 -83.4725 
L 237.309866 -83.4725 
L 237.96163 -83.4725 
L 238.613394 -83.4725 
L 239.265158 -83.4725 
L 239.916922 -83.4725 
L 240.568686 -83.4725 
L 241.220449 -83.4725 
L 241.220449 -83.888766 
L 241.220449 -83.888766 
L 240.568686 -83.970035 
L 239.916922 -84.06503 
L 239.265158 -84.175622 
L 238.613394 -84.303854 
L 237.96163 -84.451934 
L 237.309866 -84.622238 
L 236.658102 -84.817298 
L 236.006338 -85.039792 
L 235.354574 -85.292523 
L 234.70281 -85.578405 
L 234.051046 -85.900424 
L 233.399282 -86.261615 
L 232.747518 -86.665013 
L 232.095754 -87.113611 
L 231.443991 -87.61031 
L 230.792227 -88.157857 
L 230.140463 -88.758785 
L 229.488699 -89.415346 
L 228.836935 -90.129443 
L 228.185171 -90.902555 
L 227.533407 -91.735666 
L 226.881643 -92.629197 
L 226.229879 -93.582934 
L 225.578115 -94.595967 
L 224.926351 -95.666631 
L 224.274587 -96.792463 
L 223.622823 -97.970162 
L 222.971059 -99.195567 
L 222.319296 -100.463651 
L 221.667532 -101.768525 
L 221.015768 -103.103466 
L 220.364004 -104.460963 
L 219.71224 -105.832781 
L 219.060476 -107.210044 
L 218.408712 -108.58334 
L 217.756948 -109.942844 
L 217.105184 -111.278456 
L 216.45342 -112.579958 
L 215.801656 -113.83718 
L 215.149892 -115.040182 
L 214.498128 -116.179437 
L 213.846365 -117.246022 
L 213.194601 -118.231807 
L 212.542837 -119.129641 
L 211.891073 -119.933528 
L 211.239309 -120.638795 
L 210.587545 -121.242239 
L 209.935781 -121.742259 
L 209.284017 -122.138961 
L 208.632253 -122.434246 
L 207.980489 -122.631861 
L 207.328725 -122.737426 
L 206.676961 -122.75843 
L 206.025197 -122.704198 
L 205.373433 -122.585825 
L 204.72167 -122.416082 
L 204.069906 -122.209297 
L 203.418142 -121.981203 
L 202.766378 -121.748774 
L 202.114614 -121.530031 
L 201.46285 -121.343837 
L 200.811086 -121.209677 
L 200.159322 -121.147434 
L 199.507558 -121.177153 
L 198.855794 -121.318808 
L 198.20403 -121.592074 
L 197.552266 -122.016104 
L 196.900502 -122.609313 
L 196.248738 -123.389183 
L 195.596975 -124.372074 
L 194.945211 -125.573066 
L 194.293447 -127.005807 
L 193.641683 -128.682396 
L 192.989919 -130.613279 
L 192.338155 -132.807169 
L 191.686391 -135.270991 
L 191.034627 -138.00985 
L 190.382863 -141.027005 
L 189.731099 -144.323885 
L 189.079335 -147.900093 
L 188.427571 -151.753449 
L 187.775807 -155.880023 
L 187.124043 -160.274188 
L 186.47228 -164.928673 
L 185.820516 -169.834616 
L 185.168752 -174.981623 
L 184.516988 -180.357809 
L 183.865224 -185.949852 
L 183.21346 -191.743025 
L 182.561696 -197.721223 
L 181.909932 -203.866989 
L 181.258168 -210.161522 
L 180.606404 -216.584683 
L 179.95464 -223.114995 
L 179.302876 -229.729644 
L 178.651112 -236.404475 
L 177.999349 -243.113998 
L 177.347585 -249.831403 
L 176.695821 -256.528587 
L 176.044057 -263.176203 
L 175.392293 -269.743732 
L 174.740529 -276.199578 
L 174.088765 -282.511204 
L 173.437001 -288.645297 
L 172.785237 -294.567971 
L 172.133473 -300.245007 
L 171.481709 -305.642129 
L 170.829945 -310.725324 
L 170.178181 -315.461184 
L 169.526417 -319.817276 
L 168.874654 -323.762545 
L 168.22289 -327.267716 
L 167.571126 -330.30571 
L 166.919362 -332.852057 
L 166.267598 -334.885287 
L 165.615834 -336.387308 
L 164.96407 -337.343739 
L 164.312306 -337.744207 
L 163.660542 -337.582586 
L 163.008778 -336.857175 
L 162.357014 -335.570812 
L 161.70525 -333.730911 
L 161.053486 -331.349424 
L 160.401722 -328.442725 
L 159.749959 -325.031426 
L 159.098195 -321.140104 
L 158.446431 -316.796977 
L 157.794667 -312.033506 
L 157.142903 -306.883956 
L 156.491139 -301.3849 
L 155.839375 -295.57471 
L 155.187611 -289.49301 
L 154.535847 -283.180139 
L 153.884083 -276.676604 
L 153.232319 -270.022561 
L 152.580555 -263.257318 
L 151.928791 -256.418879 
L 151.277027 -249.543535 
L 150.625264 -242.665503 
L 149.9735 -235.816631 
L 149.321736 -229.026166 
L 148.669972 -222.320576 
L 148.018208 -215.72345 
L 147.366444 -209.25545 
L 146.71468 -202.934324 
L 146.062916 -196.774974 
L 145.411152 -190.789571 
L 144.759388 -184.987708 
L 144.107624 -179.376588 
L 143.45586 -173.961239 
L 142.804096 -168.74474 
L 142.152333 -163.72846 
L 141.500569 -158.9123 
L 140.848805 -154.29493 
L 140.197041 -149.874008 
L 139.545277 -145.6464 
L 138.893513 -141.60836 
L 138.241749 -137.755708 
L 137.589985 -134.08397 
L 136.938221 -130.588498 
L 136.286457 -127.264571 
L 135.634693 -124.107461 
L 134.982929 -121.112492 
L 134.331165 -118.275064 
L 133.679401 -115.590674 
L 133.027638 -113.054911 
L 132.375874 -110.663451 
L 131.72411 -108.412035 
L 131.072346 -106.296446 
L 130.420582 -104.312483 
L 129.768818 -102.455935 
L 129.117054 -100.722557 
L 128.46529 -99.108046 
L 127.813526 -97.608027 
L 127.161762 -96.218042 
L 126.509998 -94.933544 
L 125.858234 -93.749898 
L 125.20647 -92.662387 
L 124.554706 -91.666226 
L 123.902943 -90.75658 
L 123.251179 -89.928578 
L 122.599415 -89.177348 
L 121.947651 -88.498031 
L 121.295887 -87.885819 
L 120.644123 -87.335974 
L 119.992359 -86.843858 
L 119.340595 -86.40496 
L 118.688831 -86.014917 
L 118.037067 -85.669535 
L 117.385303 -85.364805 
L 116.733539 -85.096924 
L 116.081775 -84.8623 
L 115.430012 -84.657561 
L 114.778248 -84.479563 
L 114.126484 -84.325389 
L 113.47472 -84.192349 
L 112.822956 -84.077976 
L 112.171192 -83.980021 
L 111.519428 -83.896441 
z
" style="stroke: #fa8072"/>
    </defs>
    <g clip-path="url(#p7e807655e3)">
     <use xlink:href="#mac34f9aca9" x="0" y="432" style="fill: #fa8072; fill-opacity: 0.25; stroke: #fa8072"/>
    </g>
   </g>
   <g id="PolyCollection_3">
    <defs>
     <path id="mf9e70909be" d="M 122.966229 -83.620194 
L 122.966229 -83.4725 
L 124.8991 -83.4725 
L 126.83197 -83.4725 
L 128.764841 -83.4725 
L 130.697711 -83.4725 
L 132.630581 -83.4725 
L 134.563452 -83.4725 
L 136.496322 -83.4725 
L 138.429193 -83.4725 
L 140.362063 -83.4725 
L 142.294933 -83.4725 
L 144.227804 -83.4725 
L 146.160674 -83.4725 
L 148.093544 -83.4725 
L 150.026415 -83.4725 
L 151.959285 -83.4725 
L 153.892156 -83.4725 
L 155.825026 -83.4725 
L 157.757896 -83.4725 
L 159.690767 -83.4725 
L 161.623637 -83.4725 
L 163.556508 -83.4725 
L 165.489378 -83.4725 
L 167.422248 -83.4725 
L 169.355119 -83.4725 
L 171.287989 -83.4725 
L 173.22086 -83.4725 
L 175.15373 -83.4725 
L 177.0866 -83.4725 
L 179.019471 -83.4725 
L 180.952341 -83.4725 
L 182.885212 -83.4725 
L 184.818082 -83.4725 
L 186.750952 -83.4725 
L 188.683823 -83.4725 
L 190.616693 -83.4725 
L 192.549564 -83.4725 
L 194.482434 -83.4725 
L 196.415304 -83.4725 
L 198.348175 -83.4725 
L 200.281045 -83.4725 
L 202.213916 -83.4725 
L 204.146786 -83.4725 
L 206.079656 -83.4725 
L 208.012527 -83.4725 
L 209.945397 -83.4725 
L 211.878268 -83.4725 
L 213.811138 -83.4725 
L 215.744008 -83.4725 
L 217.676879 -83.4725 
L 219.609749 -83.4725 
L 221.54262 -83.4725 
L 223.47549 -83.4725 
L 225.40836 -83.4725 
L 227.341231 -83.4725 
L 229.274101 -83.4725 
L 231.206971 -83.4725 
L 233.139842 -83.4725 
L 235.072712 -83.4725 
L 237.005583 -83.4725 
L 238.938453 -83.4725 
L 240.871323 -83.4725 
L 242.804194 -83.4725 
L 244.737064 -83.4725 
L 246.669935 -83.4725 
L 248.602805 -83.4725 
L 250.535675 -83.4725 
L 252.468546 -83.4725 
L 254.401416 -83.4725 
L 256.334287 -83.4725 
L 258.267157 -83.4725 
L 260.200027 -83.4725 
L 262.132898 -83.4725 
L 264.065768 -83.4725 
L 265.998639 -83.4725 
L 267.931509 -83.4725 
L 269.864379 -83.4725 
L 271.79725 -83.4725 
L 273.73012 -83.4725 
L 275.662991 -83.4725 
L 277.595861 -83.4725 
L 279.528731 -83.4725 
L 281.461602 -83.4725 
L 283.394472 -83.4725 
L 285.327343 -83.4725 
L 287.260213 -83.4725 
L 289.193083 -83.4725 
L 291.125954 -83.4725 
L 293.058824 -83.4725 
L 294.991695 -83.4725 
L 296.924565 -83.4725 
L 298.857435 -83.4725 
L 300.790306 -83.4725 
L 302.723176 -83.4725 
L 304.656047 -83.4725 
L 306.588917 -83.4725 
L 308.521787 -83.4725 
L 310.454658 -83.4725 
L 312.387528 -83.4725 
L 314.320398 -83.4725 
L 316.253269 -83.4725 
L 318.186139 -83.4725 
L 320.11901 -83.4725 
L 322.05188 -83.4725 
L 323.98475 -83.4725 
L 325.917621 -83.4725 
L 327.850491 -83.4725 
L 329.783362 -83.4725 
L 331.716232 -83.4725 
L 333.649102 -83.4725 
L 335.581973 -83.4725 
L 337.514843 -83.4725 
L 339.447714 -83.4725 
L 341.380584 -83.4725 
L 343.313454 -83.4725 
L 345.246325 -83.4725 
L 347.179195 -83.4725 
L 349.112066 -83.4725 
L 351.044936 -83.4725 
L 352.977806 -83.4725 
L 354.910677 -83.4725 
L 356.843547 -83.4725 
L 358.776418 -83.4725 
L 360.709288 -83.4725 
L 362.642158 -83.4725 
L 364.575029 -83.4725 
L 366.507899 -83.4725 
L 368.44077 -83.4725 
L 370.37364 -83.4725 
L 372.30651 -83.4725 
L 374.239381 -83.4725 
L 376.172251 -83.4725 
L 378.105122 -83.4725 
L 380.037992 -83.4725 
L 381.970862 -83.4725 
L 383.903733 -83.4725 
L 385.836603 -83.4725 
L 387.769473 -83.4725 
L 389.702344 -83.4725 
L 391.635214 -83.4725 
L 393.568085 -83.4725 
L 395.500955 -83.4725 
L 397.433825 -83.4725 
L 399.366696 -83.4725 
L 401.299566 -83.4725 
L 403.232437 -83.4725 
L 405.165307 -83.4725 
L 407.098177 -83.4725 
L 409.031048 -83.4725 
L 410.963918 -83.4725 
L 412.896789 -83.4725 
L 414.829659 -83.4725 
L 416.762529 -83.4725 
L 418.6954 -83.4725 
L 420.62827 -83.4725 
L 422.561141 -83.4725 
L 424.494011 -83.4725 
L 426.426881 -83.4725 
L 428.359752 -83.4725 
L 430.292622 -83.4725 
L 432.225493 -83.4725 
L 434.158363 -83.4725 
L 436.091233 -83.4725 
L 438.024104 -83.4725 
L 439.956974 -83.4725 
L 441.889845 -83.4725 
L 443.822715 -83.4725 
L 445.755585 -83.4725 
L 447.688456 -83.4725 
L 449.621326 -83.4725 
L 451.554197 -83.4725 
L 453.487067 -83.4725 
L 455.419937 -83.4725 
L 457.352808 -83.4725 
L 459.285678 -83.4725 
L 461.218549 -83.4725 
L 463.151419 -83.4725 
L 465.084289 -83.4725 
L 467.01716 -83.4725 
L 468.95003 -83.4725 
L 470.8829 -83.4725 
L 472.815771 -83.4725 
L 474.748641 -83.4725 
L 476.681512 -83.4725 
L 478.614382 -83.4725 
L 480.547252 -83.4725 
L 482.480123 -83.4725 
L 484.412993 -83.4725 
L 486.345864 -83.4725 
L 488.278734 -83.4725 
L 490.211604 -83.4725 
L 492.144475 -83.4725 
L 494.077345 -83.4725 
L 496.010216 -83.4725 
L 497.943086 -83.4725 
L 499.875956 -83.4725 
L 501.808827 -83.4725 
L 503.741697 -83.4725 
L 505.674568 -83.4725 
L 507.607438 -83.4725 
L 507.607438 -83.620533 
L 507.607438 -83.620533 
L 505.674568 -83.647531 
L 503.741697 -83.678855 
L 501.808827 -83.71508 
L 499.875956 -83.756842 
L 497.943086 -83.804832 
L 496.010216 -83.859803 
L 494.077345 -83.922568 
L 492.144475 -83.994002 
L 490.211604 -84.075039 
L 488.278734 -84.166673 
L 486.345864 -84.269955 
L 484.412993 -84.385985 
L 482.480123 -84.515911 
L 480.547252 -84.660921 
L 478.614382 -84.822233 
L 476.681512 -85.001087 
L 474.748641 -85.198733 
L 472.815771 -85.416418 
L 470.8829 -85.655372 
L 468.95003 -85.916789 
L 467.01716 -86.201814 
L 465.084289 -86.511523 
L 463.151419 -86.846904 
L 461.218549 -87.208833 
L 459.285678 -87.598062 
L 457.352808 -88.015189 
L 455.419937 -88.460646 
L 453.487067 -88.934674 
L 451.554197 -89.437309 
L 449.621326 -89.968362 
L 447.688456 -90.527407 
L 445.755585 -91.11377 
L 443.822715 -91.726517 
L 441.889845 -92.364452 
L 439.956974 -93.026113 
L 438.024104 -93.709777 
L 436.091233 -94.413464 
L 434.158363 -95.134954 
L 432.225493 -95.871798 
L 430.292622 -96.621341 
L 428.359752 -97.380752 
L 426.426881 -98.147046 
L 424.494011 -98.917128 
L 422.561141 -99.687823 
L 420.62827 -100.455925 
L 418.6954 -101.218235 
L 416.762529 -101.97161 
L 414.829659 -102.71301 
L 412.896789 -103.439545 
L 410.963918 -104.148524 
L 409.031048 -104.837496 
L 407.098177 -105.504295 
L 405.165307 -106.147082 
L 403.232437 -106.764376 
L 401.299566 -107.355087 
L 399.366696 -107.918537 
L 397.433825 -108.454484 
L 395.500955 -108.963126 
L 393.568085 -109.445112 
L 391.635214 -109.901532 
L 389.702344 -110.333914 
L 387.769473 -110.744196 
L 385.836603 -111.134713 
L 383.903733 -111.508155 
L 381.970862 -111.867538 
L 380.037992 -112.216157 
L 378.105122 -112.557539 
L 376.172251 -112.895398 
L 374.239381 -113.233579 
L 372.30651 -113.576003 
L 370.37364 -113.926618 
L 368.44077 -114.289341 
L 366.507899 -114.668009 
L 364.575029 -115.066328 
L 362.642158 -115.487829 
L 360.709288 -115.935826 
L 358.776418 -116.413376 
L 356.843547 -116.923246 
L 354.910677 -117.467888 
L 352.977806 -118.049411 
L 351.044936 -118.669569 
L 349.112066 -119.329739 
L 347.179195 -120.030916 
L 345.246325 -120.773707 
L 343.313454 -121.558326 
L 341.380584 -122.384596 
L 339.447714 -123.251949 
L 337.514843 -124.159428 
L 335.581973 -125.105697 
L 333.649102 -126.089039 
L 331.716232 -127.107367 
L 329.783362 -128.158226 
L 327.850491 -129.238801 
L 325.917621 -130.345921 
L 323.98475 -131.476064 
L 322.05188 -132.625367 
L 320.11901 -133.789628 
L 318.186139 -134.964321 
L 316.253269 -136.144602 
L 314.320398 -137.325326 
L 312.387528 -138.501061 
L 310.454658 -139.666112 
L 308.521787 -140.814544 
L 306.588917 -141.940211 
L 304.656047 -143.036793 
L 302.723176 -144.097838 
L 300.790306 -145.116802 
L 298.857435 -146.087103 
L 296.924565 -147.002177 
L 294.991695 -147.855533 
L 293.058824 -148.640821 
L 291.125954 -149.35189 
L 289.193083 -149.982859 
L 287.260213 -150.528182 
L 285.327343 -150.98271 
L 283.394472 -151.341759 
L 281.461602 -151.601161 
L 279.528731 -151.757326 
L 277.595861 -151.807284 
L 275.662991 -151.748729 
L 273.73012 -151.580049 
L 271.79725 -151.300352 
L 269.864379 -150.909479 
L 267.931509 -150.408009 
L 265.998639 -149.797258 
L 264.065768 -149.079259 
L 262.132898 -148.256741 
L 260.200027 -147.333099 
L 258.267157 -146.312352 
L 256.334287 -145.199096 
L 254.401416 -143.998449 
L 252.468546 -142.715997 
L 250.535675 -141.357728 
L 248.602805 -139.929971 
L 246.669935 -138.439325 
L 244.737064 -136.892596 
L 242.804194 -135.296733 
L 240.871323 -133.658756 
L 238.938453 -131.985703 
L 237.005583 -130.284569 
L 235.072712 -128.562247 
L 233.139842 -126.825487 
L 231.206971 -125.080843 
L 229.274101 -123.334637 
L 227.341231 -121.592925 
L 225.40836 -119.861463 
L 223.47549 -118.145688 
L 221.54262 -116.450694 
L 219.609749 -114.781218 
L 217.676879 -113.141631 
L 215.744008 -111.535929 
L 213.811138 -109.967728 
L 211.878268 -108.440268 
L 209.945397 -106.956413 
L 208.012527 -105.518658 
L 206.079656 -104.129135 
L 204.146786 -102.789622 
L 202.213916 -101.501556 
L 200.281045 -100.266045 
L 198.348175 -99.083878 
L 196.415304 -97.955547 
L 194.482434 -96.881256 
L 192.549564 -95.860938 
L 190.616693 -94.894277 
L 188.683823 -93.98072 
L 186.750952 -93.119495 
L 184.818082 -92.309636 
L 182.885212 -91.549991 
L 180.952341 -90.839248 
L 179.019471 -90.175953 
L 177.0866 -89.558524 
L 175.15373 -88.985274 
L 173.22086 -88.454427 
L 171.287989 -87.964134 
L 169.355119 -87.512495 
L 167.422248 -87.097569 
L 165.489378 -86.717395 
L 163.556508 -86.370003 
L 161.623637 -86.053431 
L 159.690767 -85.765736 
L 157.757896 -85.505005 
L 155.825026 -85.269368 
L 153.892156 -85.057006 
L 151.959285 -84.866157 
L 150.026415 -84.695129 
L 148.093544 -84.542298 
L 146.160674 -84.40612 
L 144.227804 -84.285129 
L 142.294933 -84.177942 
L 140.362063 -84.08326 
L 138.429193 -83.999867 
L 136.496322 -83.926633 
L 134.563452 -83.862508 
L 132.630581 -83.806526 
L 130.697711 -83.757797 
L 128.764841 -83.715507 
L 126.83197 -83.678915 
L 124.8991 -83.647347 
L 122.966229 -83.620194 
z
" style="stroke: #2e8b57"/>
    </defs>
    <g clip-path="url(#p7e807655e3)">
     <use xlink:href="#mf9e70909be" x="0" y="432" style="fill: #2e8b57; fill-opacity: 0.25; stroke: #2e8b57"/>
    </g>
   </g>
   <g id="matplotlib.axis_1">
    <g id="xtick_1">
     <g id="line2d_1">
      <defs>
       <path id="mb17f9c8941" d="M 0 0 
L 0 3.5 
" style="stroke: #000000; stroke-width: 0.8"/>
      </defs>
      <g>
       <use xlink:href="#mb17f9c8941" x="175.987005" y="348.5275" style="stroke: #000000; stroke-width: 0.8"/>
      </g>
     </g>
     <g id="text_1">
      <!-- 0.1 -->
      <g transform="translate(156.903255 373.76375) scale(0.24 -0.24)">
       <defs>
        <path id="DejaVuSerif-30" d="M 2034 219 
Q 2513 219 2750 744 
Q 2988 1269 2988 2328 
Q 2988 3391 2750 3916 
Q 2513 4441 2034 4441 
Q 1556 4441 1318 3916 
Q 1081 3391 1081 2328 
Q 1081 1269 1318 744 
Q 1556 219 2034 219 
z
M 2034 -91 
Q 1275 -91 848 546 
Q 422 1184 422 2328 
Q 422 3475 848 4112 
Q 1275 4750 2034 4750 
Q 2797 4750 3222 4112 
Q 3647 3475 3647 2328 
Q 3647 1184 3222 546 
Q 2797 -91 2034 -91 
z
" transform="scale(0.015625)"/>
        <path id="DejaVuSerif-2e" d="M 603 325 
Q 603 500 722 622 
Q 841 744 1019 744 
Q 1191 744 1312 622 
Q 1434 500 1434 325 
Q 1434 153 1312 31 
Q 1191 -91 1019 -91 
Q 841 -91 722 29 
Q 603 150 603 325 
z
" transform="scale(0.015625)"/>
        <path id="DejaVuSerif-31" d="M 909 0 
L 909 331 
L 1722 331 
L 1722 4213 
L 781 3603 
L 781 4013 
L 1919 4750 
L 2350 4750 
L 2350 331 
L 3163 331 
L 3163 0 
L 909 0 
z
" transform="scale(0.015625)"/>
       </defs>
       <use xlink:href="#DejaVuSerif-30"/>
       <use xlink:href="#DejaVuSerif-2e" x="63.623047"/>
       <use xlink:href="#DejaVuSerif-31" x="95.410156"/>
      </g>
     </g>
    </g>
    <g id="xtick_2">
     <g id="line2d_2">
      <g>
       <use xlink:href="#mb17f9c8941" x="294.130787" y="348.5275" style="stroke: #000000; stroke-width: 0.8"/>
      </g>
     </g>
     <g id="text_2">
      <!-- 0.2 -->
      <g transform="translate(275.047037 373.76375) scale(0.24 -0.24)">
       <defs>
        <path id="DejaVuSerif-32" d="M 819 3553 
L 469 3553 
L 469 4384 
Q 803 4563 1142 4656 
Q 1481 4750 1806 4750 
Q 2534 4750 2956 4397 
Q 3378 4044 3378 3438 
Q 3378 2753 2422 1800 
Q 2347 1728 2309 1691 
L 1131 513 
L 3078 513 
L 3078 1088 
L 3444 1088 
L 3444 0 
L 434 0 
L 434 341 
L 1850 1753 
Q 2319 2222 2519 2614 
Q 2719 3006 2719 3438 
Q 2719 3909 2473 4175 
Q 2228 4441 1797 4441 
Q 1350 4441 1106 4219 
Q 863 3997 819 3553 
z
" transform="scale(0.015625)"/>
       </defs>
       <use xlink:href="#DejaVuSerif-30"/>
       <use xlink:href="#DejaVuSerif-2e" x="63.623047"/>
       <use xlink:href="#DejaVuSerif-32" x="95.410156"/>
      </g>
     </g>
    </g>
    <g id="xtick_3">
     <g id="line2d_3">
      <g>
       <use xlink:href="#mb17f9c8941" x="412.274568" y="348.5275" style="stroke: #000000; stroke-width: 0.8"/>
      </g>
     </g>
     <g id="text_3">
      <!-- 0.3 -->
      <g transform="translate(393.190818 373.76375) scale(0.24 -0.24)">
       <defs>
        <path id="DejaVuSerif-33" d="M 622 4469 
Q 988 4606 1323 4678 
Q 1659 4750 1953 4750 
Q 2638 4750 3022 4454 
Q 3406 4159 3406 3634 
Q 3406 3213 3140 2930 
Q 2875 2647 2388 2547 
Q 2963 2466 3280 2130 
Q 3597 1794 3597 1259 
Q 3597 606 3158 257 
Q 2719 -91 1894 -91 
Q 1528 -91 1179 -12 
Q 831 66 488 225 
L 488 1131 
L 838 1131 
Q 869 681 1141 450 
Q 1413 219 1906 219 
Q 2384 219 2661 495 
Q 2938 772 2938 1253 
Q 2938 1803 2653 2086 
Q 2369 2369 1819 2369 
L 1522 2369 
L 1522 2688 
L 1678 2688 
Q 2225 2688 2498 2914 
Q 2772 3141 2772 3597 
Q 2772 4006 2547 4223 
Q 2322 4441 1900 4441 
Q 1478 4441 1245 4241 
Q 1013 4041 972 3647 
L 622 3647 
L 622 4469 
z
" transform="scale(0.015625)"/>
       </defs>
       <use xlink:href="#DejaVuSerif-30"/>
       <use xlink:href="#DejaVuSerif-2e" x="63.623047"/>
       <use xlink:href="#DejaVuSerif-33" x="95.410156"/>
      </g>
     </g>
    </g>
    <g id="xtick_4">
     <g id="line2d_4">
      <g>
       <use xlink:href="#mb17f9c8941" x="530.41835" y="348.5275" style="stroke: #000000; stroke-width: 0.8"/>
      </g>
     </g>
     <g id="text_4">
      <!-- 0.4 -->
      <g transform="translate(511.3346 373.76375) scale(0.24 -0.24)">
       <defs>
        <path id="DejaVuSerif-34" d="M 2234 1581 
L 2234 4063 
L 641 1581 
L 2234 1581 
z
M 3609 0 
L 1484 0 
L 1484 331 
L 2234 331 
L 2234 1247 
L 197 1247 
L 197 1588 
L 2241 4750 
L 2859 4750 
L 2859 1581 
L 3750 1581 
L 3750 1247 
L 2859 1247 
L 2859 331 
L 3609 331 
L 3609 0 
z
" transform="scale(0.015625)"/>
       </defs>
       <use xlink:href="#DejaVuSerif-30"/>
       <use xlink:href="#DejaVuSerif-2e" x="63.623047"/>
       <use xlink:href="#DejaVuSerif-34" x="95.410156"/>
      </g>
     </g>
    </g>
    <g id="text_5">
     <!-- High Frequency Energy Ratio (r ≥ 0.5) -->
     <g transform="translate(82.338082 400.99125) scale(0.24 -0.24)">
      <defs>
       <path id="DejaVuSerif-48" d="M 353 0 
L 353 331 
L 947 331 
L 947 4331 
L 353 4331 
L 353 4666 
L 2175 4666 
L 2175 4331 
L 1581 4331 
L 1581 2719 
L 4000 2719 
L 4000 4331 
L 3406 4331 
L 3406 4666 
L 5228 4666 
L 5228 4331 
L 4634 4331 
L 4634 331 
L 5228 331 
L 5228 0 
L 3406 0 
L 3406 331 
L 4000 331 
L 4000 2338 
L 1581 2338 
L 1581 331 
L 2175 331 
L 2175 0 
L 353 0 
z
" transform="scale(0.015625)"/>
       <path id="DejaVuSerif-69" d="M 622 4353 
Q 622 4497 726 4603 
Q 831 4709 978 4709 
Q 1122 4709 1226 4603 
Q 1331 4497 1331 4353 
Q 1331 4206 1228 4103 
Q 1125 4000 978 4000 
Q 831 4000 726 4103 
Q 622 4206 622 4353 
z
M 1356 331 
L 1900 331 
L 1900 0 
L 231 0 
L 231 331 
L 781 331 
L 781 2988 
L 231 2988 
L 231 3322 
L 1356 3322 
L 1356 331 
z
" transform="scale(0.015625)"/>
       <path id="DejaVuSerif-67" d="M 3359 2988 
L 3359 72 
Q 3359 -644 2965 -1033 
Q 2572 -1422 1844 -1422 
Q 1516 -1422 1216 -1362 
Q 916 -1303 641 -1184 
L 641 -488 
L 941 -488 
Q 997 -813 1206 -963 
Q 1416 -1113 1806 -1113 
Q 2313 -1113 2548 -827 
Q 2784 -541 2784 72 
L 2784 519 
Q 2616 206 2355 57 
Q 2094 -91 1709 -91 
Q 1097 -91 708 395 
Q 319 881 319 1663 
Q 319 2444 706 2928 
Q 1094 3413 1709 3413 
Q 2094 3413 2355 3264 
Q 2616 3116 2784 2803 
L 2784 3322 
L 3909 3322 
L 3909 2988 
L 3359 2988 
z
M 2784 1825 
Q 2784 2422 2554 2737 
Q 2325 3053 1888 3053 
Q 1444 3053 1217 2703 
Q 991 2353 991 1663 
Q 991 975 1217 622 
Q 1444 269 1888 269 
Q 2325 269 2554 583 
Q 2784 897 2784 1497 
L 2784 1825 
z
" transform="scale(0.015625)"/>
       <path id="DejaVuSerif-68" d="M 263 0 
L 263 331 
L 781 331 
L 781 4531 
L 231 4531 
L 231 4863 
L 1356 4863 
L 1356 2731 
Q 1516 3069 1770 3241 
Q 2025 3413 2363 3413 
Q 2913 3413 3172 3097 
Q 3431 2781 3431 2113 
L 3431 331 
L 3944 331 
L 3944 0 
L 2356 0 
L 2356 331 
L 2853 331 
L 2853 1931 
Q 2853 2541 2704 2764 
Q 2556 2988 2175 2988 
Q 1775 2988 1565 2697 
Q 1356 2406 1356 1850 
L 1356 331 
L 1856 331 
L 1856 0 
L 263 0 
z
" transform="scale(0.015625)"/>
       <path id="DejaVuSerif-20" transform="scale(0.015625)"/>
       <path id="DejaVuSerif-46" d="M 353 0 
L 353 331 
L 947 331 
L 947 4331 
L 353 4331 
L 353 4666 
L 4172 4666 
L 4172 3628 
L 3788 3628 
L 3788 4281 
L 1581 4281 
L 1581 2719 
L 3175 2719 
L 3175 3303 
L 3559 3303 
L 3559 1753 
L 3175 1753 
L 3175 2338 
L 1581 2338 
L 1581 331 
L 2328 331 
L 2328 0 
L 353 0 
z
" transform="scale(0.015625)"/>
       <path id="DejaVuSerif-72" d="M 3059 3328 
L 3059 2497 
L 2728 2497 
Q 2713 2744 2591 2866 
Q 2469 2988 2234 2988 
Q 1809 2988 1582 2694 
Q 1356 2400 1356 1850 
L 1356 331 
L 2022 331 
L 2022 0 
L 263 0 
L 263 331 
L 781 331 
L 781 2994 
L 231 2994 
L 231 3322 
L 1356 3322 
L 1356 2731 
Q 1525 3078 1790 3245 
Q 2056 3413 2438 3413 
Q 2578 3413 2733 3391 
Q 2888 3369 3059 3328 
z
" transform="scale(0.015625)"/>
       <path id="DejaVuSerif-65" d="M 3469 1600 
L 991 1600 
L 991 1575 
Q 991 903 1244 561 
Q 1497 219 1991 219 
Q 2369 219 2611 417 
Q 2853 616 2950 1006 
L 3413 1006 
Q 3275 459 2904 184 
Q 2534 -91 1931 -91 
Q 1203 -91 761 389 
Q 319 869 319 1663 
Q 319 2450 753 2931 
Q 1188 3413 1894 3413 
Q 2647 3413 3050 2948 
Q 3453 2484 3469 1600 
z
M 2791 1931 
Q 2772 2513 2545 2808 
Q 2319 3103 1894 3103 
Q 1497 3103 1269 2806 
Q 1041 2509 991 1931 
L 2791 1931 
z
" transform="scale(0.015625)"/>
       <path id="DejaVuSerif-71" d="M 3359 2988 
L 3359 -997 
L 3909 -997 
L 3909 -1331 
L 2241 -1331 
L 2241 -997 
L 2784 -997 
L 2784 519 
Q 2616 206 2355 57 
Q 2094 -91 1709 -91 
Q 1097 -91 708 395 
Q 319 881 319 1663 
Q 319 2444 706 2928 
Q 1094 3413 1709 3413 
Q 2094 3413 2355 3264 
Q 2616 3116 2784 2803 
L 2784 3322 
L 3909 3322 
L 3909 2988 
L 3359 2988 
z
M 2784 1825 
Q 2784 2422 2554 2737 
Q 2325 3053 1888 3053 
Q 1444 3053 1217 2703 
Q 991 2353 991 1663 
Q 991 975 1217 622 
Q 1444 269 1888 269 
Q 2325 269 2554 583 
Q 2784 897 2784 1497 
L 2784 1825 
z
" transform="scale(0.015625)"/>
       <path id="DejaVuSerif-75" d="M 2266 3322 
L 3341 3322 
L 3341 331 
L 3884 331 
L 3884 0 
L 2766 0 
L 2766 588 
Q 2606 256 2353 82 
Q 2100 -91 1766 -91 
Q 1213 -91 952 223 
Q 691 538 691 1209 
L 691 2988 
L 172 2988 
L 172 3322 
L 1269 3322 
L 1269 1388 
Q 1269 781 1417 556 
Q 1566 331 1947 331 
Q 2347 331 2556 625 
Q 2766 919 2766 1478 
L 2766 2988 
L 2266 2988 
L 2266 3322 
z
" transform="scale(0.015625)"/>
       <path id="DejaVuSerif-6e" d="M 263 0 
L 263 331 
L 781 331 
L 781 2988 
L 231 2988 
L 231 3322 
L 1356 3322 
L 1356 2731 
Q 1516 3069 1770 3241 
Q 2025 3413 2363 3413 
Q 2913 3413 3172 3097 
Q 3431 2781 3431 2113 
L 3431 331 
L 3944 331 
L 3944 0 
L 2356 0 
L 2356 331 
L 2853 331 
L 2853 1931 
Q 2853 2541 2703 2767 
Q 2553 2994 2175 2994 
Q 1775 2994 1565 2701 
Q 1356 2409 1356 1850 
L 1356 331 
L 1856 331 
L 1856 0 
L 263 0 
z
" transform="scale(0.015625)"/>
       <path id="DejaVuSerif-63" d="M 3291 997 
Q 3169 466 2822 187 
Q 2475 -91 1925 -91 
Q 1200 -91 759 389 
Q 319 869 319 1663 
Q 319 2459 759 2936 
Q 1200 3413 1925 3413 
Q 2241 3413 2553 3339 
Q 2866 3266 3181 3116 
L 3181 2266 
L 2847 2266 
Q 2781 2703 2561 2903 
Q 2341 3103 1931 3103 
Q 1466 3103 1228 2742 
Q 991 2381 991 1663 
Q 991 944 1227 581 
Q 1463 219 1931 219 
Q 2303 219 2525 412 
Q 2747 606 2828 997 
L 3291 997 
z
" transform="scale(0.015625)"/>
       <path id="DejaVuSerif-79" d="M 1381 -609 
L 1600 -56 
L 359 2988 
L -19 2988 
L -19 3322 
L 1509 3322 
L 1509 2988 
L 978 2988 
L 1913 703 
L 2847 2988 
L 2350 2988 
L 2350 3322 
L 3597 3322 
L 3597 2988 
L 3225 2988 
L 1703 -750 
Q 1547 -1138 1356 -1280 
Q 1166 -1422 819 -1422 
Q 672 -1422 517 -1397 
Q 363 -1372 206 -1325 
L 206 -691 
L 500 -691 
Q 519 -903 608 -995 
Q 697 -1088 884 -1088 
Q 1056 -1088 1161 -992 
Q 1266 -897 1381 -609 
z
" transform="scale(0.015625)"/>
       <path id="DejaVuSerif-45" d="M 353 0 
L 353 331 
L 947 331 
L 947 4331 
L 353 4331 
L 353 4666 
L 4109 4666 
L 4109 3628 
L 3725 3628 
L 3725 4281 
L 1581 4281 
L 1581 2719 
L 3109 2719 
L 3109 3303 
L 3494 3303 
L 3494 1753 
L 3109 1753 
L 3109 2338 
L 1581 2338 
L 1581 384 
L 3775 384 
L 3775 1038 
L 4159 1038 
L 4159 0 
L 353 0 
z
" transform="scale(0.015625)"/>
       <path id="DejaVuSerif-52" d="M 3066 2316 
Q 3284 2256 3442 2114 
Q 3600 1972 3725 1716 
L 4403 331 
L 4972 331 
L 4972 0 
L 3872 0 
L 3144 1484 
Q 2934 1916 2759 2042 
Q 2584 2169 2278 2169 
L 1581 2169 
L 1581 331 
L 2241 331 
L 2241 0 
L 353 0 
L 353 331 
L 947 331 
L 947 4331 
L 353 4331 
L 353 4666 
L 2719 4666 
Q 3400 4666 3770 4341 
Q 4141 4016 4141 3419 
Q 4141 2938 3870 2661 
Q 3600 2384 3066 2316 
z
M 1581 2503 
L 2503 2503 
Q 2975 2503 3200 2726 
Q 3425 2950 3425 3419 
Q 3425 3888 3200 4109 
Q 2975 4331 2503 4331 
L 1581 4331 
L 1581 2503 
z
" transform="scale(0.015625)"/>
       <path id="DejaVuSerif-61" d="M 2547 1044 
L 2547 1747 
L 1806 1747 
Q 1378 1747 1168 1562 
Q 959 1378 959 997 
Q 959 650 1171 447 
Q 1384 244 1747 244 
Q 2106 244 2326 466 
Q 2547 688 2547 1044 
z
M 3122 2075 
L 3122 331 
L 3634 331 
L 3634 0 
L 2547 0 
L 2547 359 
Q 2356 128 2106 18 
Q 1856 -91 1522 -91 
Q 969 -91 644 203 
Q 319 497 319 997 
Q 319 1513 691 1797 
Q 1063 2081 1741 2081 
L 2547 2081 
L 2547 2309 
Q 2547 2688 2317 2895 
Q 2088 3103 1672 3103 
Q 1328 3103 1125 2947 
Q 922 2791 872 2484 
L 575 2484 
L 575 3156 
Q 875 3284 1158 3348 
Q 1441 3413 1709 3413 
Q 2400 3413 2761 3070 
Q 3122 2728 3122 2075 
z
" transform="scale(0.015625)"/>
       <path id="DejaVuSerif-74" d="M 691 2988 
L 184 2988 
L 184 3322 
L 691 3322 
L 691 4353 
L 1269 4353 
L 1269 3322 
L 2350 3322 
L 2350 2988 
L 1269 2988 
L 1269 878 
Q 1269 456 1350 337 
Q 1431 219 1650 219 
Q 1875 219 1978 351 
Q 2081 484 2088 781 
L 2522 781 
Q 2497 328 2275 118 
Q 2053 -91 1600 -91 
Q 1103 -91 897 129 
Q 691 350 691 878 
L 691 2988 
z
" transform="scale(0.015625)"/>
       <path id="DejaVuSerif-6f" d="M 1925 219 
Q 2388 219 2623 584 
Q 2859 950 2859 1663 
Q 2859 2375 2623 2739 
Q 2388 3103 1925 3103 
Q 1463 3103 1227 2739 
Q 991 2375 991 1663 
Q 991 950 1228 584 
Q 1466 219 1925 219 
z
M 1925 -91 
Q 1200 -91 759 389 
Q 319 869 319 1663 
Q 319 2456 758 2934 
Q 1197 3413 1925 3413 
Q 2653 3413 3092 2934 
Q 3531 2456 3531 1663 
Q 3531 869 3092 389 
Q 2653 -91 1925 -91 
z
" transform="scale(0.015625)"/>
       <path id="DejaVuSerif-28" d="M 2041 -997 
Q 1281 -656 893 83 
Q 506 822 506 1931 
Q 506 3044 893 3783 
Q 1281 4522 2041 4863 
L 2041 4556 
Q 1559 4225 1350 3623 
Q 1141 3022 1141 1931 
Q 1141 844 1350 242 
Q 1559 -359 2041 -691 
L 2041 -997 
z
" transform="scale(0.015625)"/>
       <path id="DejaVuSerif-2265" d="M 4684 488 
L 4684 0 
L 678 0 
L 678 488 
L 4684 488 
z
M 678 3206 
L 678 3725 
L 4684 2578 
L 4684 2047 
L 678 897 
L 678 1416 
L 3975 2309 
L 678 3206 
z
" transform="scale(0.015625)"/>
       <path id="DejaVuSerif-35" d="M 3219 4666 
L 3219 4153 
L 1081 4153 
L 1081 2816 
Q 1244 2928 1461 2984 
Q 1678 3041 1947 3041 
Q 2703 3041 3140 2622 
Q 3578 2203 3578 1478 
Q 3578 738 3136 323 
Q 2694 -91 1894 -91 
Q 1572 -91 1234 -12 
Q 897 66 544 225 
L 544 1131 
L 897 1131 
Q 925 688 1179 453 
Q 1434 219 1894 219 
Q 2388 219 2653 544 
Q 2919 869 2919 1478 
Q 2919 2084 2655 2407 
Q 2391 2731 1894 2731 
Q 1613 2731 1398 2631 
Q 1184 2531 1019 2322 
L 750 2322 
L 750 4666 
L 3219 4666 
z
" transform="scale(0.015625)"/>
       <path id="DejaVuSerif-29" d="M 453 -997 
L 453 -691 
Q 934 -359 1145 242 
Q 1356 844 1356 1931 
Q 1356 3022 1145 3623 
Q 934 4225 453 4556 
L 453 4863 
Q 1216 4522 1603 3783 
Q 1991 3044 1991 1931 
Q 1991 822 1603 83 
Q 1216 -656 453 -997 
z
" transform="scale(0.015625)"/>
      </defs>
      <use xlink:href="#DejaVuSerif-48"/>
      <use xlink:href="#DejaVuSerif-69" x="87.207031"/>
      <use xlink:href="#DejaVuSerif-67" x="119.189453"/>
      <use xlink:href="#DejaVuSerif-68" x="183.203125"/>
      <use xlink:href="#DejaVuSerif-20" x="247.607422"/>
      <use xlink:href="#DejaVuSerif-46" x="279.394531"/>
      <use xlink:href="#DejaVuSerif-72" x="348.779297"/>
      <use xlink:href="#DejaVuSerif-65" x="396.582031"/>
      <use xlink:href="#DejaVuSerif-71" x="455.761719"/>
      <use xlink:href="#DejaVuSerif-75" x="519.775391"/>
      <use xlink:href="#DejaVuSerif-65" x="584.179688"/>
      <use xlink:href="#DejaVuSerif-6e" x="643.359375"/>
      <use xlink:href="#DejaVuSerif-63" x="707.763672"/>
      <use xlink:href="#DejaVuSerif-79" x="763.769531"/>
      <use xlink:href="#DejaVuSerif-20" x="820.263672"/>
      <use xlink:href="#DejaVuSerif-45" x="852.050781"/>
      <use xlink:href="#DejaVuSerif-6e" x="925.048828"/>
      <use xlink:href="#DejaVuSerif-65" x="989.453125"/>
      <use xlink:href="#DejaVuSerif-72" x="1048.632812"/>
      <use xlink:href="#DejaVuSerif-67" x="1096.435547"/>
      <use xlink:href="#DejaVuSerif-79" x="1160.449219"/>
      <use xlink:href="#DejaVuSerif-20" x="1216.943359"/>
      <use xlink:href="#DejaVuSerif-52" x="1248.730469"/>
      <use xlink:href="#DejaVuSerif-61" x="1326.273438"/>
      <use xlink:href="#DejaVuSerif-74" x="1385.892578"/>
      <use xlink:href="#DejaVuSerif-69" x="1426.078125"/>
      <use xlink:href="#DejaVuSerif-6f" x="1458.060547"/>
      <use xlink:href="#DejaVuSerif-20" x="1518.265625"/>
      <use xlink:href="#DejaVuSerif-28" x="1550.052734"/>
      <use xlink:href="#DejaVuSerif-72" x="1589.066406"/>
      <use xlink:href="#DejaVuSerif-20" x="1636.869141"/>
      <use xlink:href="#DejaVuSerif-2265" x="1668.65625"/>
      <use xlink:href="#DejaVuSerif-20" x="1752.445312"/>
      <use xlink:href="#DejaVuSerif-30" x="1784.232422"/>
      <use xlink:href="#DejaVuSerif-2e" x="1847.855469"/>
      <use xlink:href="#DejaVuSerif-35" x="1879.642578"/>
      <use xlink:href="#DejaVuSerif-29" x="1943.265625"/>
     </g>
    </g>
   </g>
   <g id="matplotlib.axis_2">
    <g id="ytick_1">
     <g id="line2d_5">
      <defs>
       <path id="mb89a3ee101" d="M 0 0 
L -3.5 0 
" style="stroke: #000000; stroke-width: 0.8"/>
      </defs>
      <g>
       <use xlink:href="#mb89a3ee101" x="90.65" y="348.5275" style="stroke: #000000; stroke-width: 0.8"/>
      </g>
     </g>
     <g id="text_6">
      <!-- 0 -->
      <g transform="translate(68.38 357.645625) scale(0.24 -0.24)">
       <use xlink:href="#DejaVuSerif-30"/>
      </g>
     </g>
    </g>
    <g id="ytick_2">
     <g id="line2d_6">
      <g>
       <use xlink:href="#mb89a3ee101" x="90.65" y="262.235862" style="stroke: #000000; stroke-width: 0.8"/>
      </g>
     </g>
     <g id="text_7">
      <!-- 10 -->
      <g transform="translate(53.11 271.353987) scale(0.24 -0.24)">
       <use xlink:href="#DejaVuSerif-31"/>
       <use xlink:href="#DejaVuSerif-30" x="63.623047"/>
      </g>
     </g>
    </g>
    <g id="ytick_3">
     <g id="line2d_7">
      <g>
       <use xlink:href="#mb89a3ee101" x="90.65" y="175.944224" style="stroke: #000000; stroke-width: 0.8"/>
      </g>
     </g>
     <g id="text_8">
      <!-- 20 -->
      <g transform="translate(53.11 185.062349) scale(0.24 -0.24)">
       <use xlink:href="#DejaVuSerif-32"/>
       <use xlink:href="#DejaVuSerif-30" x="63.623047"/>
      </g>
     </g>
    </g>
    <g id="ytick_4">
     <g id="line2d_8">
      <g>
       <use xlink:href="#mb89a3ee101" x="90.65" y="89.652585" style="stroke: #000000; stroke-width: 0.8"/>
      </g>
     </g>
     <g id="text_9">
      <!-- 30 -->
      <g transform="translate(53.11 98.77071) scale(0.24 -0.24)">
       <use xlink:href="#DejaVuSerif-33"/>
       <use xlink:href="#DejaVuSerif-30" x="63.623047"/>
      </g>
     </g>
    </g>
    <g id="text_10">
     <!-- Density -->
     <g transform="translate(43.7775 246.95375) rotate(-90) scale(0.24 -0.24)">
      <defs>
       <path id="DejaVuSerif-44" d="M 1581 331 
L 2163 331 
Q 3072 331 3558 850 
Q 4044 1369 4044 2338 
Q 4044 3306 3559 3818 
Q 3075 4331 2163 4331 
L 1581 4331 
L 1581 331 
z
M 353 0 
L 353 331 
L 947 331 
L 947 4331 
L 353 4331 
L 353 4666 
L 2209 4666 
Q 3416 4666 4089 4050 
Q 4763 3434 4763 2338 
Q 4763 1238 4088 619 
Q 3413 0 2209 0 
L 353 0 
z
" transform="scale(0.015625)"/>
       <path id="DejaVuSerif-73" d="M 359 184 
L 359 959 
L 691 959 
Q 703 588 923 403 
Q 1144 219 1575 219 
Q 1963 219 2166 364 
Q 2369 509 2369 788 
Q 2369 1006 2220 1140 
Q 2072 1275 1594 1428 
L 1178 1569 
Q 750 1706 558 1912 
Q 366 2119 366 2438 
Q 366 2894 700 3153 
Q 1034 3413 1625 3413 
Q 1888 3413 2178 3344 
Q 2469 3275 2778 3144 
L 2778 2419 
L 2447 2419 
Q 2434 2741 2221 2922 
Q 2009 3103 1644 3103 
Q 1281 3103 1095 2975 
Q 909 2847 909 2591 
Q 909 2381 1050 2254 
Q 1191 2128 1613 1997 
L 2069 1856 
Q 2541 1709 2748 1489 
Q 2956 1269 2956 922 
Q 2956 450 2595 179 
Q 2234 -91 1600 -91 
Q 1278 -91 972 -22 
Q 666 47 359 184 
z
" transform="scale(0.015625)"/>
      </defs>
      <use xlink:href="#DejaVuSerif-44"/>
      <use xlink:href="#DejaVuSerif-65" x="80.175781"/>
      <use xlink:href="#DejaVuSerif-6e" x="139.355469"/>
      <use xlink:href="#DejaVuSerif-73" x="203.759766"/>
      <use xlink:href="#DejaVuSerif-69" x="255.078125"/>
      <use xlink:href="#DejaVuSerif-74" x="287.060547"/>
      <use xlink:href="#DejaVuSerif-79" x="327.246094"/>
     </g>
    </g>
   </g>
   <g id="line2d_9">
    <path d="M 480.192536 348.5275 
L 480.192536 53.28 
" clip-path="url(#p7e807655e3)" style="fill: none; stroke-dasharray: 3.7,1.6; stroke-dashoffset: 0; stroke: #87ceeb"/>
   </g>
   <g id="line2d_10">
    <path d="M 168.322722 348.5275 
L 168.322722 53.28 
" clip-path="url(#p7e807655e3)" style="fill: none; stroke-dasharray: 3.7,1.6; stroke-dashoffset: 0; stroke: #fa8072"/>
   </g>
   <g id="line2d_11">
    <path d="M 302.428503 348.5275 
L 302.428503 53.28 
" clip-path="url(#p7e807655e3)" style="fill: none; stroke-dasharray: 3.7,1.6; stroke-dashoffset: 0; stroke: #2e8b57"/>
   </g>
   <g id="patch_3">
    <path d="M 90.65 348.5275 
L 90.65 53.28 
" style="fill: none; stroke: #000000; stroke-width: 0.8; stroke-linejoin: miter; stroke-linecap: square"/>
   </g>
   <g id="patch_4">
    <path d="M 549.777415 348.5275 
L 549.777415 53.28 
" style="fill: none; stroke: #000000; stroke-width: 0.8; stroke-linejoin: miter; stroke-linecap: square"/>
   </g>
   <g id="patch_5">
    <path d="M 90.65 348.5275 
L 549.777415 348.5275 
" style="fill: none; stroke: #000000; stroke-width: 0.8; stroke-linejoin: miter; stroke-linecap: square"/>
   </g>
   <g id="patch_6">
    <path d="M 90.65 53.28 
L 549.777415 53.28 
" style="fill: none; stroke: #000000; stroke-width: 0.8; stroke-linejoin: miter; stroke-linecap: square"/>
   </g>
   <g id="text_11">
    <!-- 0.357 -->
    <g style="fill: #87ceeb" transform="translate(482.555412 348.354917) scale(0.18 -0.18)">
     <defs>
      <path id="DejaVuSerif-37" d="M 3609 4347 
L 1784 0 
L 1319 0 
L 3059 4153 
L 903 4153 
L 903 3578 
L 538 3578 
L 538 4666 
L 3609 4666 
L 3609 4347 
z
" transform="scale(0.015625)"/>
     </defs>
     <use xlink:href="#DejaVuSerif-30"/>
     <use xlink:href="#DejaVuSerif-2e" x="63.623047"/>
     <use xlink:href="#DejaVuSerif-33" x="95.410156"/>
     <use xlink:href="#DejaVuSerif-35" x="159.033203"/>
     <use xlink:href="#DejaVuSerif-37" x="222.65625"/>
    </g>
   </g>
   <g id="text_12">
    <!-- 0.094 -->
    <g style="fill: #fa8072" transform="translate(170.685597 348.354917) scale(0.18 -0.18)">
     <defs>
      <path id="DejaVuSerif-39" d="M 2994 2091 
Q 2784 1856 2512 1740 
Q 2241 1625 1900 1625 
Q 1206 1625 804 2044 
Q 403 2463 403 3188 
Q 403 3897 839 4323 
Q 1275 4750 2003 4750 
Q 2794 4750 3217 4161 
Q 3641 3572 3641 2478 
Q 3641 1253 3137 581 
Q 2634 -91 1722 -91 
Q 1475 -91 1203 -44 
Q 931 3 647 97 
L 647 872 
L 997 872 
Q 1038 556 1241 387 
Q 1444 219 1784 219 
Q 2391 219 2687 676 
Q 2984 1134 2994 2091 
z
M 1978 4441 
Q 1534 4441 1298 4117 
Q 1063 3794 1063 3188 
Q 1063 2581 1298 2256 
Q 1534 1931 1978 1931 
Q 2422 1931 2658 2245 
Q 2894 2559 2894 3150 
Q 2894 3772 2656 4106 
Q 2419 4441 1978 4441 
z
" transform="scale(0.015625)"/>
     </defs>
     <use xlink:href="#DejaVuSerif-30"/>
     <use xlink:href="#DejaVuSerif-2e" x="63.623047"/>
     <use xlink:href="#DejaVuSerif-30" x="95.410156"/>
     <use xlink:href="#DejaVuSerif-39" x="159.033203"/>
     <use xlink:href="#DejaVuSerif-34" x="222.65625"/>
    </g>
   </g>
   <g id="text_13">
    <!-- 0.207 -->
    <g style="fill: #2e8b57" transform="translate(304.791379 348.354917) scale(0.18 -0.18)">
     <use xlink:href="#DejaVuSerif-30"/>
     <use xlink:href="#DejaVuSerif-2e" x="63.623047"/>
     <use xlink:href="#DejaVuSerif-32" x="95.410156"/>
     <use xlink:href="#DejaVuSerif-30" x="159.033203"/>
     <use xlink:href="#DejaVuSerif-37" x="222.65625"/>
    </g>
   </g>
   <g id="text_14">
    <!-- High-Frequency Energy Distribution -->
    <g transform="translate(52.459207 46.881) scale(0.288 -0.288)">
     <defs>
      <path id="DejaVuSerif-2d" d="M 281 1959 
L 1881 1959 
L 1881 1472 
L 281 1472 
L 281 1959 
z
" transform="scale(0.015625)"/>
      <path id="DejaVuSerif-62" d="M 738 331 
L 738 4531 
L 184 4531 
L 184 4863 
L 1313 4863 
L 1313 2803 
Q 1481 3116 1742 3264 
Q 2003 3413 2388 3413 
Q 3000 3413 3387 2928 
Q 3775 2444 3775 1663 
Q 3775 881 3387 395 
Q 3000 -91 2388 -91 
Q 2003 -91 1742 57 
Q 1481 206 1313 519 
L 1313 0 
L 184 0 
L 184 331 
L 738 331 
z
M 1313 1497 
Q 1313 897 1542 583 
Q 1772 269 2209 269 
Q 2650 269 2876 622 
Q 3103 975 3103 1663 
Q 3103 2353 2876 2703 
Q 2650 3053 2209 3053 
Q 1772 3053 1542 2737 
Q 1313 2422 1313 1825 
L 1313 1497 
z
" transform="scale(0.015625)"/>
     </defs>
     <use xlink:href="#DejaVuSerif-48"/>
     <use xlink:href="#DejaVuSerif-69" x="87.207031"/>
     <use xlink:href="#DejaVuSerif-67" x="119.189453"/>
     <use xlink:href="#DejaVuSerif-68" x="183.203125"/>
     <use xlink:href="#DejaVuSerif-2d" x="247.607422"/>
     <use xlink:href="#DejaVuSerif-46" x="281.396484"/>
     <use xlink:href="#DejaVuSerif-72" x="350.78125"/>
     <use xlink:href="#DejaVuSerif-65" x="398.583984"/>
     <use xlink:href="#DejaVuSerif-71" x="457.763672"/>
     <use xlink:href="#DejaVuSerif-75" x="521.777344"/>
     <use xlink:href="#DejaVuSerif-65" x="586.181641"/>
     <use xlink:href="#DejaVuSerif-6e" x="645.361328"/>
     <use xlink:href="#DejaVuSerif-63" x="709.765625"/>
     <use xlink:href="#DejaVuSerif-79" x="765.771484"/>
     <use xlink:href="#DejaVuSerif-20" x="822.265625"/>
     <use xlink:href="#DejaVuSerif-45" x="854.052734"/>
     <use xlink:href="#DejaVuSerif-6e" x="927.050781"/>
     <use xlink:href="#DejaVuSerif-65" x="991.455078"/>
     <use xlink:href="#DejaVuSerif-72" x="1050.634766"/>
     <use xlink:href="#DejaVuSerif-67" x="1098.4375"/>
     <use xlink:href="#DejaVuSerif-79" x="1162.451172"/>
     <use xlink:href="#DejaVuSerif-20" x="1218.945312"/>
     <use xlink:href="#DejaVuSerif-44" x="1250.732422"/>
     <use xlink:href="#DejaVuSerif-69" x="1330.908203"/>
     <use xlink:href="#DejaVuSerif-73" x="1362.890625"/>
     <use xlink:href="#DejaVuSerif-74" x="1414.208984"/>
     <use xlink:href="#DejaVuSerif-72" x="1454.394531"/>
     <use xlink:href="#DejaVuSerif-69" x="1502.197266"/>
     <use xlink:href="#DejaVuSerif-62" x="1534.179688"/>
     <use xlink:href="#DejaVuSerif-75" x="1598.193359"/>
     <use xlink:href="#DejaVuSerif-74" x="1662.597656"/>
     <use xlink:href="#DejaVuSerif-69" x="1702.783203"/>
     <use xlink:href="#DejaVuSerif-6f" x="1734.765625"/>
     <use xlink:href="#DejaVuSerif-6e" x="1794.970703"/>
    </g>
   </g>
   <g id="legend_1">
    <g id="patch_7">
     <path d="M 203.693707 178.1625 
L 436.733707 178.1625 
Q 441.533707 178.1625 441.533707 173.3625 
L 441.533707 70.08 
Q 441.533707 65.28 436.733707 65.28 
L 203.693707 65.28 
Q 198.893707 65.28 198.893707 70.08 
L 198.893707 173.3625 
Q 198.893707 178.1625 203.693707 178.1625 
z
" style="fill: #ffffff; opacity: 0.8; stroke: #cccccc; stroke-linejoin: miter"/>
    </g>
    <g id="patch_8">
     <path d="M 208.493707 93.11625 
L 256.493707 93.11625 
L 256.493707 76.31625 
L 208.493707 76.31625 
z
" style="fill: #87ceeb; fill-opacity: 0.25; stroke: #87ceeb; stroke-linejoin: miter"/>
    </g>
    <g id="text_15">
     <!-- DM -->
     <g transform="translate(275.693707 93.11625) scale(0.24 -0.24)">
      <defs>
       <path id="DejaVuSerif-4d" d="M 353 0 
L 353 331 
L 947 331 
L 947 4331 
L 319 4331 
L 319 4666 
L 1678 4666 
L 3316 1344 
L 4953 4666 
L 6228 4666 
L 6228 4331 
L 5606 4331 
L 5606 331 
L 6203 331 
L 6203 0 
L 4378 0 
L 4378 331 
L 4972 331 
L 4972 3938 
L 3372 684 
L 2931 684 
L 1331 3938 
L 1331 331 
L 1925 331 
L 1925 0 
L 353 0 
z
" transform="scale(0.015625)"/>
      </defs>
      <use xlink:href="#DejaVuSerif-44"/>
      <use xlink:href="#DejaVuSerif-4d" x="80.175781"/>
     </g>
    </g>
    <g id="patch_9">
     <path d="M 208.493707 128.34375 
L 256.493707 128.34375 
L 256.493707 111.54375 
L 208.493707 111.54375 
z
" style="fill: #fa8072; fill-opacity: 0.25; stroke: #fa8072; stroke-linejoin: miter"/>
    </g>
    <g id="text_16">
     <!-- DM + ours -->
     <g transform="translate(275.693707 128.34375) scale(0.24 -0.24)">
      <defs>
       <path id="DejaVuSerif-2b" d="M 2931 4013 
L 2931 2259 
L 4684 2259 
L 4684 1753 
L 2931 1753 
L 2931 0 
L 2431 0 
L 2431 1753 
L 678 1753 
L 678 2259 
L 2431 2259 
L 2431 4013 
L 2931 4013 
z
" transform="scale(0.015625)"/>
      </defs>
      <use xlink:href="#DejaVuSerif-44"/>
      <use xlink:href="#DejaVuSerif-4d" x="80.175781"/>
      <use xlink:href="#DejaVuSerif-20" x="182.568359"/>
      <use xlink:href="#DejaVuSerif-2b" x="214.355469"/>
      <use xlink:href="#DejaVuSerif-20" x="298.144531"/>
      <use xlink:href="#DejaVuSerif-6f" x="329.931641"/>
      <use xlink:href="#DejaVuSerif-75" x="390.136719"/>
      <use xlink:href="#DejaVuSerif-72" x="454.541016"/>
      <use xlink:href="#DejaVuSerif-73" x="502.34375"/>
     </g>
    </g>
    <g id="patch_10">
     <path d="M 208.493707 163.57125 
L 256.493707 163.57125 
L 256.493707 146.77125 
L 208.493707 146.77125 
z
" style="fill: #2e8b57; fill-opacity: 0.25; stroke: #2e8b57; stroke-linejoin: miter"/>
    </g>
    <g id="text_17">
     <!-- Random real -->
     <g transform="translate(275.693707 163.57125) scale(0.24 -0.24)">
      <defs>
       <path id="DejaVuSerif-64" d="M 3359 331 
L 3909 331 
L 3909 0 
L 2784 0 
L 2784 519 
Q 2616 206 2355 57 
Q 2094 -91 1709 -91 
Q 1097 -91 708 395 
Q 319 881 319 1663 
Q 319 2444 706 2928 
Q 1094 3413 1709 3413 
Q 2094 3413 2355 3264 
Q 2616 3116 2784 2803 
L 2784 4531 
L 2241 4531 
L 2241 4863 
L 3359 4863 
L 3359 331 
z
M 2784 1497 
L 2784 1825 
Q 2784 2422 2554 2737 
Q 2325 3053 1888 3053 
Q 1444 3053 1217 2703 
Q 991 2353 991 1663 
Q 991 975 1217 622 
Q 1444 269 1888 269 
Q 2325 269 2554 583 
Q 2784 897 2784 1497 
z
" transform="scale(0.015625)"/>
       <path id="DejaVuSerif-6d" d="M 3316 2675 
Q 3481 3041 3739 3227 
Q 3997 3413 4341 3413 
Q 4863 3413 5119 3089 
Q 5375 2766 5375 2113 
L 5375 331 
L 5894 331 
L 5894 0 
L 4300 0 
L 4300 331 
L 4800 331 
L 4800 2047 
Q 4800 2556 4650 2772 
Q 4500 2988 4153 2988 
Q 3769 2988 3567 2697 
Q 3366 2406 3366 1850 
L 3366 331 
L 3866 331 
L 3866 0 
L 2291 0 
L 2291 331 
L 2791 331 
L 2791 2069 
Q 2791 2566 2641 2777 
Q 2491 2988 2144 2988 
Q 1759 2988 1557 2697 
Q 1356 2406 1356 1850 
L 1356 331 
L 1856 331 
L 1856 0 
L 263 0 
L 263 331 
L 781 331 
L 781 2994 
L 231 2994 
L 231 3322 
L 1356 3322 
L 1356 2731 
Q 1516 3063 1762 3238 
Q 2009 3413 2322 3413 
Q 2709 3413 2968 3220 
Q 3228 3028 3316 2675 
z
" transform="scale(0.015625)"/>
       <path id="DejaVuSerif-6c" d="M 1313 331 
L 1856 331 
L 1856 0 
L 184 0 
L 184 331 
L 738 331 
L 738 4531 
L 184 4531 
L 184 4863 
L 1313 4863 
L 1313 331 
z
" transform="scale(0.015625)"/>
      </defs>
      <use xlink:href="#DejaVuSerif-52"/>
      <use xlink:href="#DejaVuSerif-61" x="77.542969"/>
      <use xlink:href="#DejaVuSerif-6e" x="137.162109"/>
      <use xlink:href="#DejaVuSerif-64" x="201.566406"/>
      <use xlink:href="#DejaVuSerif-6f" x="265.580078"/>
      <use xlink:href="#DejaVuSerif-6d" x="325.785156"/>
      <use xlink:href="#DejaVuSerif-20" x="420.609375"/>
      <use xlink:href="#DejaVuSerif-72" x="452.396484"/>
      <use xlink:href="#DejaVuSerif-65" x="500.199219"/>
      <use xlink:href="#DejaVuSerif-61" x="559.378906"/>
      <use xlink:href="#DejaVuSerif-6c" x="618.998047"/>
     </g>
    </g>
   </g>
  </g>
 </g>
 <defs>
  <clipPath id="p7e807655e3">
   <rect x="90.65" y="53.28" width="459.127415" height="295.2475"/>
  </clipPath>
 </defs>
</svg>
