<?xml version="1.0" encoding="utf-8" standalone="no"?>
<!DOCTYPE svg PUBLIC "-//W3C//DTD SVG 1.1//EN"
  "http://www.w3.org/Graphics/SVG/1.1/DTD/svg11.dtd">
<svg xmlns:xlink="http://www.w3.org/1999/xlink" width="576pt" height="432pt" viewBox="0 0 576 432" xmlns="http://www.w3.org/2000/svg" version="1.1">
 <metadata>
  <rdf:RDF xmlns:dc="http://purl.org/dc/elements/1.1/" xmlns:cc="http://creativecommons.org/ns#" xmlns:rdf="http://www.w3.org/1999/02/22-rdf-syntax-ns#">
   <cc:Work>
    <dc:type rdf:resource="http://purl.org/dc/dcmitype/StillImage"/>
    <dc:date>2025-08-19T13:27:04.650430</dc:date>
    <dc:format>image/svg+xml</dc:format>
    <dc:creator>
     <cc:Agent>
      <dc:title>Matplotlib v3.9.4, https://matplotlib.org/</dc:title>
     </cc:Agent>
    </dc:creator>
   </cc:Work>
  </rdf:RDF>
 </metadata>
 <defs>
  <style type="text/css">*{stroke-linejoin: round; stroke-linecap: butt}</style>
 </defs>
 <g id="figure_1">
  <g id="patch_1">
   <path d="M 0 432 
L 576 432 
L 576 0 
L 0 0 
z
" style="fill: #ffffff"/>
  </g>
  <g id="axes_1">
   <g id="patch_2">
    <path d="M 90.65 348.5275 
L 550.08 348.5275 
L 550.08 53.28 
L 90.65 53.28 
z
" style="fill: #ffffff"/>
   </g>
   <g id="PolyCollection_1">
    <defs>
     <path id="m4330cb40cf" d="M 248.125522 -83.617256 
L 248.125522 -83.4725 
L 249.53794 -83.4725 
L 250.950359 -83.4725 
L 252.362777 -83.4725 
L 253.775196 -83.4725 
L 255.187615 -83.4725 
L 256.600033 -83.4725 
L 258.012452 -83.4725 
L 259.42487 -83.4725 
L 260.837289 -83.4725 
L 262.249707 -83.4725 
L 263.662126 -83.4725 
L 265.074545 -83.4725 
L 266.486963 -83.4725 
L 267.899382 -83.4725 
L 269.3118 -83.4725 
L 270.724219 -83.4725 
L 272.136637 -83.4725 
L 273.549056 -83.4725 
L 274.961475 -83.4725 
L 276.373893 -83.4725 
L 277.786312 -83.4725 
L 279.19873 -83.4725 
L 280.611149 -83.4725 
L 282.023567 -83.4725 
L 283.435986 -83.4725 
L 284.848405 -83.4725 
L 286.260823 -83.4725 
L 287.673242 -83.4725 
L 289.08566 -83.4725 
L 290.498079 -83.4725 
L 291.910497 -83.4725 
L 293.322916 -83.4725 
L 294.735335 -83.4725 
L 296.147753 -83.4725 
L 297.560172 -83.4725 
L 298.97259 -83.4725 
L 300.385009 -83.4725 
L 301.797427 -83.4725 
L 303.209846 -83.4725 
L 304.622265 -83.4725 
L 306.034683 -83.4725 
L 307.447102 -83.4725 
L 308.85952 -83.4725 
L 310.271939 -83.4725 
L 311.684358 -83.4725 
L 313.096776 -83.4725 
L 314.509195 -83.4725 
L 315.921613 -83.4725 
L 317.334032 -83.4725 
L 318.74645 -83.4725 
L 320.158869 -83.4725 
L 321.571288 -83.4725 
L 322.983706 -83.4725 
L 324.396125 -83.4725 
L 325.808543 -83.4725 
L 327.220962 -83.4725 
L 328.63338 -83.4725 
L 330.045799 -83.4725 
L 331.458218 -83.4725 
L 332.870636 -83.4725 
L 334.283055 -83.4725 
L 335.695473 -83.4725 
L 337.107892 -83.4725 
L 338.52031 -83.4725 
L 339.932729 -83.4725 
L 341.345148 -83.4725 
L 342.757566 -83.4725 
L 344.169985 -83.4725 
L 345.582403 -83.4725 
L 346.994822 -83.4725 
L 348.40724 -83.4725 
L 349.819659 -83.4725 
L 351.232078 -83.4725 
L 352.644496 -83.4725 
L 354.056915 -83.4725 
L 355.469333 -83.4725 
L 356.881752 -83.4725 
L 358.294171 -83.4725 
L 359.706589 -83.4725 
L 361.119008 -83.4725 
L 362.531426 -83.4725 
L 363.943845 -83.4725 
L 365.356263 -83.4725 
L 366.768682 -83.4725 
L 368.181101 -83.4725 
L 369.593519 -83.4725 
L 371.005938 -83.4725 
L 372.418356 -83.4725 
L 373.830775 -83.4725 
L 375.243193 -83.4725 
L 376.655612 -83.4725 
L 378.068031 -83.4725 
L 379.480449 -83.4725 
L 380.892868 -83.4725 
L 382.305286 -83.4725 
L 383.717705 -83.4725 
L 385.130123 -83.4725 
L 386.542542 -83.4725 
L 387.954961 -83.4725 
L 389.367379 -83.4725 
L 390.779798 -83.4725 
L 392.192216 -83.4725 
L 393.604635 -83.4725 
L 395.017053 -83.4725 
L 396.429472 -83.4725 
L 397.841891 -83.4725 
L 399.254309 -83.4725 
L 400.666728 -83.4725 
L 402.079146 -83.4725 
L 403.491565 -83.4725 
L 404.903984 -83.4725 
L 406.316402 -83.4725 
L 407.728821 -83.4725 
L 409.141239 -83.4725 
L 410.553658 -83.4725 
L 411.966076 -83.4725 
L 413.378495 -83.4725 
L 414.790914 -83.4725 
L 416.203332 -83.4725 
L 417.615751 -83.4725 
L 419.028169 -83.4725 
L 420.440588 -83.4725 
L 421.853006 -83.4725 
L 423.265425 -83.4725 
L 424.677844 -83.4725 
L 426.090262 -83.4725 
L 427.502681 -83.4725 
L 428.915099 -83.4725 
L 430.327518 -83.4725 
L 431.739936 -83.4725 
L 433.152355 -83.4725 
L 434.564774 -83.4725 
L 435.977192 -83.4725 
L 437.389611 -83.4725 
L 438.802029 -83.4725 
L 440.214448 -83.4725 
L 441.626866 -83.4725 
L 443.039285 -83.4725 
L 444.451704 -83.4725 
L 445.864122 -83.4725 
L 447.276541 -83.4725 
L 448.688959 -83.4725 
L 450.101378 -83.4725 
L 451.513797 -83.4725 
L 452.926215 -83.4725 
L 454.338634 -83.4725 
L 455.751052 -83.4725 
L 457.163471 -83.4725 
L 458.575889 -83.4725 
L 459.988308 -83.4725 
L 461.400727 -83.4725 
L 462.813145 -83.4725 
L 464.225564 -83.4725 
L 465.637982 -83.4725 
L 467.050401 -83.4725 
L 468.462819 -83.4725 
L 469.875238 -83.4725 
L 471.287657 -83.4725 
L 472.700075 -83.4725 
L 474.112494 -83.4725 
L 475.524912 -83.4725 
L 476.937331 -83.4725 
L 478.349749 -83.4725 
L 479.762168 -83.4725 
L 481.174587 -83.4725 
L 482.587005 -83.4725 
L 483.999424 -83.4725 
L 485.411842 -83.4725 
L 486.824261 -83.4725 
L 488.236679 -83.4725 
L 489.649098 -83.4725 
L 491.061517 -83.4725 
L 492.473935 -83.4725 
L 493.886354 -83.4725 
L 495.298772 -83.4725 
L 496.711191 -83.4725 
L 498.12361 -83.4725 
L 499.536028 -83.4725 
L 500.948447 -83.4725 
L 502.360865 -83.4725 
L 503.773284 -83.4725 
L 505.185702 -83.4725 
L 506.598121 -83.4725 
L 508.01054 -83.4725 
L 509.422958 -83.4725 
L 510.835377 -83.4725 
L 512.247795 -83.4725 
L 513.660214 -83.4725 
L 515.072632 -83.4725 
L 516.485051 -83.4725 
L 517.89747 -83.4725 
L 519.309888 -83.4725 
L 520.722307 -83.4725 
L 522.134725 -83.4725 
L 523.547144 -83.4725 
L 524.959562 -83.4725 
L 526.371981 -83.4725 
L 527.7844 -83.4725 
L 529.196818 -83.4725 
L 529.196818 -83.654568 
L 529.196818 -83.654568 
L 527.7844 -83.689734 
L 526.371981 -83.730876 
L 524.959562 -83.778847 
L 523.547144 -83.834586 
L 522.134725 -83.899129 
L 520.722307 -83.973609 
L 519.309888 -84.05926 
L 517.89747 -84.157419 
L 516.485051 -84.269524 
L 515.072632 -84.397115 
L 513.660214 -84.54183 
L 512.247795 -84.705403 
L 510.835377 -84.889651 
L 509.422958 -85.096473 
L 508.01054 -85.327833 
L 506.598121 -85.585751 
L 505.185702 -85.872284 
L 503.773284 -86.189514 
L 502.360865 -86.539519 
L 500.948447 -86.924362 
L 499.536028 -87.346059 
L 498.12361 -87.806562 
L 496.711191 -88.307727 
L 495.298772 -88.851292 
L 493.886354 -89.438849 
L 492.473935 -90.071818 
L 491.061517 -90.751426 
L 489.649098 -91.478679 
L 488.236679 -92.254344 
L 486.824261 -93.078933 
L 485.411842 -93.952684 
L 483.999424 -94.875555 
L 482.587005 -95.847215 
L 481.174587 -96.867042 
L 479.762168 -97.934131 
L 478.349749 -99.047296 
L 476.937331 -100.205089 
L 475.524912 -101.405816 
L 474.112494 -102.647559 
L 472.700075 -103.928207 
L 471.287657 -105.245481 
L 469.875238 -106.59697 
L 468.462819 -107.98017 
L 467.050401 -109.39251 
L 465.637982 -110.8314 
L 464.225564 -112.294254 
L 462.813145 -113.77853 
L 461.400727 -115.281755 
L 459.988308 -116.801551 
L 458.575889 -118.33565 
L 457.163471 -119.881908 
L 455.751052 -121.438313 
L 454.338634 -123.002979 
L 452.926215 -124.574136 
L 451.513797 -126.150116 
L 450.101378 -127.729324 
L 448.688959 -129.310209 
L 447.276541 -130.891226 
L 445.864122 -132.470791 
L 444.451704 -134.047237 
L 443.039285 -135.618761 
L 441.626866 -137.183377 
L 440.214448 -138.738863 
L 438.802029 -140.282717 
L 437.389611 -141.812111 
L 435.977192 -143.323857 
L 434.564774 -144.814371 
L 433.152355 -146.27966 
L 431.739936 -147.715305 
L 430.327518 -149.116466 
L 428.915099 -150.47789 
L 427.502681 -151.793939 
L 426.090262 -153.058629 
L 424.677844 -154.265675 
L 423.265425 -155.408556 
L 421.853006 -156.48059 
L 420.440588 -157.475012 
L 419.028169 -158.385067 
L 417.615751 -159.204106 
L 416.203332 -159.925692 
L 414.790914 -160.543696 
L 413.378495 -161.052412 
L 411.966076 -161.446648 
L 410.553658 -161.721833 
L 409.141239 -161.8741 
L 407.728821 -161.900374 
L 406.316402 -161.79844 
L 404.903984 -161.567001 
L 403.491565 -161.205726 
L 402.079146 -160.715278 
L 400.666728 -160.097326 
L 399.254309 -159.354545 
L 397.841891 -158.490601 
L 396.429472 -157.51011 
L 395.017053 -156.418594 
L 393.604635 -155.222418 
L 392.192216 -153.928711 
L 390.779798 -152.545284 
L 389.367379 -151.08053 
L 387.954961 -149.543323 
L 386.542542 -147.942913 
L 385.130123 -146.288809 
L 383.717705 -144.590672 
L 382.305286 -142.858202 
L 380.892868 -141.101035 
L 379.480449 -139.328637 
L 378.068031 -137.550209 
L 376.655612 -135.774602 
L 375.243193 -134.010238 
L 373.830775 -132.26504 
L 372.418356 -130.546376 
L 371.005938 -128.861009 
L 369.593519 -127.215063 
L 368.181101 -125.613992 
L 366.768682 -124.062569 
L 365.356263 -122.564873 
L 363.943845 -121.124293 
L 362.531426 -119.743535 
L 361.119008 -118.424638 
L 359.706589 -117.168994 
L 358.294171 -115.977372 
L 356.881752 -114.84995 
L 355.469333 -113.786348 
L 354.056915 -112.785658 
L 352.644496 -111.846487 
L 351.232078 -110.966992 
L 349.819659 -110.14492 
L 348.40724 -109.377648 
L 346.994822 -108.662222 
L 345.582403 -107.995403 
L 344.169985 -107.373703 
L 342.757566 -106.793432 
L 341.345148 -106.250738 
L 339.932729 -105.741649 
L 338.52031 -105.26212 
L 337.107892 -104.808074 
L 335.695473 -104.375447 
L 334.283055 -103.960229 
L 332.870636 -103.55851 
L 331.458218 -103.166519 
L 330.045799 -102.780667 
L 328.63338 -102.39758 
L 327.220962 -102.014143 
L 325.808543 -101.627522 
L 324.396125 -101.2352 
L 322.983706 -100.834998 
L 321.571288 -100.425094 
L 320.158869 -100.004037 
L 318.74645 -99.570756 
L 317.334032 -99.12456 
L 315.921613 -98.665136 
L 314.509195 -98.192541 
L 313.096776 -97.70718 
L 311.684358 -97.209796 
L 310.271939 -96.701433 
L 308.85952 -96.183415 
L 307.447102 -95.657305 
L 306.034683 -95.124875 
L 304.622265 -94.588062 
L 303.209846 -94.048929 
L 301.797427 -93.509626 
L 300.385009 -92.972348 
L 298.97259 -92.439295 
L 297.560172 -91.912636 
L 296.147753 -91.394475 
L 294.735335 -90.886816 
L 293.322916 -90.391537 
L 291.910497 -89.910366 
L 290.498079 -89.444861 
L 289.08566 -88.996394 
L 287.673242 -88.566139 
L 286.260823 -88.155067 
L 284.848405 -87.763941 
L 283.435986 -87.393318 
L 282.023567 -87.043557 
L 280.611149 -86.714821 
L 279.19873 -86.407092 
L 277.786312 -86.120182 
L 276.373893 -85.853749 
L 274.961475 -85.607312 
L 273.549056 -85.380268 
L 272.136637 -85.171911 
L 270.724219 -84.981449 
L 269.3118 -84.80802 
L 267.899382 -84.65071 
L 266.486963 -84.508569 
L 265.074545 -84.380625 
L 263.662126 -84.265898 
L 262.249707 -84.163413 
L 260.837289 -84.072208 
L 259.42487 -83.991346 
L 258.012452 -83.919923 
L 256.600033 -83.857072 
L 255.187615 -83.80197 
L 253.775196 -83.753839 
L 252.362777 -83.711953 
L 250.950359 -83.675635 
L 249.53794 -83.644261 
L 248.125522 -83.617256 
z
" style="stroke: #87ceeb"/>
    </defs>
    <g clip-path="url(#p6997dd82ed)">
     <use xlink:href="#m4330cb40cf" x="0" y="432" style="fill: #87ceeb; fill-opacity: 0.25; stroke: #87ceeb"/>
    </g>
   </g>
   <g id="PolyCollection_2">
    <defs>
     <path id="me6a58099a1" d="M 127.009436 -84.046879 
L 127.009436 -83.4725 
L 127.379062 -83.4725 
L 127.748688 -83.4725 
L 128.118315 -83.4725 
L 128.487941 -83.4725 
L 128.857568 -83.4725 
L 129.227194 -83.4725 
L 129.59682 -83.4725 
L 129.966447 -83.4725 
L 130.336073 -83.4725 
L 130.7057 -83.4725 
L 131.075326 -83.4725 
L 131.444952 -83.4725 
L 131.814579 -83.4725 
L 132.184205 -83.4725 
L 132.553831 -83.4725 
L 132.923458 -83.4725 
L 133.293084 -83.4725 
L 133.662711 -83.4725 
L 134.032337 -83.4725 
L 134.401963 -83.4725 
L 134.77159 -83.4725 
L 135.141216 -83.4725 
L 135.510843 -83.4725 
L 135.880469 -83.4725 
L 136.250095 -83.4725 
L 136.619722 -83.4725 
L 136.989348 -83.4725 
L 137.358975 -83.4725 
L 137.728601 -83.4725 
L 138.098227 -83.4725 
L 138.467854 -83.4725 
L 138.83748 -83.4725 
L 139.207106 -83.4725 
L 139.576733 -83.4725 
L 139.946359 -83.4725 
L 140.315986 -83.4725 
L 140.685612 -83.4725 
L 141.055238 -83.4725 
L 141.424865 -83.4725 
L 141.794491 -83.4725 
L 142.164118 -83.4725 
L 142.533744 -83.4725 
L 142.90337 -83.4725 
L 143.272997 -83.4725 
L 143.642623 -83.4725 
L 144.01225 -83.4725 
L 144.381876 -83.4725 
L 144.751502 -83.4725 
L 145.121129 -83.4725 
L 145.490755 -83.4725 
L 145.860381 -83.4725 
L 146.230008 -83.4725 
L 146.599634 -83.4725 
L 146.969261 -83.4725 
L 147.338887 -83.4725 
L 147.708513 -83.4725 
L 148.07814 -83.4725 
L 148.447766 -83.4725 
L 148.817393 -83.4725 
L 149.187019 -83.4725 
L 149.556645 -83.4725 
L 149.926272 -83.4725 
L 150.295898 -83.4725 
L 150.665525 -83.4725 
L 151.035151 -83.4725 
L 151.404777 -83.4725 
L 151.774404 -83.4725 
L 152.14403 -83.4725 
L 152.513656 -83.4725 
L 152.883283 -83.4725 
L 153.252909 -83.4725 
L 153.622536 -83.4725 
L 153.992162 -83.4725 
L 154.361788 -83.4725 
L 154.731415 -83.4725 
L 155.101041 -83.4725 
L 155.470668 -83.4725 
L 155.840294 -83.4725 
L 156.20992 -83.4725 
L 156.579547 -83.4725 
L 156.949173 -83.4725 
L 157.3188 -83.4725 
L 157.688426 -83.4725 
L 158.058052 -83.4725 
L 158.427679 -83.4725 
L 158.797305 -83.4725 
L 159.166931 -83.4725 
L 159.536558 -83.4725 
L 159.906184 -83.4725 
L 160.275811 -83.4725 
L 160.645437 -83.4725 
L 161.015063 -83.4725 
L 161.38469 -83.4725 
L 161.754316 -83.4725 
L 162.123943 -83.4725 
L 162.493569 -83.4725 
L 162.863195 -83.4725 
L 163.232822 -83.4725 
L 163.602448 -83.4725 
L 163.972074 -83.4725 
L 164.341701 -83.4725 
L 164.711327 -83.4725 
L 165.080954 -83.4725 
L 165.45058 -83.4725 
L 165.820206 -83.4725 
L 166.189833 -83.4725 
L 166.559459 -83.4725 
L 166.929086 -83.4725 
L 167.298712 -83.4725 
L 167.668338 -83.4725 
L 168.037965 -83.4725 
L 168.407591 -83.4725 
L 168.777218 -83.4725 
L 169.146844 -83.4725 
L 169.51647 -83.4725 
L 169.886097 -83.4725 
L 170.255723 -83.4725 
L 170.625349 -83.4725 
L 170.994976 -83.4725 
L 171.364602 -83.4725 
L 171.734229 -83.4725 
L 172.103855 -83.4725 
L 172.473481 -83.4725 
L 172.843108 -83.4725 
L 173.212734 -83.4725 
L 173.582361 -83.4725 
L 173.951987 -83.4725 
L 174.321613 -83.4725 
L 174.69124 -83.4725 
L 175.060866 -83.4725 
L 175.430493 -83.4725 
L 175.800119 -83.4725 
L 176.169745 -83.4725 
L 176.539372 -83.4725 
L 176.908998 -83.4725 
L 177.278624 -83.4725 
L 177.648251 -83.4725 
L 178.017877 -83.4725 
L 178.387504 -83.4725 
L 178.75713 -83.4725 
L 179.126756 -83.4725 
L 179.496383 -83.4725 
L 179.866009 -83.4725 
L 180.235636 -83.4725 
L 180.605262 -83.4725 
L 180.974888 -83.4725 
L 181.344515 -83.4725 
L 181.714141 -83.4725 
L 182.083768 -83.4725 
L 182.453394 -83.4725 
L 182.82302 -83.4725 
L 183.192647 -83.4725 
L 183.562273 -83.4725 
L 183.931899 -83.4725 
L 184.301526 -83.4725 
L 184.671152 -83.4725 
L 185.040779 -83.4725 
L 185.410405 -83.4725 
L 185.780031 -83.4725 
L 186.149658 -83.4725 
L 186.519284 -83.4725 
L 186.888911 -83.4725 
L 187.258537 -83.4725 
L 187.628163 -83.4725 
L 187.99779 -83.4725 
L 188.367416 -83.4725 
L 188.737043 -83.4725 
L 189.106669 -83.4725 
L 189.476295 -83.4725 
L 189.845922 -83.4725 
L 190.215548 -83.4725 
L 190.585174 -83.4725 
L 190.954801 -83.4725 
L 191.324427 -83.4725 
L 191.694054 -83.4725 
L 192.06368 -83.4725 
L 192.433306 -83.4725 
L 192.802933 -83.4725 
L 193.172559 -83.4725 
L 193.542186 -83.4725 
L 193.911812 -83.4725 
L 194.281438 -83.4725 
L 194.651065 -83.4725 
L 195.020691 -83.4725 
L 195.390318 -83.4725 
L 195.759944 -83.4725 
L 196.12957 -83.4725 
L 196.499197 -83.4725 
L 196.868823 -83.4725 
L 197.238449 -83.4725 
L 197.608076 -83.4725 
L 197.977702 -83.4725 
L 198.347329 -83.4725 
L 198.716955 -83.4725 
L 199.086581 -83.4725 
L 199.456208 -83.4725 
L 199.825834 -83.4725 
L 200.195461 -83.4725 
L 200.565087 -83.4725 
L 200.565087 -84.138139 
L 200.565087 -84.138139 
L 200.195461 -84.260066 
L 199.825834 -84.401634 
L 199.456208 -84.565485 
L 199.086581 -84.754524 
L 198.716955 -84.971928 
L 198.347329 -85.221153 
L 197.977702 -85.505945 
L 197.608076 -85.830333 
L 197.238449 -86.198634 
L 196.868823 -86.615447 
L 196.499197 -87.085634 
L 196.12957 -87.614312 
L 195.759944 -88.206823 
L 195.390318 -88.868709 
L 195.020691 -89.605673 
L 194.651065 -90.423536 
L 194.281438 -91.328188 
L 193.911812 -92.325527 
L 193.542186 -93.421398 
L 193.172559 -94.621518 
L 192.802933 -95.931399 
L 192.433306 -97.356265 
L 192.06368 -98.900966 
L 191.694054 -100.569882 
L 191.324427 -102.366832 
L 190.954801 -104.294977 
L 190.585174 -106.356731 
L 190.215548 -108.55366 
L 189.845922 -110.886406 
L 189.476295 -113.354596 
L 189.106669 -115.956776 
L 188.737043 -118.690345 
L 188.367416 -121.551505 
L 187.99779 -124.535227 
L 187.628163 -127.635226 
L 187.258537 -130.843964 
L 186.888911 -134.152658 
L 186.519284 -137.551318 
L 186.149658 -141.028804 
L 185.780031 -144.572896 
L 185.410405 -148.170392 
L 185.040779 -151.807223 
L 184.671152 -155.46859 
L 184.301526 -159.13911 
L 183.931899 -162.80299 
L 183.562273 -166.444208 
L 183.192647 -170.046705 
L 182.82302 -173.59459 
L 182.453394 -177.072352 
L 182.083768 -180.465071 
L 181.714141 -183.758628 
L 181.344515 -186.939921 
L 180.974888 -189.997067 
L 180.605262 -192.919589 
L 180.235636 -195.698609 
L 179.866009 -198.327 
L 179.496383 -200.799542 
L 179.126756 -203.113043 
L 178.75713 -205.26644 
L 178.387504 -207.260877 
L 178.017877 -209.099753 
L 177.648251 -210.788744 
L 177.278624 -212.335794 
L 176.908998 -213.751078 
L 176.539372 -215.04693 
L 176.169745 -216.237749 
L 175.800119 -217.33987 
L 175.430493 -218.371407 
L 175.060866 -219.352067 
L 174.69124 -220.302945 
L 174.321613 -221.246283 
L 173.951987 -222.205215 
L 173.582361 -223.203489 
L 173.212734 -224.265169 
L 172.843108 -225.414328 
L 172.473481 -226.67472 
L 172.103855 -228.069454 
L 171.734229 -229.620654 
L 171.364602 -231.349127 
L 170.994976 -233.274027 
L 170.625349 -235.41253 
L 170.255723 -237.779525 
L 169.886097 -240.387318 
L 169.51647 -243.24536 
L 169.146844 -246.360002 
L 168.777218 -249.734282 
L 168.407591 -253.367749 
L 168.037965 -257.256328 
L 167.668338 -261.392229 
L 167.298712 -265.763902 
L 166.929086 -270.356047 
L 166.559459 -275.149674 
L 166.189833 -280.122217 
L 165.820206 -285.247701 
L 165.45058 -290.49697 
L 165.080954 -295.837951 
L 164.711327 -301.235988 
L 164.341701 -306.654199 
L 163.972074 -312.053892 
L 163.602448 -317.395005 
L 163.232822 -322.636576 
L 162.863195 -327.737233 
L 162.493569 -332.655703 
L 162.123943 -337.351312 
L 161.754316 -341.784498 
L 161.38469 -345.917291 
L 161.015063 -349.713791 
L 160.645437 -353.140602 
L 160.275811 -356.167232 
L 159.906184 -358.766454 
L 159.536558 -360.914608 
L 159.166931 -362.591853 
L 158.797305 -363.782359 
L 158.427679 -364.474435 
L 158.058052 -364.660595 
L 157.688426 -364.337561 
L 157.3188 -363.506204 
L 156.949173 -362.171426 
L 156.579547 -360.341986 
L 156.20992 -358.030277 
L 155.840294 -355.25206 
L 155.470668 -352.026154 
L 155.101041 -348.374104 
L 154.731415 -344.319817 
L 154.361788 -339.889193 
L 153.992162 -335.109736 
L 153.622536 -330.010175 
L 153.252909 -324.620088 
L 152.883283 -318.969541 
L 152.513656 -313.088744 
L 152.14403 -307.007731 
L 151.774404 -300.756077 
L 151.404777 -294.362633 
L 151.035151 -287.855309 
L 150.665525 -281.260885 
L 150.295898 -274.604857 
L 149.926272 -267.911323 
L 149.556645 -261.202902 
L 149.187019 -254.50068 
L 148.817393 -247.824193 
L 148.447766 -241.191429 
L 148.07814 -234.618858 
L 147.708513 -228.121477 
L 147.338887 -221.712873 
L 146.969261 -215.405299 
L 146.599634 -209.20975 
L 146.230008 -203.136052 
L 145.860381 -197.192948 
L 145.490755 -191.388182 
L 145.121129 -185.728584 
L 144.751502 -180.220141 
L 144.381876 -174.868071 
L 144.01225 -169.676877 
L 143.642623 -164.650407 
L 143.272997 -159.791894 
L 142.90337 -155.103991 
L 142.533744 -150.588799 
L 142.164118 -146.247892 
L 141.794491 -142.082326 
L 141.424865 -138.092655 
L 141.055238 -134.278938 
L 140.685612 -130.640739 
L 140.315986 -127.17714 
L 139.946359 -123.886738 
L 139.576733 -120.767656 
L 139.207106 -117.817551 
L 138.83748 -115.033623 
L 138.467854 -112.412631 
L 138.098227 -109.950916 
L 137.728601 -107.644415 
L 137.358975 -105.488697 
L 136.989348 -103.478987 
L 136.619722 -101.610204 
L 136.250095 -99.876997 
L 135.880469 -98.273782 
L 135.510843 -96.794788 
L 135.141216 -95.434098 
L 134.77159 -94.185688 
L 134.401963 -93.043477 
L 134.032337 -92.001364 
L 133.662711 -91.053269 
L 133.293084 -90.193175 
L 132.923458 -89.415159 
L 132.553831 -88.713429 
L 132.184205 -88.082352 
L 131.814579 -87.51648 
L 131.444952 -87.010573 
L 131.075326 -86.559619 
L 130.7057 -86.158846 
L 130.336073 -85.803734 
L 129.966447 -85.490028 
L 129.59682 -85.213732 
L 129.227194 -84.971123 
L 128.857568 -84.758737 
L 128.487941 -84.573375 
L 128.118315 -84.41209 
L 127.748688 -84.272184 
L 127.379062 -84.151192 
L 127.009436 -84.046879 
z
" style="stroke: #fa8072"/>
    </defs>
    <g clip-path="url(#p6997dd82ed)">
     <use xlink:href="#me6a58099a1" x="0" y="432" style="fill: #fa8072; fill-opacity: 0.25; stroke: #fa8072"/>
    </g>
   </g>
   <g id="PolyCollection_3">
    <defs>
     <path id="mdfa41c1fd7" d="M 111.533182 -83.636444 
L 111.533182 -83.4725 
L 112.900626 -83.4725 
L 114.268069 -83.4725 
L 115.635513 -83.4725 
L 117.002957 -83.4725 
L 118.3704 -83.4725 
L 119.737844 -83.4725 
L 121.105288 -83.4725 
L 122.472731 -83.4725 
L 123.840175 -83.4725 
L 125.207619 -83.4725 
L 126.575062 -83.4725 
L 127.942506 -83.4725 
L 129.30995 -83.4725 
L 130.677394 -83.4725 
L 132.044837 -83.4725 
L 133.412281 -83.4725 
L 134.779725 -83.4725 
L 136.147168 -83.4725 
L 137.514612 -83.4725 
L 138.882056 -83.4725 
L 140.249499 -83.4725 
L 141.616943 -83.4725 
L 142.984387 -83.4725 
L 144.35183 -83.4725 
L 145.719274 -83.4725 
L 147.086718 -83.4725 
L 148.454162 -83.4725 
L 149.821605 -83.4725 
L 151.189049 -83.4725 
L 152.556493 -83.4725 
L 153.923936 -83.4725 
L 155.29138 -83.4725 
L 156.658824 -83.4725 
L 158.026267 -83.4725 
L 159.393711 -83.4725 
L 160.761155 -83.4725 
L 162.128598 -83.4725 
L 163.496042 -83.4725 
L 164.863486 -83.4725 
L 166.230929 -83.4725 
L 167.598373 -83.4725 
L 168.965817 -83.4725 
L 170.333261 -83.4725 
L 171.700704 -83.4725 
L 173.068148 -83.4725 
L 174.435592 -83.4725 
L 175.803035 -83.4725 
L 177.170479 -83.4725 
L 178.537923 -83.4725 
L 179.905366 -83.4725 
L 181.27281 -83.4725 
L 182.640254 -83.4725 
L 184.007697 -83.4725 
L 185.375141 -83.4725 
L 186.742585 -83.4725 
L 188.110029 -83.4725 
L 189.477472 -83.4725 
L 190.844916 -83.4725 
L 192.21236 -83.4725 
L 193.579803 -83.4725 
L 194.947247 -83.4725 
L 196.314691 -83.4725 
L 197.682134 -83.4725 
L 199.049578 -83.4725 
L 200.417022 -83.4725 
L 201.784465 -83.4725 
L 203.151909 -83.4725 
L 204.519353 -83.4725 
L 205.886797 -83.4725 
L 207.25424 -83.4725 
L 208.621684 -83.4725 
L 209.989128 -83.4725 
L 211.356571 -83.4725 
L 212.724015 -83.4725 
L 214.091459 -83.4725 
L 215.458902 -83.4725 
L 216.826346 -83.4725 
L 218.19379 -83.4725 
L 219.561233 -83.4725 
L 220.928677 -83.4725 
L 222.296121 -83.4725 
L 223.663565 -83.4725 
L 225.031008 -83.4725 
L 226.398452 -83.4725 
L 227.765896 -83.4725 
L 229.133339 -83.4725 
L 230.500783 -83.4725 
L 231.868227 -83.4725 
L 233.23567 -83.4725 
L 234.603114 -83.4725 
L 235.970558 -83.4725 
L 237.338001 -83.4725 
L 238.705445 -83.4725 
L 240.072889 -83.4725 
L 241.440333 -83.4725 
L 242.807776 -83.4725 
L 244.17522 -83.4725 
L 245.542664 -83.4725 
L 246.910107 -83.4725 
L 248.277551 -83.4725 
L 249.644995 -83.4725 
L 251.012438 -83.4725 
L 252.379882 -83.4725 
L 253.747326 -83.4725 
L 255.114769 -83.4725 
L 256.482213 -83.4725 
L 257.849657 -83.4725 
L 259.217101 -83.4725 
L 260.584544 -83.4725 
L 261.951988 -83.4725 
L 263.319432 -83.4725 
L 264.686875 -83.4725 
L 266.054319 -83.4725 
L 267.421763 -83.4725 
L 268.789206 -83.4725 
L 270.15665 -83.4725 
L 271.524094 -83.4725 
L 272.891537 -83.4725 
L 274.258981 -83.4725 
L 275.626425 -83.4725 
L 276.993869 -83.4725 
L 278.361312 -83.4725 
L 279.728756 -83.4725 
L 281.0962 -83.4725 
L 282.463643 -83.4725 
L 283.831087 -83.4725 
L 285.198531 -83.4725 
L 286.565974 -83.4725 
L 287.933418 -83.4725 
L 289.300862 -83.4725 
L 290.668305 -83.4725 
L 292.035749 -83.4725 
L 293.403193 -83.4725 
L 294.770637 -83.4725 
L 296.13808 -83.4725 
L 297.505524 -83.4725 
L 298.872968 -83.4725 
L 300.240411 -83.4725 
L 301.607855 -83.4725 
L 302.975299 -83.4725 
L 304.342742 -83.4725 
L 305.710186 -83.4725 
L 307.07763 -83.4725 
L 308.445073 -83.4725 
L 309.812517 -83.4725 
L 311.179961 -83.4725 
L 312.547405 -83.4725 
L 313.914848 -83.4725 
L 315.282292 -83.4725 
L 316.649736 -83.4725 
L 318.017179 -83.4725 
L 319.384623 -83.4725 
L 320.752067 -83.4725 
L 322.11951 -83.4725 
L 323.486954 -83.4725 
L 324.854398 -83.4725 
L 326.221841 -83.4725 
L 327.589285 -83.4725 
L 328.956729 -83.4725 
L 330.324173 -83.4725 
L 331.691616 -83.4725 
L 333.05906 -83.4725 
L 334.426504 -83.4725 
L 335.793947 -83.4725 
L 337.161391 -83.4725 
L 338.528835 -83.4725 
L 339.896278 -83.4725 
L 341.263722 -83.4725 
L 342.631166 -83.4725 
L 343.998609 -83.4725 
L 345.366053 -83.4725 
L 346.733497 -83.4725 
L 348.100941 -83.4725 
L 349.468384 -83.4725 
L 350.835828 -83.4725 
L 352.203272 -83.4725 
L 353.570715 -83.4725 
L 354.938159 -83.4725 
L 356.305603 -83.4725 
L 357.673046 -83.4725 
L 359.04049 -83.4725 
L 360.407934 -83.4725 
L 361.775377 -83.4725 
L 363.142821 -83.4725 
L 364.510265 -83.4725 
L 365.877709 -83.4725 
L 367.245152 -83.4725 
L 368.612596 -83.4725 
L 369.98004 -83.4725 
L 371.347483 -83.4725 
L 372.714927 -83.4725 
L 374.082371 -83.4725 
L 375.449814 -83.4725 
L 376.817258 -83.4725 
L 378.184702 -83.4725 
L 379.552145 -83.4725 
L 380.919589 -83.4725 
L 382.287033 -83.4725 
L 383.654477 -83.4725 
L 383.654477 -83.63682 
L 383.654477 -83.63682 
L 382.287033 -83.666789 
L 380.919589 -83.701558 
L 379.552145 -83.74177 
L 378.184702 -83.788126 
L 376.817258 -83.841396 
L 375.449814 -83.902415 
L 374.082371 -83.972086 
L 372.714927 -84.051379 
L 371.347483 -84.141332 
L 369.98004 -84.243048 
L 368.612596 -84.357693 
L 367.245152 -84.486489 
L 365.877709 -84.63071 
L 364.510265 -84.791674 
L 363.142821 -84.970734 
L 361.775377 -85.169267 
L 360.407934 -85.388659 
L 359.04049 -85.630294 
L 357.673046 -85.895538 
L 356.305603 -86.185717 
L 354.938159 -86.502101 
L 353.570715 -86.845886 
L 352.203272 -87.218166 
L 350.835828 -87.619916 
L 349.468384 -88.051969 
L 348.100941 -88.514989 
L 346.733497 -89.009457 
L 345.366053 -89.535639 
L 343.998609 -90.093575 
L 342.631166 -90.683056 
L 341.263722 -91.303609 
L 339.896278 -91.954486 
L 338.528835 -92.634649 
L 337.161391 -93.342772 
L 335.793947 -94.07723 
L 334.426504 -94.836113 
L 333.05906 -95.617222 
L 331.691616 -96.418092 
L 330.324173 -97.236006 
L 328.956729 -98.068016 
L 327.589285 -98.910979 
L 326.221841 -99.761584 
L 324.854398 -100.616392 
L 323.486954 -101.471882 
L 322.11951 -102.324493 
L 320.752067 -103.170674 
L 319.384623 -104.006937 
L 318.017179 -104.829908 
L 316.649736 -105.63638 
L 315.282292 -106.423362 
L 313.914848 -107.188137 
L 312.547405 -107.928299 
L 311.179961 -108.641808 
L 309.812517 -109.327018 
L 308.445073 -109.98272 
L 307.07763 -110.608163 
L 305.710186 -111.203076 
L 304.342742 -111.767681 
L 302.975299 -112.302696 
L 301.607855 -112.809334 
L 300.240411 -113.289287 
L 298.872968 -113.74471 
L 297.505524 -114.178193 
L 296.13808 -114.592722 
L 294.770637 -114.991646 
L 293.403193 -115.37862 
L 292.035749 -115.757562 
L 290.668305 -116.132594 
L 289.300862 -116.507982 
L 287.933418 -116.888081 
L 286.565974 -117.277272 
L 285.198531 -117.679902 
L 283.831087 -118.100232 
L 282.463643 -118.542375 
L 281.0962 -119.010252 
L 279.728756 -119.507539 
L 278.361312 -120.03763 
L 276.993869 -120.603597 
L 275.626425 -121.208162 
L 274.258981 -121.853667 
L 272.891537 -122.542056 
L 271.524094 -123.27486 
L 270.15665 -124.053182 
L 268.789206 -124.877698 
L 267.421763 -125.748643 
L 266.054319 -126.665822 
L 264.686875 -127.628603 
L 263.319432 -128.635926 
L 261.951988 -129.686306 
L 260.584544 -130.777838 
L 259.217101 -131.908206 
L 257.849657 -133.074684 
L 256.482213 -134.274147 
L 255.114769 -135.503076 
L 253.747326 -136.757561 
L 252.379882 -138.033313 
L 251.012438 -139.325669 
L 249.644995 -140.629605 
L 248.277551 -141.939745 
L 246.910107 -143.250375 
L 245.542664 -144.555468 
L 244.17522 -145.848702 
L 242.807776 -147.123487 
L 241.440333 -148.373003 
L 240.072889 -149.590236 
L 238.705445 -150.76802 
L 237.338001 -151.899093 
L 235.970558 -152.97615 
L 234.603114 -153.991902 
L 233.23567 -154.939148 
L 231.868227 -155.810835 
L 230.500783 -156.600138 
L 229.133339 -157.300528 
L 227.765896 -157.905849 
L 226.398452 -158.410386 
L 225.031008 -158.808938 
L 223.663565 -159.096881 
L 222.296121 -159.270227 
L 220.928677 -159.325682 
L 219.561233 -159.260685 
L 218.19379 -159.073446 
L 216.826346 -158.762976 
L 215.458902 -158.329097 
L 214.091459 -157.772455 
L 212.724015 -157.094507 
L 211.356571 -156.297511 
L 209.989128 -155.384497 
L 208.621684 -154.359234 
L 207.25424 -153.226181 
L 205.886797 -151.990441 
L 204.519353 -150.657695 
L 203.151909 -149.234144 
L 201.784465 -147.726435 
L 200.417022 -146.141591 
L 199.049578 -144.48694 
L 197.682134 -142.770036 
L 196.314691 -140.99859 
L 194.947247 -139.180398 
L 193.579803 -137.323271 
L 192.21236 -135.434973 
L 190.844916 -133.523156 
L 189.477472 -131.595313 
L 188.110029 -129.658718 
L 186.742585 -127.720389 
L 185.375141 -125.787048 
L 184.007697 -123.865086 
L 182.640254 -121.960536 
L 181.27281 -120.079054 
L 179.905366 -118.225897 
L 178.537923 -116.405918 
L 177.170479 -114.623551 
L 175.803035 -112.882812 
L 174.435592 -111.187296 
L 173.068148 -109.540183 
L 171.700704 -107.944243 
L 170.333261 -106.40184 
L 168.965817 -104.91495 
L 167.598373 -103.485167 
L 166.230929 -102.113721 
L 164.863486 -100.801489 
L 163.496042 -99.549016 
L 162.128598 -98.356527 
L 160.761155 -97.223951 
L 159.393711 -96.150935 
L 158.026267 -95.136865 
L 156.658824 -94.180887 
L 155.29138 -93.281924 
L 153.923936 -92.438701 
L 152.556493 -91.64976 
L 151.189049 -90.913487 
L 149.821605 -90.228127 
L 148.454162 -89.591806 
L 147.086718 -89.002553 
L 145.719274 -88.458318 
L 144.35183 -87.956987 
L 142.984387 -87.49641 
L 141.616943 -87.074408 
L 140.249499 -86.688795 
L 138.882056 -86.337393 
L 137.514612 -86.018045 
L 136.147168 -85.728628 
L 134.779725 -85.467065 
L 133.412281 -85.231338 
L 132.044837 -85.019492 
L 130.677394 -84.829646 
L 129.30995 -84.660001 
L 127.942506 -84.50884 
L 126.575062 -84.374537 
L 125.207619 -84.255557 
L 123.840175 -84.150457 
L 122.472731 -84.057889 
L 121.105288 -83.976598 
L 119.737844 -83.905418 
L 118.3704 -83.843277 
L 117.002957 -83.789186 
L 115.635513 -83.742244 
L 114.268069 -83.701625 
L 112.900626 -83.666584 
L 111.533182 -83.636444 
z
" style="stroke: #2e8b57"/>
    </defs>
    <g clip-path="url(#p6997dd82ed)">
     <use xlink:href="#mdfa41c1fd7" x="0" y="432" style="fill: #2e8b57; fill-opacity: 0.25; stroke: #2e8b57"/>
    </g>
   </g>
   <g id="matplotlib.axis_1">
    <g id="xtick_1">
     <g id="line2d_1">
      <defs>
       <path id="m773166e0cd" d="M 0 0 
L 0 3.5 
" style="stroke: #000000; stroke-width: 0.8"/>
      </defs>
      <g>
       <use xlink:href="#m773166e0cd" x="149.043677" y="348.5275" style="stroke: #000000; stroke-width: 0.8"/>
      </g>
     </g>
     <g id="text_1">
      <!-- 0.1 -->
      <g transform="translate(129.959927 373.76375) scale(0.24 -0.24)">
       <defs>
        <path id="DejaVuSerif-30" d="M 2034 219 
Q 2513 219 2750 744 
Q 2988 1269 2988 2328 
Q 2988 3391 2750 3916 
Q 2513 4441 2034 4441 
Q 1556 4441 1318 3916 
Q 1081 3391 1081 2328 
Q 1081 1269 1318 744 
Q 1556 219 2034 219 
z
M 2034 -91 
Q 1275 -91 848 546 
Q 422 1184 422 2328 
Q 422 3475 848 4112 
Q 1275 4750 2034 4750 
Q 2797 4750 3222 4112 
Q 3647 3475 3647 2328 
Q 3647 1184 3222 546 
Q 2797 -91 2034 -91 
z
" transform="scale(0.015625)"/>
        <path id="DejaVuSerif-2e" d="M 603 325 
Q 603 500 722 622 
Q 841 744 1019 744 
Q 1191 744 1312 622 
Q 1434 500 1434 325 
Q 1434 153 1312 31 
Q 1191 -91 1019 -91 
Q 841 -91 722 29 
Q 603 150 603 325 
z
" transform="scale(0.015625)"/>
        <path id="DejaVuSerif-31" d="M 909 0 
L 909 331 
L 1722 331 
L 1722 4213 
L 781 3603 
L 781 4013 
L 1919 4750 
L 2350 4750 
L 2350 331 
L 3163 331 
L 3163 0 
L 909 0 
z
" transform="scale(0.015625)"/>
       </defs>
       <use xlink:href="#DejaVuSerif-30"/>
       <use xlink:href="#DejaVuSerif-2e" x="63.623047"/>
       <use xlink:href="#DejaVuSerif-31" x="95.410156"/>
      </g>
     </g>
    </g>
    <g id="xtick_2">
     <g id="line2d_2">
      <g>
       <use xlink:href="#m773166e0cd" x="232.626606" y="348.5275" style="stroke: #000000; stroke-width: 0.8"/>
      </g>
     </g>
     <g id="text_2">
      <!-- 0.2 -->
      <g transform="translate(213.542856 373.76375) scale(0.24 -0.24)">
       <defs>
        <path id="DejaVuSerif-32" d="M 819 3553 
L 469 3553 
L 469 4384 
Q 803 4563 1142 4656 
Q 1481 4750 1806 4750 
Q 2534 4750 2956 4397 
Q 3378 4044 3378 3438 
Q 3378 2753 2422 1800 
Q 2347 1728 2309 1691 
L 1131 513 
L 3078 513 
L 3078 1088 
L 3444 1088 
L 3444 0 
L 434 0 
L 434 341 
L 1850 1753 
Q 2319 2222 2519 2614 
Q 2719 3006 2719 3438 
Q 2719 3909 2473 4175 
Q 2228 4441 1797 4441 
Q 1350 4441 1106 4219 
Q 863 3997 819 3553 
z
" transform="scale(0.015625)"/>
       </defs>
       <use xlink:href="#DejaVuSerif-30"/>
       <use xlink:href="#DejaVuSerif-2e" x="63.623047"/>
       <use xlink:href="#DejaVuSerif-32" x="95.410156"/>
      </g>
     </g>
    </g>
    <g id="xtick_3">
     <g id="line2d_3">
      <g>
       <use xlink:href="#m773166e0cd" x="316.209535" y="348.5275" style="stroke: #000000; stroke-width: 0.8"/>
      </g>
     </g>
     <g id="text_3">
      <!-- 0.3 -->
      <g transform="translate(297.125785 373.76375) scale(0.24 -0.24)">
       <defs>
        <path id="DejaVuSerif-33" d="M 622 4469 
Q 988 4606 1323 4678 
Q 1659 4750 1953 4750 
Q 2638 4750 3022 4454 
Q 3406 4159 3406 3634 
Q 3406 3213 3140 2930 
Q 2875 2647 2388 2547 
Q 2963 2466 3280 2130 
Q 3597 1794 3597 1259 
Q 3597 606 3158 257 
Q 2719 -91 1894 -91 
Q 1528 -91 1179 -12 
Q 831 66 488 225 
L 488 1131 
L 838 1131 
Q 869 681 1141 450 
Q 1413 219 1906 219 
Q 2384 219 2661 495 
Q 2938 772 2938 1253 
Q 2938 1803 2653 2086 
Q 2369 2369 1819 2369 
L 1522 2369 
L 1522 2688 
L 1678 2688 
Q 2225 2688 2498 2914 
Q 2772 3141 2772 3597 
Q 2772 4006 2547 4223 
Q 2322 4441 1900 4441 
Q 1478 4441 1245 4241 
Q 1013 4041 972 3647 
L 622 3647 
L 622 4469 
z
" transform="scale(0.015625)"/>
       </defs>
       <use xlink:href="#DejaVuSerif-30"/>
       <use xlink:href="#DejaVuSerif-2e" x="63.623047"/>
       <use xlink:href="#DejaVuSerif-33" x="95.410156"/>
      </g>
     </g>
    </g>
    <g id="xtick_4">
     <g id="line2d_4">
      <g>
       <use xlink:href="#m773166e0cd" x="399.792464" y="348.5275" style="stroke: #000000; stroke-width: 0.8"/>
      </g>
     </g>
     <g id="text_4">
      <!-- 0.4 -->
      <g transform="translate(380.708714 373.76375) scale(0.24 -0.24)">
       <defs>
        <path id="DejaVuSerif-34" d="M 2234 1581 
L 2234 4063 
L 641 1581 
L 2234 1581 
z
M 3609 0 
L 1484 0 
L 1484 331 
L 2234 331 
L 2234 1247 
L 197 1247 
L 197 1588 
L 2241 4750 
L 2859 4750 
L 2859 1581 
L 3750 1581 
L 3750 1247 
L 2859 1247 
L 2859 331 
L 3609 331 
L 3609 0 
z
" transform="scale(0.015625)"/>
       </defs>
       <use xlink:href="#DejaVuSerif-30"/>
       <use xlink:href="#DejaVuSerif-2e" x="63.623047"/>
       <use xlink:href="#DejaVuSerif-34" x="95.410156"/>
      </g>
     </g>
    </g>
    <g id="xtick_5">
     <g id="line2d_5">
      <g>
       <use xlink:href="#m773166e0cd" x="483.375392" y="348.5275" style="stroke: #000000; stroke-width: 0.8"/>
      </g>
     </g>
     <g id="text_5">
      <!-- 0.5 -->
      <g transform="translate(464.291642 373.76375) scale(0.24 -0.24)">
       <defs>
        <path id="DejaVuSerif-35" d="M 3219 4666 
L 3219 4153 
L 1081 4153 
L 1081 2816 
Q 1244 2928 1461 2984 
Q 1678 3041 1947 3041 
Q 2703 3041 3140 2622 
Q 3578 2203 3578 1478 
Q 3578 738 3136 323 
Q 2694 -91 1894 -91 
Q 1572 -91 1234 -12 
Q 897 66 544 225 
L 544 1131 
L 897 1131 
Q 925 688 1179 453 
Q 1434 219 1894 219 
Q 2388 219 2653 544 
Q 2919 869 2919 1478 
Q 2919 2084 2655 2407 
Q 2391 2731 1894 2731 
Q 1613 2731 1398 2631 
Q 1184 2531 1019 2322 
L 750 2322 
L 750 4666 
L 3219 4666 
z
" transform="scale(0.015625)"/>
       </defs>
       <use xlink:href="#DejaVuSerif-30"/>
       <use xlink:href="#DejaVuSerif-2e" x="63.623047"/>
       <use xlink:href="#DejaVuSerif-35" x="95.410156"/>
      </g>
     </g>
    </g>
    <g id="text_6">
     <!-- High Frequency Energy Ratio (r ≥ 0.5) -->
     <g transform="translate(82.489375 400.99125) scale(0.24 -0.24)">
      <defs>
       <path id="DejaVuSerif-48" d="M 353 0 
L 353 331 
L 947 331 
L 947 4331 
L 353 4331 
L 353 4666 
L 2175 4666 
L 2175 4331 
L 1581 4331 
L 1581 2719 
L 4000 2719 
L 4000 4331 
L 3406 4331 
L 3406 4666 
L 5228 4666 
L 5228 4331 
L 4634 4331 
L 4634 331 
L 5228 331 
L 5228 0 
L 3406 0 
L 3406 331 
L 4000 331 
L 4000 2338 
L 1581 2338 
L 1581 331 
L 2175 331 
L 2175 0 
L 353 0 
z
" transform="scale(0.015625)"/>
       <path id="DejaVuSerif-69" d="M 622 4353 
Q 622 4497 726 4603 
Q 831 4709 978 4709 
Q 1122 4709 1226 4603 
Q 1331 4497 1331 4353 
Q 1331 4206 1228 4103 
Q 1125 4000 978 4000 
Q 831 4000 726 4103 
Q 622 4206 622 4353 
z
M 1356 331 
L 1900 331 
L 1900 0 
L 231 0 
L 231 331 
L 781 331 
L 781 2988 
L 231 2988 
L 231 3322 
L 1356 3322 
L 1356 331 
z
" transform="scale(0.015625)"/>
       <path id="DejaVuSerif-67" d="M 3359 2988 
L 3359 72 
Q 3359 -644 2965 -1033 
Q 2572 -1422 1844 -1422 
Q 1516 -1422 1216 -1362 
Q 916 -1303 641 -1184 
L 641 -488 
L 941 -488 
Q 997 -813 1206 -963 
Q 1416 -1113 1806 -1113 
Q 2313 -1113 2548 -827 
Q 2784 -541 2784 72 
L 2784 519 
Q 2616 206 2355 57 
Q 2094 -91 1709 -91 
Q 1097 -91 708 395 
Q 319 881 319 1663 
Q 319 2444 706 2928 
Q 1094 3413 1709 3413 
Q 2094 3413 2355 3264 
Q 2616 3116 2784 2803 
L 2784 3322 
L 3909 3322 
L 3909 2988 
L 3359 2988 
z
M 2784 1825 
Q 2784 2422 2554 2737 
Q 2325 3053 1888 3053 
Q 1444 3053 1217 2703 
Q 991 2353 991 1663 
Q 991 975 1217 622 
Q 1444 269 1888 269 
Q 2325 269 2554 583 
Q 2784 897 2784 1497 
L 2784 1825 
z
" transform="scale(0.015625)"/>
       <path id="DejaVuSerif-68" d="M 263 0 
L 263 331 
L 781 331 
L 781 4531 
L 231 4531 
L 231 4863 
L 1356 4863 
L 1356 2731 
Q 1516 3069 1770 3241 
Q 2025 3413 2363 3413 
Q 2913 3413 3172 3097 
Q 3431 2781 3431 2113 
L 3431 331 
L 3944 331 
L 3944 0 
L 2356 0 
L 2356 331 
L 2853 331 
L 2853 1931 
Q 2853 2541 2704 2764 
Q 2556 2988 2175 2988 
Q 1775 2988 1565 2697 
Q 1356 2406 1356 1850 
L 1356 331 
L 1856 331 
L 1856 0 
L 263 0 
z
" transform="scale(0.015625)"/>
       <path id="DejaVuSerif-20" transform="scale(0.015625)"/>
       <path id="DejaVuSerif-46" d="M 353 0 
L 353 331 
L 947 331 
L 947 4331 
L 353 4331 
L 353 4666 
L 4172 4666 
L 4172 3628 
L 3788 3628 
L 3788 4281 
L 1581 4281 
L 1581 2719 
L 3175 2719 
L 3175 3303 
L 3559 3303 
L 3559 1753 
L 3175 1753 
L 3175 2338 
L 1581 2338 
L 1581 331 
L 2328 331 
L 2328 0 
L 353 0 
z
" transform="scale(0.015625)"/>
       <path id="DejaVuSerif-72" d="M 3059 3328 
L 3059 2497 
L 2728 2497 
Q 2713 2744 2591 2866 
Q 2469 2988 2234 2988 
Q 1809 2988 1582 2694 
Q 1356 2400 1356 1850 
L 1356 331 
L 2022 331 
L 2022 0 
L 263 0 
L 263 331 
L 781 331 
L 781 2994 
L 231 2994 
L 231 3322 
L 1356 3322 
L 1356 2731 
Q 1525 3078 1790 3245 
Q 2056 3413 2438 3413 
Q 2578 3413 2733 3391 
Q 2888 3369 3059 3328 
z
" transform="scale(0.015625)"/>
       <path id="DejaVuSerif-65" d="M 3469 1600 
L 991 1600 
L 991 1575 
Q 991 903 1244 561 
Q 1497 219 1991 219 
Q 2369 219 2611 417 
Q 2853 616 2950 1006 
L 3413 1006 
Q 3275 459 2904 184 
Q 2534 -91 1931 -91 
Q 1203 -91 761 389 
Q 319 869 319 1663 
Q 319 2450 753 2931 
Q 1188 3413 1894 3413 
Q 2647 3413 3050 2948 
Q 3453 2484 3469 1600 
z
M 2791 1931 
Q 2772 2513 2545 2808 
Q 2319 3103 1894 3103 
Q 1497 3103 1269 2806 
Q 1041 2509 991 1931 
L 2791 1931 
z
" transform="scale(0.015625)"/>
       <path id="DejaVuSerif-71" d="M 3359 2988 
L 3359 -997 
L 3909 -997 
L 3909 -1331 
L 2241 -1331 
L 2241 -997 
L 2784 -997 
L 2784 519 
Q 2616 206 2355 57 
Q 2094 -91 1709 -91 
Q 1097 -91 708 395 
Q 319 881 319 1663 
Q 319 2444 706 2928 
Q 1094 3413 1709 3413 
Q 2094 3413 2355 3264 
Q 2616 3116 2784 2803 
L 2784 3322 
L 3909 3322 
L 3909 2988 
L 3359 2988 
z
M 2784 1825 
Q 2784 2422 2554 2737 
Q 2325 3053 1888 3053 
Q 1444 3053 1217 2703 
Q 991 2353 991 1663 
Q 991 975 1217 622 
Q 1444 269 1888 269 
Q 2325 269 2554 583 
Q 2784 897 2784 1497 
L 2784 1825 
z
" transform="scale(0.015625)"/>
       <path id="DejaVuSerif-75" d="M 2266 3322 
L 3341 3322 
L 3341 331 
L 3884 331 
L 3884 0 
L 2766 0 
L 2766 588 
Q 2606 256 2353 82 
Q 2100 -91 1766 -91 
Q 1213 -91 952 223 
Q 691 538 691 1209 
L 691 2988 
L 172 2988 
L 172 3322 
L 1269 3322 
L 1269 1388 
Q 1269 781 1417 556 
Q 1566 331 1947 331 
Q 2347 331 2556 625 
Q 2766 919 2766 1478 
L 2766 2988 
L 2266 2988 
L 2266 3322 
z
" transform="scale(0.015625)"/>
       <path id="DejaVuSerif-6e" d="M 263 0 
L 263 331 
L 781 331 
L 781 2988 
L 231 2988 
L 231 3322 
L 1356 3322 
L 1356 2731 
Q 1516 3069 1770 3241 
Q 2025 3413 2363 3413 
Q 2913 3413 3172 3097 
Q 3431 2781 3431 2113 
L 3431 331 
L 3944 331 
L 3944 0 
L 2356 0 
L 2356 331 
L 2853 331 
L 2853 1931 
Q 2853 2541 2703 2767 
Q 2553 2994 2175 2994 
Q 1775 2994 1565 2701 
Q 1356 2409 1356 1850 
L 1356 331 
L 1856 331 
L 1856 0 
L 263 0 
z
" transform="scale(0.015625)"/>
       <path id="DejaVuSerif-63" d="M 3291 997 
Q 3169 466 2822 187 
Q 2475 -91 1925 -91 
Q 1200 -91 759 389 
Q 319 869 319 1663 
Q 319 2459 759 2936 
Q 1200 3413 1925 3413 
Q 2241 3413 2553 3339 
Q 2866 3266 3181 3116 
L 3181 2266 
L 2847 2266 
Q 2781 2703 2561 2903 
Q 2341 3103 1931 3103 
Q 1466 3103 1228 2742 
Q 991 2381 991 1663 
Q 991 944 1227 581 
Q 1463 219 1931 219 
Q 2303 219 2525 412 
Q 2747 606 2828 997 
L 3291 997 
z
" transform="scale(0.015625)"/>
       <path id="DejaVuSerif-79" d="M 1381 -609 
L 1600 -56 
L 359 2988 
L -19 2988 
L -19 3322 
L 1509 3322 
L 1509 2988 
L 978 2988 
L 1913 703 
L 2847 2988 
L 2350 2988 
L 2350 3322 
L 3597 3322 
L 3597 2988 
L 3225 2988 
L 1703 -750 
Q 1547 -1138 1356 -1280 
Q 1166 -1422 819 -1422 
Q 672 -1422 517 -1397 
Q 363 -1372 206 -1325 
L 206 -691 
L 500 -691 
Q 519 -903 608 -995 
Q 697 -1088 884 -1088 
Q 1056 -1088 1161 -992 
Q 1266 -897 1381 -609 
z
" transform="scale(0.015625)"/>
       <path id="DejaVuSerif-45" d="M 353 0 
L 353 331 
L 947 331 
L 947 4331 
L 353 4331 
L 353 4666 
L 4109 4666 
L 4109 3628 
L 3725 3628 
L 3725 4281 
L 1581 4281 
L 1581 2719 
L 3109 2719 
L 3109 3303 
L 3494 3303 
L 3494 1753 
L 3109 1753 
L 3109 2338 
L 1581 2338 
L 1581 384 
L 3775 384 
L 3775 1038 
L 4159 1038 
L 4159 0 
L 353 0 
z
" transform="scale(0.015625)"/>
       <path id="DejaVuSerif-52" d="M 3066 2316 
Q 3284 2256 3442 2114 
Q 3600 1972 3725 1716 
L 4403 331 
L 4972 331 
L 4972 0 
L 3872 0 
L 3144 1484 
Q 2934 1916 2759 2042 
Q 2584 2169 2278 2169 
L 1581 2169 
L 1581 331 
L 2241 331 
L 2241 0 
L 353 0 
L 353 331 
L 947 331 
L 947 4331 
L 353 4331 
L 353 4666 
L 2719 4666 
Q 3400 4666 3770 4341 
Q 4141 4016 4141 3419 
Q 4141 2938 3870 2661 
Q 3600 2384 3066 2316 
z
M 1581 2503 
L 2503 2503 
Q 2975 2503 3200 2726 
Q 3425 2950 3425 3419 
Q 3425 3888 3200 4109 
Q 2975 4331 2503 4331 
L 1581 4331 
L 1581 2503 
z
" transform="scale(0.015625)"/>
       <path id="DejaVuSerif-61" d="M 2547 1044 
L 2547 1747 
L 1806 1747 
Q 1378 1747 1168 1562 
Q 959 1378 959 997 
Q 959 650 1171 447 
Q 1384 244 1747 244 
Q 2106 244 2326 466 
Q 2547 688 2547 1044 
z
M 3122 2075 
L 3122 331 
L 3634 331 
L 3634 0 
L 2547 0 
L 2547 359 
Q 2356 128 2106 18 
Q 1856 -91 1522 -91 
Q 969 -91 644 203 
Q 319 497 319 997 
Q 319 1513 691 1797 
Q 1063 2081 1741 2081 
L 2547 2081 
L 2547 2309 
Q 2547 2688 2317 2895 
Q 2088 3103 1672 3103 
Q 1328 3103 1125 2947 
Q 922 2791 872 2484 
L 575 2484 
L 575 3156 
Q 875 3284 1158 3348 
Q 1441 3413 1709 3413 
Q 2400 3413 2761 3070 
Q 3122 2728 3122 2075 
z
" transform="scale(0.015625)"/>
       <path id="DejaVuSerif-74" d="M 691 2988 
L 184 2988 
L 184 3322 
L 691 3322 
L 691 4353 
L 1269 4353 
L 1269 3322 
L 2350 3322 
L 2350 2988 
L 1269 2988 
L 1269 878 
Q 1269 456 1350 337 
Q 1431 219 1650 219 
Q 1875 219 1978 351 
Q 2081 484 2088 781 
L 2522 781 
Q 2497 328 2275 118 
Q 2053 -91 1600 -91 
Q 1103 -91 897 129 
Q 691 350 691 878 
L 691 2988 
z
" transform="scale(0.015625)"/>
       <path id="DejaVuSerif-6f" d="M 1925 219 
Q 2388 219 2623 584 
Q 2859 950 2859 1663 
Q 2859 2375 2623 2739 
Q 2388 3103 1925 3103 
Q 1463 3103 1227 2739 
Q 991 2375 991 1663 
Q 991 950 1228 584 
Q 1466 219 1925 219 
z
M 1925 -91 
Q 1200 -91 759 389 
Q 319 869 319 1663 
Q 319 2456 758 2934 
Q 1197 3413 1925 3413 
Q 2653 3413 3092 2934 
Q 3531 2456 3531 1663 
Q 3531 869 3092 389 
Q 2653 -91 1925 -91 
z
" transform="scale(0.015625)"/>
       <path id="DejaVuSerif-28" d="M 2041 -997 
Q 1281 -656 893 83 
Q 506 822 506 1931 
Q 506 3044 893 3783 
Q 1281 4522 2041 4863 
L 2041 4556 
Q 1559 4225 1350 3623 
Q 1141 3022 1141 1931 
Q 1141 844 1350 242 
Q 1559 -359 2041 -691 
L 2041 -997 
z
" transform="scale(0.015625)"/>
       <path id="DejaVuSerif-2265" d="M 4684 488 
L 4684 0 
L 678 0 
L 678 488 
L 4684 488 
z
M 678 3206 
L 678 3725 
L 4684 2578 
L 4684 2047 
L 678 897 
L 678 1416 
L 3975 2309 
L 678 3206 
z
" transform="scale(0.015625)"/>
       <path id="DejaVuSerif-29" d="M 453 -997 
L 453 -691 
Q 934 -359 1145 242 
Q 1356 844 1356 1931 
Q 1356 3022 1145 3623 
Q 934 4225 453 4556 
L 453 4863 
Q 1216 4522 1603 3783 
Q 1991 3044 1991 1931 
Q 1991 822 1603 83 
Q 1216 -656 453 -997 
z
" transform="scale(0.015625)"/>
      </defs>
      <use xlink:href="#DejaVuSerif-48"/>
      <use xlink:href="#DejaVuSerif-69" x="87.207031"/>
      <use xlink:href="#DejaVuSerif-67" x="119.189453"/>
      <use xlink:href="#DejaVuSerif-68" x="183.203125"/>
      <use xlink:href="#DejaVuSerif-20" x="247.607422"/>
      <use xlink:href="#DejaVuSerif-46" x="279.394531"/>
      <use xlink:href="#DejaVuSerif-72" x="348.779297"/>
      <use xlink:href="#DejaVuSerif-65" x="396.582031"/>
      <use xlink:href="#DejaVuSerif-71" x="455.761719"/>
      <use xlink:href="#DejaVuSerif-75" x="519.775391"/>
      <use xlink:href="#DejaVuSerif-65" x="584.179688"/>
      <use xlink:href="#DejaVuSerif-6e" x="643.359375"/>
      <use xlink:href="#DejaVuSerif-63" x="707.763672"/>
      <use xlink:href="#DejaVuSerif-79" x="763.769531"/>
      <use xlink:href="#DejaVuSerif-20" x="820.263672"/>
      <use xlink:href="#DejaVuSerif-45" x="852.050781"/>
      <use xlink:href="#DejaVuSerif-6e" x="925.048828"/>
      <use xlink:href="#DejaVuSerif-65" x="989.453125"/>
      <use xlink:href="#DejaVuSerif-72" x="1048.632812"/>
      <use xlink:href="#DejaVuSerif-67" x="1096.435547"/>
      <use xlink:href="#DejaVuSerif-79" x="1160.449219"/>
      <use xlink:href="#DejaVuSerif-20" x="1216.943359"/>
      <use xlink:href="#DejaVuSerif-52" x="1248.730469"/>
      <use xlink:href="#DejaVuSerif-61" x="1326.273438"/>
      <use xlink:href="#DejaVuSerif-74" x="1385.892578"/>
      <use xlink:href="#DejaVuSerif-69" x="1426.078125"/>
      <use xlink:href="#DejaVuSerif-6f" x="1458.060547"/>
      <use xlink:href="#DejaVuSerif-20" x="1518.265625"/>
      <use xlink:href="#DejaVuSerif-28" x="1550.052734"/>
      <use xlink:href="#DejaVuSerif-72" x="1589.066406"/>
      <use xlink:href="#DejaVuSerif-20" x="1636.869141"/>
      <use xlink:href="#DejaVuSerif-2265" x="1668.65625"/>
      <use xlink:href="#DejaVuSerif-20" x="1752.445312"/>
      <use xlink:href="#DejaVuSerif-30" x="1784.232422"/>
      <use xlink:href="#DejaVuSerif-2e" x="1847.855469"/>
      <use xlink:href="#DejaVuSerif-35" x="1879.642578"/>
      <use xlink:href="#DejaVuSerif-29" x="1943.265625"/>
     </g>
    </g>
   </g>
   <g id="matplotlib.axis_2">
    <g id="ytick_1">
     <g id="line2d_6">
      <defs>
       <path id="m39cf4825d7" d="M 0 0 
L -3.5 0 
" style="stroke: #000000; stroke-width: 0.8"/>
      </defs>
      <g>
       <use xlink:href="#m39cf4825d7" x="90.65" y="348.5275" style="stroke: #000000; stroke-width: 0.8"/>
      </g>
     </g>
     <g id="text_7">
      <!-- 0 -->
      <g transform="translate(68.38 357.645625) scale(0.24 -0.24)">
       <use xlink:href="#DejaVuSerif-30"/>
      </g>
     </g>
    </g>
    <g id="ytick_2">
     <g id="line2d_7">
      <g>
       <use xlink:href="#m39cf4825d7" x="90.65" y="252.741797" style="stroke: #000000; stroke-width: 0.8"/>
      </g>
     </g>
     <g id="text_8">
      <!-- 10 -->
      <g transform="translate(53.11 261.859922) scale(0.24 -0.24)">
       <use xlink:href="#DejaVuSerif-31"/>
       <use xlink:href="#DejaVuSerif-30" x="63.623047"/>
      </g>
     </g>
    </g>
    <g id="ytick_3">
     <g id="line2d_8">
      <g>
       <use xlink:href="#m39cf4825d7" x="90.65" y="156.956094" style="stroke: #000000; stroke-width: 0.8"/>
      </g>
     </g>
     <g id="text_9">
      <!-- 20 -->
      <g transform="translate(53.11 166.074219) scale(0.24 -0.24)">
       <use xlink:href="#DejaVuSerif-32"/>
       <use xlink:href="#DejaVuSerif-30" x="63.623047"/>
      </g>
     </g>
    </g>
    <g id="ytick_4">
     <g id="line2d_9">
      <g>
       <use xlink:href="#m39cf4825d7" x="90.65" y="61.170391" style="stroke: #000000; stroke-width: 0.8"/>
      </g>
     </g>
     <g id="text_10">
      <!-- 30 -->
      <g transform="translate(53.11 70.288516) scale(0.24 -0.24)">
       <use xlink:href="#DejaVuSerif-33"/>
       <use xlink:href="#DejaVuSerif-30" x="63.623047"/>
      </g>
     </g>
    </g>
    <g id="text_11">
     <!-- Density -->
     <g transform="translate(43.7775 246.95375) rotate(-90) scale(0.24 -0.24)">
      <defs>
       <path id="DejaVuSerif-44" d="M 1581 331 
L 2163 331 
Q 3072 331 3558 850 
Q 4044 1369 4044 2338 
Q 4044 3306 3559 3818 
Q 3075 4331 2163 4331 
L 1581 4331 
L 1581 331 
z
M 353 0 
L 353 331 
L 947 331 
L 947 4331 
L 353 4331 
L 353 4666 
L 2209 4666 
Q 3416 4666 4089 4050 
Q 4763 3434 4763 2338 
Q 4763 1238 4088 619 
Q 3413 0 2209 0 
L 353 0 
z
" transform="scale(0.015625)"/>
       <path id="DejaVuSerif-73" d="M 359 184 
L 359 959 
L 691 959 
Q 703 588 923 403 
Q 1144 219 1575 219 
Q 1963 219 2166 364 
Q 2369 509 2369 788 
Q 2369 1006 2220 1140 
Q 2072 1275 1594 1428 
L 1178 1569 
Q 750 1706 558 1912 
Q 366 2119 366 2438 
Q 366 2894 700 3153 
Q 1034 3413 1625 3413 
Q 1888 3413 2178 3344 
Q 2469 3275 2778 3144 
L 2778 2419 
L 2447 2419 
Q 2434 2741 2221 2922 
Q 2009 3103 1644 3103 
Q 1281 3103 1095 2975 
Q 909 2847 909 2591 
Q 909 2381 1050 2254 
Q 1191 2128 1613 1997 
L 2069 1856 
Q 2541 1709 2748 1489 
Q 2956 1269 2956 922 
Q 2956 450 2595 179 
Q 2234 -91 1600 -91 
Q 1278 -91 972 -22 
Q 666 47 359 184 
z
" transform="scale(0.015625)"/>
      </defs>
      <use xlink:href="#DejaVuSerif-44"/>
      <use xlink:href="#DejaVuSerif-65" x="80.175781"/>
      <use xlink:href="#DejaVuSerif-6e" x="139.355469"/>
      <use xlink:href="#DejaVuSerif-73" x="203.759766"/>
      <use xlink:href="#DejaVuSerif-69" x="255.078125"/>
      <use xlink:href="#DejaVuSerif-74" x="287.060547"/>
      <use xlink:href="#DejaVuSerif-79" x="327.246094"/>
     </g>
    </g>
   </g>
   <g id="line2d_10">
    <path d="M 401.882174 348.5275 
L 401.882174 53.28 
" clip-path="url(#p6997dd82ed)" style="fill: none; stroke-dasharray: 3.7,1.6; stroke-dashoffset: 0; stroke: #87ceeb"/>
   </g>
   <g id="line2d_11">
    <path d="M 162.407655 348.5275 
L 162.407655 53.28 
" clip-path="url(#p6997dd82ed)" style="fill: none; stroke-dasharray: 3.7,1.6; stroke-dashoffset: 0; stroke: #fa8072"/>
   </g>
   <g id="line2d_12">
    <path d="M 238.496973 348.5275 
L 238.496973 53.28 
" clip-path="url(#p6997dd82ed)" style="fill: none; stroke-dasharray: 3.7,1.6; stroke-dashoffset: 0; stroke: #2e8b57"/>
   </g>
   <g id="patch_3">
    <path d="M 90.65 348.5275 
L 90.65 53.28 
" style="fill: none; stroke: #000000; stroke-width: 0.8; stroke-linejoin: miter; stroke-linecap: square"/>
   </g>
   <g id="patch_4">
    <path d="M 550.08 348.5275 
L 550.08 53.28 
" style="fill: none; stroke: #000000; stroke-width: 0.8; stroke-linejoin: miter; stroke-linecap: square"/>
   </g>
   <g id="patch_5">
    <path d="M 90.65 348.5275 
L 550.08 348.5275 
" style="fill: none; stroke: #000000; stroke-width: 0.8; stroke-linejoin: miter; stroke-linecap: square"/>
   </g>
   <g id="patch_6">
    <path d="M 90.65 53.28 
L 550.08 53.28 
" style="fill: none; stroke: #000000; stroke-width: 0.8; stroke-linejoin: miter; stroke-linecap: square"/>
   </g>
   <g id="text_12">
    <!-- 0.403 -->
    <g style="fill: #87ceeb" transform="translate(403.553832 348.335929) scale(0.18 -0.18)">
     <use xlink:href="#DejaVuSerif-30"/>
     <use xlink:href="#DejaVuSerif-2e" x="63.623047"/>
     <use xlink:href="#DejaVuSerif-34" x="95.410156"/>
     <use xlink:href="#DejaVuSerif-30" x="159.033203"/>
     <use xlink:href="#DejaVuSerif-33" x="222.65625"/>
    </g>
   </g>
   <g id="text_13">
    <!-- 0.116 -->
    <g style="fill: #fa8072" transform="translate(164.079314 348.335929) scale(0.18 -0.18)">
     <defs>
      <path id="DejaVuSerif-36" d="M 2094 219 
Q 2534 219 2771 542 
Q 3009 866 3009 1472 
Q 3009 2078 2771 2401 
Q 2534 2725 2094 2725 
Q 1647 2725 1412 2412 
Q 1178 2100 1178 1509 
Q 1178 888 1415 553 
Q 1653 219 2094 219 
z
M 1075 2569 
Q 1288 2803 1556 2918 
Q 1825 3034 2163 3034 
Q 2859 3034 3264 2615 
Q 3669 2197 3669 1472 
Q 3669 763 3233 336 
Q 2797 -91 2069 -91 
Q 1278 -91 853 498 
Q 428 1088 428 2181 
Q 428 3406 931 4078 
Q 1434 4750 2350 4750 
Q 2597 4750 2869 4703 
Q 3141 4656 3425 4563 
L 3425 3794 
L 3072 3794 
Q 3034 4109 2831 4275 
Q 2628 4441 2284 4441 
Q 1678 4441 1381 3981 
Q 1084 3522 1075 2569 
z
" transform="scale(0.015625)"/>
     </defs>
     <use xlink:href="#DejaVuSerif-30"/>
     <use xlink:href="#DejaVuSerif-2e" x="63.623047"/>
     <use xlink:href="#DejaVuSerif-31" x="95.410156"/>
     <use xlink:href="#DejaVuSerif-31" x="159.033203"/>
     <use xlink:href="#DejaVuSerif-36" x="222.65625"/>
    </g>
   </g>
   <g id="text_14">
    <!-- 0.207 -->
    <g style="fill: #2e8b57" transform="translate(240.168632 348.335929) scale(0.18 -0.18)">
     <defs>
      <path id="DejaVuSerif-37" d="M 3609 4347 
L 1784 0 
L 1319 0 
L 3059 4153 
L 903 4153 
L 903 3578 
L 538 3578 
L 538 4666 
L 3609 4666 
L 3609 4347 
z
" transform="scale(0.015625)"/>
     </defs>
     <use xlink:href="#DejaVuSerif-30"/>
     <use xlink:href="#DejaVuSerif-2e" x="63.623047"/>
     <use xlink:href="#DejaVuSerif-32" x="95.410156"/>
     <use xlink:href="#DejaVuSerif-30" x="159.033203"/>
     <use xlink:href="#DejaVuSerif-37" x="222.65625"/>
    </g>
   </g>
   <g id="text_15">
    <!-- High-Frequency Energy Distribution -->
    <g transform="translate(52.6105 46.881) scale(0.288 -0.288)">
     <defs>
      <path id="DejaVuSerif-2d" d="M 281 1959 
L 1881 1959 
L 1881 1472 
L 281 1472 
L 281 1959 
z
" transform="scale(0.015625)"/>
      <path id="DejaVuSerif-62" d="M 738 331 
L 738 4531 
L 184 4531 
L 184 4863 
L 1313 4863 
L 1313 2803 
Q 1481 3116 1742 3264 
Q 2003 3413 2388 3413 
Q 3000 3413 3387 2928 
Q 3775 2444 3775 1663 
Q 3775 881 3387 395 
Q 3000 -91 2388 -91 
Q 2003 -91 1742 57 
Q 1481 206 1313 519 
L 1313 0 
L 184 0 
L 184 331 
L 738 331 
z
M 1313 1497 
Q 1313 897 1542 583 
Q 1772 269 2209 269 
Q 2650 269 2876 622 
Q 3103 975 3103 1663 
Q 3103 2353 2876 2703 
Q 2650 3053 2209 3053 
Q 1772 3053 1542 2737 
Q 1313 2422 1313 1825 
L 1313 1497 
z
" transform="scale(0.015625)"/>
     </defs>
     <use xlink:href="#DejaVuSerif-48"/>
     <use xlink:href="#DejaVuSerif-69" x="87.207031"/>
     <use xlink:href="#DejaVuSerif-67" x="119.189453"/>
     <use xlink:href="#DejaVuSerif-68" x="183.203125"/>
     <use xlink:href="#DejaVuSerif-2d" x="247.607422"/>
     <use xlink:href="#DejaVuSerif-46" x="281.396484"/>
     <use xlink:href="#DejaVuSerif-72" x="350.78125"/>
     <use xlink:href="#DejaVuSerif-65" x="398.583984"/>
     <use xlink:href="#DejaVuSerif-71" x="457.763672"/>
     <use xlink:href="#DejaVuSerif-75" x="521.777344"/>
     <use xlink:href="#DejaVuSerif-65" x="586.181641"/>
     <use xlink:href="#DejaVuSerif-6e" x="645.361328"/>
     <use xlink:href="#DejaVuSerif-63" x="709.765625"/>
     <use xlink:href="#DejaVuSerif-79" x="765.771484"/>
     <use xlink:href="#DejaVuSerif-20" x="822.265625"/>
     <use xlink:href="#DejaVuSerif-45" x="854.052734"/>
     <use xlink:href="#DejaVuSerif-6e" x="927.050781"/>
     <use xlink:href="#DejaVuSerif-65" x="991.455078"/>
     <use xlink:href="#DejaVuSerif-72" x="1050.634766"/>
     <use xlink:href="#DejaVuSerif-67" x="1098.4375"/>
     <use xlink:href="#DejaVuSerif-79" x="1162.451172"/>
     <use xlink:href="#DejaVuSerif-20" x="1218.945312"/>
     <use xlink:href="#DejaVuSerif-44" x="1250.732422"/>
     <use xlink:href="#DejaVuSerif-69" x="1330.908203"/>
     <use xlink:href="#DejaVuSerif-73" x="1362.890625"/>
     <use xlink:href="#DejaVuSerif-74" x="1414.208984"/>
     <use xlink:href="#DejaVuSerif-72" x="1454.394531"/>
     <use xlink:href="#DejaVuSerif-69" x="1502.197266"/>
     <use xlink:href="#DejaVuSerif-62" x="1534.179688"/>
     <use xlink:href="#DejaVuSerif-75" x="1598.193359"/>
     <use xlink:href="#DejaVuSerif-74" x="1662.597656"/>
     <use xlink:href="#DejaVuSerif-69" x="1702.783203"/>
     <use xlink:href="#DejaVuSerif-6f" x="1734.765625"/>
     <use xlink:href="#DejaVuSerif-6e" x="1794.970703"/>
    </g>
   </g>
   <g id="legend_1">
    <g id="patch_7">
     <path d="M 300.24 178.1625 
L 533.28 178.1625 
Q 538.08 178.1625 538.08 173.3625 
L 538.08 70.08 
Q 538.08 65.28 533.28 65.28 
L 300.24 65.28 
Q 295.44 65.28 295.44 70.08 
L 295.44 173.3625 
Q 295.44 178.1625 300.24 178.1625 
z
" style="fill: #ffffff; opacity: 0.8; stroke: #cccccc; stroke-linejoin: miter"/>
    </g>
    <g id="patch_8">
     <path d="M 305.04 93.11625 
L 353.04 93.11625 
L 353.04 76.31625 
L 305.04 76.31625 
z
" style="fill: #87ceeb; fill-opacity: 0.25; stroke: #87ceeb; stroke-linejoin: miter"/>
    </g>
    <g id="text_16">
     <!-- MTT -->
     <g transform="translate(372.24 93.11625) scale(0.24 -0.24)">
      <defs>
       <path id="DejaVuSerif-4d" d="M 353 0 
L 353 331 
L 947 331 
L 947 4331 
L 319 4331 
L 319 4666 
L 1678 4666 
L 3316 1344 
L 4953 4666 
L 6228 4666 
L 6228 4331 
L 5606 4331 
L 5606 331 
L 6203 331 
L 6203 0 
L 4378 0 
L 4378 331 
L 4972 331 
L 4972 3938 
L 3372 684 
L 2931 684 
L 1331 3938 
L 1331 331 
L 1925 331 
L 1925 0 
L 353 0 
z
" transform="scale(0.015625)"/>
       <path id="DejaVuSerif-54" d="M 1222 0 
L 1222 331 
L 1819 331 
L 1819 4294 
L 447 4294 
L 447 3566 
L 63 3566 
L 63 4666 
L 4206 4666 
L 4206 3566 
L 3822 3566 
L 3822 4294 
L 2450 4294 
L 2450 331 
L 3047 331 
L 3047 0 
L 1222 0 
z
" transform="scale(0.015625)"/>
      </defs>
      <use xlink:href="#DejaVuSerif-4d"/>
      <use xlink:href="#DejaVuSerif-54" x="102.392578"/>
      <use xlink:href="#DejaVuSerif-54" x="170.966797"/>
     </g>
    </g>
    <g id="patch_9">
     <path d="M 305.04 128.34375 
L 353.04 128.34375 
L 353.04 111.54375 
L 305.04 111.54375 
z
" style="fill: #fa8072; fill-opacity: 0.25; stroke: #fa8072; stroke-linejoin: miter"/>
    </g>
    <g id="text_17">
     <!-- MTT + ours -->
     <g transform="translate(372.24 128.34375) scale(0.24 -0.24)">
      <defs>
       <path id="DejaVuSerif-2b" d="M 2931 4013 
L 2931 2259 
L 4684 2259 
L 4684 1753 
L 2931 1753 
L 2931 0 
L 2431 0 
L 2431 1753 
L 678 1753 
L 678 2259 
L 2431 2259 
L 2431 4013 
L 2931 4013 
z
" transform="scale(0.015625)"/>
      </defs>
      <use xlink:href="#DejaVuSerif-4d"/>
      <use xlink:href="#DejaVuSerif-54" x="102.392578"/>
      <use xlink:href="#DejaVuSerif-54" x="170.966797"/>
      <use xlink:href="#DejaVuSerif-20" x="237.666016"/>
      <use xlink:href="#DejaVuSerif-2b" x="269.453125"/>
      <use xlink:href="#DejaVuSerif-20" x="353.242188"/>
      <use xlink:href="#DejaVuSerif-6f" x="385.029297"/>
      <use xlink:href="#DejaVuSerif-75" x="445.234375"/>
      <use xlink:href="#DejaVuSerif-72" x="509.638672"/>
      <use xlink:href="#DejaVuSerif-73" x="557.441406"/>
     </g>
    </g>
    <g id="patch_10">
     <path d="M 305.04 163.57125 
L 353.04 163.57125 
L 353.04 146.77125 
L 305.04 146.77125 
z
" style="fill: #2e8b57; fill-opacity: 0.25; stroke: #2e8b57; stroke-linejoin: miter"/>
    </g>
    <g id="text_18">
     <!-- Random real -->
     <g transform="translate(372.24 163.57125) scale(0.24 -0.24)">
      <defs>
       <path id="DejaVuSerif-64" d="M 3359 331 
L 3909 331 
L 3909 0 
L 2784 0 
L 2784 519 
Q 2616 206 2355 57 
Q 2094 -91 1709 -91 
Q 1097 -91 708 395 
Q 319 881 319 1663 
Q 319 2444 706 2928 
Q 1094 3413 1709 3413 
Q 2094 3413 2355 3264 
Q 2616 3116 2784 2803 
L 2784 4531 
L 2241 4531 
L 2241 4863 
L 3359 4863 
L 3359 331 
z
M 2784 1497 
L 2784 1825 
Q 2784 2422 2554 2737 
Q 2325 3053 1888 3053 
Q 1444 3053 1217 2703 
Q 991 2353 991 1663 
Q 991 975 1217 622 
Q 1444 269 1888 269 
Q 2325 269 2554 583 
Q 2784 897 2784 1497 
z
" transform="scale(0.015625)"/>
       <path id="DejaVuSerif-6d" d="M 3316 2675 
Q 3481 3041 3739 3227 
Q 3997 3413 4341 3413 
Q 4863 3413 5119 3089 
Q 5375 2766 5375 2113 
L 5375 331 
L 5894 331 
L 5894 0 
L 4300 0 
L 4300 331 
L 4800 331 
L 4800 2047 
Q 4800 2556 4650 2772 
Q 4500 2988 4153 2988 
Q 3769 2988 3567 2697 
Q 3366 2406 3366 1850 
L 3366 331 
L 3866 331 
L 3866 0 
L 2291 0 
L 2291 331 
L 2791 331 
L 2791 2069 
Q 2791 2566 2641 2777 
Q 2491 2988 2144 2988 
Q 1759 2988 1557 2697 
Q 1356 2406 1356 1850 
L 1356 331 
L 1856 331 
L 1856 0 
L 263 0 
L 263 331 
L 781 331 
L 781 2994 
L 231 2994 
L 231 3322 
L 1356 3322 
L 1356 2731 
Q 1516 3063 1762 3238 
Q 2009 3413 2322 3413 
Q 2709 3413 2968 3220 
Q 3228 3028 3316 2675 
z
" transform="scale(0.015625)"/>
       <path id="DejaVuSerif-6c" d="M 1313 331 
L 1856 331 
L 1856 0 
L 184 0 
L 184 331 
L 738 331 
L 738 4531 
L 184 4531 
L 184 4863 
L 1313 4863 
L 1313 331 
z
" transform="scale(0.015625)"/>
      </defs>
      <use xlink:href="#DejaVuSerif-52"/>
      <use xlink:href="#DejaVuSerif-61" x="77.542969"/>
      <use xlink:href="#DejaVuSerif-6e" x="137.162109"/>
      <use xlink:href="#DejaVuSerif-64" x="201.566406"/>
      <use xlink:href="#DejaVuSerif-6f" x="265.580078"/>
      <use xlink:href="#DejaVuSerif-6d" x="325.785156"/>
      <use xlink:href="#DejaVuSerif-20" x="420.609375"/>
      <use xlink:href="#DejaVuSerif-72" x="452.396484"/>
      <use xlink:href="#DejaVuSerif-65" x="500.199219"/>
      <use xlink:href="#DejaVuSerif-61" x="559.378906"/>
      <use xlink:href="#DejaVuSerif-6c" x="618.998047"/>
     </g>
    </g>
   </g>
  </g>
 </g>
 <defs>
  <clipPath id="p6997dd82ed">
   <rect x="90.65" y="53.28" width="459.43" height="295.2475"/>
  </clipPath>
 </defs>
</svg>
