<?xml version="1.0" encoding="UTF-8"?>
<svg id="_图层_2" data-name="图层 2" xmlns="http://www.w3.org/2000/svg" xmlns:xlink="http://www.w3.org/1999/xlink" viewBox="0 0 220.24 162">
  <defs>
    <style>
      .cls-1, .cls-2, .cls-3, .cls-4, .cls-5, .cls-6, .cls-7, .cls-8, .cls-9, .cls-10 {
        stroke-width: .38px;
      }

      .cls-1, .cls-3 {
        fill: rgba(134, 198, 225, .25);
      }

      .cls-1, .cls-3, .cls-5 {
        stroke: #86c6e1;
      }

      .cls-2, .cls-3, .cls-11, .cls-5, .cls-6, .cls-7, .cls-9 {
        stroke-linejoin: round;
      }

      .cls-2, .cls-7, .cls-10 {
        stroke: #ee7c6f;
      }

      .cls-2, .cls-10 {
        fill: rgba(238, 124, 111, .25);
      }

      .cls-12 {
        fill: #ee7c6f;
      }

      .cls-12, .cls-13, .cls-14, .cls-15, .cls-16, .cls-17 {
        stroke-width: 0px;
      }

      .cls-18 {
        clip-path: url(#clippath-2);
      }

      .cls-4, .cls-6 {
        fill: rgba(48, 134, 85, .25);
      }

      .cls-4, .cls-6, .cls-9 {
        stroke: #308655;
      }

      .cls-19 {
        stroke-linecap: square;
      }

      .cls-19, .cls-13, .cls-5, .cls-7, .cls-9 {
        fill: none;
      }

      .cls-19, .cls-11 {
        stroke: #040000;
        stroke-width: .3px;
      }

      .cls-14, .cls-11 {
        fill: #040000;
      }

      .cls-20 {
        clip-path: url(#clippath-1);
      }

      .cls-21 {
        clip-path: url(#clippath-4);
      }

      .cls-15 {
        fill: #308655;
      }

      .cls-16, .cls-8 {
        fill: #fff;
      }

      .cls-5, .cls-7, .cls-9 {
        stroke-dasharray: 0 0 1.39 .6;
      }

      .cls-22 {
        clip-path: url(#clippath);
      }

      .cls-23 {
        clip-path: url(#clippath-3);
      }

      .cls-17 {
        fill: #86c6e1;
      }

      .cls-8 {
        isolation: isolate;
        opacity: .8;
        stroke: #ccc;
      }

      .cls-24 {
        clip-path: url(#clippath-5);
      }
    </style>
    <clipPath id="clippath">
      <rect class="cls-13" x="33.99" y="19.98" width="172.29" height="110.72"/>
    </clipPath>
    <clipPath id="clippath-1">
      <rect class="cls-13" x="33.99" y="19.98" width="172.29" height="110.72"/>
    </clipPath>
    <clipPath id="clippath-2">
      <rect class="cls-13" x="33.99" y="19.98" width="172.29" height="110.72"/>
    </clipPath>
    <clipPath id="clippath-3">
      <rect class="cls-13" x="33.99" y="19.98" width="172.29" height="110.72"/>
    </clipPath>
    <clipPath id="clippath-4">
      <rect class="cls-13" x="33.99" y="19.98" width="172.29" height="110.72"/>
    </clipPath>
    <clipPath id="clippath-5">
      <rect class="cls-13" x="33.99" y="19.98" width="172.29" height="110.72"/>
    </clipPath>
  </defs>
  <g id="_图层_1-2" data-name="图层 1">
    <g id="figure_1" data-name="figure 1">
      <g id="patch_1" data-name="patch 1">
        <path class="cls-16" d="m0,162h216V0H0v162Z"/>
      </g>
      <g id="axes_1" data-name="axes 1">
        <g id="patch_2" data-name="patch 2">
          <path class="cls-16" d="m33.99,130.7h172.29V19.98H33.99v110.72Z"/>
        </g>
        <g id="PolyCollection_1" data-name="PolyCollection 1">
          <g class="cls-22">
            <path id="m4330cb40cf" class="cls-3" d="m93.05,130.64v.05h105.4v-.07h-.53s-.53-.03-.53-.03l-.53-.02-.53-.02-.53-.02-.53-.03-.53-.03-.53-.04-.53-.04-.53-.05-.53-.05-.53-.06-.53-.07-.53-.08-.53-.09-.53-.1-.53-.11-.53-.12-.53-.13-.53-.14-.53-.16-.53-.17-.53-.19-.53-.2-.53-.22-.53-.24-.53-.25-.53-.27-.53-.29-.53-.31-.53-.33-.53-.35-.53-.36-.53-.38-.53-.4-.53-.42-.53-.43-.53-.45-.53-.47-.53-.48-.53-.49-.53-.51-.53-.52-.53-.53-.53-.54-.53-.55-.53-.56-.53-.56-.53-.57-.53-.58-.53-.58-.53-.58-.53-.59-.53-.59-.53-.59-.53-.59-.53-.59-.53-.59-.53-.59-.53-.59-.53-.59-.53-.59-.53-.58-.53-.58-.53-.57-.53-.57-.53-.56-.53-.55-.53-.54-.53-.53-.53-.51-.53-.49-.53-.47-.53-.45-.53-.43-.53-.4-.53-.37-.53-.34-.53-.31-.53-.27-.53-.23-.53-.19-.53-.15-.53-.1-.53-.06h-.53s-.53.03-.53.03l-.53.09-.53.14-.53.18-.53.23-.53.28-.53.32-.53.37-.53.41-.53.45-.53.49-.53.52-.53.55-.53.58-.53.6-.53.62-.53.64-.53.65-.53.66-.53.66-.53.67-.53.67-.53.66-.53.65-.53.64-.53.63-.53.62-.53.6-.53.58-.53.56-.53.54-.53.52-.53.49-.53.47-.53.45-.53.42-.53.4-.53.38-.53.35-.53.33-.53.31-.53.29-.53.27-.53.25-.53.23-.53.22-.53.2-.53.19-.53.18-.53.17-.53.16-.53.16-.53.15-.53.15-.53.14-.53.14-.53.14-.53.14-.53.15-.53.15-.53.15-.53.16-.53.16-.53.17-.53.17-.53.18-.53.18-.53.19-.53.19-.53.19-.53.2-.53.2-.53.2-.53.2-.53.2-.53.2-.53.2-.53.2-.53.19-.53.19-.53.19-.53.18-.53.17-.53.17-.53.16-.53.15-.53.15-.53.14-.53.13-.53.12-.53.12-.53.11-.53.1-.53.09-.53.09-.53.08-.53.07-.53.07-.53.06-.53.05-.53.05-.53.04-.53.04-.53.03-.53.03-.53.03-.53.02-.53.02-.53.02-.53.02h-.53s-.53.03-.53.03h-.53Z"/>
          </g>
        </g>
        <g id="PolyCollection_2" data-name="PolyCollection 2">
          <g class="cls-20">
            <path id="me6a58099a1" class="cls-2" d="m47.63,130.48v.22h27.58v-.25h0l-.14-.05-.14-.05-.14-.06-.14-.07-.14-.08-.14-.09-.14-.11-.14-.12-.14-.14-.14-.16-.14-.18-.14-.2-.14-.22-.14-.25-.14-.28-.14-.31-.14-.34-.14-.37-.14-.41-.14-.45-.14-.49-.14-.53-.14-.58-.14-.63-.14-.67-.14-.72-.14-.77-.14-.82-.14-.87-.14-.93-.14-.98-.14-1.03-.14-1.07-.14-1.12-.14-1.16-.14-1.2-.14-1.24-.14-1.27-.14-1.3-.14-1.33-.14-1.35-.14-1.36-.14-1.37-.14-1.38-.14-1.37-.14-1.37-.14-1.35-.14-1.33-.14-1.3-.14-1.27-.14-1.24-.14-1.19-.14-1.15-.14-1.1-.14-1.04-.14-.99-.14-.93-.14-.87-.14-.81-.14-.75-.14-.69-.14-.63-.14-.58-.14-.53-.14-.49-.14-.45-.14-.41-.14-.39-.14-.37-.14-.36-.14-.35-.14-.36-.14-.37-.14-.4-.14-.43-.14-.47-.14-.52-.14-.58-.14-.65-.14-.72-.14-.8-.14-.89-.14-.98-.14-1.07-.14-1.17-.14-1.27-.14-1.36-.14-1.46-.14-1.55-.14-1.64-.14-1.72-.14-1.8-.14-1.86-.14-1.92-.14-1.97-.14-2-.14-2.02-.14-2.03-.14-2.02-.14-2-.14-1.97-.14-1.91-.14-1.84-.14-1.76-.14-1.66-.14-1.55-.14-1.42-.14-1.29-.14-1.13-.14-.97-.14-.81-.14-.63-.14-.45-.14-.26-.14-.07-.14.12-.14.31-.14.5-.14.69-.14.87-.14,1.04-.14,1.21-.14,1.37-.14,1.52-.14,1.66-.14,1.79-.14,1.91-.14,2.02-.14,2.12-.14,2.21-.14,2.28-.14,2.34-.14,2.4-.14,2.44-.14,2.47-.14,2.5-.14,2.51-.14,2.52-.14,2.51-.14,2.5-.14,2.49-.14,2.46-.14,2.44-.14,2.4-.14,2.37-.14,2.32-.14,2.28-.14,2.23-.14,2.18-.14,2.12-.14,2.07-.14,2.01-.14,1.95-.14,1.88-.14,1.82-.14,1.76-.14,1.69-.14,1.63-.14,1.56-.14,1.5-.14,1.43-.14,1.36-.14,1.3-.14,1.23-.14,1.17-.14,1.11-.14,1.04-.14.98-.14.92-.14.86-.14.81-.14.75-.14.7-.14.65-.14.6-.14.55-.14.51-.14.47-.14.43-.14.39-.14.36-.14.32-.14.29-.14.26-.14.24-.14.21-.14.19-.14.17-.14.15-.14.13-.14.12-.14.1-.14.09-.14.08-.14.07-.14.06-.14.05-.14.05-.14.04Z"/>
          </g>
        </g>
        <g id="PolyCollection_3" data-name="PolyCollection 3">
          <g class="cls-18">
            <path id="mdfa41c1fd7" class="cls-6" d="m41.82,130.64v.06h102.05v-.06h-.51s-.51-.02-.51-.02l-.51-.02-.51-.02-.51-.02-.51-.02-.51-.03-.51-.03-.51-.03-.51-.04-.51-.04-.51-.05-.51-.05-.51-.06-.51-.07-.51-.07-.51-.08-.51-.09-.51-.1-.51-.11-.51-.12-.51-.13-.51-.14-.51-.15-.51-.16-.51-.17-.51-.19-.51-.2-.51-.21-.51-.22-.51-.23-.51-.24-.51-.26-.51-.27-.51-.28-.51-.28-.51-.29-.51-.3-.51-.31-.51-.31-.51-.32-.51-.32-.51-.32-.51-.32-.51-.32-.51-.32-.51-.31-.51-.31-.51-.3-.51-.3-.51-.29-.51-.28-.51-.27-.51-.26-.51-.25-.51-.23-.51-.22-.51-.21-.51-.2-.51-.19-.51-.18-.51-.17-.51-.16-.51-.16-.51-.15-.51-.15-.51-.14-.51-.14-.51-.14-.51-.14-.51-.15-.51-.15-.51-.16-.51-.17-.51-.18-.51-.19-.51-.2-.51-.21-.51-.23-.51-.24-.51-.26-.51-.27-.51-.29-.51-.31-.51-.33-.51-.34-.51-.36-.51-.38-.51-.39-.51-.41-.51-.42-.51-.44-.51-.45-.51-.46-.51-.47-.51-.48-.51-.48-.51-.49-.51-.49-.51-.49-.51-.49-.51-.48-.51-.48-.51-.47-.51-.46-.51-.44-.51-.42-.51-.4-.51-.38-.51-.36-.51-.33-.51-.3-.51-.26-.51-.23-.51-.19-.51-.15-.51-.11-.51-.07-.51-.02-.51.02-.51.07-.51.12-.51.16-.51.21-.51.25-.51.3-.51.34-.51.38-.51.42-.51.46-.51.5-.51.53-.51.57-.51.59-.51.62-.51.64-.51.66-.51.68-.51.7-.51.71-.51.72-.51.72-.51.73-.51.73-.51.73-.51.72-.51.71-.51.71-.51.69-.51.68-.51.67-.51.65-.51.64-.51.62-.51.6-.51.58-.51.56-.51.54-.51.51-.51.49-.51.47-.51.45-.51.42-.51.4-.51.38-.51.36-.51.34-.51.32-.51.3-.51.28-.51.26-.51.24-.51.22-.51.2-.51.19-.51.17-.51.16-.51.14-.51.13-.51.12-.51.11-.51.1-.51.09-.51.08-.51.07-.51.06-.51.06-.51.05-.51.04-.51.04-.51.03-.51.03-.51.03-.51.02-.51.02-.51.02-.51.02h-.51s-.51.02-.51.02Z"/>
          </g>
        </g>
        <g id="matplotlib.axis_1" data-name="matplotlib.axis 1">
          <g id="xtick_1" data-name="xtick 1">
            <g id="line2d_1" data-name="line2d 1">
              <path id="m773166e0cd" class="cls-11" d="m55.89,130.7v1.31"/>
            </g>
            <g id="text_1" data-name="text 1">
              <g>
                <path id="DejaVuSerif-30" class="cls-14" d="m51.6,139.85c.45,0,.78-.25,1.01-.74.22-.49.33-1.23.33-2.23s-.11-1.74-.33-2.23c-.22-.49-.56-.74-1.01-.74s-.78.25-1.01.74c-.22.49-.33,1.24-.33,2.23s.11,1.74.33,2.23c.22.49.56.74,1.01.74Zm0,.44c-.71,0-1.27-.3-1.67-.9-.4-.6-.6-1.43-.6-2.51s.2-1.91.6-2.51c.4-.6.96-.9,1.67-.9s1.27.3,1.67.9c.4.6.6,1.43.6,2.51s-.2,1.91-.6,2.51c-.4.6-.96.9-1.67.9Z"/>
                <path id="DejaVuSerif-2e" class="cls-14" d="m55.31,139.7c0-.16.06-.3.17-.42s.25-.17.42-.17.3.06.41.17c.11.11.17.25.17.42s-.06.3-.17.41c-.11.11-.25.17-.41.17s-.31-.06-.42-.17c-.11-.11-.17-.25-.17-.42Z"/>
                <path id="DejaVuSerif-31" class="cls-14" d="m58.6,140.16v-.47h1.14v-5.46l-1.32.86v-.58l1.6-1.04h.61v6.21h1.14v.47h-3.17Z"/>
              </g>
            </g>
          </g>
          <g id="xtick_2" data-name="xtick 2">
            <g id="line2d_2" data-name="line2d 2">
              <path id="m773166e0cd-2" data-name="m773166e0cd" class="cls-11" d="m87.23,130.7v1.31"/>
            </g>
            <g id="text_2" data-name="text 2">
              <g>
                <path id="DejaVuSerif-30-2" data-name="DejaVuSerif-30" class="cls-14" d="m82.94,139.85c.45,0,.78-.25,1.01-.74.22-.49.33-1.23.33-2.23s-.11-1.74-.33-2.23c-.22-.49-.56-.74-1.01-.74s-.78.25-1.01.74c-.22.49-.33,1.24-.33,2.23s.11,1.74.33,2.23c.22.49.56.74,1.01.74Zm0,.44c-.71,0-1.27-.3-1.67-.9-.4-.6-.6-1.43-.6-2.51s.2-1.91.6-2.51c.4-.6.96-.9,1.67-.9s1.27.3,1.67.9c.4.6.6,1.43.6,2.51s-.2,1.91-.6,2.51c-.4.6-.96.9-1.67.9Z"/>
                <path id="DejaVuSerif-2e-2" data-name="DejaVuSerif-2e" class="cls-14" d="m86.65,139.7c0-.16.06-.3.17-.42s.25-.17.42-.17.3.06.41.17c.11.11.17.25.17.42s-.06.3-.17.41c-.11.11-.25.17-.41.17s-.31-.06-.42-.17c-.11-.11-.17-.25-.17-.42Z"/>
                <path id="DejaVuSerif-32" class="cls-14" d="m89.82,135.17h-.49v-1.17c.31-.17.63-.3.95-.38.32-.09.63-.13.93-.13.68,0,1.22.17,1.62.5s.59.78.59,1.35c0,.64-.45,1.41-1.34,2.3-.07.07-.12.12-.16.15l-1.66,1.66h2.74v-.81h.51v1.53h-4.23v-.48l1.99-1.99c.44-.44.75-.84.94-1.21s.28-.75.28-1.16c0-.44-.12-.79-.35-1.04-.23-.25-.55-.37-.95-.37s-.74.1-.97.31c-.23.21-.36.52-.4.94Z"/>
              </g>
            </g>
          </g>
          <g id="xtick_3" data-name="xtick 3">
            <g id="line2d_3" data-name="line2d 3">
              <path id="m773166e0cd-3" data-name="m773166e0cd" class="cls-11" d="m118.58,130.7v1.31"/>
            </g>
            <g id="text_3" data-name="text 3">
              <g>
                <path id="DejaVuSerif-30-3" data-name="DejaVuSerif-30" class="cls-14" d="m114.28,139.85c.45,0,.78-.25,1.01-.74.22-.49.33-1.23.33-2.23s-.11-1.74-.33-2.23c-.22-.49-.56-.74-1.01-.74s-.78.25-1.01.74c-.22.49-.33,1.24-.33,2.23s.11,1.74.33,2.23c.22.49.56.74,1.01.74Zm0,.44c-.71,0-1.27-.3-1.67-.9-.4-.6-.6-1.43-.6-2.51s.2-1.91.6-2.51c.4-.6.96-.9,1.67-.9s1.27.3,1.67.9c.4.6.6,1.43.6,2.51s-.2,1.91-.6,2.51c-.4.6-.96.9-1.67.9Z"/>
                <path id="DejaVuSerif-2e-3" data-name="DejaVuSerif-2e" class="cls-14" d="m118,139.7c0-.16.06-.3.17-.42s.25-.17.42-.17.3.06.41.17c.11.11.17.25.17.42s-.06.3-.17.41c-.11.11-.25.17-.41.17s-.31-.06-.42-.17c-.11-.11-.17-.25-.17-.42Z"/>
                <path id="DejaVuSerif-33" class="cls-14" d="m120.88,133.88c.34-.13.67-.23.99-.29.31-.07.61-.1.89-.1.64,0,1.14.14,1.5.42.36.28.54.66.54,1.15,0,.39-.12.72-.37.99-.25.27-.6.44-1.06.54.54.08.96.27,1.25.59s.45.72.45,1.22c0,.61-.21,1.08-.62,1.41-.41.33-1,.49-1.78.49-.34,0-.68-.04-1.01-.11-.33-.07-.65-.18-.97-.33v-1.27h.49c.03.42.17.74.43.96.26.22.61.32,1.08.32s.8-.13,1.06-.39c.26-.26.39-.61.39-1.07,0-.52-.13-.91-.4-1.17-.27-.27-.66-.4-1.17-.4h-.42v-.45h.22c.51,0,.9-.11,1.15-.32.26-.21.39-.53.39-.96,0-.38-.11-.68-.32-.88-.21-.2-.51-.31-.91-.31s-.7.09-.92.28c-.22.19-.35.47-.38.84h-.49v-1.16Z"/>
              </g>
            </g>
          </g>
          <g id="xtick_4" data-name="xtick 4">
            <g id="line2d_4" data-name="line2d 4">
              <path id="m773166e0cd-4" data-name="m773166e0cd" class="cls-11" d="m149.92,130.7v1.31"/>
            </g>
            <g id="text_4" data-name="text 4">
              <g>
                <path id="DejaVuSerif-30-4" data-name="DejaVuSerif-30" class="cls-14" d="m145.63,139.85c.45,0,.78-.25,1.01-.74.22-.49.33-1.23.33-2.23s-.11-1.74-.33-2.23c-.22-.49-.56-.74-1.01-.74s-.78.25-1.01.74c-.22.49-.33,1.24-.33,2.23s.11,1.74.33,2.23c.22.49.56.74,1.01.74Zm0,.44c-.71,0-1.27-.3-1.67-.9-.4-.6-.6-1.43-.6-2.51s.2-1.91.6-2.51c.4-.6.96-.9,1.67-.9s1.27.3,1.67.9c.4.6.6,1.43.6,2.51s-.2,1.91-.6,2.51c-.4.6-.96.9-1.67.9Z"/>
                <path id="DejaVuSerif-2e-4" data-name="DejaVuSerif-2e" class="cls-14" d="m149.34,139.7c0-.16.06-.3.17-.42s.25-.17.42-.17.3.06.41.17c.11.11.17.25.17.42s-.06.3-.17.41c-.11.11-.25.17-.41.17s-.31-.06-.42-.17c-.11-.11-.17-.25-.17-.42Z"/>
                <path id="DejaVuSerif-34" class="cls-14" d="m154.49,137.94v-3.49l-2.24,3.49h2.24Zm1.93,2.22h-2.99v-.47h1.05v-1.29h-2.86v-.48l2.87-4.45h.87v4.46h1.25v.47h-1.25v1.29h1.05v.47Z"/>
              </g>
            </g>
          </g>
          <g id="xtick_5" data-name="xtick 5">
            <g id="line2d_5" data-name="line2d 5">
              <path id="m773166e0cd-5" data-name="m773166e0cd" class="cls-11" d="m181.27,130.7v1.31"/>
            </g>
            <g id="text_5" data-name="text 5">
              <g>
                <path id="DejaVuSerif-30-5" data-name="DejaVuSerif-30" class="cls-14" d="m176.97,139.85c.45,0,.78-.25,1.01-.74.22-.49.33-1.23.33-2.23s-.11-1.74-.33-2.23c-.22-.49-.56-.74-1.01-.74s-.78.25-1.01.74c-.22.49-.33,1.24-.33,2.23s.11,1.74.33,2.23c.22.49.56.74,1.01.74Zm0,.44c-.71,0-1.27-.3-1.67-.9-.4-.6-.6-1.43-.6-2.51s.2-1.91.6-2.51c.4-.6.96-.9,1.67-.9s1.27.3,1.67.9c.4.6.6,1.43.6,2.51s-.2,1.91-.6,2.51c-.4.6-.96.9-1.67.9Z"/>
                <path id="DejaVuSerif-2e-5" data-name="DejaVuSerif-2e" class="cls-14" d="m180.68,139.7c0-.16.06-.3.17-.42s.25-.17.42-.17.3.06.41.17c.11.11.17.25.17.42s-.06.3-.17.41c-.11.11-.25.17-.41.17s-.31-.06-.42-.17c-.11-.11-.17-.25-.17-.42Z"/>
                <path id="DejaVuSerif-35" class="cls-14" d="m187.22,133.6v.72h-3.01v1.88c.15-.11.33-.18.53-.24.2-.05.43-.08.68-.08.71,0,1.27.2,1.68.59.41.39.62.93.62,1.61s-.21,1.24-.62,1.62c-.41.39-1,.58-1.75.58-.3,0-.61-.04-.93-.11-.32-.07-.64-.18-.97-.33v-1.27h.5c.03.42.16.73.4.95.24.22.57.33,1.01.33.46,0,.82-.15,1.07-.46.25-.3.37-.74.37-1.31s-.12-1-.37-1.31c-.25-.3-.6-.46-1.07-.46-.26,0-.5.05-.7.14-.2.09-.38.24-.53.43h-.38v-3.3h3.47Z"/>
              </g>
            </g>
          </g>
          <g id="text_6" data-name="text 6">
            <g>
              <path id="DejaVuSerif-48" class="cls-14" d="m31.43,150.37v-.47h.84v-5.62h-.84v-.47h2.56v.47h-.84v2.27h3.4v-2.27h-.84v-.47h2.56v.47h-.84v5.62h.84v.47h-2.56v-.47h.84v-2.82h-3.4v2.82h.84v.47h-2.56Z"/>
              <path id="DejaVuSerif-69" class="cls-14" d="m39.66,144.25c0-.13.05-.25.15-.35.1-.1.22-.15.35-.15s.25.05.35.15c.1.1.15.22.15.35s-.05.26-.14.35c-.1.1-.21.14-.35.14s-.26-.05-.35-.14c-.1-.1-.15-.21-.15-.35Zm1.03,5.66h.76v.47h-2.35v-.47h.77v-3.74h-.77v-.47h1.58v4.21Z"/>
              <path id="DejaVuSerif-67" class="cls-14" d="m46.38,146.17v4.1c0,.67-.18,1.19-.55,1.55-.37.36-.89.55-1.58.55-.31,0-.6-.03-.88-.08-.28-.06-.55-.14-.81-.25v-.98h.42c.05.3.18.53.37.67.2.14.48.21.84.21.48,0,.82-.13,1.04-.4.22-.27.33-.69.33-1.26v-.63c-.16.29-.36.51-.6.65-.24.14-.55.21-.91.21-.57,0-1.04-.23-1.41-.68-.36-.46-.55-1.05-.55-1.78s.18-1.33.54-1.78c.36-.45.83-.68,1.41-.68.36,0,.66.07.91.21.24.14.45.35.6.65v-.73h1.58v.47h-.77Zm-.81,1.64c0-.56-.11-.99-.32-1.28-.21-.3-.53-.44-.94-.44s-.73.16-.94.49c-.21.33-.32.82-.32,1.46s.11,1.13.32,1.46c.21.33.53.5.94.5s.72-.15.94-.44c.22-.29.32-.72.32-1.29v-.46Z"/>
              <path id="DejaVuSerif-68" class="cls-14" d="m47.79,150.37v-.47h.73v-5.91h-.77v-.47h1.58v3c.15-.32.34-.56.58-.72.24-.16.52-.24.83-.24.52,0,.89.15,1.14.44s.36.76.36,1.38v2.51h.72v.47h-2.23v-.47h.7v-2.25c0-.57-.07-.96-.21-1.17-.14-.21-.39-.31-.74-.31-.37,0-.66.14-.86.41-.2.27-.29.67-.29,1.19v2.14h.7v.47h-2.24Z"/>
              <path id="DejaVuSerif-46" class="cls-14" d="m56.58,150.37v-.47h.84v-5.62h-.84v-.47h5.37v1.46h-.54v-.92h-3.1v2.2h2.24v-.82h.54v2.18h-.54v-.82h-2.24v2.82h1.05v.47h-2.78Z"/>
              <path id="DejaVuSerif-72" class="cls-14" d="m66.63,145.69v1.17h-.47c-.01-.23-.08-.4-.19-.52s-.28-.17-.5-.17c-.4,0-.7.14-.92.41-.21.28-.32.67-.32,1.19v2.14h.94v.47h-2.47v-.47h.73v-3.74h-.77v-.46h1.58v.83c.16-.33.36-.57.61-.72.25-.16.55-.24.91-.24.13,0,.27.01.41.03s.3.05.46.09Z"/>
              <path id="DejaVuSerif-65" class="cls-14" d="m71.5,148.12h-3.48v.04c0,.63.12,1.11.36,1.43s.59.48,1.05.48c.35,0,.65-.09.87-.28.23-.19.39-.46.48-.83h.65c-.13.51-.37.9-.72,1.16-.35.26-.8.39-1.37.39-.68,0-1.23-.22-1.65-.67-.41-.45-.62-1.05-.62-1.79s.2-1.33.61-1.78c.41-.45.94-.68,1.6-.68.71,0,1.25.22,1.63.65.38.43.57,1.07.59,1.9Zm-.95-.47c-.02-.55-.13-.96-.35-1.23-.21-.28-.52-.41-.92-.41-.37,0-.67.14-.88.42s-.34.69-.39,1.23h2.53Z"/>
              <path id="DejaVuSerif-71" class="cls-14" d="m76.68,146.17v5.6h.77v.47h-2.35v-.47h.76v-2.13c-.16.29-.36.51-.6.65-.24.14-.55.21-.91.21-.57,0-1.04-.23-1.41-.68-.36-.46-.55-1.05-.55-1.78s.18-1.33.54-1.78c.36-.45.83-.68,1.41-.68.36,0,.66.07.91.21.24.14.45.35.6.65v-.73h1.58v.47h-.77Zm-.81,1.64c0-.56-.11-.99-.32-1.28-.21-.3-.53-.44-.94-.44s-.73.16-.94.49c-.21.33-.32.82-.32,1.46s.11,1.13.32,1.46c.21.33.53.5.94.5s.72-.15.94-.44c.22-.29.32-.72.32-1.29v-.46Z"/>
              <path id="DejaVuSerif-75" class="cls-14" d="m80.9,145.7h1.51v4.21h.76v.47h-1.57v-.83c-.15.31-.34.55-.58.71-.24.16-.51.24-.83.24-.52,0-.9-.15-1.14-.44-.24-.3-.37-.76-.37-1.39v-2.5h-.73v-.47h1.54v2.72c0,.57.07.96.21,1.17.14.21.39.32.75.32.38,0,.66-.14.86-.41.2-.28.3-.68.3-1.2v-2.12h-.7v-.47Z"/>
              <path id="DejaVuSerif-65-2" data-name="DejaVuSerif-65" class="cls-14" d="m88.39,148.12h-3.48v.04c0,.63.12,1.11.36,1.43s.59.48,1.05.48c.35,0,.65-.09.87-.28.23-.19.39-.46.48-.83h.65c-.13.51-.37.9-.72,1.16-.35.26-.8.39-1.37.39-.68,0-1.23-.22-1.65-.67-.41-.45-.62-1.05-.62-1.79s.2-1.33.61-1.78c.41-.45.94-.68,1.6-.68.71,0,1.25.22,1.63.65.38.43.57,1.07.59,1.9Zm-.95-.47c-.02-.55-.13-.96-.35-1.23-.21-.28-.52-.41-.92-.41-.37,0-.67.14-.88.42s-.34.69-.39,1.23h2.53Z"/>
              <path id="DejaVuSerif-6e" class="cls-14" d="m89.21,150.37v-.47h.73v-3.74h-.77v-.47h1.58v.83c.15-.32.34-.56.58-.72.24-.16.52-.24.83-.24.52,0,.89.15,1.14.44s.36.76.36,1.38v2.51h.72v.47h-2.23v-.47h.7v-2.25c0-.57-.07-.96-.21-1.18-.14-.21-.39-.32-.74-.32-.37,0-.66.14-.86.41-.2.27-.29.67-.29,1.2v2.14h.7v.47h-2.24Z"/>
              <path id="DejaVuSerif-63" class="cls-14" d="m99.26,148.97c-.11.5-.33.88-.66,1.14-.33.26-.75.39-1.26.39-.68,0-1.23-.22-1.64-.67-.41-.45-.62-1.05-.62-1.79s.21-1.34.62-1.79c.41-.45.96-.67,1.64-.67.3,0,.59.03.88.1.29.07.59.17.88.31v1.2h-.47c-.06-.41-.2-.71-.4-.9s-.5-.28-.89-.28c-.44,0-.77.17-.99.51-.22.34-.33.84-.33,1.52s.11,1.18.33,1.52c.22.34.55.51.99.51.35,0,.63-.09.84-.27.21-.18.35-.46.43-.82h.65Z"/>
              <path id="DejaVuSerif-79" class="cls-14" d="m101.61,151.23l.31-.78-1.75-4.28h-.53v-.47h2.15v.47h-.75l1.31,3.21,1.31-3.21h-.7v-.47h1.75v.47h-.52l-2.14,5.26c-.15.36-.31.61-.49.75-.18.13-.43.2-.76.2-.14,0-.28-.01-.42-.04-.14-.02-.29-.06-.44-.1v-.89h.41c.02.2.07.34.15.43.08.09.21.13.39.13.16,0,.29-.04.39-.13.1-.09.2-.27.31-.54Z"/>
              <path id="DejaVuSerif-45" class="cls-14" d="m108.11,150.37v-.47h.84v-5.62h-.84v-.47h5.28v1.46h-.54v-.92h-3.01v2.2h2.15v-.82h.54v2.18h-.54v-.82h-2.15v2.75h3.09v-.92h.54v1.46h-5.35Z"/>
              <path id="DejaVuSerif-6e-2" data-name="DejaVuSerif-6e" class="cls-14" d="m114.56,150.37v-.47h.73v-3.74h-.77v-.47h1.58v.83c.15-.32.34-.56.58-.72.24-.16.52-.24.83-.24.52,0,.89.15,1.14.44s.36.76.36,1.38v2.51h.72v.47h-2.23v-.47h.7v-2.25c0-.57-.07-.96-.21-1.18-.14-.21-.39-.32-.74-.32-.37,0-.66.14-.86.41-.2.27-.29.67-.29,1.2v2.14h.7v.47h-2.24Z"/>
              <path id="DejaVuSerif-65-3" data-name="DejaVuSerif-65" class="cls-14" d="m124.86,148.12h-3.48v.04c0,.63.12,1.11.36,1.43s.59.48,1.05.48c.35,0,.65-.09.87-.28.23-.19.39-.46.48-.83h.65c-.13.51-.37.9-.72,1.16-.35.26-.8.39-1.37.39-.68,0-1.23-.22-1.65-.67-.41-.45-.62-1.05-.62-1.79s.2-1.33.61-1.78c.41-.45.94-.68,1.6-.68.71,0,1.25.22,1.63.65.38.43.57,1.07.59,1.9Zm-.95-.47c-.02-.55-.13-.96-.35-1.23-.21-.28-.52-.41-.92-.41-.37,0-.67.14-.88.42s-.34.69-.39,1.23h2.53Z"/>
              <path id="DejaVuSerif-72-2" data-name="DejaVuSerif-72" class="cls-14" d="m129.61,145.69v1.17h-.47c-.01-.23-.08-.4-.19-.52s-.28-.17-.5-.17c-.4,0-.7.14-.92.41-.21.28-.32.67-.32,1.19v2.14h.94v.47h-2.47v-.47h.73v-3.74h-.77v-.46h1.58v.83c.16-.33.36-.57.61-.72.25-.16.55-.24.91-.24.13,0,.27.01.41.03s.3.05.46.09Z"/>
              <path id="DejaVuSerif-67-2" data-name="DejaVuSerif-67" class="cls-14" d="m134.34,146.17v4.1c0,.67-.18,1.19-.55,1.55-.37.36-.89.55-1.58.55-.31,0-.6-.03-.88-.08-.28-.06-.55-.14-.81-.25v-.98h.42c.05.3.18.53.37.67.2.14.48.21.84.21.48,0,.82-.13,1.04-.4.22-.27.33-.69.33-1.26v-.63c-.16.29-.36.51-.6.65-.24.14-.55.21-.91.21-.57,0-1.04-.23-1.41-.68-.36-.46-.55-1.05-.55-1.78s.18-1.33.54-1.78c.36-.45.83-.68,1.41-.68.36,0,.66.07.91.21.24.14.45.35.6.65v-.73h1.58v.47h-.77Zm-.81,1.64c0-.56-.11-.99-.32-1.28-.21-.3-.53-.44-.94-.44s-.73.16-.94.49c-.21.33-.32.82-.32,1.46s.11,1.13.32,1.46c.21.33.53.5.94.5s.72-.15.94-.44c.22-.29.32-.72.32-1.29v-.46Z"/>
              <path id="DejaVuSerif-79-2" data-name="DejaVuSerif-79" class="cls-14" d="m137.32,151.23l.31-.78-1.75-4.28h-.53v-.47h2.15v.47h-.75l1.31,3.21,1.31-3.21h-.7v-.47h1.75v.47h-.52l-2.14,5.26c-.15.36-.31.61-.49.75-.18.13-.43.2-.76.2-.14,0-.28-.01-.42-.04-.14-.02-.29-.06-.44-.1v-.89h.41c.02.2.07.34.15.43.08.09.21.13.39.13.16,0,.29-.04.39-.13.1-.09.2-.27.31-.54Z"/>
              <path id="DejaVuSerif-52" class="cls-14" d="m147.63,147.11c.2.06.38.15.53.28.15.13.28.32.4.56l.95,1.95h.8v.47h-1.55l-1.02-2.09c-.2-.4-.38-.67-.54-.78-.16-.12-.39-.18-.68-.18h-.98v2.58h.93v.47h-2.65v-.47h.84v-5.62h-.84v-.47h3.33c.64,0,1.13.15,1.48.46.35.3.52.74.52,1.3,0,.45-.13.81-.38,1.07-.25.26-.63.42-1.13.49Zm-2.09-.26h1.3c.44,0,.77-.1.98-.31.21-.21.32-.53.32-.97s-.11-.76-.32-.97c-.21-.21-.54-.31-.98-.31h-1.3v2.57Z"/>
              <path id="DejaVuSerif-61" class="cls-14" d="m153.88,148.9v-.99h-1.04c-.4,0-.7.09-.9.26-.2.17-.29.44-.29.79,0,.33.1.58.3.77.2.19.47.29.81.29s.61-.1.81-.31c.21-.21.31-.48.31-.81Zm.81-1.45v2.45h.72v.47h-1.53v-.5c-.18.22-.39.38-.62.48-.23.1-.51.15-.82.15-.52,0-.93-.14-1.23-.41-.3-.28-.46-.65-.46-1.12s.17-.86.52-1.12.84-.4,1.48-.4h1.13v-.32c0-.36-.11-.63-.32-.82-.21-.2-.52-.29-.91-.29-.32,0-.58.07-.77.22-.19.15-.31.36-.36.65h-.42v-.94c.28-.12.55-.21.82-.27.27-.06.52-.09.77-.09.65,0,1.14.16,1.48.48.34.32.51.79.51,1.4Z"/>
              <path id="DejaVuSerif-74" class="cls-14" d="m156.64,146.17h-.71v-.47h.71v-1.45h.81v1.45h1.52v.47h-1.52v2.97c0,.4.04.65.11.76.08.11.22.17.42.17s.36-.06.46-.19c.1-.12.15-.33.15-.6h.61c-.02.42-.14.74-.35.93-.21.2-.52.29-.95.29-.47,0-.8-.1-.99-.31-.19-.21-.29-.56-.29-1.05v-2.97Z"/>
              <path id="DejaVuSerif-69-2" data-name="DejaVuSerif-69" class="cls-14" d="m160.16,144.25c0-.13.05-.25.15-.35.1-.1.22-.15.35-.15s.25.05.35.15c.1.1.15.22.15.35s-.05.26-.14.35c-.1.1-.21.14-.35.14s-.26-.05-.35-.14c-.1-.1-.15-.21-.15-.35Zm1.03,5.66h.76v.47h-2.35v-.47h.77v-3.74h-.77v-.47h1.58v4.21Z"/>
              <path id="DejaVuSerif-6f" class="cls-14" d="m164.87,150.06c.43,0,.76-.17.98-.51.22-.34.33-.85.33-1.52s-.11-1.17-.33-1.51c-.22-.34-.55-.51-.98-.51s-.76.17-.98.51-.33.85-.33,1.51.11,1.17.33,1.52c.22.34.55.51.98.51Zm0,.44c-.68,0-1.23-.22-1.64-.67-.41-.45-.62-1.05-.62-1.79s.21-1.34.62-1.79c.41-.45.96-.67,1.64-.67s1.23.22,1.64.67c.41.45.62,1.04.62,1.79s-.21,1.34-.62,1.79-.96.67-1.64.67Z"/>
              <path id="DejaVuSerif-28" class="cls-14" d="m173.31,151.77c-.71-.32-1.25-.83-1.61-1.52-.36-.69-.54-1.56-.54-2.6s.18-1.91.54-2.6c.36-.69.9-1.2,1.61-1.52v.43c-.45.31-.78.75-.97,1.31-.2.56-.29,1.36-.29,2.38s.1,1.81.29,2.38c.2.56.52,1,.97,1.31v.43Z"/>
              <path id="DejaVuSerif-72-3" data-name="DejaVuSerif-72" class="cls-14" d="m178.25,145.69v1.17h-.47c-.01-.23-.08-.4-.19-.52s-.28-.17-.5-.17c-.4,0-.7.14-.92.41-.21.28-.32.67-.32,1.19v2.14h.94v.47h-2.47v-.47h.73v-3.74h-.77v-.46h1.58v.83c.16-.33.36-.57.61-.72.25-.16.55-.24.91-.24.13,0,.27.01.41.03s.3.05.46.09Z"/>
              <path id="DejaVuSerif-2265" class="cls-14" d="m187.7,149.69v.69h-5.63v-.69h5.63Zm-5.63-3.82v-.73l5.63,1.61v.75l-5.63,1.62v-.73l4.64-1.26-4.64-1.26Z"/>
              <path id="DejaVuSerif-30-6" data-name="DejaVuSerif-30" class="cls-14" d="m194.37,150.06c.45,0,.78-.25,1.01-.74.22-.49.33-1.23.33-2.23s-.11-1.74-.33-2.23c-.22-.49-.56-.74-1.01-.74s-.78.25-1.01.74c-.22.49-.33,1.24-.33,2.23s.11,1.74.33,2.23c.22.49.56.74,1.01.74Zm0,.44c-.71,0-1.27-.3-1.67-.9-.4-.6-.6-1.43-.6-2.51s.2-1.91.6-2.51c.4-.6.96-.9,1.67-.9s1.27.3,1.67.9c.4.6.6,1.43.6,2.51s-.2,1.91-.6,2.51c-.4.6-.96.9-1.67.9Z"/>
              <path id="DejaVuSerif-2e-6" data-name="DejaVuSerif-2e" class="cls-14" d="m198.09,149.91c0-.16.06-.3.17-.42s.25-.17.42-.17.3.06.41.17c.11.11.17.25.17.42s-.06.3-.17.41c-.11.11-.25.17-.41.17s-.31-.06-.42-.17c-.11-.11-.17-.25-.17-.42Z"/>
              <path id="DejaVuSerif-35-2" data-name="DejaVuSerif-35" class="cls-14" d="m204.63,143.81v.72h-3.01v1.88c.15-.11.33-.18.53-.24.2-.05.43-.08.68-.08.71,0,1.27.2,1.68.59.41.39.62.93.62,1.61s-.21,1.24-.62,1.62c-.41.39-1,.58-1.75.58-.3,0-.61-.04-.93-.11-.32-.07-.64-.18-.97-.33v-1.27h.5c.03.42.16.73.4.95.24.22.57.33,1.01.33.46,0,.82-.15,1.07-.46.25-.3.37-.74.37-1.31s-.12-1-.37-1.31c-.25-.3-.6-.46-1.07-.46-.26,0-.5.05-.7.14-.2.09-.38.24-.53.43h-.38v-3.3h3.47Z"/>
              <path id="DejaVuSerif-29" class="cls-14" d="m206.46,151.77v-.43c.45-.31.78-.75.97-1.31.2-.56.3-1.36.3-2.38s-.1-1.82-.3-2.38c-.2-.56-.52-1-.97-1.31v-.43c.72.32,1.25.83,1.62,1.52.36.69.55,1.56.55,2.6s-.18,1.91-.55,2.6c-.36.69-.9,1.2-1.62,1.52Z"/>
            </g>
          </g>
        </g>
        <g id="matplotlib.axis_2" data-name="matplotlib.axis 2">
          <g id="ytick_1" data-name="ytick 1">
            <g id="line2d_6" data-name="line2d 6">
              <path id="m39cf4825d7" class="cls-11" d="m33.99,130.7h-1.31"/>
            </g>
            <g id="text_7" data-name="text 7">
              <path id="DejaVuSerif-30-7" data-name="DejaVuSerif-30" class="cls-14" d="m28.5,133.81c.45,0,.78-.25,1.01-.74.22-.49.33-1.23.33-2.23s-.11-1.74-.33-2.23c-.22-.49-.56-.74-1.01-.74s-.78.25-1.01.74c-.22.49-.33,1.24-.33,2.23s.11,1.74.33,2.23c.22.49.56.74,1.01.74Zm0,.44c-.71,0-1.27-.3-1.67-.9-.4-.6-.6-1.43-.6-2.51s.2-1.91.6-2.51c.4-.6.96-.9,1.67-.9s1.27.3,1.67.9c.4.6.6,1.43.6,2.51s-.2,1.91-.6,2.51c-.4.6-.96.9-1.67.9Z"/>
            </g>
          </g>
          <g id="ytick_2" data-name="ytick 2">
            <g id="line2d_7" data-name="line2d 7">
              <path id="m39cf4825d7-2" data-name="m39cf4825d7" class="cls-11" d="m33.99,94.78h-1.31"/>
            </g>
            <g id="text_8" data-name="text 8">
              <g>
                <path id="DejaVuSerif-31-2" data-name="DejaVuSerif-31" class="cls-14" d="m21.19,98.2v-.47h1.14v-5.46l-1.32.86v-.58l1.6-1.04h.61v6.21h1.14v.47h-3.17Z"/>
                <path id="DejaVuSerif-30-8" data-name="DejaVuSerif-30" class="cls-14" d="m28.5,97.89c.45,0,.78-.25,1.01-.74.22-.49.33-1.23.33-2.23s-.11-1.74-.33-2.23c-.22-.49-.56-.74-1.01-.74s-.78.25-1.01.74c-.22.49-.33,1.24-.33,2.23s.11,1.74.33,2.23c.22.49.56.74,1.01.74Zm0,.44c-.71,0-1.27-.3-1.67-.9-.4-.6-.6-1.43-.6-2.51s.2-1.91.6-2.51c.4-.6.96-.9,1.67-.9s1.27.3,1.67.9c.4.6.6,1.43.6,2.51s-.2,1.91-.6,2.51c-.4.6-.96.9-1.67.9Z"/>
              </g>
            </g>
          </g>
          <g id="ytick_3" data-name="ytick 3">
            <g id="line2d_8" data-name="line2d 8">
              <path id="m39cf4825d7-3" data-name="m39cf4825d7" class="cls-11" d="m33.99,58.86h-1.31"/>
            </g>
            <g id="text_9" data-name="text 9">
              <g>
                <path id="DejaVuSerif-32-2" data-name="DejaVuSerif-32" class="cls-14" d="m21.07,57.28h-.49v-1.17c.31-.17.63-.3.95-.38.32-.09.63-.13.93-.13.68,0,1.22.17,1.62.5s.59.78.59,1.35c0,.64-.45,1.41-1.34,2.3-.07.07-.12.12-.16.15l-1.66,1.66h2.74v-.81h.51v1.53h-4.23v-.48l1.99-1.99c.44-.44.75-.84.94-1.21s.28-.75.28-1.16c0-.44-.12-.79-.35-1.04-.23-.25-.55-.37-.95-.37s-.74.1-.97.31c-.23.21-.36.52-.4.94Z"/>
                <path id="DejaVuSerif-30-9" data-name="DejaVuSerif-30" class="cls-14" d="m28.5,61.97c.45,0,.78-.25,1.01-.74.22-.49.33-1.23.33-2.23s-.11-1.74-.33-2.23c-.22-.49-.56-.74-1.01-.74s-.78.25-1.01.74c-.22.49-.33,1.24-.33,2.23s.11,1.74.33,2.23c.22.49.56.74,1.01.74Zm0,.44c-.71,0-1.27-.3-1.67-.9-.4-.6-.6-1.43-.6-2.51s.2-1.91.6-2.51c.4-.6.96-.9,1.67-.9s1.27.3,1.67.9c.4.6.6,1.43.6,2.51s-.2,1.91-.6,2.51c-.4.6-.96.9-1.67.9Z"/>
              </g>
            </g>
          </g>
          <g id="ytick_4" data-name="ytick 4">
            <g id="line2d_9" data-name="line2d 9">
              <path id="m39cf4825d7-4" data-name="m39cf4825d7" class="cls-11" d="m33.99,22.94h-1.31"/>
            </g>
            <g id="text_10" data-name="text 10">
              <g>
                <path id="DejaVuSerif-33-2" data-name="DejaVuSerif-33" class="cls-14" d="m20.79,20.07c.34-.13.67-.23.99-.29.31-.07.61-.1.89-.1.64,0,1.14.14,1.5.42.36.28.54.66.54,1.15,0,.39-.12.72-.37.99-.25.27-.6.44-1.06.54.54.08.96.27,1.25.59s.45.72.45,1.22c0,.61-.21,1.08-.62,1.41-.41.33-1,.49-1.78.49-.34,0-.68-.04-1.01-.11-.33-.07-.65-.18-.97-.33v-1.27h.49c.03.42.17.74.43.96.26.22.61.32,1.08.32s.8-.13,1.06-.39c.26-.26.39-.61.39-1.07,0-.52-.13-.91-.4-1.17-.27-.27-.66-.4-1.17-.4h-.42v-.45h.22c.51,0,.9-.11,1.15-.32.26-.21.39-.53.39-.96,0-.38-.11-.68-.32-.88-.21-.2-.51-.31-.91-.31s-.7.09-.92.28c-.22.19-.35.47-.38.84h-.49v-1.16Z"/>
                <path id="DejaVuSerif-30-10" data-name="DejaVuSerif-30" class="cls-14" d="m28.5,26.05c.45,0,.78-.25,1.01-.74.22-.49.33-1.23.33-2.23s-.11-1.74-.33-2.23c-.22-.49-.56-.74-1.01-.74s-.78.25-1.01.74c-.22.49-.33,1.24-.33,2.23s.11,1.74.33,2.23c.22.49.56.74,1.01.74Zm0,.44c-.71,0-1.27-.3-1.67-.9-.4-.6-.6-1.43-.6-2.51s.2-1.91.6-2.51c.4-.6.96-.9,1.67-.9s1.27.3,1.67.9c.4.6.6,1.43.6,2.51s-.2,1.91-.6,2.51c-.4.6-.96.9-1.67.9Z"/>
              </g>
            </g>
          </g>
          <g id="text_11" data-name="text 11">
            <g>
              <path id="DejaVuSerif-44" class="cls-14" d="m15.95,90.38v-.82c0-.85-.24-1.51-.73-1.96s-1.18-.68-2.09-.68-1.6.23-2.08.68c-.48.45-.72,1.11-.72,1.96v.82h5.62Zm.47,1.73h-.47v-.84h-5.62v.84h-.47v-2.61c0-1.13.29-2.01.87-2.64.58-.63,1.38-.95,2.41-.95s1.84.32,2.42.95c.58.63.87,1.51.87,2.64v2.61Z"/>
              <path id="DejaVuSerif-65-4" data-name="DejaVuSerif-65" class="cls-14" d="m14.17,80.51v3.48h.04c.63,0,1.11-.12,1.43-.36s.48-.59.48-1.05c0-.35-.09-.65-.28-.87-.19-.23-.46-.39-.83-.48v-.65c.51.13.9.37,1.16.72.26.35.39.8.39,1.37,0,.68-.22,1.23-.67,1.65-.45.41-1.05.62-1.79.62s-1.33-.2-1.78-.61c-.45-.41-.68-.94-.68-1.6,0-.71.22-1.25.65-1.63.43-.38,1.07-.57,1.9-.59Zm-.47.95c-.55.02-.96.13-1.23.35-.28.21-.41.52-.41.92,0,.37.14.67.42.88s.69.34,1.23.39v-2.53Z"/>
              <path id="DejaVuSerif-6e-3" data-name="DejaVuSerif-6e" class="cls-14" d="m16.42,79.7h-.47v-.73h-3.74v.77h-.47v-1.58h.83c-.32-.15-.56-.34-.72-.58-.16-.24-.24-.52-.24-.83,0-.52.15-.89.44-1.14s.76-.36,1.38-.36h2.51v-.72h.47v2.23h-.47v-.7h-2.25c-.57,0-.96.07-1.18.21-.21.14-.32.39-.32.74,0,.37.14.66.41.86.27.2.67.29,1.2.29h2.14v-.7h.47v2.24Z"/>
              <path id="DejaVuSerif-73" class="cls-14" d="m16.16,73.76h-1.09v-.47c.35-.01.61-.12.78-.33.17-.21.26-.51.26-.92,0-.36-.07-.64-.2-.83-.14-.19-.33-.29-.6-.29-.2,0-.37.07-.49.21-.13.14-.26.43-.4.88l-.2.58c-.13.4-.29.69-.48.87-.19.18-.44.27-.74.27-.43,0-.76-.16-1.01-.47-.24-.31-.37-.75-.37-1.3,0-.25.03-.51.1-.78.06-.27.16-.55.28-.84h1.02v.47c-.3.01-.54.12-.71.32-.17.2-.25.47-.25.81s.06.6.18.77.3.26.54.26c.2,0,.35-.07.47-.2.12-.13.24-.4.36-.79l.2-.64c.14-.44.31-.76.52-.95.21-.2.47-.29.8-.29.44,0,.79.17,1.04.51.25.34.38.8.38,1.4,0,.3-.03.6-.1.88s-.16.57-.29.86Z"/>
              <path id="DejaVuSerif-69-3" data-name="DejaVuSerif-69" class="cls-14" d="m10.3,68.78c-.13,0-.25-.05-.35-.15-.1-.1-.15-.22-.15-.35s.05-.25.15-.35c.1-.1.22-.15.35-.15s.26.05.35.14c.1.1.14.21.14.35s-.05.26-.14.35c-.1.1-.21.15-.35.15Zm5.66-1.03v-.76h.47v2.35h-.47v-.77h-3.74v.77h-.47v-1.58h4.21Z"/>
              <path id="DejaVuSerif-74-2" data-name="DejaVuSerif-74" class="cls-14" d="m12.21,65.8v.71h-.47v-.71h-1.45v-.81h1.45v-1.52h.47v1.52h2.97c.4,0,.65-.04.76-.11.11-.08.17-.22.17-.42s-.06-.36-.19-.46c-.12-.1-.33-.15-.6-.15v-.61c.42.02.74.14.93.35.2.21.29.52.29.95,0,.47-.1.8-.31.99-.21.19-.56.29-1.05.29h-2.97Z"/>
              <path id="DejaVuSerif-79-3" data-name="DejaVuSerif-79" class="cls-14" d="m17.27,61.21l-.78-.31-4.28,1.75v.53h-.47v-2.15h.47v.75l3.21-1.31-3.21-1.31v.7h-.47v-1.75h.47v.52l5.26,2.14c.36.15.61.31.75.49.13.18.2.43.2.76,0,.14-.01.28-.04.42-.02.14-.06.29-.1.44h-.89v-.41c.2-.02.34-.07.43-.15.09-.08.13-.21.13-.39,0-.16-.04-.29-.13-.39-.09-.1-.27-.2-.54-.31Z"/>
            </g>
          </g>
        </g>
        <g id="line2d_10" data-name="line2d 10">
          <g class="cls-23">
            <path class="cls-5" d="m150.71,130.7V19.98"/>
          </g>
        </g>
        <g id="line2d_11" data-name="line2d 11">
          <g class="cls-21">
            <path class="cls-7" d="m60.9,130.7V19.98"/>
          </g>
        </g>
        <g id="line2d_12" data-name="line2d 12">
          <g class="cls-24">
            <path class="cls-9" d="m89.44,130.7V19.98"/>
          </g>
        </g>
        <g id="patch_3" data-name="patch 3">
          <path class="cls-19" d="m33.99,130.7V19.98"/>
        </g>
        <g id="patch_4" data-name="patch 4">
          <path class="cls-19" d="m206.28,130.7V19.98"/>
        </g>
        <g id="patch_5" data-name="patch 5">
          <path class="cls-19" d="m33.99,130.7h172.29"/>
        </g>
        <g id="patch_6" data-name="patch 6">
          <path class="cls-19" d="m33.99,19.98h172.29"/>
        </g>
        <g id="text_12" data-name="text 12">
          <g>
            <path id="DejaVuSerif-30-11" data-name="DejaVuSerif-30" class="cls-17" d="m153.48,130.39c.34,0,.59-.18.76-.55.17-.37.25-.93.25-1.67s-.08-1.31-.25-1.67c-.17-.37-.42-.55-.76-.55s-.59.18-.76.55c-.17.37-.25.93-.25,1.67s.08,1.3.25,1.67c.17.37.42.55.76.55Zm0,.33c-.53,0-.95-.22-1.25-.67-.3-.45-.45-1.08-.45-1.88s.15-1.43.45-1.88c.3-.45.72-.67,1.25-.67s.95.22,1.25.67c.3.45.45,1.08.45,1.88s-.15,1.43-.45,1.88c-.3.45-.72.67-1.25.67Z"/>
            <path id="DejaVuSerif-2e-7" data-name="DejaVuSerif-2e" class="cls-17" d="m156.26,130.28c0-.12.04-.23.13-.31s.19-.13.31-.13.22.04.31.13c.09.09.13.19.13.31s-.04.22-.13.31c-.09.09-.19.13-.31.13s-.23-.04-.31-.13c-.08-.09-.13-.19-.13-.31Z"/>
            <path id="DejaVuSerif-34-2" data-name="DejaVuSerif-34" class="cls-17" d="m160.13,128.96v-2.62l-1.68,2.62h1.68Zm1.45,1.67h-2.24v-.35h.79v-.97h-2.15v-.36l2.16-3.33h.65v3.34h.94v.35h-.94v.97h.79v.35Z"/>
            <path id="DejaVuSerif-30-12" data-name="DejaVuSerif-30" class="cls-17" d="m164.21,130.39c.34,0,.59-.18.76-.55.17-.37.25-.93.25-1.67s-.08-1.31-.25-1.67c-.17-.37-.42-.55-.76-.55s-.59.18-.76.55c-.17.37-.25.93-.25,1.67s.08,1.3.25,1.67c.17.37.42.55.76.55Zm0,.33c-.53,0-.95-.22-1.25-.67-.3-.45-.45-1.08-.45-1.88s.15-1.43.45-1.88c.3-.45.72-.67,1.25-.67s.95.22,1.25.67c.3.45.45,1.08.45,1.88s-.15,1.43-.45,1.88c-.3.45-.72.67-1.25.67Z"/>
            <path id="DejaVuSerif-33-3" data-name="DejaVuSerif-33" class="cls-17" d="m167.02,125.91c.26-.1.5-.17.74-.22.24-.05.46-.08.66-.08.48,0,.86.1,1.13.31.27.21.41.5.41.86,0,.3-.09.54-.28.74-.19.2-.45.33-.79.4.4.06.72.2.94.44s.33.54.33.92c0,.46-.15.81-.46,1.06-.31.24-.75.37-1.33.37-.26,0-.51-.03-.75-.08-.24-.05-.49-.14-.73-.25v-.96h.37c.02.32.13.56.32.72.19.16.46.24.81.24s.6-.1.8-.29c.19-.19.29-.46.29-.8,0-.39-.1-.68-.3-.88-.2-.2-.49-.3-.88-.3h-.31v-.34h.16c.38,0,.67-.08.86-.24.19-.16.29-.4.29-.72,0-.29-.08-.51-.24-.66-.16-.15-.39-.23-.68-.23s-.53.07-.69.21c-.16.14-.26.35-.29.63h-.37v-.87Z"/>
          </g>
        </g>
        <g id="text_13" data-name="text 13">
          <g>
            <path id="DejaVuSerif-30-13" data-name="DejaVuSerif-30" class="cls-12" d="m63.67,130.39c.34,0,.59-.18.76-.55.17-.37.25-.93.25-1.67s-.08-1.31-.25-1.67c-.17-.37-.42-.55-.76-.55s-.59.18-.76.55c-.17.37-.25.93-.25,1.67s.08,1.3.25,1.67c.17.37.42.55.76.55Zm0,.33c-.53,0-.95-.22-1.25-.67-.3-.45-.45-1.08-.45-1.88s.15-1.43.45-1.88c.3-.45.72-.67,1.25-.67s.95.22,1.25.67c.3.45.45,1.08.45,1.88s-.15,1.43-.45,1.88c-.3.45-.72.67-1.25.67Z"/>
            <path id="DejaVuSerif-2e-8" data-name="DejaVuSerif-2e" class="cls-12" d="m66.46,130.28c0-.12.04-.23.13-.31s.19-.13.31-.13.22.04.31.13c.09.09.13.19.13.31s-.04.22-.13.31c-.09.09-.19.13-.31.13s-.23-.04-.31-.13c-.08-.09-.13-.19-.13-.31Z"/>
            <path id="DejaVuSerif-31-3" data-name="DejaVuSerif-31" class="cls-12" d="m68.93,130.63v-.35h.86v-4.09l-.99.64v-.43l1.2-.78h.45v4.66h.86v.35h-2.38Z"/>
            <path id="DejaVuSerif-31-4" data-name="DejaVuSerif-31" class="cls-12" d="m73.22,130.63v-.35h.86v-4.09l-.99.64v-.43l1.2-.78h.45v4.66h.86v.35h-2.38Z"/>
            <path id="DejaVuSerif-36" class="cls-12" d="m78.77,130.39c.31,0,.55-.11.71-.34.17-.23.25-.55.25-.98s-.08-.75-.25-.98c-.17-.23-.4-.34-.71-.34s-.55.11-.72.33c-.16.22-.25.54-.25.95,0,.44.08.77.25,1.01.17.23.41.35.72.35Zm-1.07-2.48c.15-.16.32-.29.51-.37.19-.08.4-.12.64-.12.49,0,.88.15,1.16.44.28.29.43.7.43,1.21s-.15.9-.46,1.2c-.31.3-.72.45-1.23.45-.56,0-.98-.21-1.28-.62-.3-.41-.45-1.01-.45-1.78,0-.86.18-1.53.53-2,.35-.47.85-.71,1.5-.71.17,0,.36.02.55.05s.39.08.59.15v.81h-.37c-.03-.22-.11-.39-.25-.51s-.34-.18-.58-.18c-.43,0-.74.16-.95.49-.21.32-.32.82-.32,1.49Z"/>
          </g>
        </g>
        <g id="text_14" data-name="text 14">
          <g>
            <path id="DejaVuSerif-30-14" data-name="DejaVuSerif-30" class="cls-15" d="m92.21,130.39c.34,0,.59-.18.76-.55.17-.37.25-.93.25-1.67s-.08-1.31-.25-1.67c-.17-.37-.42-.55-.76-.55s-.59.18-.76.55c-.17.37-.25.93-.25,1.67s.08,1.3.25,1.67c.17.37.42.55.76.55Zm0,.33c-.53,0-.95-.22-1.25-.67-.3-.45-.45-1.08-.45-1.88s.15-1.43.45-1.88c.3-.45.72-.67,1.25-.67s.95.22,1.25.67c.3.45.45,1.08.45,1.88s-.15,1.43-.45,1.88c-.3.45-.72.67-1.25.67Z"/>
            <path id="DejaVuSerif-2e-9" data-name="DejaVuSerif-2e" class="cls-15" d="m94.99,130.28c0-.12.04-.23.13-.31s.19-.13.31-.13.22.04.31.13c.09.09.13.19.13.31s-.04.22-.13.31c-.09.09-.19.13-.31.13s-.23-.04-.31-.13c-.08-.09-.13-.19-.13-.31Z"/>
            <path id="DejaVuSerif-32-3" data-name="DejaVuSerif-32" class="cls-15" d="m97.37,126.88h-.37v-.88c.23-.13.47-.22.71-.29.24-.07.47-.1.7-.1.51,0,.92.12,1.21.37s.45.59.45,1.01c0,.48-.34,1.06-1.01,1.73-.05.05-.09.09-.12.11l-1.24,1.24h2.05v-.61h.39v1.15h-3.17v-.36l1.49-1.49c.33-.33.56-.63.71-.91s.21-.57.21-.87c0-.33-.09-.59-.26-.78-.17-.19-.41-.28-.71-.28s-.56.08-.73.23c-.17.16-.27.39-.3.7Z"/>
            <path id="DejaVuSerif-30-15" data-name="DejaVuSerif-30" class="cls-15" d="m102.94,130.39c.34,0,.59-.18.76-.55.17-.37.25-.93.25-1.67s-.08-1.31-.25-1.67c-.17-.37-.42-.55-.76-.55s-.59.18-.76.55c-.17.37-.25.93-.25,1.67s.08,1.3.25,1.67c.17.37.42.55.76.55Zm0,.33c-.53,0-.95-.22-1.25-.67-.3-.45-.45-1.08-.45-1.88s.15-1.43.45-1.88c.3-.45.72-.67,1.25-.67s.95.22,1.25.67c.3.45.45,1.08.45,1.88s-.15,1.43-.45,1.88c-.3.45-.72.67-1.25.67Z"/>
            <path id="DejaVuSerif-37" class="cls-15" d="m108.9,126.04l-1.92,4.58h-.49l1.84-4.38h-2.27v.61h-.38v-1.15h3.24v.34Z"/>
          </g>
        </g>
        <g id="text_15" data-name="text 15">
          <g>
            <path id="DejaVuSerif-48-2" data-name="DejaVuSerif-48" class="cls-14" d="m20.32,17.58v-.56h1v-6.75h-1v-.57h3.07v.57h-1v2.72h4.08v-2.72h-1v-.57h3.07v.57h-1v6.75h1v.56h-3.07v-.56h1v-3.39h-4.08v3.39h1v.56h-3.07Z"/>
            <path id="DejaVuSerif-69-4" data-name="DejaVuSerif-69" class="cls-14" d="m30.2,10.23c0-.16.06-.3.18-.42.12-.12.26-.18.43-.18s.3.06.42.18c.12.12.18.26.18.42s-.06.31-.17.42c-.12.12-.26.17-.42.17s-.31-.06-.43-.17c-.12-.12-.18-.26-.18-.42Zm1.24,6.79h.92v.56h-2.82v-.56h.93v-4.48h-.93v-.56h1.9v5.05Z"/>
            <path id="DejaVuSerif-67-3" data-name="DejaVuSerif-67" class="cls-14" d="m38.27,12.54v4.92c0,.81-.22,1.43-.66,1.86-.44.44-1.07.66-1.89.66-.37,0-.72-.03-1.06-.1-.34-.07-.66-.17-.97-.3v-1.17h.51c.06.37.21.63.45.8.24.17.57.25,1.01.25.57,0,.99-.16,1.25-.48.27-.32.4-.83.4-1.52v-.75c-.19.35-.43.61-.72.78-.29.17-.66.25-1.09.25-.69,0-1.25-.27-1.69-.82-.44-.55-.66-1.26-.66-2.14s.22-1.59.65-2.13c.44-.55,1-.82,1.69-.82.43,0,.8.08,1.09.25.29.17.53.43.72.78v-.88h1.9v.56h-.93Zm-.97,1.96c0-.67-.13-1.18-.39-1.54-.26-.36-.63-.53-1.12-.53s-.88.2-1.13.59c-.25.39-.38.98-.38,1.75s.13,1.36.38,1.76c.26.4.63.6,1.13.6s.87-.18,1.12-.53c.26-.35.39-.87.39-1.54v-.55Z"/>
            <path id="DejaVuSerif-68-2" data-name="DejaVuSerif-68" class="cls-14" d="m39.96,17.58v-.56h.87v-7.09h-.93v-.56h1.9v3.6c.18-.38.41-.67.7-.86.29-.19.62-.29,1-.29.62,0,1.07.18,1.37.53s.44.91.44,1.66v3.01h.87v.56h-2.68v-.56h.84v-2.7c0-.69-.08-1.15-.25-1.41-.17-.25-.46-.38-.89-.38-.45,0-.79.16-1.03.49-.24.33-.35.8-.35,1.43v2.56h.84v.56h-2.69Z"/>
            <path id="DejaVuSerif-2d" class="cls-14" d="m46.94,14.27h2.7v.82h-2.7v-.82Z"/>
            <path id="DejaVuSerif-46-2" data-name="DejaVuSerif-46" class="cls-14" d="m50.72,17.58v-.56h1v-6.75h-1v-.57h6.44v1.75h-.65v-1.1h-3.72v2.64h2.69v-.99h.65v2.62h-.65v-.99h-2.69v3.39h1.26v.56h-3.33Z"/>
            <path id="DejaVuSerif-72-4" data-name="DejaVuSerif-72" class="cls-14" d="m62.78,11.96v1.4h-.56c-.02-.28-.09-.49-.23-.62s-.34-.21-.6-.21c-.48,0-.84.17-1.1.5-.25.33-.38.81-.38,1.42v2.56h1.12v.56h-2.97v-.56h.87v-4.49h-.93v-.55h1.9v1c.19-.39.43-.68.73-.87.3-.19.66-.28,1.09-.28.16,0,.32.01.5.04s.36.06.55.11Z"/>
            <path id="DejaVuSerif-65-5" data-name="DejaVuSerif-65" class="cls-14" d="m68.63,14.88h-4.18v.04c0,.76.14,1.33.43,1.71s.7.58,1.26.58c.43,0,.77-.11,1.05-.33.27-.22.46-.56.57-.99h.78c-.16.62-.44,1.08-.86,1.39-.42.31-.96.46-1.64.46-.82,0-1.48-.27-1.97-.81-.5-.54-.75-1.26-.75-2.15s.24-1.6.73-2.14c.49-.54,1.13-.81,1.93-.81.85,0,1.5.26,1.95.78.45.52.69,1.28.71,2.27Zm-1.14-.56c-.02-.65-.16-1.15-.42-1.48-.25-.33-.62-.5-1.1-.5-.45,0-.8.17-1.05.5s-.41.83-.47,1.48h3.04Z"/>
            <path id="DejaVuSerif-71-2" data-name="DejaVuSerif-71" class="cls-14" d="m74.84,12.54v6.72h.93v.56h-2.81v-.56h.92v-2.56c-.19.35-.43.61-.72.78-.29.17-.66.25-1.09.25-.69,0-1.25-.27-1.69-.82-.44-.55-.66-1.26-.66-2.14s.22-1.59.65-2.13c.44-.55,1-.82,1.69-.82.43,0,.8.08,1.09.25.29.17.53.43.72.78v-.88h1.9v.56h-.93Zm-.97,1.96c0-.67-.13-1.18-.39-1.54-.26-.36-.63-.53-1.12-.53s-.88.2-1.13.59c-.25.39-.38.98-.38,1.75s.13,1.36.38,1.76c.26.4.63.6,1.13.6s.87-.18,1.12-.53c.26-.35.39-.87.39-1.54v-.55Z"/>
            <path id="DejaVuSerif-75-2" data-name="DejaVuSerif-75" class="cls-14" d="m79.9,11.97h1.81v5.05h.92v.56h-1.89v-.99c-.18.37-.41.66-.7.85-.28.19-.61.29-.99.29-.62,0-1.08-.18-1.37-.53-.29-.35-.44-.91-.44-1.66v-3h-.88v-.56h1.85v3.26c0,.68.08,1.15.25,1.4.17.25.47.38.89.38.45,0,.79-.17,1.03-.5.24-.33.35-.81.35-1.44v-2.55h-.84v-.56Z"/>
            <path id="DejaVuSerif-65-6" data-name="DejaVuSerif-65" class="cls-14" d="m88.89,14.88h-4.18v.04c0,.76.14,1.33.43,1.71s.7.58,1.26.58c.43,0,.77-.11,1.05-.33.27-.22.46-.56.57-.99h.78c-.16.62-.44,1.08-.86,1.39-.42.31-.96.46-1.64.46-.82,0-1.48-.27-1.97-.81-.5-.54-.75-1.26-.75-2.15s.24-1.6.73-2.14c.49-.54,1.13-.81,1.93-.81.85,0,1.5.26,1.95.78.45.52.69,1.28.71,2.27Zm-1.14-.56c-.02-.65-.16-1.15-.42-1.48-.25-.33-.62-.5-1.1-.5-.45,0-.8.17-1.05.5s-.41.83-.47,1.48h3.04Z"/>
            <path id="DejaVuSerif-6e-4" data-name="DejaVuSerif-6e" class="cls-14" d="m89.87,17.58v-.56h.87v-4.48h-.93v-.56h1.9v1c.18-.38.41-.67.7-.86.29-.19.62-.29,1-.29.62,0,1.07.18,1.37.53s.44.91.44,1.66v3.01h.87v.56h-2.68v-.56h.84v-2.7c0-.69-.08-1.16-.25-1.41-.17-.26-.47-.38-.89-.38-.45,0-.79.16-1.03.49-.24.33-.35.81-.35,1.44v2.56h.84v.56h-2.69Z"/>
            <path id="DejaVuSerif-63-2" data-name="DejaVuSerif-63" class="cls-14" d="m101.94,15.9c-.14.6-.4,1.05-.79,1.37-.39.31-.89.47-1.51.47-.82,0-1.47-.27-1.97-.81-.49-.54-.74-1.26-.74-2.15s.25-1.61.74-2.15c.5-.54,1.15-.8,1.97-.8.36,0,.71.04,1.06.12.35.08.71.21,1.06.38v1.43h-.56c-.07-.49-.24-.85-.48-1.07s-.6-.34-1.06-.34c-.52,0-.92.2-1.19.61-.27.41-.4,1.01-.4,1.82s.13,1.42.4,1.83c.27.41.66.61,1.19.61.42,0,.75-.11,1-.33.25-.22.42-.55.51-.99h.78Z"/>
            <path id="DejaVuSerif-79-4" data-name="DejaVuSerif-79" class="cls-14" d="m104.76,18.61l.37-.93-2.09-5.14h-.64v-.56h2.58v.56h-.9l1.58,3.86,1.58-3.86h-.84v-.56h2.1v.56h-.63l-2.57,6.31c-.18.44-.37.73-.59.89-.21.16-.52.24-.91.24-.17,0-.34-.01-.51-.04-.17-.03-.35-.07-.52-.12v-1.07h.5c.02.24.08.41.18.51.1.1.26.16.47.16.19,0,.35-.05.47-.16.12-.11.24-.32.37-.65Z"/>
            <path id="DejaVuSerif-45-2" data-name="DejaVuSerif-45" class="cls-14" d="m112.56,17.58v-.56h1v-6.75h-1v-.57h6.34v1.75h-.65v-1.1h-3.62v2.64h2.58v-.99h.65v2.62h-.65v-.99h-2.58v3.3h3.7v-1.1h.65v1.75h-6.42Z"/>
            <path id="DejaVuSerif-6e-5" data-name="DejaVuSerif-6e" class="cls-14" d="m120.29,17.58v-.56h.87v-4.48h-.93v-.56h1.9v1c.18-.38.41-.67.7-.86.29-.19.62-.29,1-.29.62,0,1.07.18,1.37.53s.44.91.44,1.66v3.01h.87v.56h-2.68v-.56h.84v-2.7c0-.69-.08-1.16-.25-1.41-.17-.26-.47-.38-.89-.38-.45,0-.79.16-1.03.49-.24.33-.35.81-.35,1.44v2.56h.84v.56h-2.69Z"/>
            <path id="DejaVuSerif-65-7" data-name="DejaVuSerif-65" class="cls-14" d="m132.66,14.88h-4.18v.04c0,.76.14,1.33.43,1.71s.7.58,1.26.58c.43,0,.77-.11,1.05-.33.27-.22.46-.56.57-.99h.78c-.16.62-.44,1.08-.86,1.39-.42.31-.96.46-1.64.46-.82,0-1.48-.27-1.97-.81-.5-.54-.75-1.26-.75-2.15s.24-1.6.73-2.14c.49-.54,1.13-.81,1.93-.81.85,0,1.5.26,1.95.78.45.52.69,1.28.71,2.27Zm-1.14-.56c-.02-.65-.16-1.15-.42-1.48-.25-.33-.62-.5-1.1-.5-.45,0-.8.17-1.05.5s-.41.83-.47,1.48h3.04Z"/>
            <path id="DejaVuSerif-72-5" data-name="DejaVuSerif-72" class="cls-14" d="m138.36,11.96v1.4h-.56c-.02-.28-.09-.49-.23-.62s-.34-.21-.6-.21c-.48,0-.84.17-1.1.5-.25.33-.38.81-.38,1.42v2.56h1.12v.56h-2.97v-.56h.87v-4.49h-.93v-.55h1.9v1c.19-.39.43-.68.73-.87.3-.19.66-.28,1.09-.28.16,0,.32.01.5.04s.36.06.55.11Z"/>
            <path id="DejaVuSerif-67-4" data-name="DejaVuSerif-67" class="cls-14" d="m144.03,12.54v4.92c0,.81-.22,1.43-.66,1.86-.44.44-1.07.66-1.89.66-.37,0-.72-.03-1.06-.1-.34-.07-.66-.17-.97-.3v-1.17h.51c.06.37.21.63.45.8.24.17.57.25,1.01.25.57,0,.99-.16,1.25-.48.27-.32.4-.83.4-1.52v-.75c-.19.35-.43.61-.72.78-.29.17-.66.25-1.09.25-.69,0-1.25-.27-1.69-.82-.44-.55-.66-1.26-.66-2.14s.22-1.59.65-2.13c.44-.55,1-.82,1.69-.82.43,0,.8.08,1.09.25.29.17.53.43.72.78v-.88h1.9v.56h-.93Zm-.97,1.96c0-.67-.13-1.18-.39-1.54-.26-.36-.63-.53-1.12-.53s-.88.2-1.13.59c-.25.39-.38.98-.38,1.75s.13,1.36.38,1.76c.26.4.63.6,1.13.6s.87-.18,1.12-.53c.26-.35.39-.87.39-1.54v-.55Z"/>
            <path id="DejaVuSerif-79-5" data-name="DejaVuSerif-79" class="cls-14" d="m147.6,18.61l.37-.93-2.09-5.14h-.64v-.56h2.58v.56h-.9l1.58,3.86,1.58-3.86h-.84v-.56h2.1v.56h-.63l-2.57,6.31c-.18.44-.37.73-.59.89-.21.16-.52.24-.91.24-.17,0-.34-.01-.51-.04-.17-.03-.35-.07-.52-.12v-1.07h.5c.02.24.08.41.18.51.1.1.26.16.47.16.19,0,.35-.05.47-.16.12-.11.24-.32.37-.65Z"/>
            <path id="DejaVuSerif-44-2" data-name="DejaVuSerif-44" class="cls-14" d="m157.48,17.02h.98c1.02,0,1.81-.29,2.35-.88s.82-1.42.82-2.51-.27-1.92-.82-2.5c-.54-.58-1.33-.87-2.36-.87h-.98v6.75Zm-2.07.56v-.56h1v-6.75h-1v-.57h3.13c1.36,0,2.42.35,3.17,1.04.76.69,1.14,1.66,1.14,2.89s-.38,2.2-1.14,2.9c-.76.7-1.82,1.04-3.17,1.04h-3.13Z"/>
            <path id="DejaVuSerif-69-5" data-name="DejaVuSerif-69" class="cls-14" d="m164.52,10.23c0-.16.06-.3.18-.42.12-.12.26-.18.43-.18s.3.06.42.18c.12.12.18.26.18.42s-.06.31-.17.42c-.12.12-.26.17-.42.17s-.31-.06-.43-.17c-.12-.12-.18-.26-.18-.42Zm1.24,6.79h.92v.56h-2.82v-.56h.93v-4.48h-.93v-.56h1.9v5.05Z"/>
            <path id="DejaVuSerif-73-2" data-name="DejaVuSerif-73" class="cls-14" d="m167.53,17.27v-1.31h.56c.01.42.14.73.39.94.25.21.62.31,1.1.31.44,0,.77-.08,1-.24.23-.16.34-.4.34-.72,0-.25-.08-.44-.25-.59-.17-.15-.52-.31-1.06-.49l-.7-.24c-.48-.15-.83-.35-1.05-.58-.22-.23-.32-.53-.32-.89,0-.51.19-.92.56-1.21.38-.29.9-.44,1.56-.44.3,0,.61.04.93.12.33.08.66.19,1.01.34v1.22h-.56c-.01-.36-.14-.65-.38-.85-.24-.2-.56-.31-.97-.31s-.72.07-.93.22-.31.36-.31.65c0,.24.08.43.24.57.16.14.48.29.95.43l.77.24c.53.17.91.37,1.15.62.23.25.35.57.35.96,0,.53-.2.95-.61,1.25-.41.3-.97.46-1.68.46-.36,0-.72-.04-1.06-.12s-.69-.19-1.03-.35Z"/>
            <path id="DejaVuSerif-74-3" data-name="DejaVuSerif-74" class="cls-14" d="m173.63,12.54h-.86v-.56h.86v-1.74h.98v1.74h1.82v.56h-1.82v3.56c0,.47.05.78.14.91.09.13.26.2.51.2s.44-.07.55-.22c.12-.15.18-.39.19-.73h.73c-.03.51-.17.88-.42,1.12-.25.24-.63.35-1.14.35-.56,0-.95-.12-1.19-.37-.23-.25-.35-.67-.35-1.26v-3.56Z"/>
            <path id="DejaVuSerif-72-6" data-name="DejaVuSerif-72" class="cls-14" d="m181.97,11.96v1.4h-.56c-.02-.28-.09-.49-.23-.62s-.34-.21-.6-.21c-.48,0-.84.17-1.1.5-.25.33-.38.81-.38,1.42v2.56h1.12v.56h-2.97v-.56h.87v-4.49h-.93v-.55h1.9v1c.19-.39.43-.68.73-.87.3-.19.66-.28,1.09-.28.16,0,.32.01.5.04s.36.06.55.11Z"/>
            <path id="DejaVuSerif-69-6" data-name="DejaVuSerif-69" class="cls-14" d="m183.02,10.23c0-.16.06-.3.18-.42.12-.12.26-.18.43-.18s.3.06.42.18c.12.12.18.26.18.42s-.06.31-.17.42c-.12.12-.26.17-.42.17s-.31-.06-.43-.17c-.12-.12-.18-.26-.18-.42Zm1.24,6.79h.92v.56h-2.82v-.56h.93v-4.48h-.93v-.56h1.9v5.05Z"/>
            <path id="DejaVuSerif-62" class="cls-14" d="m186.67,17.02v-7.09h-.93v-.56h1.91v3.48c.19-.35.43-.61.72-.78.29-.17.66-.25,1.09-.25.69,0,1.25.27,1.69.82.44.54.65,1.26.65,2.13s-.22,1.59-.65,2.14c-.44.55-1,.82-1.69.82-.43,0-.8-.08-1.09-.25-.29-.17-.53-.43-.72-.78v.88h-1.91v-.56h.93Zm.97-1.97c0,.67.13,1.19.39,1.54.26.35.63.53,1.13.53s.87-.2,1.13-.6c.26-.4.38-.98.38-1.76s-.13-1.36-.38-1.75c-.25-.39-.63-.59-1.13-.59s-.87.18-1.13.53c-.26.35-.39.87-.39,1.54v.55Z"/>
            <path id="DejaVuSerif-75-3" data-name="DejaVuSerif-75" class="cls-14" d="m196.16,11.97h1.81v5.05h.92v.56h-1.89v-.99c-.18.37-.41.66-.7.85-.28.19-.61.29-.99.29-.62,0-1.08-.18-1.37-.53-.29-.35-.44-.91-.44-1.66v-3h-.88v-.56h1.85v3.26c0,.68.08,1.15.25,1.4.17.25.47.38.89.38.45,0,.79-.17,1.03-.5.24-.33.35-.81.35-1.44v-2.55h-.84v-.56Z"/>
            <path id="DejaVuSerif-74-4" data-name="DejaVuSerif-74" class="cls-14" d="m200.46,12.54h-.86v-.56h.86v-1.74h.98v1.74h1.82v.56h-1.82v3.56c0,.47.05.78.14.91.09.13.26.2.51.2s.44-.07.55-.22c.12-.15.18-.39.19-.73h.73c-.03.51-.17.88-.42,1.12-.25.24-.63.35-1.14.35-.56,0-.95-.12-1.19-.37-.23-.25-.35-.67-.35-1.26v-3.56Z"/>
            <path id="DejaVuSerif-69-7" data-name="DejaVuSerif-69" class="cls-14" d="m204.68,10.23c0-.16.06-.3.18-.42.12-.12.26-.18.43-.18s.3.06.42.18c.12.12.18.26.18.42s-.06.31-.17.42c-.12.12-.26.17-.42.17s-.31-.06-.43-.17c-.12-.12-.18-.26-.18-.42Zm1.24,6.79h.92v.56h-2.82v-.56h.93v-4.48h-.93v-.56h1.9v5.05Z"/>
            <path id="DejaVuSerif-6f-2" data-name="DejaVuSerif-6f" class="cls-14" d="m210.33,17.21c.52,0,.91-.21,1.18-.62.27-.41.4-1.02.4-1.82s-.13-1.41-.4-1.82c-.26-.41-.66-.61-1.18-.61s-.91.2-1.18.61-.4,1.01-.4,1.82.13,1.41.4,1.82c.27.41.66.62,1.18.62Zm0,.52c-.82,0-1.47-.27-1.97-.81-.49-.54-.74-1.26-.74-2.15s.25-1.61.74-2.14c.49-.54,1.15-.81,1.97-.81s1.48.27,1.97.81c.49.54.74,1.25.74,2.14s-.25,1.61-.74,2.15-1.15.81-1.97.81Z"/>
            <path id="DejaVuSerif-6e-6" data-name="DejaVuSerif-6e" class="cls-14" d="m214.03,17.58v-.56h.87v-4.48h-.93v-.56h1.9v1c.18-.38.41-.67.7-.86.29-.19.62-.29,1-.29.62,0,1.07.18,1.37.53s.44.91.44,1.66v3.01h.87v.56h-2.68v-.56h.84v-2.7c0-.69-.08-1.16-.25-1.41-.17-.26-.47-.38-.89-.38-.45,0-.79.16-1.03.49-.24.33-.35.81-.35,1.44v2.56h.84v.56h-2.69Z"/>
          </g>
        </g>
        <g id="legend_1" data-name="legend 1">
          <g id="patch_7" data-name="patch 7">
            <path class="cls-8" d="m112.59,66.81h87.39c1.2,0,1.8-.6,1.8-1.8V26.28c0-1.2-.6-1.8-1.8-1.8h-87.39c-1.2,0-1.8.6-1.8,1.8v38.73c0,1.2.6,1.8,1.8,1.8Z"/>
          </g>
          <g id="patch_8" data-name="patch 8">
            <path class="cls-1" d="m114.39,34.92h18v-6.3h-18v6.3Z"/>
          </g>
          <g id="text_16" data-name="text 16">
            <g>
              <path id="DejaVuSerif-4d" class="cls-14" d="m140.09,34.92v-.47h.84v-5.62h-.88v-.47h1.91l2.3,4.67,2.3-4.67h1.79v.47h-.87v5.62h.84v.47h-2.57v-.47h.84v-5.07l-2.25,4.58h-.62l-2.25-4.58v5.07h.84v.47h-2.21Z"/>
              <path id="DejaVuSerif-54" class="cls-14" d="m150.52,34.92v-.47h.84v-5.57h-1.93v1.02h-.54v-1.55h5.83v1.55h-.54v-1.02h-1.93v5.57h.84v.47h-2.57Z"/>
              <path id="DejaVuSerif-54-2" data-name="DejaVuSerif-54" class="cls-14" d="m156.7,34.92v-.47h.84v-5.57h-1.93v1.02h-.54v-1.55h5.83v1.55h-.54v-1.02h-1.93v5.57h.84v.47h-2.57Z"/>
            </g>
          </g>
          <g id="patch_9" data-name="patch 9">
            <path class="cls-10" d="m114.39,48.13h18v-6.3h-18v6.3Z"/>
          </g>
          <g id="text_17" data-name="text 17">
            <g>
              <path id="DejaVuSerif-4d-2" data-name="DejaVuSerif-4d" class="cls-14" d="m140.09,48.13v-.47h.84v-5.62h-.88v-.47h1.91l2.3,4.67,2.3-4.67h1.79v.47h-.87v5.62h.84v.47h-2.57v-.47h.84v-5.07l-2.25,4.58h-.62l-2.25-4.58v5.07h.84v.47h-2.21Z"/>
              <path id="DejaVuSerif-54-3" data-name="DejaVuSerif-54" class="cls-14" d="m150.52,48.13v-.47h.84v-5.57h-1.93v1.02h-.54v-1.55h5.83v1.55h-.54v-1.02h-1.93v5.57h.84v.47h-2.57Z"/>
              <path id="DejaVuSerif-54-4" data-name="DejaVuSerif-54" class="cls-14" d="m156.7,48.13v-.47h.84v-5.57h-1.93v1.02h-.54v-1.55h5.83v1.55h-.54v-1.02h-1.93v5.57h.84v.47h-2.57Z"/>
              <path id="DejaVuSerif-2b" class="cls-14" d="m167.96,42.49v2.47h2.47v.71h-2.47v2.47h-.7v-2.47h-2.47v-.71h2.47v-2.47h.7Z"/>
              <path id="DejaVuSerif-6f-3" data-name="DejaVuSerif-6f" class="cls-14" d="m176.95,47.82c.43,0,.76-.17.98-.51.22-.34.33-.85.33-1.52s-.11-1.17-.33-1.51c-.22-.34-.55-.51-.98-.51s-.76.17-.98.51-.33.85-.33,1.51.11,1.17.33,1.52c.22.34.55.51.98.51Zm0,.44c-.68,0-1.23-.22-1.64-.67-.41-.45-.62-1.05-.62-1.79s.21-1.34.62-1.79c.41-.45.96-.67,1.64-.67s1.23.22,1.64.67c.41.45.62,1.04.62,1.79s-.21,1.34-.62,1.79-.96.67-1.64.67Z"/>
              <path id="DejaVuSerif-75-4" data-name="DejaVuSerif-75" class="cls-14" d="m182.85,43.46h1.51v4.21h.76v.47h-1.57v-.83c-.15.31-.34.55-.58.71-.24.16-.51.24-.83.24-.52,0-.9-.15-1.14-.44-.24-.3-.37-.76-.37-1.39v-2.5h-.73v-.47h1.54v2.72c0,.57.07.96.21,1.17.14.21.39.32.75.32.38,0,.66-.14.86-.41.2-.28.3-.68.3-1.2v-2.12h-.7v-.47Z"/>
              <path id="DejaVuSerif-72-7" data-name="DejaVuSerif-72" class="cls-14" d="m189.76,43.45v1.17h-.47c-.01-.23-.08-.4-.19-.52s-.28-.17-.5-.17c-.4,0-.7.14-.92.41-.21.28-.32.67-.32,1.19v2.14h.94v.47h-2.47v-.47h.73v-3.74h-.77v-.46h1.58v.83c.16-.33.36-.57.61-.72.25-.16.55-.24.91-.24.13,0,.27.01.41.03s.3.05.46.09Z"/>
              <path id="DejaVuSerif-73-3" data-name="DejaVuSerif-73" class="cls-14" d="m190.26,47.87v-1.09h.47c.01.35.12.61.33.78.21.17.51.26.92.26.36,0,.64-.07.83-.2.19-.14.29-.33.29-.6,0-.2-.07-.37-.21-.49-.14-.13-.43-.26-.88-.4l-.58-.2c-.4-.13-.69-.29-.87-.48-.18-.19-.27-.44-.27-.74,0-.43.16-.76.47-1.01.31-.24.75-.37,1.3-.37.25,0,.51.03.78.1.27.06.55.16.84.28v1.02h-.47c-.01-.3-.12-.54-.32-.71-.2-.17-.47-.25-.81-.25s-.6.06-.77.18-.26.3-.26.54c0,.2.07.35.2.47.13.12.4.24.79.36l.64.2c.44.14.76.31.95.52.2.21.29.47.29.8,0,.44-.17.79-.51,1.04-.34.25-.8.38-1.4.38-.3,0-.6-.03-.88-.1s-.57-.16-.86-.29Z"/>
            </g>
          </g>
          <g id="patch_10" data-name="patch 10">
            <path class="cls-4" d="m114.39,61.34h18v-6.3h-18v6.3Z"/>
          </g>
          <g id="text_18" data-name="text 18">
            <g>
              <path id="DejaVuSerif-52-2" data-name="DejaVuSerif-52" class="cls-14" d="m143.9,58.08c.2.06.38.15.53.28.15.13.28.32.4.56l.95,1.95h.8v.47h-1.55l-1.02-2.09c-.2-.4-.38-.67-.54-.78-.16-.12-.39-.18-.68-.18h-.98v2.58h.93v.47h-2.65v-.47h.84v-5.62h-.84v-.47h3.33c.64,0,1.13.15,1.48.46.35.3.52.74.52,1.3,0,.45-.13.81-.38,1.07-.25.26-.63.42-1.13.49Zm-2.09-.26h1.3c.44,0,.77-.1.98-.31.21-.21.32-.53.32-.97s-.11-.76-.32-.97c-.21-.21-.54-.31-.98-.31h-1.3v2.57Z"/>
              <path id="DejaVuSerif-61-2" data-name="DejaVuSerif-61" class="cls-14" d="m150.15,59.87v-.99h-1.04c-.4,0-.7.09-.9.26-.2.17-.29.44-.29.79,0,.33.1.58.3.77.2.19.47.29.81.29s.61-.1.81-.31c.21-.21.31-.48.31-.81Zm.81-1.45v2.45h.72v.47h-1.53v-.5c-.18.22-.39.38-.62.48-.23.1-.51.15-.82.15-.52,0-.93-.14-1.23-.41-.3-.28-.46-.65-.46-1.12s.17-.86.52-1.12.84-.4,1.48-.4h1.13v-.32c0-.36-.11-.63-.32-.82-.21-.2-.52-.29-.91-.29-.32,0-.58.07-.77.22-.19.15-.31.36-.36.65h-.42v-.94c.28-.12.55-.21.82-.27.27-.06.52-.09.77-.09.65,0,1.14.16,1.48.48.34.32.51.79.51,1.4Z"/>
              <path id="DejaVuSerif-6e-7" data-name="DejaVuSerif-6e" class="cls-14" d="m152.3,61.34v-.47h.73v-3.74h-.77v-.47h1.58v.83c.15-.32.34-.56.58-.72.24-.16.52-.24.83-.24.52,0,.89.15,1.14.44s.36.76.36,1.38v2.51h.72v.47h-2.23v-.47h.7v-2.25c0-.57-.07-.96-.21-1.18-.14-.21-.39-.32-.74-.32-.37,0-.66.14-.86.41-.2.27-.29.67-.29,1.2v2.14h.7v.47h-2.24Z"/>
              <path id="DejaVuSerif-64" class="cls-14" d="m162.45,60.87h.77v.47h-1.58v-.73c-.16.29-.36.51-.6.65-.24.14-.55.21-.91.21-.57,0-1.04-.23-1.41-.68-.36-.46-.55-1.05-.55-1.78s.18-1.33.54-1.78c.36-.45.83-.68,1.41-.68.36,0,.66.07.91.21.24.14.45.35.6.65v-2.43h-.76v-.47h1.57v6.37Zm-.81-1.64v-.46c0-.56-.11-.99-.32-1.28-.21-.3-.53-.44-.94-.44s-.73.16-.94.49c-.21.33-.32.82-.32,1.46s.11,1.13.32,1.46c.21.33.53.5.94.5s.72-.15.94-.44c.22-.29.32-.72.32-1.29Z"/>
              <path id="DejaVuSerif-6f-4" data-name="DejaVuSerif-6f" class="cls-14" d="m166.2,61.03c.43,0,.76-.17.98-.51.22-.34.33-.85.33-1.52s-.11-1.17-.33-1.51c-.22-.34-.55-.51-.98-.51s-.76.17-.98.51-.33.85-.33,1.51.11,1.17.33,1.52c.22.34.55.51.98.51Zm0,.44c-.68,0-1.23-.22-1.64-.67-.41-.45-.62-1.05-.62-1.79s.21-1.34.62-1.79c.41-.45.96-.67,1.64-.67s1.23.22,1.64.67c.41.45.62,1.04.62,1.79s-.21,1.34-.62,1.79-.96.67-1.64.67Z"/>
              <path id="DejaVuSerif-6d" class="cls-14" d="m173.57,57.58c.15-.34.35-.6.59-.78s.52-.26.85-.26c.49,0,.85.15,1.09.46.24.3.36.76.36,1.37v2.51h.73v.47h-2.24v-.47h.7v-2.41c0-.48-.07-.82-.21-1.02s-.37-.3-.7-.3c-.36,0-.63.14-.82.41-.19.27-.28.67-.28,1.19v2.14h.7v.47h-2.21v-.47h.7v-2.44c0-.47-.07-.8-.21-1s-.37-.3-.7-.3c-.36,0-.64.14-.83.41-.19.27-.28.67-.28,1.19v2.14h.7v.47h-2.24v-.47h.73v-3.74h-.77v-.46h1.58v.83c.15-.31.34-.55.57-.71.23-.16.49-.25.79-.25.36,0,.67.09.91.27.24.18.41.44.49.77Z"/>
              <path id="DejaVuSerif-72-8" data-name="DejaVuSerif-72" class="cls-14" d="m184.61,56.66v1.17h-.47c-.01-.23-.08-.4-.19-.52s-.28-.17-.5-.17c-.4,0-.7.14-.92.41-.21.28-.32.67-.32,1.19v2.14h.94v.47h-2.47v-.47h.73v-3.74h-.77v-.46h1.58v.83c.16-.33.36-.57.61-.72.25-.16.55-.24.91-.24.13,0,.27.01.41.03s.3.05.46.09Z"/>
              <path id="DejaVuSerif-65-8" data-name="DejaVuSerif-65" class="cls-14" d="m189.49,59.09h-3.48v.04c0,.63.12,1.11.36,1.43s.59.48,1.05.48c.35,0,.65-.09.87-.28.23-.19.39-.46.48-.83h.65c-.13.51-.37.9-.72,1.16-.35.26-.8.39-1.37.39-.68,0-1.23-.22-1.65-.67-.41-.45-.62-1.05-.62-1.79s.2-1.33.61-1.78c.41-.45.94-.68,1.6-.68.71,0,1.25.22,1.63.65.38.43.57,1.07.59,1.9Zm-.95-.47c-.02-.55-.13-.96-.35-1.23-.21-.28-.52-.41-.92-.41-.37,0-.67.14-.88.42s-.34.69-.39,1.23h2.53Z"/>
              <path id="DejaVuSerif-61-3" data-name="DejaVuSerif-61" class="cls-14" d="m193.52,59.87v-.99h-1.04c-.4,0-.7.09-.9.26-.2.17-.29.44-.29.79,0,.33.1.58.3.77.2.19.47.29.81.29s.61-.1.81-.31c.21-.21.31-.48.31-.81Zm.81-1.45v2.45h.72v.47h-1.53v-.5c-.18.22-.39.38-.62.48-.23.1-.51.15-.82.15-.52,0-.93-.14-1.23-.41-.3-.28-.46-.65-.46-1.12s.17-.86.52-1.12.84-.4,1.48-.4h1.13v-.32c0-.36-.11-.63-.32-.82-.21-.2-.52-.29-.91-.29-.32,0-.58.07-.77.22-.19.15-.31.36-.36.65h-.42v-.94c.28-.12.55-.21.82-.27.27-.06.52-.09.77-.09.65,0,1.14.16,1.48.48.34.32.51.79.51,1.4Z"/>
              <path id="DejaVuSerif-6c" class="cls-14" d="m197.15,60.87h.76v.47h-2.35v-.47h.78v-5.91h-.78v-.47h1.59v6.37Z"/>
            </g>
          </g>
        </g>
      </g>
    </g>
  </g>
</svg>