<?xml version="1.0" encoding="UTF-8"?>
<svg id="_图层_2" data-name="图层 2" xmlns="http://www.w3.org/2000/svg" xmlns:xlink="http://www.w3.org/1999/xlink" viewBox="0 0 216 162">
  <defs>
    <style>
      .cls-1, .cls-2 {
        fill: #f6bc9a;
      }

      .cls-1, .cls-3, .cls-4, .cls-5, .cls-6, .cls-7 {
        stroke-width: 0px;
      }

      .cls-8 {
        stroke: #adbadf;
      }

      .cls-8, .cls-2, .cls-9 {
        stroke-width: .38px;
      }

      .cls-8, .cls-7 {
        fill: #adbadf;
        isolation: isolate;
        opacity: .5;
      }

      .cls-2 {
        stroke: #f6bc9a;
      }

      .cls-10 {
        clip-path: url(#clippath-2);
      }

      .cls-11 {
        stroke-linecap: square;
      }

      .cls-11, .cls-3 {
        fill: none;
      }

      .cls-11, .cls-12 {
        stroke: #040000;
        stroke-width: .3px;
      }

      .cls-4, .cls-12 {
        fill: #040000;
      }

      .cls-13 {
        clip-path: url(#clippath-1);
      }

      .cls-14 {
        clip-path: url(#clippath-4);
      }

      .cls-5, .cls-9 {
        fill: #9dcbc2;
      }

      .cls-6 {
        fill: #fff;
      }

      .cls-12 {
        stroke-linejoin: round;
      }

      .cls-9 {
        stroke: #9dcbc2;
      }

      .cls-15 {
        clip-path: url(#clippath);
      }

      .cls-16 {
        clip-path: url(#clippath-3);
      }

      .cls-17 {
        clip-path: url(#clippath-5);
      }
    </style>
    <clipPath id="clippath">
      <rect class="cls-3" x="34.17" y="19.8" width="172.11" height="121.21"/>
    </clipPath>
    <clipPath id="clippath-1">
      <rect class="cls-3" x="34.17" y="19.8" width="172.11" height="121.21"/>
    </clipPath>
    <clipPath id="clippath-2">
      <rect class="cls-3" x="34.17" y="19.8" width="172.11" height="121.21"/>
    </clipPath>
    <clipPath id="clippath-3">
      <rect class="cls-3" x="34.17" y="19.8" width="172.11" height="121.21"/>
    </clipPath>
    <clipPath id="clippath-4">
      <rect class="cls-3" x="34.17" y="19.8" width="172.11" height="121.21"/>
    </clipPath>
    <clipPath id="clippath-5">
      <rect class="cls-3" x="34.17" y="19.8" width="172.11" height="121.21"/>
    </clipPath>
  </defs>
  <g id="_图层_1-2" data-name="图层 1">
    <g id="figure_1" data-name="figure 1">
      <g id="patch_1" data-name="patch 1">
        <path class="cls-6" d="m0,162h216V0H0v162Z"/>
      </g>
      <g id="axes_1" data-name="axes 1">
        <g id="patch_2" data-name="patch 2">
          <path class="cls-6" d="m34.17,141.02h172.11V19.8H34.17v121.22Z"/>
        </g>
        <g id="patch_3" data-name="patch 3">
          <g class="cls-15">
            <path class="cls-5" d="m41.99,141.02h22.35v-38.1h-22.35v38.1Z"/>
          </g>
        </g>
        <g id="patch_4" data-name="patch 4">
          <g class="cls-13">
            <path class="cls-1" d="m64.35,141.02h22.35v-67.53h-22.35v67.53Z"/>
          </g>
        </g>
        <g id="patch_5" data-name="patch 5">
          <g class="cls-10">
            <path class="cls-7" d="m86.7,141.02h22.35v-53.33h-22.35v53.33Z"/>
          </g>
        </g>
        <g id="patch_6" data-name="patch 6">
          <g class="cls-16">
            <path class="cls-5" d="m131.4,141.02h22.35v-38.1h-22.35v38.1Z"/>
          </g>
        </g>
        <g id="patch_7" data-name="patch 7">
          <g class="cls-14">
            <path class="cls-1" d="m153.75,141.02h22.35V57.2h-22.35v83.81Z"/>
          </g>
        </g>
        <g id="patch_8" data-name="patch 8">
          <g class="cls-17">
            <path class="cls-7" d="m176.11,141.02h22.35v-75.5h-22.35v75.5Z"/>
          </g>
        </g>
        <g id="matplotlib.axis_1" data-name="matplotlib.axis 1">
          <g id="xtick_1" data-name="xtick 1">
            <g id="line2d_1" data-name="line2d 1">
              <path id="mb954b75c8a" class="cls-12" d="m75.52,141.02v1.31"/>
            </g>
            <g id="text_1" data-name="text 1">
              <g>
                <path id="DejaVuSerif-44" class="cls-4" d="m69.53,150.01h.82c.85,0,1.51-.24,1.96-.73s.68-1.18.68-2.09-.23-1.6-.68-2.08c-.45-.48-1.11-.72-1.96-.72h-.82v5.62Zm-1.73.47v-.47h.84v-5.62h-.84v-.47h2.61c1.13,0,2.01.29,2.64.87.63.58.95,1.38.95,2.41s-.32,1.84-.95,2.42c-.63.58-1.51.87-2.64.87h-2.61Z"/>
                <path id="DejaVuSerif-4d" class="cls-4" d="m75.02,150.48v-.47h.84v-5.62h-.88v-.47h1.91l2.3,4.67,2.3-4.67h1.79v.47h-.87v5.62h.84v.47h-2.57v-.47h.84v-5.07l-2.25,4.58h-.62l-2.25-4.58v5.07h.84v.47h-2.21Z"/>
              </g>
            </g>
          </g>
          <g id="xtick_2" data-name="xtick 2">
            <g id="line2d_2" data-name="line2d 2">
              <path id="mb954b75c8a-2" data-name="mb954b75c8a" class="cls-12" d="m164.93,141.02v1.31"/>
            </g>
            <g id="text_2" data-name="text 2">
              <g>
                <path id="DejaVuSerif-4d-2" data-name="DejaVuSerif-4d" class="cls-4" d="m154.73,150.48v-.47h.84v-5.62h-.88v-.47h1.91l2.3,4.67,2.3-4.67h1.79v.47h-.87v5.62h.84v.47h-2.57v-.47h.84v-5.07l-2.25,4.58h-.62l-2.25-4.58v5.07h.84v.47h-2.21Z"/>
                <path id="DejaVuSerif-54" class="cls-4" d="m165.17,150.48v-.47h.84v-5.57h-1.93v1.02h-.54v-1.55h5.83v1.55h-.54v-1.02h-1.93v5.57h.84v.47h-2.57Z"/>
                <path id="DejaVuSerif-54-2" data-name="DejaVuSerif-54" class="cls-4" d="m171.34,150.48v-.47h.84v-5.57h-1.93v1.02h-.54v-1.55h5.83v1.55h-.54v-1.02h-1.93v5.57h.84v.47h-2.57Z"/>
              </g>
            </g>
          </g>
        </g>
        <g id="matplotlib.axis_2" data-name="matplotlib.axis 2">
          <g id="ytick_1" data-name="ytick 1">
            <g id="line2d_3" data-name="line2d 3">
              <path id="m8baff14334" class="cls-12" d="m34.17,141.02h-1.31"/>
            </g>
            <g id="text_3" data-name="text 3">
              <path id="DejaVuSerif-30" class="cls-4" d="m28.68,144.13c.45,0,.78-.25,1.01-.74.22-.49.33-1.23.33-2.23s-.11-1.74-.33-2.23c-.22-.49-.56-.74-1.01-.74s-.78.25-1.01.74c-.22.49-.33,1.24-.33,2.23s.11,1.74.33,2.23c.22.49.56.74,1.01.74Zm0,.44c-.71,0-1.27-.3-1.67-.9-.4-.6-.6-1.43-.6-2.51s.2-1.91.6-2.51c.4-.6.96-.9,1.67-.9s1.27.3,1.67.9c.4.6.6,1.43.6,2.51s-.2,1.91-.6,2.51c-.4.6-.96.9-1.67.9Z"/>
            </g>
          </g>
          <g id="ytick_2" data-name="ytick 2">
            <g id="line2d_4" data-name="line2d 4">
              <path id="m8baff14334-2" data-name="m8baff14334" class="cls-12" d="m34.17,123.7h-1.31"/>
            </g>
            <g id="text_4" data-name="text 4">
              <path id="DejaVuSerif-35" class="cls-4" d="m30.35,120.56v.72h-3.01v1.88c.15-.11.33-.18.53-.24.2-.05.43-.08.68-.08.71,0,1.27.2,1.68.59.41.39.62.93.62,1.61s-.21,1.24-.62,1.62c-.41.39-1,.58-1.75.58-.3,0-.61-.04-.93-.11-.32-.07-.64-.18-.97-.33v-1.27h.5c.03.42.16.73.4.95.24.22.57.33,1.01.33.46,0,.82-.15,1.07-.46.25-.3.37-.74.37-1.31s-.12-1-.37-1.31c-.25-.3-.6-.46-1.07-.46-.26,0-.5.05-.7.14-.2.09-.38.24-.53.43h-.38v-3.3h3.47Z"/>
            </g>
          </g>
          <g id="ytick_3" data-name="ytick 3">
            <g id="line2d_5" data-name="line2d 5">
              <path id="m8baff14334-3" data-name="m8baff14334" class="cls-12" d="m34.17,106.38h-1.31"/>
            </g>
            <g id="text_5" data-name="text 5">
              <g>
                <path id="DejaVuSerif-31" class="cls-4" d="m21.37,109.8v-.47h1.14v-5.46l-1.32.86v-.58l1.6-1.04h.61v6.21h1.14v.47h-3.17Z"/>
                <path id="DejaVuSerif-30-2" data-name="DejaVuSerif-30" class="cls-4" d="m28.68,109.49c.45,0,.78-.25,1.01-.74.22-.49.33-1.23.33-2.23s-.11-1.74-.33-2.23c-.22-.49-.56-.74-1.01-.74s-.78.25-1.01.74c-.22.49-.33,1.24-.33,2.23s.11,1.74.33,2.23c.22.49.56.74,1.01.74Zm0,.44c-.71,0-1.27-.3-1.67-.9-.4-.6-.6-1.43-.6-2.51s.2-1.91.6-2.51c.4-.6.96-.9,1.67-.9s1.27.3,1.67.9c.4.6.6,1.43.6,2.51s-.2,1.91-.6,2.51c-.4.6-.96.9-1.67.9Z"/>
              </g>
            </g>
          </g>
          <g id="ytick_4" data-name="ytick 4">
            <g id="line2d_6" data-name="line2d 6">
              <path id="m8baff14334-4" data-name="m8baff14334" class="cls-12" d="m34.17,89.07h-1.31"/>
            </g>
            <g id="text_6" data-name="text 6">
              <g>
                <path id="DejaVuSerif-31-2" data-name="DejaVuSerif-31" class="cls-4" d="m21.37,92.49v-.47h1.14v-5.46l-1.32.86v-.58l1.6-1.04h.61v6.21h1.14v.47h-3.17Z"/>
                <path id="DejaVuSerif-35-2" data-name="DejaVuSerif-35" class="cls-4" d="m30.35,85.92v.72h-3.01v1.88c.15-.11.33-.18.53-.24.2-.05.43-.08.68-.08.71,0,1.27.2,1.68.59.41.39.62.93.62,1.61s-.21,1.24-.62,1.62c-.41.39-1,.58-1.75.58-.3,0-.61-.04-.93-.11-.32-.07-.64-.18-.97-.33v-1.27h.5c.03.42.16.73.4.95.24.22.57.33,1.01.33.46,0,.82-.15,1.07-.46.25-.3.37-.74.37-1.31s-.12-1-.37-1.31c-.25-.3-.6-.46-1.07-.46-.26,0-.5.05-.7.14-.2.09-.38.24-.53.43h-.38v-3.3h3.47Z"/>
              </g>
            </g>
          </g>
          <g id="ytick_5" data-name="ytick 5">
            <g id="line2d_7" data-name="line2d 7">
              <path id="m8baff14334-5" data-name="m8baff14334" class="cls-12" d="m34.17,71.75h-1.31"/>
            </g>
            <g id="text_7" data-name="text 7">
              <g>
                <path id="DejaVuSerif-32" class="cls-4" d="m21.25,70.17h-.49v-1.17c.31-.17.63-.3.95-.38.32-.09.63-.13.93-.13.68,0,1.22.17,1.62.5s.59.78.59,1.35c0,.64-.45,1.41-1.34,2.3-.07.07-.12.12-.16.15l-1.66,1.66h2.74v-.81h.51v1.53h-4.23v-.48l1.99-1.99c.44-.44.75-.84.94-1.21s.28-.75.28-1.16c0-.44-.12-.79-.35-1.04-.23-.25-.55-.37-.95-.37s-.74.1-.97.31c-.23.21-.36.52-.4.94Z"/>
                <path id="DejaVuSerif-30-3" data-name="DejaVuSerif-30" class="cls-4" d="m28.68,74.86c.45,0,.78-.25,1.01-.74.22-.49.33-1.23.33-2.23s-.11-1.74-.33-2.23c-.22-.49-.56-.74-1.01-.74s-.78.25-1.01.74c-.22.49-.33,1.24-.33,2.23s.11,1.74.33,2.23c.22.49.56.74,1.01.74Zm0,.44c-.71,0-1.27-.3-1.67-.9-.4-.6-.6-1.43-.6-2.51s.2-1.91.6-2.51c.4-.6.96-.9,1.67-.9s1.27.3,1.67.9c.4.6.6,1.43.6,2.51s-.2,1.91-.6,2.51c-.4.6-.96.9-1.67.9Z"/>
              </g>
            </g>
          </g>
          <g id="ytick_6" data-name="ytick 6">
            <g id="line2d_8" data-name="line2d 8">
              <path id="m8baff14334-6" data-name="m8baff14334" class="cls-12" d="m34.17,54.43h-1.31"/>
            </g>
            <g id="text_8" data-name="text 8">
              <g>
                <path id="DejaVuSerif-32-2" data-name="DejaVuSerif-32" class="cls-4" d="m21.25,52.86h-.49v-1.17c.31-.17.63-.3.95-.38.32-.09.63-.13.93-.13.68,0,1.22.17,1.62.5s.59.78.59,1.35c0,.64-.45,1.41-1.34,2.3-.07.07-.12.12-.16.15l-1.66,1.66h2.74v-.81h.51v1.53h-4.23v-.48l1.99-1.99c.44-.44.75-.84.94-1.21s.28-.75.28-1.16c0-.44-.12-.79-.35-1.04-.23-.25-.55-.37-.95-.37s-.74.1-.97.31c-.23.21-.36.52-.4.94Z"/>
                <path id="DejaVuSerif-35-3" data-name="DejaVuSerif-35" class="cls-4" d="m30.35,51.29v.72h-3.01v1.88c.15-.11.33-.18.53-.24.2-.05.43-.08.68-.08.71,0,1.27.2,1.68.59.41.39.62.93.62,1.61s-.21,1.24-.62,1.62c-.41.39-1,.58-1.75.58-.3,0-.61-.04-.93-.11-.32-.07-.64-.18-.97-.33v-1.27h.5c.03.42.16.73.4.95.24.22.57.33,1.01.33.46,0,.82-.15,1.07-.46.25-.3.37-.74.37-1.31s-.12-1-.37-1.31c-.25-.3-.6-.46-1.07-.46-.26,0-.5.05-.7.14-.2.09-.38.24-.53.43h-.38v-3.3h3.47Z"/>
              </g>
            </g>
          </g>
          <g id="ytick_7" data-name="ytick 7">
            <g id="line2d_9" data-name="line2d 9">
              <path id="m8baff14334-7" data-name="m8baff14334" class="cls-12" d="m34.17,37.12h-1.31"/>
            </g>
            <g id="text_9" data-name="text 9">
              <g>
                <path id="DejaVuSerif-33" class="cls-4" d="m20.97,34.25c.34-.13.67-.23.99-.29.31-.07.61-.1.89-.1.64,0,1.14.14,1.5.42.36.28.54.66.54,1.15,0,.39-.12.72-.37.99-.25.27-.6.44-1.06.54.54.08.96.27,1.25.59s.45.72.45,1.22c0,.61-.21,1.08-.62,1.41-.41.33-1,.49-1.78.49-.34,0-.68-.04-1.01-.11-.33-.07-.65-.18-.97-.33v-1.27h.49c.03.42.17.74.43.96.26.22.61.32,1.08.32s.8-.13,1.06-.39c.26-.26.39-.61.39-1.07,0-.52-.13-.91-.4-1.17-.27-.27-.66-.4-1.17-.4h-.42v-.45h.22c.51,0,.9-.11,1.15-.32.26-.21.39-.53.39-.96,0-.38-.11-.68-.32-.88-.21-.2-.51-.31-.91-.31s-.7.09-.92.28c-.22.19-.35.47-.38.84h-.49v-1.16Z"/>
                <path id="DejaVuSerif-30-4" data-name="DejaVuSerif-30" class="cls-4" d="m28.68,40.23c.45,0,.78-.25,1.01-.74.22-.49.33-1.23.33-2.23s-.11-1.74-.33-2.23c-.22-.49-.56-.74-1.01-.74s-.78.25-1.01.74c-.22.49-.33,1.24-.33,2.23s.11,1.74.33,2.23c.22.49.56.74,1.01.74Zm0,.44c-.71,0-1.27-.3-1.67-.9-.4-.6-.6-1.43-.6-2.51s.2-1.91.6-2.51c.4-.6.96-.9,1.67-.9s1.27.3,1.67.9c.4.6.6,1.43.6,2.51s-.2,1.91-.6,2.51c-.4.6-.96.9-1.67.9Z"/>
              </g>
            </g>
          </g>
          <g id="ytick_8" data-name="ytick 8">
            <g id="line2d_10" data-name="line2d 10">
              <path id="m8baff14334-8" data-name="m8baff14334" class="cls-12" d="m34.17,19.8h-1.31"/>
            </g>
            <g id="text_10" data-name="text 10">
              <g>
                <path id="DejaVuSerif-33-2" data-name="DejaVuSerif-33" class="cls-4" d="m20.97,16.93c.34-.13.67-.23.99-.29.31-.07.61-.1.89-.1.64,0,1.14.14,1.5.42.36.28.54.66.54,1.15,0,.39-.12.72-.37.99-.25.27-.6.44-1.06.54.54.08.96.27,1.25.59s.45.72.45,1.22c0,.61-.21,1.08-.62,1.41-.41.33-1,.49-1.78.49-.34,0-.68-.04-1.01-.11-.33-.07-.65-.18-.97-.33v-1.27h.49c.03.42.17.74.43.96.26.22.61.32,1.08.32s.8-.13,1.06-.39c.26-.26.39-.61.39-1.07,0-.52-.13-.91-.4-1.17-.27-.27-.66-.4-1.17-.4h-.42v-.45h.22c.51,0,.9-.11,1.15-.32.26-.21.39-.53.39-.96,0-.38-.11-.68-.32-.88-.21-.2-.51-.31-.91-.31s-.7.09-.92.28c-.22.19-.35.47-.38.84h-.49v-1.16Z"/>
                <path id="DejaVuSerif-35-4" data-name="DejaVuSerif-35" class="cls-4" d="m30.35,16.66v.72h-3.01v1.88c.15-.11.33-.18.53-.24.2-.05.43-.08.68-.08.71,0,1.27.2,1.68.59.41.39.62.93.62,1.61s-.21,1.24-.62,1.62c-.41.39-1,.58-1.75.58-.3,0-.61-.04-.93-.11-.32-.07-.64-.18-.97-.33v-1.27h.5c.03.42.16.73.4.95.24.22.57.33,1.01.33.46,0,.82-.15,1.07-.46.25-.3.37-.74.37-1.31s-.12-1-.37-1.31c-.25-.3-.6-.46-1.07-.46-.26,0-.5.05-.7.14-.2.09-.38.24-.53.43h-.38v-3.3h3.47Z"/>
              </g>
            </g>
          </g>
          <g id="text_11" data-name="text 11">
            <g>
              <path id="DejaVuSerif-41" class="cls-4" d="m14.22,108.91v-2.41l-3.12,1.2,3.12,1.21Zm2.38,1.85h-.47v-.58l-6.1-2.34v-.74l6.1-2.34v-.65h.47v2.38h-.47v-.73l-1.44.55v2.76l1.44.55v-.72h.47v1.85Z"/>
              <path id="DejaVuSerif-63" class="cls-4" d="m15.19,99.58c.5.11.88.33,1.14.66.26.33.39.75.39,1.26,0,.68-.22,1.23-.67,1.64-.45.41-1.05.62-1.79.62s-1.34-.21-1.79-.62c-.45-.41-.67-.96-.67-1.64,0-.3.03-.59.1-.88.07-.29.17-.59.31-.88h1.2v.47c-.41.06-.71.2-.9.4s-.28.5-.28.89c0,.44.17.77.51.99.34.22.84.33,1.52.33s1.18-.11,1.52-.33c.34-.22.51-.55.51-.99,0-.35-.09-.63-.27-.84-.18-.21-.46-.35-.82-.43v-.65Z"/>
              <path id="DejaVuSerif-63-2" data-name="DejaVuSerif-63" class="cls-4" d="m15.19,94.54c.5.11.88.33,1.14.66.26.33.39.75.39,1.26,0,.68-.22,1.23-.67,1.64-.45.41-1.05.62-1.79.62s-1.34-.21-1.79-.62c-.45-.41-.67-.96-.67-1.64,0-.3.03-.59.1-.88.07-.29.17-.59.31-.88h1.2v.47c-.41.06-.71.2-.9.4s-.28.5-.28.89c0,.44.17.77.51.99.34.22.84.33,1.52.33s1.18-.11,1.52-.33c.34-.22.51-.55.51-.99,0-.35-.09-.63-.27-.84-.18-.21-.46-.35-.82-.43v-.65Z"/>
              <path id="DejaVuSerif-75" class="cls-4" d="m11.92,90.94v-1.51h4.21v-.76h.47v1.57h-.83c.31.15.55.34.71.58.16.24.24.51.24.83,0,.52-.15.9-.44,1.14-.3.24-.76.37-1.39.37h-2.5v.73h-.47v-1.54h2.72c.57,0,.96-.07,1.17-.21.21-.14.32-.39.32-.75,0-.38-.14-.66-.41-.86-.28-.2-.68-.3-1.2-.3h-2.12v.7h-.47Z"/>
              <path id="DejaVuSerif-72" class="cls-4" d="m11.91,84.03h1.17v.47c-.23.01-.4.08-.52.19s-.17.28-.17.5c0,.4.14.7.41.92.28.21.67.32,1.19.32h2.14v-.94h.47v2.47h-.47v-.73h-3.74v.77h-.46v-1.58h.83c-.33-.16-.57-.36-.72-.61-.16-.25-.24-.55-.24-.91,0-.13.01-.27.03-.41s.05-.3.09-.46Z"/>
              <path id="DejaVuSerif-61" class="cls-4" d="m15.13,80.45h-.99v1.04c0,.4.09.7.26.9.17.2.44.29.79.29.33,0,.58-.1.77-.3.19-.2.29-.47.29-.81s-.1-.61-.31-.81c-.21-.21-.48-.31-.81-.31Zm-1.45-.81h2.45v-.72h.47v1.53h-.5c.22.18.38.39.48.62.1.23.15.51.15.82,0,.52-.14.93-.41,1.23-.28.3-.65.46-1.12.46s-.86-.17-1.12-.52-.4-.84-.4-1.48v-1.13h-.32c-.36,0-.63.11-.82.32-.2.21-.29.52-.29.91,0,.32.07.58.22.77.15.19.36.31.65.36v.42h-.94c-.12-.28-.21-.55-.27-.82-.06-.27-.09-.52-.09-.77,0-.65.16-1.14.48-1.48.32-.34.79-.51,1.4-.51Z"/>
              <path id="DejaVuSerif-63-3" data-name="DejaVuSerif-63" class="cls-4" d="m15.19,74.04c.5.11.88.33,1.14.66.26.33.39.75.39,1.26,0,.68-.22,1.23-.67,1.64-.45.41-1.05.62-1.79.62s-1.34-.21-1.79-.62c-.45-.41-.67-.96-.67-1.64,0-.3.03-.59.1-.88.07-.29.17-.59.31-.88h1.2v.47c-.41.06-.71.2-.9.4s-.28.5-.28.89c0,.44.17.77.51.99.34.22.84.33,1.52.33s1.18-.11,1.52-.33c.34-.22.51-.55.51-.99,0-.35-.09-.63-.27-.84-.18-.21-.46-.35-.82-.43v-.65Z"/>
              <path id="DejaVuSerif-79" class="cls-4" d="m17.45,71.68l-.78-.31-4.28,1.75v.53h-.47v-2.15h.47v.75l3.21-1.31-3.21-1.31v.7h-.47v-1.75h.47v.52l5.26,2.14c.36.15.61.31.75.49.13.18.2.43.2.76,0,.14-.01.28-.04.42-.02.14-.06.29-.1.44h-.89v-.41c.2-.02.34-.07.43-.15.09-.08.13-.21.13-.39,0-.16-.04-.29-.13-.39-.09-.1-.27-.2-.54-.31Z"/>
              <path id="DejaVuSerif-28" class="cls-4" d="m18,62.81c-.32.71-.83,1.25-1.52,1.61-.69.36-1.56.54-2.6.54s-1.91-.18-2.6-.54c-.69-.36-1.2-.9-1.52-1.61h.43c.31.45.75.78,1.31.97.56.2,1.36.29,2.38.29s1.81-.1,2.38-.29c.56-.2,1-.52,1.31-.97h.43Z"/>
              <path id="DejaVuSerif-25" class="cls-4" d="m10.32,60.15c0,.26.12.46.36.6.24.14.58.22,1.02.22s.77-.07,1.02-.22c.25-.15.37-.35.37-.6s-.12-.45-.37-.59c-.24-.15-.58-.22-1.02-.22s-.77.07-1.02.22c-.24.14-.37.34-.37.59Zm3.22-4.53c0,.26.12.46.37.6.25.14.59.22,1.02.22s.77-.07,1.01-.22.37-.35.37-.6-.12-.45-.37-.59-.58-.22-1.01-.22-.77.07-1.02.22c-.25.14-.37.34-.37.59Zm-.4,0c0-.46.16-.83.48-1.1.32-.27.76-.41,1.3-.41s.98.14,1.3.41c.32.27.48.64.48,1.1s-.16.84-.48,1.11c-.32.27-.76.41-1.3.41s-.99-.14-1.31-.41-.48-.64-.48-1.11Zm-3.23.55v-.67l6.81,4.1v.67l-6.81-4.1Zm0,3.99c0-.46.16-.83.48-1.11.32-.28.76-.41,1.3-.41s.99.14,1.31.41c.32.27.48.64.48,1.11s-.16.83-.48,1.11c-.32.27-.76.41-1.31.41s-.98-.14-1.3-.41c-.32-.27-.48-.64-.48-1.1Z"/>
              <path id="DejaVuSerif-29" class="cls-4" d="m18,52.98h-.43c-.31-.45-.75-.78-1.31-.97-.56-.2-1.36-.3-2.38-.3s-1.82.1-2.38.3c-.56.2-1,.52-1.31.97h-.43c.32-.72.83-1.25,1.52-1.62.69-.36,1.56-.55,2.6-.55s1.91.18,2.6.55c.69.36,1.2.9,1.52,1.62Z"/>
            </g>
          </g>
        </g>
        <g id="patch_9" data-name="patch 9">
          <path class="cls-11" d="m34.17,141.02V19.8"/>
        </g>
        <g id="patch_10" data-name="patch 10">
          <path class="cls-11" d="m206.28,141.02V19.8"/>
        </g>
        <g id="patch_11" data-name="patch 11">
          <path class="cls-11" d="m34.17,141.02h172.11"/>
        </g>
        <g id="patch_12" data-name="patch 12">
          <path class="cls-11" d="m34.17,19.8h172.11"/>
        </g>
        <g id="text_12" data-name="text 12">
          <g>
            <path id="DejaVuSerif-31-3" data-name="DejaVuSerif-31" class="cls-4" d="m45.89,99.63v-.39h.95v-4.55l-1.1.71v-.48l1.33-.86h.51v5.18h.95v.39h-2.64Z"/>
            <path id="DejaVuSerif-31-4" data-name="DejaVuSerif-31" class="cls-4" d="m50.66,99.63v-.39h.95v-4.55l-1.1.71v-.48l1.33-.86h.51v5.18h.95v.39h-2.64Z"/>
            <path id="DejaVuSerif-2e" class="cls-4" d="m55.07,99.25c0-.14.05-.25.14-.35s.21-.14.35-.14.25.05.34.14c.1.1.14.21.14.35s-.05.25-.14.34c-.09.1-.21.14-.34.14s-.26-.05-.35-.14c-.09-.09-.14-.21-.14-.35Z"/>
            <path id="DejaVuSerif-30-5" data-name="DejaVuSerif-30" class="cls-4" d="m59.13,99.37c.37,0,.65-.21.84-.62.19-.41.28-1.03.28-1.86s-.09-1.45-.28-1.86c-.19-.41-.46-.62-.84-.62s-.65.21-.84.62c-.19.41-.28,1.03-.28,1.86s.09,1.45.28,1.86c.19.41.47.62.84.62Zm0,.36c-.59,0-1.06-.25-1.39-.75-.33-.5-.5-1.19-.5-2.09s.17-1.59.5-2.09c.33-.5.8-.75,1.39-.75s1.06.25,1.39.75c.33.5.5,1.19.5,2.09s-.17,1.59-.5,2.09c-.33.5-.8.75-1.39.75Z"/>
          </g>
        </g>
        <g id="text_13" data-name="text 13">
          <g>
            <path id="DejaVuSerif-31-5" data-name="DejaVuSerif-31" class="cls-4" d="m68.24,70.19v-.39h.95v-4.55l-1.1.71v-.48l1.33-.86h.51v5.18h.95v.39h-2.64Z"/>
            <path id="DejaVuSerif-39" class="cls-4" d="m75.45,67.74c-.16.18-.35.32-.56.41-.21.09-.45.13-.72.13-.54,0-.97-.16-1.28-.49-.31-.33-.47-.77-.47-1.34s.17-1,.51-1.33c.34-.33.8-.5,1.36-.5.62,0,1.09.23,1.42.69.33.46.5,1.12.5,1.97,0,.96-.2,1.7-.59,2.22-.39.53-.95.79-1.66.79-.19,0-.4-.02-.61-.06-.21-.04-.43-.09-.65-.17v-.91h.41c.03.25.13.44.29.57.16.13.37.2.64.2.47,0,.83-.18,1.06-.54.23-.36.35-.91.36-1.66Zm-1.19-2.75c-.35,0-.61.13-.8.38-.18.25-.28.62-.28,1.09s.09.84.28,1.09c.18.25.45.38.8.38s.61-.12.8-.37c.18-.25.28-.6.28-1.06,0-.49-.09-.86-.28-1.12-.19-.26-.45-.39-.79-.39Z"/>
            <path id="DejaVuSerif-2e-2" data-name="DejaVuSerif-2e" class="cls-4" d="m77.42,69.81c0-.14.05-.25.14-.35s.21-.14.35-.14.25.05.34.14c.1.1.14.21.14.35s-.05.25-.14.34c-.09.1-.21.14-.34.14s-.26-.05-.35-.14c-.09-.09-.14-.21-.14-.35Z"/>
            <path id="DejaVuSerif-35-5" data-name="DejaVuSerif-35" class="cls-4" d="m82.87,64.72v.6h-2.51v1.57c.13-.09.28-.15.45-.2.17-.04.36-.07.57-.07.59,0,1.06.16,1.4.49.34.33.51.77.51,1.34s-.17,1.03-.52,1.35c-.35.32-.83.49-1.46.49-.25,0-.51-.03-.77-.09-.26-.06-.53-.15-.81-.28v-1.06h.41c.02.35.13.61.33.79.2.18.48.27.84.27.39,0,.68-.13.89-.38.21-.25.31-.62.31-1.09s-.1-.84-.31-1.09c-.21-.25-.5-.38-.89-.38-.22,0-.41.04-.58.12-.17.08-.32.2-.44.36h-.32v-2.75h2.89Z"/>
          </g>
        </g>
        <g id="text_14" data-name="text 14">
          <g>
            <path id="DejaVuSerif-31-6" data-name="DejaVuSerif-31" class="cls-4" d="m90.59,84.39v-.39h.95v-4.55l-1.1.71v-.48l1.33-.86h.51v5.18h.95v.39h-2.64Z"/>
            <path id="DejaVuSerif-35-6" data-name="DejaVuSerif-35" class="cls-4" d="m98.07,78.92v.6h-2.51v1.57c.13-.09.28-.15.45-.2.17-.04.36-.07.57-.07.59,0,1.06.16,1.4.49.34.33.51.77.51,1.34s-.17,1.03-.52,1.35c-.35.32-.83.49-1.46.49-.25,0-.51-.03-.77-.09-.26-.06-.53-.15-.81-.28v-1.06h.41c.02.35.13.61.33.79.2.18.48.27.84.27.39,0,.68-.13.89-.38.21-.25.31-.62.31-1.09s-.1-.84-.31-1.09c-.21-.25-.5-.38-.89-.38-.22,0-.41.04-.58.12-.17.08-.32.2-.44.36h-.32v-2.75h2.89Z"/>
            <path id="DejaVuSerif-2e-3" data-name="DejaVuSerif-2e" class="cls-4" d="m99.77,84.01c0-.14.05-.25.14-.35s.21-.14.35-.14.25.05.34.14c.1.1.14.21.14.35s-.05.25-.14.34c-.09.1-.21.14-.34.14s-.26-.05-.35-.14c-.09-.09-.14-.21-.14-.35Z"/>
            <path id="DejaVuSerif-34" class="cls-4" d="m104.07,82.54v-2.91l-1.87,2.91h1.87Zm1.61,1.85h-2.49v-.39h.88v-1.07h-2.39v-.4l2.4-3.71h.72v3.71h1.04v.39h-1.04v1.07h.88v.39Z"/>
          </g>
        </g>
        <g id="text_15" data-name="text 15">
          <g>
            <path id="DejaVuSerif-31-7" data-name="DejaVuSerif-31" class="cls-4" d="m135.29,99.63v-.39h.95v-4.55l-1.1.71v-.48l1.33-.86h.51v5.18h.95v.39h-2.64Z"/>
            <path id="DejaVuSerif-31-8" data-name="DejaVuSerif-31" class="cls-4" d="m140.06,99.63v-.39h.95v-4.55l-1.1.71v-.48l1.33-.86h.51v5.18h.95v.39h-2.64Z"/>
            <path id="DejaVuSerif-2e-4" data-name="DejaVuSerif-2e" class="cls-4" d="m144.48,99.25c0-.14.05-.25.14-.35s.21-.14.35-.14.25.05.34.14c.1.1.14.21.14.35s-.05.25-.14.34c-.09.1-.21.14-.34.14s-.26-.05-.35-.14c-.09-.09-.14-.21-.14-.35Z"/>
            <path id="DejaVuSerif-30-6" data-name="DejaVuSerif-30" class="cls-4" d="m148.54,99.37c.37,0,.65-.21.84-.62.19-.41.28-1.03.28-1.86s-.09-1.45-.28-1.86c-.19-.41-.46-.62-.84-.62s-.65.21-.84.62c-.19.41-.28,1.03-.28,1.86s.09,1.45.28,1.86c.19.41.47.62.84.62Zm0,.36c-.59,0-1.06-.25-1.39-.75-.33-.5-.5-1.19-.5-2.09s.17-1.59.5-2.09c.33-.5.8-.75,1.39-.75s1.06.25,1.39.75c.33.5.5,1.19.5,2.09s-.17,1.59-.5,2.09c-.33.5-.8.75-1.39.75Z"/>
          </g>
        </g>
        <g id="text_16" data-name="text 16">
          <g>
            <path id="DejaVuSerif-32-3" data-name="DejaVuSerif-32" class="cls-4" d="m157.54,49.75h-.41v-.97c.26-.14.52-.25.79-.32.26-.07.52-.11.78-.11.57,0,1.02.14,1.35.41s.49.65.49,1.12c0,.54-.37,1.18-1.12,1.92-.06.06-.1.1-.13.13l-1.38,1.38h2.28v-.67h.43v1.28h-3.53v-.4l1.66-1.65c.37-.37.63-.7.78-1.01s.23-.63.23-.97c0-.37-.1-.66-.29-.86-.19-.21-.46-.31-.79-.31s-.62.09-.81.26c-.19.17-.3.43-.34.78Z"/>
            <path id="DejaVuSerif-34-2" data-name="DejaVuSerif-34" class="cls-4" d="m163.97,52.06v-2.91l-1.87,2.91h1.87Zm1.61,1.85h-2.49v-.39h.88v-1.07h-2.39v-.4l2.4-3.71h.72v3.71h1.04v.39h-1.04v1.07h.88v.39Z"/>
            <path id="DejaVuSerif-2e-5" data-name="DejaVuSerif-2e" class="cls-4" d="m166.83,53.53c0-.14.05-.25.14-.35s.21-.14.35-.14.25.05.34.14c.1.1.14.21.14.35s-.05.25-.14.34c-.09.1-.21.14-.34.14s-.26-.05-.35-.14c-.09-.09-.14-.21-.14-.35Z"/>
            <path id="DejaVuSerif-32-4" data-name="DejaVuSerif-32" class="cls-4" d="m169.47,49.75h-.41v-.97c.26-.14.52-.25.79-.32.26-.07.52-.11.78-.11.57,0,1.02.14,1.35.41s.49.65.49,1.12c0,.54-.37,1.18-1.12,1.92-.06.06-.1.1-.13.13l-1.38,1.38h2.28v-.67h.43v1.28h-3.53v-.4l1.66-1.65c.37-.37.63-.7.78-1.01s.23-.63.23-.97c0-.37-.1-.66-.29-.86-.19-.21-.46-.31-.79-.31s-.62.09-.81.26c-.19.17-.3.43-.34.78Z"/>
          </g>
        </g>
        <g id="text_17" data-name="text 17">
          <g>
            <path id="DejaVuSerif-32-5" data-name="DejaVuSerif-32" class="cls-4" d="m179.89,58.06h-.41v-.97c.26-.14.52-.25.79-.32.26-.07.52-.11.78-.11.57,0,1.02.14,1.35.41s.49.65.49,1.12c0,.54-.37,1.18-1.12,1.92-.06.06-.1.1-.13.13l-1.38,1.38h2.28v-.67h.43v1.28h-3.53v-.4l1.66-1.65c.37-.37.63-.7.78-1.01s.23-.63.23-.97c0-.37-.1-.66-.29-.86-.19-.21-.46-.31-.79-.31s-.62.09-.81.26c-.19.17-.3.43-.34.78Z"/>
            <path id="DejaVuSerif-31-9" data-name="DejaVuSerif-31" class="cls-4" d="m184.77,62.22v-.39h.95v-4.55l-1.1.71v-.48l1.33-.86h.51v5.18h.95v.39h-2.64Z"/>
            <path id="DejaVuSerif-2e-6" data-name="DejaVuSerif-2e" class="cls-4" d="m189.18,61.84c0-.14.05-.25.14-.35s.21-.14.35-.14.25.05.34.14c.1.1.14.21.14.35s-.05.25-.14.34c-.09.1-.21.14-.34.14s-.26-.05-.35-.14c-.09-.09-.14-.21-.14-.35Z"/>
            <path id="DejaVuSerif-38" class="cls-4" d="m194.35,60.73c0-.39-.1-.69-.29-.91-.19-.22-.47-.32-.82-.32s-.62.11-.82.32c-.19.22-.29.52-.29.91s.1.7.29.91c.19.22.47.32.82.32s.62-.11.82-.32c.19-.22.29-.52.29-.91Zm-.15-2.66c0-.33-.08-.59-.25-.78-.17-.19-.4-.28-.71-.28s-.53.09-.7.28c-.17.19-.25.44-.25.78s.08.59.25.78c.17.19.4.28.7.28s.54-.09.71-.28c.17-.19.25-.45.25-.78Zm-.39,1.24c.41.06.74.21.97.46.23.25.35.57.35.96,0,.51-.16.91-.49,1.18-.32.28-.79.42-1.4.42s-1.07-.14-1.39-.42c-.33-.28-.49-.67-.49-1.18,0-.39.12-.71.35-.96.23-.25.56-.4.97-.46-.37-.07-.65-.21-.85-.42-.2-.21-.29-.49-.29-.82,0-.44.15-.78.45-1.04.3-.25.72-.38,1.25-.38s.95.13,1.25.38c.3.25.45.6.45,1.04,0,.33-.1.61-.3.82-.2.21-.48.35-.84.42Z"/>
          </g>
        </g>
        <g id="text_18" data-name="text 18">
          <g>
            <path id="DejaVuSerif-43" class="cls-4" d="m104.29,15.53c-.23.71-.61,1.26-1.14,1.62s-1.2.55-2.02.55c-.5,0-.96-.09-1.39-.26-.43-.17-.81-.42-1.14-.75-.38-.38-.67-.82-.85-1.3-.19-.49-.28-1.04-.28-1.65,0-1.19.34-2.15,1.03-2.88.69-.73,1.59-1.09,2.72-1.09.42,0,.86.05,1.33.16.47.11.98.28,1.52.5v1.76h-.58c-.13-.64-.38-1.12-.76-1.42-.38-.31-.91-.46-1.6-.46-.82,0-1.44.29-1.86.87-.42.58-.63,1.43-.63,2.56s.21,1.97.63,2.55c.42.58,1.04.87,1.86.87.57,0,1.04-.14,1.41-.41.37-.27.64-.68.8-1.22h.94Z"/>
            <path id="DejaVuSerif-6f" class="cls-4" d="m108.08,17.19c.51,0,.89-.2,1.15-.6.26-.4.39-.99.39-1.77s-.13-1.37-.39-1.77c-.26-.4-.64-.6-1.15-.6s-.89.2-1.15.6-.39.99-.39,1.77.13,1.37.39,1.77c.26.4.64.6,1.14.6Zm0,.51c-.79,0-1.43-.26-1.91-.79-.48-.53-.72-1.22-.72-2.09s.24-1.56.72-2.09c.48-.52,1.12-.79,1.91-.79s1.43.26,1.91.79c.48.52.72,1.22.72,2.09s-.24,1.57-.72,2.09-1.12.79-1.91.79Z"/>
            <path id="DejaVuSerif-6e" class="cls-4" d="m111.68,17.55v-.54h.85v-4.36h-.9v-.55h1.85v.97c.17-.37.4-.65.68-.84.28-.19.6-.28.97-.28.6,0,1.04.17,1.33.52s.42.88.42,1.61v2.92h.84v.54h-2.61v-.54h.82v-2.63c0-.67-.08-1.12-.25-1.37-.16-.25-.45-.37-.87-.37-.44,0-.77.16-1,.48-.23.32-.34.78-.34,1.4v2.49h.82v.54h-2.61Z"/>
            <path id="DejaVuSerif-76" class="cls-4" d="m120.6,17.55l-2-4.9h-.62v-.55h2.51v.55h-.87l1.53,3.75,1.53-3.75h-.82v-.55h2.05v.55h-.61l-2,4.9h-.69Z"/>
            <path id="DejaVuSerif-4e" class="cls-4" d="m124.45,17.55v-.54h1.03v-6.56h-1.03v-.55h1.96l4.59,6.04v-5.49h-1.03v-.55h2.69v.55h-1.03v7.25h-.62l-4.9-6.45v5.76h1.03v.54h-2.69Z"/>
            <path id="DejaVuSerif-65" class="cls-4" d="m138.82,14.92h-4.07v.04c0,.74.14,1.29.42,1.66s.69.56,1.23.56c.41,0,.75-.11,1.02-.32.26-.22.45-.54.56-.97h.76c-.15.6-.43,1.05-.84,1.35-.4.3-.94.45-1.6.45-.8,0-1.44-.26-1.92-.79-.48-.53-.73-1.22-.73-2.09s.24-1.55.71-2.08c.48-.53,1.1-.79,1.87-.79.82,0,1.46.25,1.9.76.44.51.67,1.24.69,2.21Zm-1.11-.54c-.02-.64-.16-1.12-.4-1.44-.25-.32-.6-.48-1.07-.48-.43,0-.78.16-1.03.49s-.4.8-.46,1.44h2.95Z"/>
            <path id="DejaVuSerif-74" class="cls-4" d="m140.47,12.65h-.83v-.55h.83v-1.69h.95v1.69h1.77v.55h-1.77v3.46c0,.46.04.76.13.89.09.13.25.19.49.19s.43-.07.54-.22c.11-.15.17-.38.18-.71h.71c-.03.5-.16.86-.41,1.09-.24.23-.61.34-1.11.34-.54,0-.93-.12-1.15-.36-.23-.24-.34-.65-.34-1.23v-3.46Z"/>
          </g>
        </g>
        <g id="legend_1" data-name="legend 1">
          <g id="patch_13" data-name="patch 13">
            <path class="cls-9" d="m42.27,28.68h18v-6.3h-18v6.3Z"/>
          </g>
          <g id="text_19" data-name="text 19">
            <g>
              <path id="DejaVuSerif-52" class="cls-4" d="m71.78,25.42c.2.06.38.15.53.28.15.13.28.32.4.56l.95,1.95h.8v.47h-1.55l-1.02-2.09c-.2-.4-.38-.67-.54-.78-.16-.12-.39-.18-.68-.18h-.98v2.58h.93v.47h-2.65v-.47h.84v-5.62h-.84v-.47h3.33c.64,0,1.13.15,1.48.46.35.3.52.74.52,1.3,0,.45-.13.81-.38,1.07-.25.26-.63.42-1.13.49Zm-2.09-.26h1.3c.44,0,.77-.1.98-.31.21-.21.32-.53.32-.97s-.11-.76-.32-.97c-.21-.21-.54-.31-.98-.31h-1.3v2.57Z"/>
              <path id="DejaVuSerif-61-2" data-name="DejaVuSerif-61" class="cls-4" d="m78.03,27.21v-.99h-1.04c-.4,0-.7.09-.9.26-.2.17-.29.44-.29.79,0,.33.1.58.3.77.2.19.47.29.81.29s.61-.1.81-.31c.21-.21.31-.48.31-.81Zm.81-1.45v2.45h.72v.47h-1.53v-.5c-.18.22-.39.38-.62.48-.23.1-.51.15-.82.15-.52,0-.93-.14-1.23-.41-.3-.28-.46-.65-.46-1.12s.17-.86.52-1.12.84-.4,1.48-.4h1.13v-.32c0-.36-.11-.63-.32-.82-.21-.2-.52-.29-.91-.29-.32,0-.58.07-.77.22-.19.15-.31.36-.36.65h-.42v-.94c.28-.12.55-.21.82-.27.27-.06.52-.09.77-.09.65,0,1.14.16,1.48.48.34.32.51.79.51,1.4Z"/>
              <path id="DejaVuSerif-6e-2" data-name="DejaVuSerif-6e" class="cls-4" d="m80.19,28.68v-.47h.73v-3.74h-.77v-.47h1.58v.83c.15-.32.34-.56.58-.72.24-.16.52-.24.83-.24.52,0,.89.15,1.14.44s.36.76.36,1.38v2.51h.72v.47h-2.23v-.47h.7v-2.25c0-.57-.07-.96-.21-1.18-.14-.21-.39-.32-.74-.32-.37,0-.66.14-.86.41-.2.27-.29.67-.29,1.2v2.14h.7v.47h-2.24Z"/>
              <path id="DejaVuSerif-64" class="cls-4" d="m90.34,28.21h.77v.47h-1.58v-.73c-.16.29-.36.51-.6.65-.24.14-.55.21-.91.21-.57,0-1.04-.23-1.41-.68-.36-.46-.55-1.05-.55-1.78s.18-1.33.54-1.78c.36-.45.83-.68,1.41-.68.36,0,.66.07.91.21.24.14.45.35.6.65v-2.43h-.76v-.47h1.57v6.37Zm-.81-1.64v-.46c0-.56-.11-.99-.32-1.28-.21-.3-.53-.44-.94-.44s-.73.16-.94.49c-.21.33-.32.82-.32,1.46s.11,1.13.32,1.46c.21.33.53.5.94.5s.72-.15.94-.44c.22-.29.32-.72.32-1.29Z"/>
              <path id="DejaVuSerif-6f-2" data-name="DejaVuSerif-6f" class="cls-4" d="m94.08,28.37c.43,0,.76-.17.98-.51.22-.34.33-.85.33-1.52s-.11-1.17-.33-1.51c-.22-.34-.55-.51-.98-.51s-.76.17-.98.51-.33.85-.33,1.51.11,1.17.33,1.52c.22.34.55.51.98.51Zm0,.44c-.68,0-1.23-.22-1.64-.67-.41-.45-.62-1.05-.62-1.79s.21-1.34.62-1.79c.41-.45.96-.67,1.64-.67s1.23.22,1.64.67c.41.45.62,1.04.62,1.79s-.21,1.34-.62,1.79-.96.67-1.64.67Z"/>
              <path id="DejaVuSerif-6d" class="cls-4" d="m101.45,24.92c.15-.34.35-.6.59-.78s.52-.26.85-.26c.49,0,.85.15,1.09.46.24.3.36.76.36,1.37v2.51h.73v.47h-2.24v-.47h.7v-2.41c0-.48-.07-.82-.21-1.02s-.37-.3-.7-.3c-.36,0-.63.14-.82.41-.19.27-.28.67-.28,1.19v2.14h.7v.47h-2.21v-.47h.7v-2.44c0-.47-.07-.8-.21-1s-.37-.3-.7-.3c-.36,0-.64.14-.83.41-.19.27-.28.67-.28,1.19v2.14h.7v.47h-2.24v-.47h.73v-3.74h-.77v-.46h1.58v.83c.15-.31.34-.55.57-.71.23-.16.49-.25.79-.25.36,0,.67.09.91.27.24.18.41.44.49.77Z"/>
            </g>
          </g>
          <g id="patch_14" data-name="patch 14">
            <path class="cls-2" d="m42.27,41.89h18v-6.3h-18v6.3Z"/>
          </g>
          <g id="text_20" data-name="text 20">
            <g>
              <path id="DejaVuSerif-54-3" data-name="DejaVuSerif-54" class="cls-4" d="m69.19,41.89v-.47h.84v-5.57h-1.93v1.02h-.54v-1.55h5.83v1.55h-.54v-1.02h-1.93v5.57h.84v.47h-2.57Z"/>
              <path id="DejaVuSerif-72-2" data-name="DejaVuSerif-72" class="cls-4" d="m77.78,37.21v1.17h-.47c-.01-.23-.08-.4-.19-.52s-.28-.17-.5-.17c-.4,0-.7.14-.92.41-.21.28-.32.67-.32,1.19v2.14h.94v.47h-2.47v-.47h.73v-3.74h-.77v-.46h1.58v.83c.16-.33.36-.57.61-.72.25-.16.55-.24.91-.24.13,0,.27.01.41.03s.3.05.46.09Z"/>
              <path id="DejaVuSerif-61-3" data-name="DejaVuSerif-61" class="cls-4" d="m81.36,40.42v-.99h-1.04c-.4,0-.7.09-.9.26-.2.17-.29.44-.29.79,0,.33.1.58.3.77.2.19.47.29.81.29s.61-.1.81-.31c.21-.21.31-.48.31-.81Zm.81-1.45v2.45h.72v.47h-1.53v-.5c-.18.22-.39.38-.62.48-.23.1-.51.15-.82.15-.52,0-.93-.14-1.23-.41-.3-.28-.46-.65-.46-1.12s.17-.86.52-1.12.84-.4,1.48-.4h1.13v-.32c0-.36-.11-.63-.32-.82-.21-.2-.52-.29-.91-.29-.32,0-.58.07-.77.22-.19.15-.31.36-.36.65h-.42v-.94c.28-.12.55-.21.82-.27.27-.06.52-.09.77-.09.65,0,1.14.16,1.48.48.34.32.51.79.51,1.4Z"/>
              <path id="DejaVuSerif-64-2" data-name="DejaVuSerif-64" class="cls-4" d="m87.87,41.42h.77v.47h-1.58v-.73c-.16.29-.36.51-.6.65-.24.14-.55.21-.91.21-.57,0-1.04-.23-1.41-.68-.36-.46-.55-1.05-.55-1.78s.18-1.33.54-1.78c.36-.45.83-.68,1.41-.68.36,0,.66.07.91.21.24.14.45.35.6.65v-2.43h-.76v-.47h1.57v6.37Zm-.81-1.64v-.46c0-.56-.11-.99-.32-1.28-.21-.3-.53-.44-.94-.44s-.73.16-.94.49c-.21.33-.32.82-.32,1.46s.11,1.13.32,1.46c.21.33.53.5.94.5s.72-.15.94-.44c.22-.29.32-.72.32-1.29Z"/>
              <path id="DejaVuSerif-69" class="cls-4" d="m89.78,35.77c0-.13.05-.25.15-.35.1-.1.22-.15.35-.15s.25.05.35.15c.1.1.15.22.15.35s-.05.26-.14.35c-.1.1-.21.14-.35.14s-.26-.05-.35-.14c-.1-.1-.15-.21-.15-.35Zm1.03,5.66h.76v.47h-2.35v-.47h.77v-3.74h-.77v-.47h1.58v4.21Z"/>
              <path id="DejaVuSerif-74-2" data-name="DejaVuSerif-74" class="cls-4" d="m92.75,37.69h-.71v-.47h.71v-1.45h.81v1.45h1.52v.47h-1.52v2.97c0,.4.04.65.11.76.08.11.22.17.42.17s.36-.06.46-.19c.1-.12.15-.33.15-.6h.61c-.02.42-.14.74-.35.93-.21.2-.52.29-.95.29-.47,0-.8-.1-.99-.31-.19-.21-.29-.56-.29-1.05v-2.97Z"/>
              <path id="DejaVuSerif-69-2" data-name="DejaVuSerif-69" class="cls-4" d="m96.27,35.77c0-.13.05-.25.15-.35.1-.1.22-.15.35-.15s.25.05.35.15c.1.1.15.22.15.35s-.05.26-.14.35c-.1.1-.21.14-.35.14s-.26-.05-.35-.14c-.1-.1-.15-.21-.15-.35Zm1.03,5.66h.76v.47h-2.35v-.47h.77v-3.74h-.77v-.47h1.58v4.21Z"/>
              <path id="DejaVuSerif-6f-3" data-name="DejaVuSerif-6f" class="cls-4" d="m100.98,41.58c.43,0,.76-.17.98-.51.22-.34.33-.85.33-1.52s-.11-1.17-.33-1.51c-.22-.34-.55-.51-.98-.51s-.76.17-.98.51-.33.85-.33,1.51.11,1.17.33,1.52c.22.34.55.51.98.51Zm0,.44c-.68,0-1.23-.22-1.64-.67-.41-.45-.62-1.05-.62-1.79s.21-1.34.62-1.79c.41-.45.96-.67,1.64-.67s1.23.22,1.64.67c.41.45.62,1.04.62,1.79s-.21,1.34-.62,1.79-.96.67-1.64.67Z"/>
              <path id="DejaVuSerif-6e-3" data-name="DejaVuSerif-6e" class="cls-4" d="m104.06,41.89v-.47h.73v-3.74h-.77v-.47h1.58v.83c.15-.32.34-.56.58-.72.24-.16.52-.24.83-.24.52,0,.89.15,1.14.44s.36.76.36,1.38v2.51h.72v.47h-2.23v-.47h.7v-2.25c0-.57-.07-.96-.21-1.18-.14-.21-.39-.32-.74-.32-.37,0-.66.14-.86.41-.2.27-.29.67-.29,1.2v2.14h.7v.47h-2.24Z"/>
              <path id="DejaVuSerif-61-4" data-name="DejaVuSerif-61" class="cls-4" d="m113.07,40.42v-.99h-1.04c-.4,0-.7.09-.9.26-.2.17-.29.44-.29.79,0,.33.1.58.3.77.2.19.47.29.81.29s.61-.1.81-.31c.21-.21.31-.48.31-.81Zm.81-1.45v2.45h.72v.47h-1.53v-.5c-.18.22-.39.38-.62.48-.23.1-.51.15-.82.15-.52,0-.93-.14-1.23-.41-.3-.28-.46-.65-.46-1.12s.17-.86.52-1.12.84-.4,1.48-.4h1.13v-.32c0-.36-.11-.63-.32-.82-.21-.2-.52-.29-.91-.29-.32,0-.58.07-.77.22-.19.15-.31.36-.36.65h-.42v-.94c.28-.12.55-.21.82-.27.27-.06.52-.09.77-.09.65,0,1.14.16,1.48.48.34.32.51.79.51,1.4Z"/>
              <path id="DejaVuSerif-6c" class="cls-4" d="m116.7,41.42h.76v.47h-2.35v-.47h.78v-5.91h-.78v-.47h1.59v6.37Z"/>
            </g>
          </g>
          <g id="patch_15" data-name="patch 15">
            <path class="cls-8" d="m42.27,55.1h18v-6.3h-18v6.3Z"/>
          </g>
          <g id="text_21" data-name="text 21">
            <g>
              <path id="DejaVuSerif-2b" class="cls-4" d="m71.59,49.46v2.47h2.47v.71h-2.47v2.47h-.7v-2.47h-2.47v-.71h2.47v-2.47h.7Z"/>
              <path id="DejaVuSerif-4f" class="cls-4" d="m81.56,54.76c.72,0,1.26-.25,1.63-.74.37-.49.55-1.22.55-2.19s-.18-1.7-.55-2.2c-.37-.49-.91-.74-1.63-.74s-1.26.25-1.63.74c-.37.49-.55,1.22-.55,2.2s.18,1.7.55,2.19c.37.49.91.74,1.63.74Zm0,.47c-.45,0-.85-.07-1.23-.22-.37-.15-.7-.36-.99-.65-.33-.33-.57-.7-.73-1.12-.16-.42-.24-.89-.24-1.42s.08-1,.24-1.42c.16-.42.4-.79.73-1.12.29-.29.62-.5.98-.65.37-.15.78-.22,1.23-.22.95,0,1.72.31,2.31.94.59.62.88,1.45.88,2.47,0,.52-.08,1-.24,1.42-.16.42-.41.79-.73,1.12-.29.29-.61.5-.98.65-.37.15-.78.22-1.23.22Z"/>
              <path id="DejaVuSerif-75-2" data-name="DejaVuSerif-75" class="cls-4" d="m88.44,50.43h1.51v4.21h.76v.47h-1.57v-.83c-.15.31-.34.55-.58.71-.24.16-.51.24-.83.24-.52,0-.9-.15-1.14-.44-.24-.3-.37-.76-.37-1.39v-2.5h-.73v-.47h1.54v2.72c0,.57.07.96.21,1.17.14.21.39.32.75.32.38,0,.66-.14.86-.41.2-.28.3-.68.3-1.2v-2.12h-.7v-.47Z"/>
              <path id="DejaVuSerif-72-3" data-name="DejaVuSerif-72" class="cls-4" d="m95.35,50.42v1.17h-.47c-.01-.23-.08-.4-.19-.52s-.28-.17-.5-.17c-.4,0-.7.14-.92.41-.21.28-.32.67-.32,1.19v2.14h.94v.47h-2.47v-.47h.73v-3.74h-.77v-.46h1.58v.83c.16-.33.36-.57.61-.72.25-.16.55-.24.91-.24.13,0,.27.01.41.03s.3.05.46.09Z"/>
              <path id="DejaVuSerif-73" class="cls-4" d="m95.85,54.84v-1.09h.47c.01.35.12.61.33.78.21.17.51.26.92.26.36,0,.64-.07.83-.2.19-.14.29-.33.29-.6,0-.2-.07-.37-.21-.49-.14-.13-.43-.26-.88-.4l-.58-.2c-.4-.13-.69-.29-.87-.48-.18-.19-.27-.44-.27-.74,0-.43.16-.76.47-1.01.31-.24.75-.37,1.3-.37.25,0,.51.03.78.1.27.06.55.16.84.28v1.02h-.47c-.01-.3-.12-.54-.32-.71-.2-.17-.47-.25-.81-.25s-.6.06-.77.18-.26.3-.26.54c0,.2.07.35.2.47.13.12.4.24.79.36l.64.2c.44.14.76.31.95.52.2.21.29.47.29.8,0,.44-.17.79-.51,1.04-.34.25-.8.38-1.4.38-.3,0-.6-.03-.88-.1s-.57-.16-.86-.29Z"/>
            </g>
          </g>
        </g>
      </g>
    </g>
  </g>
</svg>