<?xml version="1.0" encoding="UTF-8"?>
<svg id="_图层_2" data-name="图层 2" xmlns="http://www.w3.org/2000/svg" xmlns:xlink="http://www.w3.org/1999/xlink" viewBox="0 0 220.18 162">
  <defs>
    <style>
      .cls-1, .cls-2, .cls-3, .cls-4, .cls-5, .cls-6, .cls-7, .cls-8, .cls-9, .cls-10 {
        stroke-width: .38px;
      }

      .cls-1, .cls-3 {
        fill: rgba(134, 198, 225, .25);
      }

      .cls-1, .cls-3, .cls-5 {
        stroke: #86c6e1;
      }

      .cls-2, .cls-3, .cls-11, .cls-5, .cls-6, .cls-7, .cls-9 {
        stroke-linejoin: round;
      }

      .cls-2, .cls-7, .cls-10 {
        stroke: #ee7c6f;
      }

      .cls-2, .cls-10 {
        fill: rgba(238, 124, 111, .25);
      }

      .cls-12 {
        fill: #ee7c6f;
      }

      .cls-12, .cls-13, .cls-14, .cls-15, .cls-16, .cls-17 {
        stroke-width: 0px;
      }

      .cls-18 {
        clip-path: url(#clippath-2);
      }

      .cls-4, .cls-6 {
        fill: rgba(48, 134, 85, .25);
      }

      .cls-4, .cls-6, .cls-9 {
        stroke: #308655;
      }

      .cls-19 {
        stroke-linecap: square;
      }

      .cls-19, .cls-13, .cls-5, .cls-7, .cls-9 {
        fill: none;
      }

      .cls-19, .cls-11 {
        stroke: #040000;
        stroke-width: .3px;
      }

      .cls-14, .cls-11 {
        fill: #040000;
      }

      .cls-20 {
        clip-path: url(#clippath-1);
      }

      .cls-21 {
        clip-path: url(#clippath-4);
      }

      .cls-15 {
        fill: #308655;
      }

      .cls-16, .cls-8 {
        fill: #fff;
      }

      .cls-5, .cls-7, .cls-9 {
        stroke-dasharray: 0 0 1.39 .6;
      }

      .cls-22 {
        clip-path: url(#clippath);
      }

      .cls-23 {
        clip-path: url(#clippath-3);
      }

      .cls-17 {
        fill: #86c6e1;
      }

      .cls-8 {
        isolation: isolate;
        opacity: .8;
        stroke: #ccc;
      }

      .cls-24 {
        clip-path: url(#clippath-5);
      }
    </style>
    <clipPath id="clippath">
      <rect class="cls-13" x="33.99" y="19.98" width="172.16" height="110.72"/>
    </clipPath>
    <clipPath id="clippath-1">
      <rect class="cls-13" x="33.99" y="19.98" width="172.16" height="110.72"/>
    </clipPath>
    <clipPath id="clippath-2">
      <rect class="cls-13" x="33.99" y="19.98" width="172.16" height="110.72"/>
    </clipPath>
    <clipPath id="clippath-3">
      <rect class="cls-13" x="33.99" y="19.98" width="172.16" height="110.72"/>
    </clipPath>
    <clipPath id="clippath-4">
      <rect class="cls-13" x="33.99" y="19.98" width="172.16" height="110.72"/>
    </clipPath>
    <clipPath id="clippath-5">
      <rect class="cls-13" x="33.99" y="19.98" width="172.16" height="110.72"/>
    </clipPath>
  </defs>
  <g id="_图层_1-2" data-name="图层 1">
    <g id="figure_1" data-name="figure 1">
      <g id="patch_1" data-name="patch 1">
        <path class="cls-16" d="m0,162h216V0H0v162Z"/>
      </g>
      <g id="axes_1" data-name="axes 1">
        <g id="patch_2" data-name="patch 2">
          <path class="cls-16" d="m33.99,130.7h172.16V19.98H33.99v110.72Z"/>
        </g>
        <g id="PolyCollection_1" data-name="PolyCollection 1">
          <g class="cls-22">
            <path id="mf5d2ca6529" class="cls-3" d="m161.4,130.5v.2h36.92v-.23h0l-.19-.04-.19-.05-.19-.06-.19-.07-.19-.08-.19-.09-.19-.1-.19-.12-.19-.13-.19-.15-.19-.17-.19-.19-.19-.22-.19-.24-.19-.27-.19-.3-.19-.33-.19-.37-.19-.4-.19-.44-.19-.48-.19-.52-.19-.57-.19-.61-.19-.66-.19-.7-.19-.75-.19-.8-.19-.84-.19-.89-.19-.93-.19-.98-.19-1.02-.19-1.06-.19-1.09-.19-1.12-.19-1.15-.19-1.17-.19-1.19-.19-1.2-.19-1.21-.19-1.21-.19-1.21-.19-1.2-.19-1.19-.19-1.18-.19-1.15-.19-1.13-.19-1.1-.19-1.07-.19-1.03-.19-1-.19-.97-.19-.93-.19-.9-.19-.87-.19-.84-.19-.82-.19-.81-.19-.8-.19-.79-.19-.8-.19-.81-.19-.83-.19-.86-.19-.9-.19-.95-.19-1.01-.19-1.07-.19-1.15-.19-1.23-.19-1.31-.19-1.4-.19-1.49-.19-1.58-.19-1.67-.19-1.76-.19-1.85-.19-1.93-.19-2.01-.19-2.07-.19-2.13-.19-2.18-.19-2.21-.19-2.23-.19-2.23-.19-2.22-.19-2.2-.19-2.15-.19-2.09-.19-2.02-.19-1.93-.19-1.83-.19-1.71-.19-1.58-.19-1.43-.19-1.28-.19-1.12-.19-.95-.19-.77-.19-.59-.19-.41-.19-.23-.19-.04-.19.14-.19.31-.19.49-.19.65-.19.81-.19.96-.19,1.1-.19,1.24-.19,1.36-.19,1.47-.19,1.57-.19,1.67-.19,1.75-.19,1.82-.19,1.88-.19,1.94-.19,1.98-.19,2.02-.19,2.04-.19,2.06-.19,2.07-.19,2.08-.19,2.08-.19,2.07-.19,2.06-.19,2.05-.19,2.03-.19,2.01-.19,1.99-.19,1.96-.19,1.93-.19,1.9-.19,1.87-.19,1.84-.19,1.81-.19,1.78-.19,1.75-.19,1.72-.19,1.68-.19,1.65-.19,1.62-.19,1.59-.19,1.56-.19,1.53-.19,1.5-.19,1.47-.19,1.44-.19,1.41-.19,1.38-.19,1.35-.19,1.31-.19,1.28-.19,1.25-.19,1.21-.19,1.18-.19,1.14-.19,1.11-.19,1.07-.19,1.03-.19.99-.19.95-.19.91-.19.87-.19.83-.19.79-.19.74-.19.7-.19.66-.19.62-.19.58-.19.54-.19.5-.19.47-.19.43-.19.4-.19.36-.19.33-.19.3-.19.28-.19.25-.19.23-.19.2-.19.18-.19.16-.19.15-.19.13-.19.11-.19.1-.19.09-.19.08-.19.07-.19.06-.19.05-.19.04-.19.04Z"/>
          </g>
        </g>
        <g id="PolyCollection_2" data-name="PolyCollection 2">
          <g class="cls-20">
            <path id="m0066fc304a" class="cls-2" d="m41.82,130.55v.15h56.13v-.14h0l-.28-.03-.28-.03-.28-.04-.28-.04-.28-.05-.28-.05-.28-.06-.28-.07-.28-.08-.28-.09-.28-.1-.28-.11-.28-.13-.28-.14-.28-.16-.28-.17-.28-.19-.28-.21-.28-.23-.28-.25-.28-.26-.28-.28-.28-.3-.28-.32-.28-.34-.28-.36-.28-.38-.28-.39-.28-.41-.28-.42-.28-.43-.28-.44-.28-.44-.28-.45-.28-.45-.28-.45-.28-.44-.28-.43-.28-.42-.28-.41-.28-.39-.28-.37-.28-.35-.28-.32-.28-.3-.28-.27-.28-.24-.28-.21-.28-.18-.28-.15-.28-.12-.28-.09-.28-.07-.28-.04-.28-.02h-.28s-.28,0-.28,0h-.28s-.28.03-.28.03h-.28s-.28.01-.28.01h-.28s-.28-.05-.28-.05l-.28-.06-.28-.09-.28-.13-.28-.18-.28-.23-.28-.28-.28-.34-.28-.41-.28-.48-.28-.56-.28-.64-.28-.72-.28-.8-.28-.89-.28-.98-.28-1.07-.28-1.16-.28-1.25-.28-1.34-.28-1.43-.28-1.52-.28-1.6-.28-1.68-.28-1.76-.28-1.83-.28-1.9-.28-1.96-.28-2.01-.28-2.06-.28-2.09-.28-2.12-.28-2.14-.28-2.15-.28-2.16-.28-2.15-.28-2.12-.28-2.09-.28-2.05-.28-1.99-.28-1.93-.28-1.85-.28-1.76-.28-1.67-.28-1.56-.28-1.44-.28-1.32-.28-1.18-.28-1.04-.28-.9-.28-.75-.28-.59-.28-.43-.28-.28-.28-.12-.28.04-.28.19-.28.35-.28.5-.28.64-.28.78-.28.91-.28,1.03-.28,1.15-.28,1.26-.28,1.36-.28,1.45-.28,1.54-.28,1.61-.28,1.68-.28,1.74-.28,1.79-.28,1.83-.28,1.86-.28,1.89-.28,1.91-.28,1.92-.28,1.93-.28,1.93-.28,1.92-.28,1.92-.28,1.9-.28,1.88-.28,1.86-.28,1.83-.28,1.8-.28,1.77-.28,1.74-.28,1.7-.28,1.66-.28,1.62-.28,1.57-.28,1.53-.28,1.48-.28,1.43-.28,1.38-.28,1.33-.28,1.28-.28,1.23-.28,1.17-.28,1.12-.28,1.07-.28,1.01-.28.96-.28.91-.28.86-.28.8-.28.75-.28.71-.28.66-.28.61-.28.57-.28.52-.28.48-.28.44-.28.41-.28.37-.28.34-.28.31-.28.28-.28.25-.28.22-.28.2-.28.18-.28.16-.28.14-.28.12-.28.11-.28.1-.28.08-.28.07-.28.06-.28.05-.28.05-.28.04-.28.03-.28.03Z"/>
          </g>
        </g>
        <g id="PolyCollection_3" data-name="PolyCollection 3">
          <g class="cls-18">
            <path id="md080b33ee7" class="cls-6" d="m42.94,130.64v.06h147.24v-.06h-.74s-.74-.02-.74-.02h-.74s-.74-.03-.74-.03l-.74-.02-.74-.02-.74-.02-.74-.03-.74-.03-.74-.03-.74-.04-.74-.04-.74-.05-.74-.05-.74-.06-.74-.07-.74-.07-.74-.08-.74-.09-.74-.1-.74-.11-.74-.12-.74-.13-.74-.14-.74-.15-.74-.16-.74-.17-.74-.18-.74-.19-.74-.2-.74-.21-.74-.22-.74-.23-.74-.24-.74-.25-.74-.26-.74-.26-.74-.27-.74-.28-.74-.28-.74-.28-.74-.29-.74-.29-.74-.29-.74-.29-.74-.29-.74-.28-.74-.28-.74-.27-.74-.27-.74-.26-.74-.25-.74-.24-.74-.23-.74-.22-.74-.21-.74-.2-.74-.19-.74-.18-.74-.17-.74-.16-.74-.15-.74-.15-.74-.14-.74-.13-.74-.13-.74-.13-.74-.13-.74-.13-.74-.13-.74-.13-.74-.14-.74-.14-.74-.15-.74-.16-.74-.17-.74-.18-.74-.19-.74-.2-.74-.22-.74-.23-.74-.25-.74-.26-.74-.28-.74-.29-.74-.31-.74-.33-.74-.34-.74-.35-.74-.37-.74-.38-.74-.39-.74-.41-.74-.42-.74-.42-.74-.43-.74-.44-.74-.44-.74-.44-.74-.44-.74-.44-.74-.44-.74-.43-.74-.42-.74-.41-.74-.4-.74-.38-.74-.36-.74-.34-.74-.32-.74-.29-.74-.27-.74-.24-.74-.2-.74-.17-.74-.13-.74-.1-.74-.06-.74-.02-.74.02-.74.06-.74.1-.74.15-.74.19-.74.23-.74.27-.74.31-.74.35-.74.38-.74.42-.74.45-.74.48-.74.51-.74.54-.74.56-.74.58-.74.6-.74.61-.74.63-.74.64-.74.65-.74.65-.74.65-.74.65-.74.65-.74.65-.74.64-.74.64-.74.63-.74.61-.74.6-.74.59-.74.57-.74.56-.74.54-.74.52-.74.5-.74.48-.74.46-.74.44-.74.42-.74.4-.74.38-.74.36-.74.34-.74.32-.74.3-.74.28-.74.27-.74.25-.74.23-.74.21-.74.2-.74.18-.74.17-.74.16-.74.14-.74.13-.74.12-.74.11-.74.1-.74.09-.74.08-.74.07-.74.06-.74.06-.74.05-.74.05-.74.04-.74.04-.74.03-.74.03-.74.02-.74.02-.74.02-.74.02h-.74s-.74.03-.74.03h-.74Z"/>
          </g>
        </g>
        <g id="matplotlib.axis_1" data-name="matplotlib.axis 1">
          <g id="xtick_1" data-name="xtick 1">
            <g id="line2d_1" data-name="line2d 1">
              <path id="m91ca0d44aa" class="cls-11" d="m63.23,130.7v1.31"/>
            </g>
            <g id="text_1" data-name="text 1">
              <g>
                <path id="DejaVuSerif-30" class="cls-14" d="m58.94,139.85c.45,0,.78-.25,1.01-.74.22-.49.33-1.23.33-2.23s-.11-1.74-.33-2.23c-.22-.49-.56-.74-1.01-.74s-.78.25-1.01.74c-.22.49-.33,1.24-.33,2.23s.11,1.74.33,2.23c.22.49.56.74,1.01.74Zm0,.44c-.71,0-1.27-.3-1.67-.9-.4-.6-.6-1.43-.6-2.51s.2-1.91.6-2.51c.4-.6.96-.9,1.67-.9s1.27.3,1.67.9c.4.6.6,1.43.6,2.51s-.2,1.91-.6,2.51c-.4.6-.96.9-1.67.9Z"/>
                <path id="DejaVuSerif-2e" class="cls-14" d="m62.65,139.7c0-.16.06-.3.17-.42s.25-.17.42-.17.3.06.41.17c.11.11.17.25.17.42s-.06.3-.17.41c-.11.11-.25.17-.41.17s-.31-.06-.42-.17c-.11-.11-.17-.25-.17-.42Z"/>
                <path id="DejaVuSerif-31" class="cls-14" d="m65.94,140.16v-.47h1.14v-5.46l-1.32.86v-.58l1.6-1.04h.61v6.21h1.14v.47h-3.17Z"/>
              </g>
            </g>
          </g>
          <g id="xtick_2" data-name="xtick 2">
            <g id="line2d_2" data-name="line2d 2">
              <path id="m91ca0d44aa-2" data-name="m91ca0d44aa" class="cls-11" d="m108.46,130.7v1.31"/>
            </g>
            <g id="text_2" data-name="text 2">
              <g>
                <path id="DejaVuSerif-30-2" data-name="DejaVuSerif-30" class="cls-14" d="m104.16,139.85c.45,0,.78-.25,1.01-.74.22-.49.33-1.23.33-2.23s-.11-1.74-.33-2.23c-.22-.49-.56-.74-1.01-.74s-.78.25-1.01.74c-.22.49-.33,1.24-.33,2.23s.11,1.74.33,2.23c.22.49.56.74,1.01.74Zm0,.44c-.71,0-1.27-.3-1.67-.9-.4-.6-.6-1.43-.6-2.51s.2-1.91.6-2.51c.4-.6.96-.9,1.67-.9s1.27.3,1.67.9c.4.6.6,1.43.6,2.51s-.2,1.91-.6,2.51c-.4.6-.96.9-1.67.9Z"/>
                <path id="DejaVuSerif-2e-2" data-name="DejaVuSerif-2e" class="cls-14" d="m107.88,139.7c0-.16.06-.3.17-.42s.25-.17.42-.17.3.06.41.17c.11.11.17.25.17.42s-.06.3-.17.41c-.11.11-.25.17-.41.17s-.31-.06-.42-.17c-.11-.11-.17-.25-.17-.42Z"/>
                <path id="DejaVuSerif-32" class="cls-14" d="m111.04,135.17h-.49v-1.17c.31-.17.63-.3.95-.38.32-.09.63-.13.93-.13.68,0,1.22.17,1.62.5s.59.78.59,1.35c0,.64-.45,1.41-1.34,2.3-.07.07-.12.12-.16.15l-1.66,1.66h2.74v-.81h.51v1.53h-4.23v-.48l1.99-1.99c.44-.44.75-.84.94-1.21s.28-.75.28-1.16c0-.44-.12-.79-.35-1.04-.23-.25-.55-.37-.95-.37s-.74.1-.97.31c-.23.21-.36.52-.4.94Z"/>
              </g>
            </g>
          </g>
          <g id="xtick_3" data-name="xtick 3">
            <g id="line2d_3" data-name="line2d 3">
              <path id="m91ca0d44aa-3" data-name="m91ca0d44aa" class="cls-11" d="m153.68,130.7v1.31"/>
            </g>
            <g id="text_3" data-name="text 3">
              <g>
                <path id="DejaVuSerif-30-3" data-name="DejaVuSerif-30" class="cls-14" d="m149.39,139.85c.45,0,.78-.25,1.01-.74.22-.49.33-1.23.33-2.23s-.11-1.74-.33-2.23c-.22-.49-.56-.74-1.01-.74s-.78.25-1.01.74c-.22.49-.33,1.24-.33,2.23s.11,1.74.33,2.23c.22.49.56.74,1.01.74Zm0,.44c-.71,0-1.27-.3-1.67-.9-.4-.6-.6-1.43-.6-2.51s.2-1.91.6-2.51c.4-.6.96-.9,1.67-.9s1.27.3,1.67.9c.4.6.6,1.43.6,2.51s-.2,1.91-.6,2.51c-.4.6-.96.9-1.67.9Z"/>
                <path id="DejaVuSerif-2e-3" data-name="DejaVuSerif-2e" class="cls-14" d="m153.1,139.7c0-.16.06-.3.17-.42s.25-.17.42-.17.3.06.41.17c.11.11.17.25.17.42s-.06.3-.17.41c-.11.11-.25.17-.41.17s-.31-.06-.42-.17c-.11-.11-.17-.25-.17-.42Z"/>
                <path id="DejaVuSerif-33" class="cls-14" d="m155.99,133.88c.34-.13.67-.23.99-.29.31-.07.61-.1.89-.1.64,0,1.14.14,1.5.42.36.28.54.66.54,1.15,0,.39-.12.72-.37.99-.25.27-.6.44-1.06.54.54.08.96.27,1.25.59s.45.72.45,1.22c0,.61-.21,1.08-.62,1.41-.41.33-1,.49-1.78.49-.34,0-.68-.04-1.01-.11-.33-.07-.65-.18-.97-.33v-1.27h.49c.03.42.17.74.43.96.26.22.61.32,1.08.32s.8-.13,1.06-.39c.26-.26.39-.61.39-1.07,0-.52-.13-.91-.4-1.17-.27-.27-.66-.4-1.17-.4h-.42v-.45h.22c.51,0,.9-.11,1.15-.32.26-.21.39-.53.39-.96,0-.38-.11-.68-.32-.88-.21-.2-.51-.31-.91-.31s-.7.09-.92.28c-.22.19-.35.47-.38.84h-.49v-1.16Z"/>
              </g>
            </g>
          </g>
          <g id="xtick_4" data-name="xtick 4">
            <g id="line2d_4" data-name="line2d 4">
              <path id="m91ca0d44aa-4" data-name="m91ca0d44aa" class="cls-11" d="m198.91,130.7v1.31"/>
            </g>
            <g id="text_4" data-name="text 4">
              <g>
                <path id="DejaVuSerif-30-4" data-name="DejaVuSerif-30" class="cls-14" d="m194.61,139.85c.45,0,.78-.25,1.01-.74.22-.49.33-1.23.33-2.23s-.11-1.74-.33-2.23c-.22-.49-.56-.74-1.01-.74s-.78.25-1.01.74c-.22.49-.33,1.24-.33,2.23s.11,1.74.33,2.23c.22.49.56.74,1.01.74Zm0,.44c-.71,0-1.27-.3-1.67-.9-.4-.6-.6-1.43-.6-2.51s.2-1.91.6-2.51c.4-.6.96-.9,1.67-.9s1.27.3,1.67.9c.4.6.6,1.43.6,2.51s-.2,1.91-.6,2.51c-.4.6-.96.9-1.67.9Z"/>
                <path id="DejaVuSerif-2e-4" data-name="DejaVuSerif-2e" class="cls-14" d="m198.33,139.7c0-.16.06-.3.17-.42s.25-.17.42-.17.3.06.41.17c.11.11.17.25.17.42s-.06.3-.17.41c-.11.11-.25.17-.41.17s-.31-.06-.42-.17c-.11-.11-.17-.25-.17-.42Z"/>
                <path id="DejaVuSerif-34" class="cls-14" d="m203.48,137.94v-3.49l-2.24,3.49h2.24Zm1.93,2.22h-2.99v-.47h1.05v-1.29h-2.86v-.48l2.87-4.45h.87v4.46h1.25v.47h-1.25v1.29h1.05v.47Z"/>
              </g>
            </g>
          </g>
          <g id="text_5" data-name="text 5">
            <g>
              <path id="DejaVuSerif-48" class="cls-14" d="m31.37,150.37v-.47h.84v-5.62h-.84v-.47h2.56v.47h-.84v2.27h3.4v-2.27h-.84v-.47h2.56v.47h-.84v5.62h.84v.47h-2.56v-.47h.84v-2.82h-3.4v2.82h.84v.47h-2.56Z"/>
              <path id="DejaVuSerif-69" class="cls-14" d="m39.59,144.25c0-.13.05-.25.15-.35.1-.1.22-.15.35-.15s.25.05.35.15c.1.1.15.22.15.35s-.05.26-.14.35c-.1.1-.21.14-.35.14s-.26-.05-.35-.14c-.1-.1-.15-.21-.15-.35Zm1.03,5.66h.76v.47h-2.35v-.47h.77v-3.74h-.77v-.47h1.58v4.21Z"/>
              <path id="DejaVuSerif-67" class="cls-14" d="m46.32,146.17v4.1c0,.67-.18,1.19-.55,1.55-.37.36-.89.55-1.58.55-.31,0-.6-.03-.88-.08-.28-.06-.55-.14-.81-.25v-.98h.42c.05.3.18.53.37.67.2.14.48.21.84.21.48,0,.82-.13,1.04-.4.22-.27.33-.69.33-1.26v-.63c-.16.29-.36.51-.6.65-.24.14-.55.21-.91.21-.57,0-1.04-.23-1.41-.68-.36-.46-.55-1.05-.55-1.78s.18-1.33.54-1.78c.36-.45.83-.68,1.41-.68.36,0,.66.07.91.21.24.14.45.35.6.65v-.73h1.58v.47h-.77Zm-.81,1.64c0-.56-.11-.99-.32-1.28-.21-.3-.53-.44-.94-.44s-.73.16-.94.49c-.21.33-.32.82-.32,1.46s.11,1.13.32,1.46c.21.33.53.5.94.5s.72-.15.94-.44c.22-.29.32-.72.32-1.29v-.46Z"/>
              <path id="DejaVuSerif-68" class="cls-14" d="m47.73,150.37v-.47h.73v-5.91h-.77v-.47h1.58v3c.15-.32.34-.56.58-.72.24-.16.52-.24.83-.24.52,0,.89.15,1.14.44s.36.76.36,1.38v2.51h.72v.47h-2.23v-.47h.7v-2.25c0-.57-.07-.96-.21-1.17-.14-.21-.39-.31-.74-.31-.37,0-.66.14-.86.41-.2.27-.29.67-.29,1.19v2.14h.7v.47h-2.24Z"/>
              <path id="DejaVuSerif-46" class="cls-14" d="m56.51,150.37v-.47h.84v-5.62h-.84v-.47h5.37v1.46h-.54v-.92h-3.1v2.2h2.24v-.82h.54v2.18h-.54v-.82h-2.24v2.82h1.05v.47h-2.78Z"/>
              <path id="DejaVuSerif-72" class="cls-14" d="m66.56,145.69v1.17h-.47c-.01-.23-.08-.4-.19-.52s-.28-.17-.5-.17c-.4,0-.7.14-.92.41-.21.28-.32.67-.32,1.19v2.14h.94v.47h-2.47v-.47h.73v-3.74h-.77v-.46h1.58v.83c.16-.33.36-.57.61-.72.25-.16.55-.24.91-.24.13,0,.27.01.41.03s.3.05.46.09Z"/>
              <path id="DejaVuSerif-65" class="cls-14" d="m71.44,148.12h-3.48v.04c0,.63.12,1.11.36,1.43s.59.48,1.05.48c.35,0,.65-.09.87-.28.23-.19.39-.46.48-.83h.65c-.13.51-.37.9-.72,1.16-.35.26-.8.39-1.37.39-.68,0-1.23-.22-1.65-.67-.41-.45-.62-1.05-.62-1.79s.2-1.33.61-1.78c.41-.45.94-.68,1.6-.68.71,0,1.25.22,1.63.65.38.43.57,1.07.59,1.9Zm-.95-.47c-.02-.55-.13-.96-.35-1.23-.21-.28-.52-.41-.92-.41-.37,0-.67.14-.88.42s-.34.69-.39,1.23h2.53Z"/>
              <path id="DejaVuSerif-71" class="cls-14" d="m76.61,146.17v5.6h.77v.47h-2.35v-.47h.76v-2.13c-.16.29-.36.51-.6.65-.24.14-.55.21-.91.21-.57,0-1.04-.23-1.41-.68-.36-.46-.55-1.05-.55-1.78s.18-1.33.54-1.78c.36-.45.83-.68,1.41-.68.36,0,.66.07.91.21.24.14.45.35.6.65v-.73h1.58v.47h-.77Zm-.81,1.64c0-.56-.11-.99-.32-1.28-.21-.3-.53-.44-.94-.44s-.73.16-.94.49c-.21.33-.32.82-.32,1.46s.11,1.13.32,1.46c.21.33.53.5.94.5s.72-.15.94-.44c.22-.29.32-.72.32-1.29v-.46Z"/>
              <path id="DejaVuSerif-75" class="cls-14" d="m80.84,145.7h1.51v4.21h.76v.47h-1.57v-.83c-.15.31-.34.55-.58.71-.24.16-.51.24-.83.24-.52,0-.9-.15-1.14-.44-.24-.3-.37-.76-.37-1.39v-2.5h-.73v-.47h1.54v2.72c0,.57.07.96.21,1.17.14.21.39.32.75.32.38,0,.66-.14.86-.41.2-.28.3-.68.3-1.2v-2.12h-.7v-.47Z"/>
              <path id="DejaVuSerif-65-2" data-name="DejaVuSerif-65" class="cls-14" d="m88.33,148.12h-3.48v.04c0,.63.12,1.11.36,1.43s.59.48,1.05.48c.35,0,.65-.09.87-.28.23-.19.39-.46.48-.83h.65c-.13.51-.37.9-.72,1.16-.35.26-.8.39-1.37.39-.68,0-1.23-.22-1.65-.67-.41-.45-.62-1.05-.62-1.79s.2-1.33.61-1.78c.41-.45.94-.68,1.6-.68.71,0,1.25.22,1.63.65.38.43.57,1.07.59,1.9Zm-.95-.47c-.02-.55-.13-.96-.35-1.23-.21-.28-.52-.41-.92-.41-.37,0-.67.14-.88.42s-.34.69-.39,1.23h2.53Z"/>
              <path id="DejaVuSerif-6e" class="cls-14" d="m89.14,150.37v-.47h.73v-3.74h-.77v-.47h1.58v.83c.15-.32.34-.56.58-.72.24-.16.52-.24.83-.24.52,0,.89.15,1.14.44s.36.76.36,1.38v2.51h.72v.47h-2.23v-.47h.7v-2.25c0-.57-.07-.96-.21-1.18-.14-.21-.39-.32-.74-.32-.37,0-.66.14-.86.41-.2.27-.29.67-.29,1.2v2.14h.7v.47h-2.24Z"/>
              <path id="DejaVuSerif-63" class="cls-14" d="m99.2,148.97c-.11.5-.33.88-.66,1.14-.33.26-.75.39-1.26.39-.68,0-1.23-.22-1.64-.67-.41-.45-.62-1.05-.62-1.79s.21-1.34.62-1.79c.41-.45.96-.67,1.64-.67.3,0,.59.03.88.1.29.07.59.17.88.31v1.2h-.47c-.06-.41-.2-.71-.4-.9s-.5-.28-.89-.28c-.44,0-.77.17-.99.51-.22.34-.33.84-.33,1.52s.11,1.18.33,1.52c.22.34.55.51.99.51.35,0,.63-.09.84-.27.21-.18.35-.46.43-.82h.65Z"/>
              <path id="DejaVuSerif-79" class="cls-14" d="m101.55,151.23l.31-.78-1.75-4.28h-.53v-.47h2.15v.47h-.75l1.31,3.21,1.31-3.21h-.7v-.47h1.75v.47h-.52l-2.14,5.26c-.15.36-.31.61-.49.75-.18.13-.43.2-.76.2-.14,0-.28-.01-.42-.04-.14-.02-.29-.06-.44-.1v-.89h.41c.02.2.07.34.15.43.08.09.21.13.39.13.16,0,.29-.04.39-.13.1-.09.2-.27.31-.54Z"/>
              <path id="DejaVuSerif-45" class="cls-14" d="m108.05,150.37v-.47h.84v-5.62h-.84v-.47h5.28v1.46h-.54v-.92h-3.01v2.2h2.15v-.82h.54v2.18h-.54v-.82h-2.15v2.75h3.09v-.92h.54v1.46h-5.35Z"/>
              <path id="DejaVuSerif-6e-2" data-name="DejaVuSerif-6e" class="cls-14" d="m114.5,150.37v-.47h.73v-3.74h-.77v-.47h1.58v.83c.15-.32.34-.56.58-.72.24-.16.52-.24.83-.24.52,0,.89.15,1.14.44s.36.76.36,1.38v2.51h.72v.47h-2.23v-.47h.7v-2.25c0-.57-.07-.96-.21-1.18-.14-.21-.39-.32-.74-.32-.37,0-.66.14-.86.41-.2.27-.29.67-.29,1.2v2.14h.7v.47h-2.24Z"/>
              <path id="DejaVuSerif-65-3" data-name="DejaVuSerif-65" class="cls-14" d="m124.8,148.12h-3.48v.04c0,.63.12,1.11.36,1.43s.59.48,1.05.48c.35,0,.65-.09.87-.28.23-.19.39-.46.48-.83h.65c-.13.51-.37.9-.72,1.16-.35.26-.8.39-1.37.39-.68,0-1.23-.22-1.65-.67-.41-.45-.62-1.05-.62-1.79s.2-1.33.61-1.78c.41-.45.94-.68,1.6-.68.71,0,1.25.22,1.63.65.38.43.57,1.07.59,1.9Zm-.95-.47c-.02-.55-.13-.96-.35-1.23-.21-.28-.52-.41-.92-.41-.37,0-.67.14-.88.42s-.34.69-.39,1.23h2.53Z"/>
              <path id="DejaVuSerif-72-2" data-name="DejaVuSerif-72" class="cls-14" d="m129.55,145.69v1.17h-.47c-.01-.23-.08-.4-.19-.52s-.28-.17-.5-.17c-.4,0-.7.14-.92.41-.21.28-.32.67-.32,1.19v2.14h.94v.47h-2.47v-.47h.73v-3.74h-.77v-.46h1.58v.83c.16-.33.36-.57.61-.72.25-.16.55-.24.91-.24.13,0,.27.01.41.03s.3.05.46.09Z"/>
              <path id="DejaVuSerif-67-2" data-name="DejaVuSerif-67" class="cls-14" d="m134.27,146.17v4.1c0,.67-.18,1.19-.55,1.55-.37.36-.89.55-1.58.55-.31,0-.6-.03-.88-.08-.28-.06-.55-.14-.81-.25v-.98h.42c.05.3.18.53.37.67.2.14.48.21.84.21.48,0,.82-.13,1.04-.4.22-.27.33-.69.33-1.26v-.63c-.16.29-.36.51-.6.65-.24.14-.55.21-.91.21-.57,0-1.04-.23-1.41-.68-.36-.46-.55-1.05-.55-1.78s.18-1.33.54-1.78c.36-.45.83-.68,1.41-.68.36,0,.66.07.91.21.24.14.45.35.6.65v-.73h1.58v.47h-.77Zm-.81,1.64c0-.56-.11-.99-.32-1.28-.21-.3-.53-.44-.94-.44s-.73.16-.94.49c-.21.33-.32.82-.32,1.46s.11,1.13.32,1.46c.21.33.53.5.94.5s.72-.15.94-.44c.22-.29.32-.72.32-1.29v-.46Z"/>
              <path id="DejaVuSerif-79-2" data-name="DejaVuSerif-79" class="cls-14" d="m137.25,151.23l.31-.78-1.75-4.28h-.53v-.47h2.15v.47h-.75l1.31,3.21,1.31-3.21h-.7v-.47h1.75v.47h-.52l-2.14,5.26c-.15.36-.31.61-.49.75-.18.13-.43.2-.76.2-.14,0-.28-.01-.42-.04-.14-.02-.29-.06-.44-.1v-.89h.41c.02.2.07.34.15.43.08.09.21.13.39.13.16,0,.29-.04.39-.13.1-.09.2-.27.31-.54Z"/>
              <path id="DejaVuSerif-52" class="cls-14" d="m147.57,147.11c.2.06.38.15.53.28.15.13.28.32.4.56l.95,1.95h.8v.47h-1.55l-1.02-2.09c-.2-.4-.38-.67-.54-.78-.16-.12-.39-.18-.68-.18h-.98v2.58h.93v.47h-2.65v-.47h.84v-5.62h-.84v-.47h3.33c.64,0,1.13.15,1.48.46.35.3.52.74.52,1.3,0,.45-.13.81-.38,1.07-.25.26-.63.42-1.13.49Zm-2.09-.26h1.3c.44,0,.77-.1.98-.31.21-.21.32-.53.32-.97s-.11-.76-.32-.97c-.21-.21-.54-.31-.98-.31h-1.3v2.57Z"/>
              <path id="DejaVuSerif-61" class="cls-14" d="m153.82,148.9v-.99h-1.04c-.4,0-.7.09-.9.26-.2.17-.29.44-.29.79,0,.33.1.58.3.77.2.19.47.29.81.29s.61-.1.81-.31c.21-.21.31-.48.31-.81Zm.81-1.45v2.45h.72v.47h-1.53v-.5c-.18.22-.39.38-.62.48-.23.1-.51.15-.82.15-.52,0-.93-.14-1.23-.41-.3-.28-.46-.65-.46-1.12s.17-.86.52-1.12.84-.4,1.48-.4h1.13v-.32c0-.36-.11-.63-.32-.82-.21-.2-.52-.29-.91-.29-.32,0-.58.07-.77.22-.19.15-.31.36-.36.65h-.42v-.94c.28-.12.55-.21.82-.27.27-.06.52-.09.77-.09.65,0,1.14.16,1.48.48.34.32.51.79.51,1.4Z"/>
              <path id="DejaVuSerif-74" class="cls-14" d="m156.57,146.17h-.71v-.47h.71v-1.45h.81v1.45h1.52v.47h-1.52v2.97c0,.4.04.65.11.76.08.11.22.17.42.17s.36-.06.46-.19c.1-.12.15-.33.15-.6h.61c-.02.42-.14.74-.35.93-.21.2-.52.29-.95.29-.47,0-.8-.1-.99-.31-.19-.21-.29-.56-.29-1.05v-2.97Z"/>
              <path id="DejaVuSerif-69-2" data-name="DejaVuSerif-69" class="cls-14" d="m160.09,144.25c0-.13.05-.25.15-.35.1-.1.22-.15.35-.15s.25.05.35.15c.1.1.15.22.15.35s-.05.26-.14.35c-.1.1-.21.14-.35.14s-.26-.05-.35-.14c-.1-.1-.15-.21-.15-.35Zm1.03,5.66h.76v.47h-2.35v-.47h.77v-3.74h-.77v-.47h1.58v4.21Z"/>
              <path id="DejaVuSerif-6f" class="cls-14" d="m164.8,150.06c.43,0,.76-.17.98-.51.22-.34.33-.85.33-1.52s-.11-1.17-.33-1.51c-.22-.34-.55-.51-.98-.51s-.76.17-.98.51-.33.85-.33,1.51.11,1.17.33,1.52c.22.34.55.51.98.51Zm0,.44c-.68,0-1.23-.22-1.64-.67-.41-.45-.62-1.05-.62-1.79s.21-1.34.62-1.79c.41-.45.96-.67,1.64-.67s1.23.22,1.64.67c.41.45.62,1.04.62,1.79s-.21,1.34-.62,1.79-.96.67-1.64.67Z"/>
              <path id="DejaVuSerif-28" class="cls-14" d="m173.25,151.77c-.71-.32-1.25-.83-1.61-1.52-.36-.69-.54-1.56-.54-2.6s.18-1.91.54-2.6c.36-.69.9-1.2,1.61-1.52v.43c-.45.31-.78.75-.97,1.31-.2.56-.29,1.36-.29,2.38s.1,1.81.29,2.38c.2.56.52,1,.97,1.31v.43Z"/>
              <path id="DejaVuSerif-72-3" data-name="DejaVuSerif-72" class="cls-14" d="m178.19,145.69v1.17h-.47c-.01-.23-.08-.4-.19-.52s-.28-.17-.5-.17c-.4,0-.7.14-.92.41-.21.28-.32.67-.32,1.19v2.14h.94v.47h-2.47v-.47h.73v-3.74h-.77v-.46h1.58v.83c.16-.33.36-.57.61-.72.25-.16.55-.24.91-.24.13,0,.27.01.41.03s.3.05.46.09Z"/>
              <path id="DejaVuSerif-2265" class="cls-14" d="m187.64,149.69v.69h-5.63v-.69h5.63Zm-5.63-3.82v-.73l5.63,1.61v.75l-5.63,1.62v-.73l4.64-1.26-4.64-1.26Z"/>
              <path id="DejaVuSerif-30-5" data-name="DejaVuSerif-30" class="cls-14" d="m194.31,150.06c.45,0,.78-.25,1.01-.74.22-.49.33-1.23.33-2.23s-.11-1.74-.33-2.23c-.22-.49-.56-.74-1.01-.74s-.78.25-1.01.74c-.22.49-.33,1.24-.33,2.23s.11,1.74.33,2.23c.22.49.56.74,1.01.74Zm0,.44c-.71,0-1.27-.3-1.67-.9-.4-.6-.6-1.43-.6-2.51s.2-1.91.6-2.51c.4-.6.96-.9,1.67-.9s1.27.3,1.67.9c.4.6.6,1.43.6,2.51s-.2,1.91-.6,2.51c-.4.6-.96.9-1.67.9Z"/>
              <path id="DejaVuSerif-2e-5" data-name="DejaVuSerif-2e" class="cls-14" d="m198.03,149.91c0-.16.06-.3.17-.42s.25-.17.42-.17.3.06.41.17c.11.11.17.25.17.42s-.06.3-.17.41c-.11.11-.25.17-.41.17s-.31-.06-.42-.17c-.11-.11-.17-.25-.17-.42Z"/>
              <path id="DejaVuSerif-35" class="cls-14" d="m204.57,143.81v.72h-3.01v1.88c.15-.11.33-.18.53-.24.2-.05.43-.08.68-.08.71,0,1.27.2,1.68.59.41.39.62.93.62,1.61s-.21,1.24-.62,1.62c-.41.39-1,.58-1.75.58-.3,0-.61-.04-.93-.11-.32-.07-.64-.18-.97-.33v-1.27h.5c.03.42.16.73.4.95.24.22.57.33,1.01.33.46,0,.82-.15,1.07-.46.25-.3.37-.74.37-1.31s-.12-1-.37-1.31c-.25-.3-.6-.46-1.07-.46-.26,0-.5.05-.7.14-.2.09-.38.24-.53.43h-.38v-3.3h3.47Z"/>
              <path id="DejaVuSerif-29" class="cls-14" d="m206.4,151.77v-.43c.45-.31.78-.75.97-1.31.2-.56.3-1.36.3-2.38s-.1-1.82-.3-2.38c-.2-.56-.52-1-.97-1.31v-.43c.72.32,1.25.83,1.62,1.52.36.69.55,1.56.55,2.6s-.18,1.91-.55,2.6c-.36.69-.9,1.2-1.62,1.52Z"/>
            </g>
          </g>
        </g>
        <g id="matplotlib.axis_2" data-name="matplotlib.axis 2">
          <g id="ytick_1" data-name="ytick 1">
            <g id="line2d_5" data-name="line2d 5">
              <path id="m7c4d291aec" class="cls-11" d="m33.99,130.7h-1.31"/>
            </g>
            <g id="text_6" data-name="text 6">
              <path id="DejaVuSerif-30-6" data-name="DejaVuSerif-30" class="cls-14" d="m28.5,133.81c.45,0,.78-.25,1.01-.74.22-.49.33-1.23.33-2.23s-.11-1.74-.33-2.23c-.22-.49-.56-.74-1.01-.74s-.78.25-1.01.74c-.22.49-.33,1.24-.33,2.23s.11,1.74.33,2.23c.22.49.56.74,1.01.74Zm0,.44c-.71,0-1.27-.3-1.67-.9-.4-.6-.6-1.43-.6-2.51s.2-1.91.6-2.51c.4-.6.96-.9,1.67-.9s1.27.3,1.67.9c.4.6.6,1.43.6,2.51s-.2,1.91-.6,2.51c-.4.6-.96.9-1.67.9Z"/>
            </g>
          </g>
          <g id="ytick_2" data-name="ytick 2">
            <g id="line2d_6" data-name="line2d 6">
              <path id="m7c4d291aec-2" data-name="m7c4d291aec" class="cls-11" d="m33.99,98.34h-1.31"/>
            </g>
            <g id="text_7" data-name="text 7">
              <g>
                <path id="DejaVuSerif-31-2" data-name="DejaVuSerif-31" class="cls-14" d="m21.19,101.76v-.47h1.14v-5.46l-1.32.86v-.58l1.6-1.04h.61v6.21h1.14v.47h-3.17Z"/>
                <path id="DejaVuSerif-30-7" data-name="DejaVuSerif-30" class="cls-14" d="m28.5,101.45c.45,0,.78-.25,1.01-.74.22-.49.33-1.23.33-2.23s-.11-1.74-.33-2.23c-.22-.49-.56-.74-1.01-.74s-.78.25-1.01.74c-.22.49-.33,1.24-.33,2.23s.11,1.74.33,2.23c.22.49.56.74,1.01.74Zm0,.44c-.71,0-1.27-.3-1.67-.9-.4-.6-.6-1.43-.6-2.51s.2-1.91.6-2.51c.4-.6.96-.9,1.67-.9s1.27.3,1.67.9c.4.6.6,1.43.6,2.51s-.2,1.91-.6,2.51c-.4.6-.96.9-1.67.9Z"/>
              </g>
            </g>
          </g>
          <g id="ytick_3" data-name="ytick 3">
            <g id="line2d_7" data-name="line2d 7">
              <path id="m7c4d291aec-3" data-name="m7c4d291aec" class="cls-11" d="m33.99,65.98h-1.31"/>
            </g>
            <g id="text_8" data-name="text 8">
              <g>
                <path id="DejaVuSerif-32-2" data-name="DejaVuSerif-32" class="cls-14" d="m21.07,64.4h-.49v-1.17c.31-.17.63-.3.95-.38.32-.09.63-.13.93-.13.68,0,1.22.17,1.62.5s.59.78.59,1.35c0,.64-.45,1.41-1.34,2.3-.07.07-.12.12-.16.15l-1.66,1.66h2.74v-.81h.51v1.53h-4.23v-.48l1.99-1.99c.44-.44.75-.84.94-1.21s.28-.75.28-1.16c0-.44-.12-.79-.35-1.04-.23-.25-.55-.37-.95-.37s-.74.1-.97.31c-.23.21-.36.52-.4.94Z"/>
                <path id="DejaVuSerif-30-8" data-name="DejaVuSerif-30" class="cls-14" d="m28.5,69.09c.45,0,.78-.25,1.01-.74.22-.49.33-1.23.33-2.23s-.11-1.74-.33-2.23c-.22-.49-.56-.74-1.01-.74s-.78.25-1.01.74c-.22.49-.33,1.24-.33,2.23s.11,1.74.33,2.23c.22.49.56.74,1.01.74Zm0,.44c-.71,0-1.27-.3-1.67-.9-.4-.6-.6-1.43-.6-2.51s.2-1.91.6-2.51c.4-.6.96-.9,1.67-.9s1.27.3,1.67.9c.4.6.6,1.43.6,2.51s-.2,1.91-.6,2.51c-.4.6-.96.9-1.67.9Z"/>
              </g>
            </g>
          </g>
          <g id="ytick_4" data-name="ytick 4">
            <g id="line2d_8" data-name="line2d 8">
              <path id="m7c4d291aec-4" data-name="m7c4d291aec" class="cls-11" d="m33.99,33.62h-1.31"/>
            </g>
            <g id="text_9" data-name="text 9">
              <g>
                <path id="DejaVuSerif-33-2" data-name="DejaVuSerif-33" class="cls-14" d="m20.79,30.75c.34-.13.67-.23.99-.29.31-.07.61-.1.89-.1.64,0,1.14.14,1.5.42.36.28.54.66.54,1.15,0,.39-.12.72-.37.99-.25.27-.6.44-1.06.54.54.08.96.27,1.25.59s.45.72.45,1.22c0,.61-.21,1.08-.62,1.41-.41.33-1,.49-1.78.49-.34,0-.68-.04-1.01-.11-.33-.07-.65-.18-.97-.33v-1.27h.49c.03.42.17.74.43.96.26.22.61.32,1.08.32s.8-.13,1.06-.39c.26-.26.39-.61.39-1.07,0-.52-.13-.91-.4-1.17-.27-.27-.66-.4-1.17-.4h-.42v-.45h.22c.51,0,.9-.11,1.15-.32.26-.21.39-.53.39-.96,0-.38-.11-.68-.32-.88-.21-.2-.51-.31-.91-.31s-.7.09-.92.28c-.22.19-.35.47-.38.84h-.49v-1.16Z"/>
                <path id="DejaVuSerif-30-9" data-name="DejaVuSerif-30" class="cls-14" d="m28.5,36.73c.45,0,.78-.25,1.01-.74.22-.49.33-1.23.33-2.23s-.11-1.74-.33-2.23c-.22-.49-.56-.74-1.01-.74s-.78.25-1.01.74c-.22.49-.33,1.24-.33,2.23s.11,1.74.33,2.23c.22.49.56.74,1.01.74Zm0,.44c-.71,0-1.27-.3-1.67-.9-.4-.6-.6-1.43-.6-2.51s.2-1.91.6-2.51c.4-.6.96-.9,1.67-.9s1.27.3,1.67.9c.4.6.6,1.43.6,2.51s-.2,1.91-.6,2.51c-.4.6-.96.9-1.67.9Z"/>
              </g>
            </g>
          </g>
          <g id="text_10" data-name="text 10">
            <g>
              <path id="DejaVuSerif-44" class="cls-14" d="m15.95,90.38v-.82c0-.85-.24-1.51-.73-1.96s-1.18-.68-2.09-.68-1.6.23-2.08.68c-.48.45-.72,1.11-.72,1.96v.82h5.62Zm.47,1.73h-.47v-.84h-5.62v.84h-.47v-2.61c0-1.13.29-2.01.87-2.64.58-.63,1.38-.95,2.41-.95s1.84.32,2.42.95c.58.63.87,1.51.87,2.64v2.61Z"/>
              <path id="DejaVuSerif-65-4" data-name="DejaVuSerif-65" class="cls-14" d="m14.17,80.51v3.48h.04c.63,0,1.11-.12,1.43-.36s.48-.59.48-1.05c0-.35-.09-.65-.28-.87-.19-.23-.46-.39-.83-.48v-.65c.51.13.9.37,1.16.72.26.35.39.8.39,1.37,0,.68-.22,1.23-.67,1.65-.45.41-1.05.62-1.79.62s-1.33-.2-1.78-.61c-.45-.41-.68-.94-.68-1.6,0-.71.22-1.25.65-1.63.43-.38,1.07-.57,1.9-.59Zm-.47.95c-.55.02-.96.13-1.23.35-.28.21-.41.52-.41.92,0,.37.14.67.42.88s.69.34,1.23.39v-2.53Z"/>
              <path id="DejaVuSerif-6e-3" data-name="DejaVuSerif-6e" class="cls-14" d="m16.42,79.7h-.47v-.73h-3.74v.77h-.47v-1.58h.83c-.32-.15-.56-.34-.72-.58-.16-.24-.24-.52-.24-.83,0-.52.15-.89.44-1.14s.76-.36,1.38-.36h2.51v-.72h.47v2.23h-.47v-.7h-2.25c-.57,0-.96.07-1.18.21-.21.14-.32.39-.32.74,0,.37.14.66.41.86.27.2.67.29,1.2.29h2.14v-.7h.47v2.24Z"/>
              <path id="DejaVuSerif-73" class="cls-14" d="m16.16,73.76h-1.09v-.47c.35-.01.61-.12.78-.33.17-.21.26-.51.26-.92,0-.36-.07-.64-.2-.83-.14-.19-.33-.29-.6-.29-.2,0-.37.07-.49.21-.13.14-.26.43-.4.88l-.2.58c-.13.4-.29.69-.48.87-.19.18-.44.27-.74.27-.43,0-.76-.16-1.01-.47-.24-.31-.37-.75-.37-1.3,0-.25.03-.51.1-.78.06-.27.16-.55.28-.84h1.02v.47c-.3.01-.54.12-.71.32-.17.2-.25.47-.25.81s.06.6.18.77.3.26.54.26c.2,0,.35-.07.47-.2.12-.13.24-.4.36-.79l.2-.64c.14-.44.31-.76.52-.95.21-.2.47-.29.8-.29.44,0,.79.17,1.04.51.25.34.38.8.38,1.4,0,.3-.03.6-.1.88s-.16.57-.29.86Z"/>
              <path id="DejaVuSerif-69-3" data-name="DejaVuSerif-69" class="cls-14" d="m10.3,68.78c-.13,0-.25-.05-.35-.15-.1-.1-.15-.22-.15-.35s.05-.25.15-.35c.1-.1.22-.15.35-.15s.26.05.35.14c.1.1.14.21.14.35s-.05.26-.14.35c-.1.1-.21.15-.35.15Zm5.66-1.03v-.76h.47v2.35h-.47v-.77h-3.74v.77h-.47v-1.58h4.21Z"/>
              <path id="DejaVuSerif-74-2" data-name="DejaVuSerif-74" class="cls-14" d="m12.21,65.8v.71h-.47v-.71h-1.45v-.81h1.45v-1.52h.47v1.52h2.97c.4,0,.65-.04.76-.11.11-.08.17-.22.17-.42s-.06-.36-.19-.46c-.12-.1-.33-.15-.6-.15v-.61c.42.02.74.14.93.35.2.21.29.52.29.95,0,.47-.1.8-.31.99-.21.19-.56.29-1.05.29h-2.97Z"/>
              <path id="DejaVuSerif-79-3" data-name="DejaVuSerif-79" class="cls-14" d="m17.27,61.21l-.78-.31-4.28,1.75v.53h-.47v-2.15h.47v.75l3.21-1.31-3.21-1.31v.7h-.47v-1.75h.47v.52l5.26,2.14c.36.15.61.31.75.49.13.18.2.43.2.76,0,.14-.01.28-.04.42-.02.14-.06.29-.1.44h-.89v-.41c.2-.02.34-.07.43-.15.09-.08.13-.21.13-.39,0-.16-.04-.29-.13-.39-.09-.1-.27-.2-.54-.31Z"/>
            </g>
          </g>
        </g>
        <g id="line2d_9" data-name="line2d 9">
          <g class="cls-23">
            <path class="cls-5" d="m179.68,130.7V19.98"/>
          </g>
        </g>
        <g id="line2d_10" data-name="line2d 10">
          <g class="cls-21">
            <path class="cls-7" d="m66.34,130.7V19.98"/>
          </g>
        </g>
        <g id="line2d_11" data-name="line2d 11">
          <g class="cls-24">
            <path class="cls-9" d="m111.63,130.7V19.98"/>
          </g>
        </g>
        <g id="patch_3" data-name="patch 3">
          <path class="cls-19" d="m33.99,130.7V19.98"/>
        </g>
        <g id="patch_4" data-name="patch 4">
          <path class="cls-19" d="m206.16,130.7V19.98"/>
        </g>
        <g id="patch_5" data-name="patch 5">
          <path class="cls-19" d="m33.99,130.7h172.16"/>
        </g>
        <g id="patch_6" data-name="patch 6">
          <path class="cls-19" d="m33.99,19.98h172.16"/>
        </g>
        <g id="text_11" data-name="text 11">
          <g>
            <path id="DejaVuSerif-30-10" data-name="DejaVuSerif-30" class="cls-17" d="m182.73,130.4c.34,0,.59-.18.76-.55.17-.37.25-.93.25-1.67s-.08-1.31-.25-1.67c-.17-.37-.42-.55-.76-.55s-.59.18-.76.55c-.17.37-.25.93-.25,1.67s.08,1.3.25,1.67c.17.37.42.55.76.55Zm0,.33c-.53,0-.95-.22-1.25-.67-.3-.45-.45-1.08-.45-1.88s.15-1.43.45-1.88c.3-.45.72-.67,1.25-.67s.95.22,1.25.67c.3.45.45,1.08.45,1.88s-.15,1.43-.45,1.88c-.3.45-.72.67-1.25.67Z"/>
            <path id="DejaVuSerif-2e-6" data-name="DejaVuSerif-2e" class="cls-17" d="m185.52,130.29c0-.12.04-.23.13-.31s.19-.13.31-.13.22.04.31.13c.09.09.13.19.13.31s-.04.22-.13.31c-.09.09-.19.13-.31.13s-.23-.04-.31-.13c-.08-.09-.13-.19-.13-.31Z"/>
            <path id="DejaVuSerif-33-3" data-name="DejaVuSerif-33" class="cls-17" d="m187.68,125.92c.26-.1.5-.17.74-.22.24-.05.46-.08.66-.08.48,0,.86.1,1.13.31.27.21.41.5.41.86,0,.3-.09.54-.28.74-.19.2-.45.33-.79.4.4.06.72.2.94.44s.33.54.33.92c0,.46-.15.81-.46,1.06-.31.24-.75.37-1.33.37-.26,0-.51-.03-.75-.08-.24-.05-.49-.14-.73-.25v-.96h.37c.02.32.13.56.32.72.19.16.46.24.81.24s.6-.1.8-.29c.19-.19.29-.46.29-.8,0-.39-.1-.68-.3-.88-.2-.2-.49-.3-.88-.3h-.31v-.34h.16c.38,0,.67-.08.86-.24.19-.16.29-.4.29-.72,0-.29-.08-.51-.24-.66-.16-.15-.39-.23-.68-.23s-.53.07-.69.21c-.16.14-.26.35-.29.63h-.37v-.87Z"/>
            <path id="DejaVuSerif-35-2" data-name="DejaVuSerif-35" class="cls-17" d="m194.72,125.71v.54h-2.25v1.41c.11-.08.25-.14.4-.18.15-.04.32-.06.51-.06.53,0,.95.15,1.26.44.31.29.46.7.46,1.21s-.16.93-.47,1.22c-.31.29-.75.44-1.31.44-.23,0-.46-.03-.7-.08-.24-.05-.48-.14-.73-.25v-.96h.37c.02.31.12.55.3.72.18.16.43.25.75.25.35,0,.61-.11.8-.34.19-.23.28-.56.28-.99s-.09-.75-.28-.98c-.19-.23-.45-.34-.8-.34-.2,0-.37.04-.52.11-.15.07-.28.18-.4.33h-.28v-2.47h2.6Z"/>
            <path id="DejaVuSerif-37" class="cls-17" d="m199.42,126.05l-1.92,4.58h-.49l1.84-4.38h-2.27v.61h-.38v-1.15h3.24v.34Z"/>
          </g>
        </g>
        <g id="text_12" data-name="text 12">
          <g>
            <path id="DejaVuSerif-30-11" data-name="DejaVuSerif-30" class="cls-12" d="m69.39,130.4c.34,0,.59-.18.76-.55.17-.37.25-.93.25-1.67s-.08-1.31-.25-1.67c-.17-.37-.42-.55-.76-.55s-.59.18-.76.55c-.17.37-.25.93-.25,1.67s.08,1.3.25,1.67c.17.37.42.55.76.55Zm0,.33c-.53,0-.95-.22-1.25-.67-.3-.45-.45-1.08-.45-1.88s.15-1.43.45-1.88c.3-.45.72-.67,1.25-.67s.95.22,1.25.67c.3.45.45,1.08.45,1.88s-.15,1.43-.45,1.88c-.3.45-.72.67-1.25.67Z"/>
            <path id="DejaVuSerif-2e-7" data-name="DejaVuSerif-2e" class="cls-12" d="m72.17,130.29c0-.12.04-.23.13-.31s.19-.13.31-.13.22.04.31.13c.09.09.13.19.13.31s-.04.22-.13.31c-.09.09-.19.13-.31.13s-.23-.04-.31-.13c-.08-.09-.13-.19-.13-.31Z"/>
            <path id="DejaVuSerif-31-3" data-name="DejaVuSerif-31" class="cls-12" d="m74.64,130.63v-.35h.86v-4.09l-.99.64v-.43l1.2-.78h.45v4.66h.86v.35h-2.38Z"/>
            <path id="DejaVuSerif-30-12" data-name="DejaVuSerif-30" class="cls-12" d="m80.12,130.4c.34,0,.59-.18.76-.55.17-.37.25-.93.25-1.67s-.08-1.31-.25-1.67c-.17-.37-.42-.55-.76-.55s-.59.18-.76.55c-.17.37-.25.93-.25,1.67s.08,1.3.25,1.67c.17.37.42.55.76.55Zm0,.33c-.53,0-.95-.22-1.25-.67-.3-.45-.45-1.08-.45-1.88s.15-1.43.45-1.88c.3-.45.72-.67,1.25-.67s.95.22,1.25.67c.3.45.45,1.08.45,1.88s-.15,1.43-.45,1.88c-.3.45-.72.67-1.25.67Z"/>
            <path id="DejaVuSerif-37-2" data-name="DejaVuSerif-37" class="cls-12" d="m86.08,126.05l-1.92,4.58h-.49l1.84-4.38h-2.27v.61h-.38v-1.15h3.24v.34Z"/>
          </g>
        </g>
        <g id="text_13" data-name="text 13">
          <g>
            <path id="DejaVuSerif-30-13" data-name="DejaVuSerif-30" class="cls-15" d="m114.68,130.4c.34,0,.59-.18.76-.55.17-.37.25-.93.25-1.67s-.08-1.31-.25-1.67c-.17-.37-.42-.55-.76-.55s-.59.18-.76.55c-.17.37-.25.93-.25,1.67s.08,1.3.25,1.67c.17.37.42.55.76.55Zm0,.33c-.53,0-.95-.22-1.25-.67-.3-.45-.45-1.08-.45-1.88s.15-1.43.45-1.88c.3-.45.72-.67,1.25-.67s.95.22,1.25.67c.3.45.45,1.08.45,1.88s-.15,1.43-.45,1.88c-.3.45-.72.67-1.25.67Z"/>
            <path id="DejaVuSerif-2e-8" data-name="DejaVuSerif-2e" class="cls-15" d="m117.47,130.29c0-.12.04-.23.13-.31s.19-.13.31-.13.22.04.31.13c.09.09.13.19.13.31s-.04.22-.13.31c-.09.09-.19.13-.31.13s-.23-.04-.31-.13c-.08-.09-.13-.19-.13-.31Z"/>
            <path id="DejaVuSerif-32-3" data-name="DejaVuSerif-32" class="cls-15" d="m119.84,126.89h-.37v-.88c.23-.13.47-.22.71-.29.24-.07.47-.1.7-.1.51,0,.92.12,1.21.37s.45.59.45,1.01c0,.48-.34,1.06-1.01,1.73-.05.05-.09.09-.12.11l-1.24,1.24h2.05v-.61h.39v1.15h-3.17v-.36l1.49-1.49c.33-.33.56-.63.71-.91s.21-.57.21-.87c0-.33-.09-.59-.26-.78-.17-.19-.41-.28-.71-.28s-.56.08-.73.23c-.17.16-.27.39-.3.7Z"/>
            <path id="DejaVuSerif-30-14" data-name="DejaVuSerif-30" class="cls-15" d="m125.42,130.4c.34,0,.59-.18.76-.55.17-.37.25-.93.25-1.67s-.08-1.31-.25-1.67c-.17-.37-.42-.55-.76-.55s-.59.18-.76.55c-.17.37-.25.93-.25,1.67s.08,1.3.25,1.67c.17.37.42.55.76.55Zm0,.33c-.53,0-.95-.22-1.25-.67-.3-.45-.45-1.08-.45-1.88s.15-1.43.45-1.88c.3-.45.72-.67,1.25-.67s.95.22,1.25.67c.3.45.45,1.08.45,1.88s-.15,1.43-.45,1.88c-.3.45-.72.67-1.25.67Z"/>
            <path id="DejaVuSerif-37-3" data-name="DejaVuSerif-37" class="cls-15" d="m131.37,126.05l-1.92,4.58h-.49l1.84-4.38h-2.27v.61h-.38v-1.15h3.24v.34Z"/>
          </g>
        </g>
        <g id="text_14" data-name="text 14">
          <g>
            <path id="DejaVuSerif-48-2" data-name="DejaVuSerif-48" class="cls-14" d="m20.26,17.58v-.56h1v-6.75h-1v-.57h3.07v.57h-1v2.72h4.08v-2.72h-1v-.57h3.07v.57h-1v6.75h1v.56h-3.07v-.56h1v-3.39h-4.08v3.39h1v.56h-3.07Z"/>
            <path id="DejaVuSerif-69-4" data-name="DejaVuSerif-69" class="cls-14" d="m30.13,10.23c0-.16.06-.3.18-.42.12-.12.26-.18.43-.18s.3.06.42.18c.12.12.18.26.18.42s-.06.31-.17.42c-.12.12-.26.17-.42.17s-.31-.06-.43-.17c-.12-.12-.18-.26-.18-.42Zm1.24,6.79h.92v.56h-2.82v-.56h.93v-4.48h-.93v-.56h1.9v5.05Z"/>
            <path id="DejaVuSerif-67-3" data-name="DejaVuSerif-67" class="cls-14" d="m38.21,12.54v4.92c0,.81-.22,1.43-.66,1.86-.44.44-1.07.66-1.89.66-.37,0-.72-.03-1.06-.1-.34-.07-.66-.17-.97-.3v-1.17h.51c.06.37.21.63.45.8.24.17.57.25,1.01.25.57,0,.99-.16,1.25-.48.27-.32.4-.83.4-1.52v-.75c-.19.35-.43.61-.72.78-.29.17-.66.25-1.09.25-.69,0-1.25-.27-1.69-.82-.44-.55-.66-1.26-.66-2.14s.22-1.59.65-2.13c.44-.55,1-.82,1.69-.82.43,0,.8.08,1.09.25.29.17.53.43.72.78v-.88h1.9v.56h-.93Zm-.97,1.96c0-.67-.13-1.18-.39-1.54-.26-.36-.63-.53-1.12-.53s-.88.2-1.13.59c-.25.39-.38.98-.38,1.75s.13,1.36.38,1.76c.26.4.63.6,1.13.6s.87-.18,1.12-.53c.26-.35.39-.87.39-1.54v-.55Z"/>
            <path id="DejaVuSerif-68-2" data-name="DejaVuSerif-68" class="cls-14" d="m39.9,17.58v-.56h.87v-7.09h-.93v-.56h1.9v3.6c.18-.38.41-.67.7-.86.29-.19.62-.29,1-.29.62,0,1.07.18,1.37.53s.44.91.44,1.66v3.01h.87v.56h-2.68v-.56h.84v-2.7c0-.69-.08-1.15-.25-1.41-.17-.25-.46-.38-.89-.38-.45,0-.79.16-1.03.49-.24.33-.35.8-.35,1.43v2.56h.84v.56h-2.69Z"/>
            <path id="DejaVuSerif-2d" class="cls-14" d="m46.88,14.27h2.7v.82h-2.7v-.82Z"/>
            <path id="DejaVuSerif-46-2" data-name="DejaVuSerif-46" class="cls-14" d="m50.65,17.58v-.56h1v-6.75h-1v-.57h6.44v1.75h-.65v-1.1h-3.72v2.64h2.69v-.99h.65v2.62h-.65v-.99h-2.69v3.39h1.26v.56h-3.33Z"/>
            <path id="DejaVuSerif-72-4" data-name="DejaVuSerif-72" class="cls-14" d="m62.71,11.96v1.4h-.56c-.02-.28-.09-.49-.23-.62s-.34-.21-.6-.21c-.48,0-.84.17-1.1.5-.25.33-.38.81-.38,1.42v2.56h1.12v.56h-2.97v-.56h.87v-4.49h-.93v-.55h1.9v1c.19-.39.43-.68.73-.87.3-.19.66-.28,1.09-.28.16,0,.32.01.5.04s.36.06.55.11Z"/>
            <path id="DejaVuSerif-65-5" data-name="DejaVuSerif-65" class="cls-14" d="m68.57,14.88h-4.18v.04c0,.76.14,1.33.43,1.71s.7.58,1.26.58c.43,0,.77-.11,1.05-.33.27-.22.46-.56.57-.99h.78c-.16.62-.44,1.08-.86,1.39-.42.31-.96.46-1.64.46-.82,0-1.48-.27-1.97-.81-.5-.54-.75-1.26-.75-2.15s.24-1.6.73-2.14c.49-.54,1.13-.81,1.93-.81.85,0,1.5.26,1.95.78.45.52.69,1.28.71,2.27Zm-1.14-.56c-.02-.65-.16-1.15-.42-1.48-.25-.33-.62-.5-1.1-.5-.45,0-.8.17-1.05.5s-.41.83-.47,1.48h3.04Z"/>
            <path id="DejaVuSerif-71-2" data-name="DejaVuSerif-71" class="cls-14" d="m74.77,12.54v6.72h.93v.56h-2.81v-.56h.92v-2.56c-.19.35-.43.61-.72.78-.29.17-.66.25-1.09.25-.69,0-1.25-.27-1.69-.82-.44-.55-.66-1.26-.66-2.14s.22-1.59.65-2.13c.44-.55,1-.82,1.69-.82.43,0,.8.08,1.09.25.29.17.53.43.72.78v-.88h1.9v.56h-.93Zm-.97,1.96c0-.67-.13-1.18-.39-1.54-.26-.36-.63-.53-1.12-.53s-.88.2-1.13.59c-.25.39-.38.98-.38,1.75s.13,1.36.38,1.76c.26.4.63.6,1.13.6s.87-.18,1.12-.53c.26-.35.39-.87.39-1.54v-.55Z"/>
            <path id="DejaVuSerif-75-2" data-name="DejaVuSerif-75" class="cls-14" d="m79.84,11.97h1.81v5.05h.92v.56h-1.89v-.99c-.18.37-.41.66-.7.85-.28.19-.61.29-.99.29-.62,0-1.08-.18-1.37-.53-.29-.35-.44-.91-.44-1.66v-3h-.88v-.56h1.85v3.26c0,.68.08,1.15.25,1.4.17.25.47.38.89.38.45,0,.79-.17,1.03-.5.24-.33.35-.81.35-1.44v-2.55h-.84v-.56Z"/>
            <path id="DejaVuSerif-65-6" data-name="DejaVuSerif-65" class="cls-14" d="m88.83,14.88h-4.18v.04c0,.76.14,1.33.43,1.71s.7.58,1.26.58c.43,0,.77-.11,1.05-.33.27-.22.46-.56.57-.99h.78c-.16.62-.44,1.08-.86,1.39-.42.31-.96.46-1.64.46-.82,0-1.48-.27-1.97-.81-.5-.54-.75-1.26-.75-2.15s.24-1.6.73-2.14c.49-.54,1.13-.81,1.93-.81.85,0,1.5.26,1.95.78.45.52.69,1.28.71,2.27Zm-1.14-.56c-.02-.65-.16-1.15-.42-1.48-.25-.33-.62-.5-1.1-.5-.45,0-.8.17-1.05.5s-.41.83-.47,1.48h3.04Z"/>
            <path id="DejaVuSerif-6e-4" data-name="DejaVuSerif-6e" class="cls-14" d="m89.81,17.58v-.56h.87v-4.48h-.93v-.56h1.9v1c.18-.38.41-.67.7-.86.29-.19.62-.29,1-.29.62,0,1.07.18,1.37.53s.44.91.44,1.66v3.01h.87v.56h-2.68v-.56h.84v-2.7c0-.69-.08-1.16-.25-1.41-.17-.26-.47-.38-.89-.38-.45,0-.79.16-1.03.49-.24.33-.35.81-.35,1.44v2.56h.84v.56h-2.69Z"/>
            <path id="DejaVuSerif-63-2" data-name="DejaVuSerif-63" class="cls-14" d="m101.87,15.9c-.14.6-.4,1.05-.79,1.37-.39.31-.89.47-1.51.47-.82,0-1.47-.27-1.97-.81-.49-.54-.74-1.26-.74-2.15s.25-1.61.74-2.15c.5-.54,1.15-.8,1.97-.8.36,0,.71.04,1.06.12.35.08.71.21,1.06.38v1.43h-.56c-.07-.49-.24-.85-.48-1.07s-.6-.34-1.06-.34c-.52,0-.92.2-1.19.61-.27.41-.4,1.01-.4,1.82s.13,1.42.4,1.83c.27.41.66.61,1.19.61.42,0,.75-.11,1-.33.25-.22.42-.55.51-.99h.78Z"/>
            <path id="DejaVuSerif-79-4" data-name="DejaVuSerif-79" class="cls-14" d="m104.7,18.61l.37-.93-2.09-5.14h-.64v-.56h2.58v.56h-.9l1.58,3.86,1.58-3.86h-.84v-.56h2.1v.56h-.63l-2.57,6.31c-.18.44-.37.73-.59.89-.21.16-.52.24-.91.24-.17,0-.34-.01-.51-.04-.17-.03-.35-.07-.52-.12v-1.07h.5c.02.24.08.41.18.51.1.1.26.16.47.16.19,0,.35-.05.47-.16.12-.11.24-.32.37-.65Z"/>
            <path id="DejaVuSerif-45-2" data-name="DejaVuSerif-45" class="cls-14" d="m112.5,17.58v-.56h1v-6.75h-1v-.57h6.34v1.75h-.65v-1.1h-3.62v2.64h2.58v-.99h.65v2.62h-.65v-.99h-2.58v3.3h3.7v-1.1h.65v1.75h-6.42Z"/>
            <path id="DejaVuSerif-6e-5" data-name="DejaVuSerif-6e" class="cls-14" d="m120.23,17.58v-.56h.87v-4.48h-.93v-.56h1.9v1c.18-.38.41-.67.7-.86.29-.19.62-.29,1-.29.62,0,1.07.18,1.37.53s.44.91.44,1.66v3.01h.87v.56h-2.68v-.56h.84v-2.7c0-.69-.08-1.16-.25-1.41-.17-.26-.47-.38-.89-.38-.45,0-.79.16-1.03.49-.24.33-.35.81-.35,1.44v2.56h.84v.56h-2.69Z"/>
            <path id="DejaVuSerif-65-7" data-name="DejaVuSerif-65" class="cls-14" d="m132.6,14.88h-4.18v.04c0,.76.14,1.33.43,1.71s.7.58,1.26.58c.43,0,.77-.11,1.05-.33.27-.22.46-.56.57-.99h.78c-.16.62-.44,1.08-.86,1.39-.42.31-.96.46-1.64.46-.82,0-1.48-.27-1.97-.81-.5-.54-.75-1.26-.75-2.15s.24-1.6.73-2.14c.49-.54,1.13-.81,1.93-.81.85,0,1.5.26,1.95.78.45.52.69,1.28.71,2.27Zm-1.14-.56c-.02-.65-.16-1.15-.42-1.48-.25-.33-.62-.5-1.1-.5-.45,0-.8.17-1.05.5s-.41.83-.47,1.48h3.04Z"/>
            <path id="DejaVuSerif-72-5" data-name="DejaVuSerif-72" class="cls-14" d="m138.3,11.96v1.4h-.56c-.02-.28-.09-.49-.23-.62s-.34-.21-.6-.21c-.48,0-.84.17-1.1.5-.25.33-.38.81-.38,1.42v2.56h1.12v.56h-2.97v-.56h.87v-4.49h-.93v-.55h1.9v1c.19-.39.43-.68.73-.87.3-.19.66-.28,1.09-.28.16,0,.32.01.5.04s.36.06.55.11Z"/>
            <path id="DejaVuSerif-67-4" data-name="DejaVuSerif-67" class="cls-14" d="m143.97,12.54v4.92c0,.81-.22,1.43-.66,1.86-.44.44-1.07.66-1.89.66-.37,0-.72-.03-1.06-.1-.34-.07-.66-.17-.97-.3v-1.17h.51c.06.37.21.63.45.8.24.17.57.25,1.01.25.57,0,.99-.16,1.25-.48.27-.32.4-.83.4-1.52v-.75c-.19.35-.43.61-.72.78-.29.17-.66.25-1.09.25-.69,0-1.25-.27-1.69-.82-.44-.55-.66-1.26-.66-2.14s.22-1.59.65-2.13c.44-.55,1-.82,1.69-.82.43,0,.8.08,1.09.25.29.17.53.43.72.78v-.88h1.9v.56h-.93Zm-.97,1.96c0-.67-.13-1.18-.39-1.54-.26-.36-.63-.53-1.12-.53s-.88.2-1.13.59c-.25.39-.38.98-.38,1.75s.13,1.36.38,1.76c.26.4.63.6,1.13.6s.87-.18,1.12-.53c.26-.35.39-.87.39-1.54v-.55Z"/>
            <path id="DejaVuSerif-79-5" data-name="DejaVuSerif-79" class="cls-14" d="m147.54,18.61l.37-.93-2.09-5.14h-.64v-.56h2.58v.56h-.9l1.58,3.86,1.58-3.86h-.84v-.56h2.1v.56h-.63l-2.57,6.31c-.18.44-.37.73-.59.89-.21.16-.52.24-.91.24-.17,0-.34-.01-.51-.04-.17-.03-.35-.07-.52-.12v-1.07h.5c.02.24.08.41.18.51.1.1.26.16.47.16.19,0,.35-.05.47-.16.12-.11.24-.32.37-.65Z"/>
            <path id="DejaVuSerif-44-2" data-name="DejaVuSerif-44" class="cls-14" d="m157.41,17.02h.98c1.02,0,1.81-.29,2.35-.88s.82-1.42.82-2.51-.27-1.92-.82-2.5c-.54-.58-1.33-.87-2.36-.87h-.98v6.75Zm-2.07.56v-.56h1v-6.75h-1v-.57h3.13c1.36,0,2.42.35,3.17,1.04.76.69,1.14,1.66,1.14,2.89s-.38,2.2-1.14,2.9c-.76.7-1.82,1.04-3.17,1.04h-3.13Z"/>
            <path id="DejaVuSerif-69-5" data-name="DejaVuSerif-69" class="cls-14" d="m164.45,10.23c0-.16.06-.3.18-.42.12-.12.26-.18.43-.18s.3.06.42.18c.12.12.18.26.18.42s-.06.31-.17.42c-.12.12-.26.17-.42.17s-.31-.06-.43-.17c-.12-.12-.18-.26-.18-.42Zm1.24,6.79h.92v.56h-2.82v-.56h.93v-4.48h-.93v-.56h1.9v5.05Z"/>
            <path id="DejaVuSerif-73-2" data-name="DejaVuSerif-73" class="cls-14" d="m167.46,17.27v-1.31h.56c.01.42.14.73.39.94.25.21.62.31,1.1.31.44,0,.77-.08,1-.24.23-.16.34-.4.34-.72,0-.25-.08-.44-.25-.59-.17-.15-.52-.31-1.06-.49l-.7-.24c-.48-.15-.83-.35-1.05-.58-.22-.23-.32-.53-.32-.89,0-.51.19-.92.56-1.21.38-.29.9-.44,1.56-.44.3,0,.61.04.93.12.33.08.66.19,1.01.34v1.22h-.56c-.01-.36-.14-.65-.38-.85-.24-.2-.56-.31-.97-.31s-.72.07-.93.22-.31.36-.31.65c0,.24.08.43.24.57.16.14.48.29.95.43l.77.24c.53.17.91.37,1.15.62.23.25.35.57.35.96,0,.53-.2.95-.61,1.25-.41.3-.97.46-1.68.46-.36,0-.72-.04-1.06-.12s-.69-.19-1.03-.35Z"/>
            <path id="DejaVuSerif-74-3" data-name="DejaVuSerif-74" class="cls-14" d="m173.57,12.54h-.86v-.56h.86v-1.74h.98v1.74h1.82v.56h-1.82v3.56c0,.47.05.78.14.91.09.13.26.2.51.2s.44-.07.55-.22c.12-.15.18-.39.19-.73h.73c-.03.51-.17.88-.42,1.12-.25.24-.63.35-1.14.35-.56,0-.95-.12-1.19-.37-.23-.25-.35-.67-.35-1.26v-3.56Z"/>
            <path id="DejaVuSerif-72-6" data-name="DejaVuSerif-72" class="cls-14" d="m181.9,11.96v1.4h-.56c-.02-.28-.09-.49-.23-.62s-.34-.21-.6-.21c-.48,0-.84.17-1.1.5-.25.33-.38.81-.38,1.42v2.56h1.12v.56h-2.97v-.56h.87v-4.49h-.93v-.55h1.9v1c.19-.39.43-.68.73-.87.3-.19.66-.28,1.09-.28.16,0,.32.01.5.04s.36.06.55.11Z"/>
            <path id="DejaVuSerif-69-6" data-name="DejaVuSerif-69" class="cls-14" d="m182.95,10.23c0-.16.06-.3.18-.42.12-.12.26-.18.43-.18s.3.06.42.18c.12.12.18.26.18.42s-.06.31-.17.42c-.12.12-.26.17-.42.17s-.31-.06-.43-.17c-.12-.12-.18-.26-.18-.42Zm1.24,6.79h.92v.56h-2.82v-.56h.93v-4.48h-.93v-.56h1.9v5.05Z"/>
            <path id="DejaVuSerif-62" class="cls-14" d="m186.6,17.02v-7.09h-.93v-.56h1.91v3.48c.19-.35.43-.61.72-.78.29-.17.66-.25,1.09-.25.69,0,1.25.27,1.69.82.44.54.65,1.26.65,2.13s-.22,1.59-.65,2.14c-.44.55-1,.82-1.69.82-.43,0-.8-.08-1.09-.25-.29-.17-.53-.43-.72-.78v.88h-1.91v-.56h.93Zm.97-1.97c0,.67.13,1.19.39,1.54.26.35.63.53,1.13.53s.87-.2,1.13-.6c.26-.4.38-.98.38-1.76s-.13-1.36-.38-1.75c-.25-.39-.63-.59-1.13-.59s-.87.18-1.13.53c-.26.35-.39.87-.39,1.54v.55Z"/>
            <path id="DejaVuSerif-75-3" data-name="DejaVuSerif-75" class="cls-14" d="m196.1,11.97h1.81v5.05h.92v.56h-1.89v-.99c-.18.37-.41.66-.7.85-.28.19-.61.29-.99.29-.62,0-1.08-.18-1.37-.53-.29-.35-.44-.91-.44-1.66v-3h-.88v-.56h1.85v3.26c0,.68.08,1.15.25,1.4.17.25.47.38.89.38.45,0,.79-.17,1.03-.5.24-.33.35-.81.35-1.44v-2.55h-.84v-.56Z"/>
            <path id="DejaVuSerif-74-4" data-name="DejaVuSerif-74" class="cls-14" d="m200.39,12.54h-.86v-.56h.86v-1.74h.98v1.74h1.82v.56h-1.82v3.56c0,.47.05.78.14.91.09.13.26.2.51.2s.44-.07.55-.22c.12-.15.18-.39.19-.73h.73c-.03.51-.17.88-.42,1.12-.25.24-.63.35-1.14.35-.56,0-.95-.12-1.19-.37-.23-.25-.35-.67-.35-1.26v-3.56Z"/>
            <path id="DejaVuSerif-69-7" data-name="DejaVuSerif-69" class="cls-14" d="m204.62,10.23c0-.16.06-.3.18-.42.12-.12.26-.18.43-.18s.3.06.42.18c.12.12.18.26.18.42s-.06.31-.17.42c-.12.12-.26.17-.42.17s-.31-.06-.43-.17c-.12-.12-.18-.26-.18-.42Zm1.24,6.79h.92v.56h-2.82v-.56h.93v-4.48h-.93v-.56h1.9v5.05Z"/>
            <path id="DejaVuSerif-6f-2" data-name="DejaVuSerif-6f" class="cls-14" d="m210.27,17.21c.52,0,.91-.21,1.18-.62.27-.41.4-1.02.4-1.82s-.13-1.41-.4-1.82c-.26-.41-.66-.61-1.18-.61s-.91.2-1.18.61-.4,1.01-.4,1.82.13,1.41.4,1.82c.27.41.66.62,1.18.62Zm0,.52c-.82,0-1.47-.27-1.97-.81-.49-.54-.74-1.26-.74-2.15s.25-1.61.74-2.14c.49-.54,1.15-.81,1.97-.81s1.48.27,1.97.81c.49.54.74,1.25.74,2.14s-.25,1.61-.74,2.15-1.15.81-1.97.81Z"/>
            <path id="DejaVuSerif-6e-6" data-name="DejaVuSerif-6e" class="cls-14" d="m213.97,17.58v-.56h.87v-4.48h-.93v-.56h1.9v1c.18-.38.41-.67.7-.86.29-.19.62-.29,1-.29.62,0,1.07.18,1.37.53s.44.91.44,1.66v3.01h.87v.56h-2.68v-.56h.84v-2.7c0-.69-.08-1.16-.25-1.41-.17-.26-.47-.38-.89-.38-.45,0-.79.16-1.03.49-.24.33-.35.81-.35,1.44v2.56h.84v.56h-2.69Z"/>
          </g>
        </g>
        <g id="legend_1" data-name="legend 1">
          <g id="patch_7" data-name="patch 7">
            <path class="cls-8" d="m76.38,66.81h87.39c1.2,0,1.8-.6,1.8-1.8V26.28c0-1.2-.6-1.8-1.8-1.8h-87.39c-1.2,0-1.8.6-1.8,1.8v38.73c0,1.2.6,1.8,1.8,1.8Z"/>
          </g>
          <g id="patch_8" data-name="patch 8">
            <path class="cls-1" d="m78.18,34.92h18v-6.3h-18v6.3Z"/>
          </g>
          <g id="text_15" data-name="text 15">
            <g>
              <path id="DejaVuSerif-44-3" data-name="DejaVuSerif-44" class="cls-14" d="m105.6,34.45h.82c.85,0,1.51-.24,1.96-.73s.68-1.18.68-2.09-.23-1.6-.68-2.08c-.45-.48-1.11-.72-1.96-.72h-.82v5.62Zm-1.73.47v-.47h.84v-5.62h-.84v-.47h2.61c1.13,0,2.01.29,2.64.87.63.58.95,1.38.95,2.41s-.32,1.84-.95,2.42c-.63.58-1.51.87-2.64.87h-2.61Z"/>
              <path id="DejaVuSerif-4d" class="cls-14" d="m111.09,34.92v-.47h.84v-5.62h-.88v-.47h1.91l2.3,4.67,2.3-4.67h1.79v.47h-.87v5.62h.84v.47h-2.57v-.47h.84v-5.07l-2.25,4.58h-.62l-2.25-4.58v5.07h.84v.47h-2.21Z"/>
            </g>
          </g>
          <g id="patch_9" data-name="patch 9">
            <path class="cls-10" d="m78.18,48.13h18v-6.3h-18v6.3Z"/>
          </g>
          <g id="text_16" data-name="text 16">
            <g>
              <path id="DejaVuSerif-44-4" data-name="DejaVuSerif-44" class="cls-14" d="m105.6,47.66h.82c.85,0,1.51-.24,1.96-.73s.68-1.18.68-2.09-.23-1.6-.68-2.08c-.45-.48-1.11-.72-1.96-.72h-.82v5.62Zm-1.73.47v-.47h.84v-5.62h-.84v-.47h2.61c1.13,0,2.01.29,2.64.87.63.58.95,1.38.95,2.41s-.32,1.84-.95,2.42c-.63.58-1.51.87-2.64.87h-2.61Z"/>
              <path id="DejaVuSerif-4d-2" data-name="DejaVuSerif-4d" class="cls-14" d="m111.09,48.13v-.47h.84v-5.62h-.88v-.47h1.91l2.3,4.67,2.3-4.67h1.79v.47h-.87v5.62h.84v.47h-2.57v-.47h.84v-5.07l-2.25,4.58h-.62l-2.25-4.58v5.07h.84v.47h-2.21Z"/>
              <path id="DejaVuSerif-2b" class="cls-14" d="m126.79,42.49v2.47h2.47v.71h-2.47v2.47h-.7v-2.47h-2.47v-.71h2.47v-2.47h.7Z"/>
              <path id="DejaVuSerif-6f-3" data-name="DejaVuSerif-6f" class="cls-14" d="m135.78,47.82c.43,0,.76-.17.98-.51.22-.34.33-.85.33-1.52s-.11-1.17-.33-1.51c-.22-.34-.55-.51-.98-.51s-.76.17-.98.51-.33.85-.33,1.51.11,1.17.33,1.52c.22.34.55.51.98.51Zm0,.44c-.68,0-1.23-.22-1.64-.67-.41-.45-.62-1.05-.62-1.79s.21-1.34.62-1.79c.41-.45.96-.67,1.64-.67s1.23.22,1.64.67c.41.45.62,1.04.62,1.79s-.21,1.34-.62,1.79-.96.67-1.64.67Z"/>
              <path id="DejaVuSerif-75-4" data-name="DejaVuSerif-75" class="cls-14" d="m141.68,43.46h1.51v4.21h.76v.47h-1.57v-.83c-.15.31-.34.55-.58.71-.24.16-.51.24-.83.24-.52,0-.9-.15-1.14-.44-.24-.3-.37-.76-.37-1.39v-2.5h-.73v-.47h1.54v2.72c0,.57.07.96.21,1.17.14.21.39.32.75.32.38,0,.66-.14.86-.41.2-.28.3-.68.3-1.2v-2.12h-.7v-.47Z"/>
              <path id="DejaVuSerif-72-7" data-name="DejaVuSerif-72" class="cls-14" d="m148.59,43.45v1.17h-.47c-.01-.23-.08-.4-.19-.52s-.28-.17-.5-.17c-.4,0-.7.14-.92.41-.21.28-.32.67-.32,1.19v2.14h.94v.47h-2.47v-.47h.73v-3.74h-.77v-.46h1.58v.83c.16-.33.36-.57.61-.72.25-.16.55-.24.91-.24.13,0,.27.01.41.03s.3.05.46.09Z"/>
              <path id="DejaVuSerif-73-3" data-name="DejaVuSerif-73" class="cls-14" d="m149.1,47.87v-1.09h.47c.01.35.12.61.33.78.21.17.51.26.92.26.36,0,.64-.07.83-.2.19-.14.29-.33.29-.6,0-.2-.07-.37-.21-.49-.14-.13-.43-.26-.88-.4l-.58-.2c-.4-.13-.69-.29-.87-.48-.18-.19-.27-.44-.27-.74,0-.43.16-.76.47-1.01.31-.24.75-.37,1.3-.37.25,0,.51.03.78.1.27.06.55.16.84.28v1.02h-.47c-.01-.3-.12-.54-.32-.71-.2-.17-.47-.25-.81-.25s-.6.06-.77.18-.26.3-.26.54c0,.2.07.35.2.47.13.12.4.24.79.36l.64.2c.44.14.76.31.95.52.2.21.29.47.29.8,0,.44-.17.79-.51,1.04-.34.25-.8.38-1.4.38-.3,0-.6-.03-.88-.1s-.57-.16-.86-.29Z"/>
            </g>
          </g>
          <g id="patch_10" data-name="patch 10">
            <path class="cls-4" d="m78.18,61.34h18v-6.3h-18v6.3Z"/>
          </g>
          <g id="text_17" data-name="text 17">
            <g>
              <path id="DejaVuSerif-52-2" data-name="DejaVuSerif-52" class="cls-14" d="m107.69,58.08c.2.06.38.15.53.28.15.13.28.32.4.56l.95,1.95h.8v.47h-1.55l-1.02-2.09c-.2-.4-.38-.67-.54-.78-.16-.12-.39-.18-.68-.18h-.98v2.58h.93v.47h-2.65v-.47h.84v-5.62h-.84v-.47h3.33c.64,0,1.13.15,1.48.46.35.3.52.74.52,1.3,0,.45-.13.81-.38,1.07-.25.26-.63.42-1.13.49Zm-2.09-.26h1.3c.44,0,.77-.1.98-.31.21-.21.32-.53.32-.97s-.11-.76-.32-.97c-.21-.21-.54-.31-.98-.31h-1.3v2.57Z"/>
              <path id="DejaVuSerif-61-2" data-name="DejaVuSerif-61" class="cls-14" d="m113.94,59.87v-.99h-1.04c-.4,0-.7.09-.9.26-.2.17-.29.44-.29.79,0,.33.1.58.3.77.2.19.47.29.81.29s.61-.1.81-.31c.21-.21.31-.48.31-.81Zm.81-1.45v2.45h.72v.47h-1.53v-.5c-.18.22-.39.38-.62.48-.23.1-.51.15-.82.15-.52,0-.93-.14-1.23-.41-.3-.28-.46-.65-.46-1.12s.17-.86.52-1.12.84-.4,1.48-.4h1.13v-.32c0-.36-.11-.63-.32-.82-.21-.2-.52-.29-.91-.29-.32,0-.58.07-.77.22-.19.15-.31.36-.36.65h-.42v-.94c.28-.12.55-.21.82-.27.27-.06.52-.09.77-.09.65,0,1.14.16,1.48.48.34.32.51.79.51,1.4Z"/>
              <path id="DejaVuSerif-6e-7" data-name="DejaVuSerif-6e" class="cls-14" d="m116.09,61.34v-.47h.73v-3.74h-.77v-.47h1.58v.83c.15-.32.34-.56.58-.72.24-.16.52-.24.83-.24.52,0,.89.15,1.14.44s.36.76.36,1.38v2.51h.72v.47h-2.23v-.47h.7v-2.25c0-.57-.07-.96-.21-1.18-.14-.21-.39-.32-.74-.32-.37,0-.66.14-.86.41-.2.27-.29.67-.29,1.2v2.14h.7v.47h-2.24Z"/>
              <path id="DejaVuSerif-64" class="cls-14" d="m126.24,60.87h.77v.47h-1.58v-.73c-.16.29-.36.51-.6.65-.24.14-.55.21-.91.21-.57,0-1.04-.23-1.41-.68-.36-.46-.55-1.05-.55-1.78s.18-1.33.54-1.78c.36-.45.83-.68,1.41-.68.36,0,.66.07.91.21.24.14.45.35.6.65v-2.43h-.76v-.47h1.57v6.37Zm-.81-1.64v-.46c0-.56-.11-.99-.32-1.28-.21-.3-.53-.44-.94-.44s-.73.16-.94.49c-.21.33-.32.82-.32,1.46s.11,1.13.32,1.46c.21.33.53.5.94.5s.72-.15.94-.44c.22-.29.32-.72.32-1.29Z"/>
              <path id="DejaVuSerif-6f-4" data-name="DejaVuSerif-6f" class="cls-14" d="m129.99,61.03c.43,0,.76-.17.98-.51.22-.34.33-.85.33-1.52s-.11-1.17-.33-1.51c-.22-.34-.55-.51-.98-.51s-.76.17-.98.51-.33.85-.33,1.51.11,1.17.33,1.52c.22.34.55.51.98.51Zm0,.44c-.68,0-1.23-.22-1.64-.67-.41-.45-.62-1.05-.62-1.79s.21-1.34.62-1.79c.41-.45.96-.67,1.64-.67s1.23.22,1.64.67c.41.45.62,1.04.62,1.79s-.21,1.34-.62,1.79-.96.67-1.64.67Z"/>
              <path id="DejaVuSerif-6d" class="cls-14" d="m137.36,57.58c.15-.34.35-.6.59-.78s.52-.26.85-.26c.49,0,.85.15,1.09.46.24.3.36.76.36,1.37v2.51h.73v.47h-2.24v-.47h.7v-2.41c0-.48-.07-.82-.21-1.02s-.37-.3-.7-.3c-.36,0-.63.14-.82.41-.19.27-.28.67-.28,1.19v2.14h.7v.47h-2.21v-.47h.7v-2.44c0-.47-.07-.8-.21-1s-.37-.3-.7-.3c-.36,0-.64.14-.83.41-.19.27-.28.67-.28,1.19v2.14h.7v.47h-2.24v-.47h.73v-3.74h-.77v-.46h1.58v.83c.15-.31.34-.55.57-.71.23-.16.49-.25.79-.25.36,0,.67.09.91.27.24.18.41.44.49.77Z"/>
              <path id="DejaVuSerif-72-8" data-name="DejaVuSerif-72" class="cls-14" d="m148.4,56.66v1.17h-.47c-.01-.23-.08-.4-.19-.52s-.28-.17-.5-.17c-.4,0-.7.14-.92.41-.21.28-.32.67-.32,1.19v2.14h.94v.47h-2.47v-.47h.73v-3.74h-.77v-.46h1.58v.83c.16-.33.36-.57.61-.72.25-.16.55-.24.91-.24.13,0,.27.01.41.03s.3.05.46.09Z"/>
              <path id="DejaVuSerif-65-8" data-name="DejaVuSerif-65" class="cls-14" d="m153.28,59.09h-3.48v.04c0,.63.12,1.11.36,1.43s.59.48,1.05.48c.35,0,.65-.09.87-.28.23-.19.39-.46.48-.83h.65c-.13.51-.37.9-.72,1.16-.35.26-.8.39-1.37.39-.68,0-1.23-.22-1.65-.67-.41-.45-.62-1.05-.62-1.79s.2-1.33.61-1.78c.41-.45.94-.68,1.6-.68.71,0,1.25.22,1.63.65.38.43.57,1.07.59,1.9Zm-.95-.47c-.02-.55-.13-.96-.35-1.23-.21-.28-.52-.41-.92-.41-.37,0-.67.14-.88.42s-.34.69-.39,1.23h2.53Z"/>
              <path id="DejaVuSerif-61-3" data-name="DejaVuSerif-61" class="cls-14" d="m157.31,59.87v-.99h-1.04c-.4,0-.7.09-.9.26-.2.17-.29.44-.29.79,0,.33.1.58.3.77.2.19.47.29.81.29s.61-.1.81-.31c.21-.21.31-.48.31-.81Zm.81-1.45v2.45h.72v.47h-1.53v-.5c-.18.22-.39.38-.62.48-.23.1-.51.15-.82.15-.52,0-.93-.14-1.23-.41-.3-.28-.46-.65-.46-1.12s.17-.86.52-1.12.84-.4,1.48-.4h1.13v-.32c0-.36-.11-.63-.32-.82-.21-.2-.52-.29-.91-.29-.32,0-.58.07-.77.22-.19.15-.31.36-.36.65h-.42v-.94c.28-.12.55-.21.82-.27.27-.06.52-.09.77-.09.65,0,1.14.16,1.48.48.34.32.51.79.51,1.4Z"/>
              <path id="DejaVuSerif-6c" class="cls-14" d="m160.94,60.87h.76v.47h-2.35v-.47h.78v-5.91h-.78v-.47h1.59v6.37Z"/>
            </g>
          </g>
        </g>
      </g>
    </g>
  </g>
</svg>